M48
;Layer_Color=9474304
;FILE_FORMAT=4:4
METRIC,LZ
;TYPE=PLATED
T1F00S00C0.3000
T2F00S00C0.4000
T5F00S00C0.8000
T6F00S00C0.9000
T8F00S00C2.3000
%
T01
X00418814Y0001925
X00418653Y000335
X0040855Y00062437
X0040255
X0039655
X0039055
X00390437Y000685
X00396437
X00402437
X00408438
X00478334Y00027563
X00484334
X00484447Y000215
X00478447
X0065075Y00009278
X00661766Y00044476
X00591566Y00162306
X00585566
X00579566
X00573566
X00345911Y00108491
Y00102491
Y00096491
Y00090491
X0031825Y0004125
X0025425Y000395
Y000335
Y000275
Y000215
X00224983Y00062437
X001844Y00065265
Y00059317
Y00071213
X00197953Y00105491
Y00111491
Y00117491
Y00123491
X002035Y001445
Y001505
Y001565
Y001625
X00242848Y00161438
X00248946
X002565Y0012375
Y0011775
Y0011175
Y0010575
X00278634Y00105491
Y00111491
Y00117491
Y00123491
X002305Y0012375
Y0011775
Y0011175
Y0010575
X00159853Y00105491
Y00111491
Y00117491
Y00123491
X0010825Y001335
X0010225
X0009625
X0009025
Y0015325
X0009625
X0010225
X0010825
X0009398Y00045974
X0008798
X0008198
X0007598
X0002575Y00069
Y00075
Y00081
Y00087
X001615Y0000775
X001211Y00189554
X00115152
X00109204
X001085Y00205
X001025
X000965
X000905
X00144Y00229801
Y00235801
Y00241801
Y00247801
X001874Y00229801
X00223353Y00226185
Y00220185
Y00214185
Y00208185
X0022825Y002675
X0023425
X0024025
X0024625
X00244634Y0030075
X00251483Y0031125
X00242848Y00328848
X00266196Y00337
X002181
X002121
X002061
X002001
Y00324967
X00207Y0032475
Y00380551
X00213
X00219
X00225
X00242848Y00411291
X00266196Y00403221
X00276781
Y00388918
Y00426672
X00271565Y00456574
X00264938
X00258311
X00251684
X0027156Y0049238
X0027756
X00204653Y00491669
X00198653
X0017245Y00443092
X00156295Y00443204
X00125406Y0041575
Y0040975
Y0040375
Y0039775
Y0036444
Y00358439
Y00352439
Y0034644
X00147153Y00370044
X00159853
X001405Y003155
X001874Y00286036
X003175Y00311631
Y00317631
X0032396
Y00311631
X0031975Y0035525
X0031375
X00316484Y0039116
X0033782Y00391668
X0032775Y00415
X0032175
X0031575
X0030975
X003565Y002785
X0036576Y00286036
X000625Y0035425
Y0036025
Y0036625
Y0037225
X00035596Y00367669
X00029596
X00023596
X00017596
X00029609Y00393551
X00035526
X00059652Y0046958
X00065652
X00071652
X00077652
Y00516784
X00071652
X00065652
X00059652
X000275Y002415
Y002355
Y002295
X00375697Y00239421
X00373956Y00211978
X00378199Y00207735
X00382442Y00203493
X00386684Y0019925
X00427053Y00227503
X0042215Y0023294
X0041656Y00238817
X00421679Y00255465
X00429179Y00247965
X0041408Y00263063
X00416069Y00292557
X00420311Y002968
X00424554Y00301042
X00428797Y00305285
X00437922Y00280943
X00442748Y00284956
X0044671Y00280044
X0045173Y00283907
X00447986Y00289734
X00441811Y00275751
X00459135Y00271698
X00469199Y00268148
X004845Y0026075
X00486268Y0024289
X00486154Y00233891
X00525961Y0022619
Y0022019
Y0021419
X0053525Y0018475
X0057225Y002205
X0057825
X0058425
X0059025
X00594022Y00333022
X00598265Y00337265
X00602507Y00341507
X0060675Y0034575
X00544755Y00346127
X00540512Y00341884
X00535835Y00337265
X00531592Y00341507
X00527349Y0034575
X00459597Y00348863
X0041284Y00347484
Y00341484
Y00335484
X00412997Y00401516
Y00411291
Y00420597
X00437642Y00419924
Y00413924
Y00407924
Y00401924
X004605Y004355
X00483069Y00435597
X00505541
X00528013
X00550484
X00572956
X00595428
X00617899
X00662Y0038475
X00479465Y00309903
X00373914Y00293913
X00437642Y00508197
T02
X00427053Y00385716
T05
X00412997Y00385905
Y00435905
X00469586Y00340731
X00504093Y00306224
T06
X00381Y000254
X004064
X004318
X004572
X00508
X005334
X005588
X005842
X006096
X00635
X0063395Y00148192
X0060855
X0058315
X0065935
X003556Y000254
X003302
X003048
X002794
X0030404Y0037536
X0032944
Y00451561
X0030404
X0031496Y00508
X0028956
X0026416
X0023876
X0021336
X0018796
X0034036
X0036576
X0009525Y00393051
X0007525
Y00368051
X0009525
X0039116Y00508
X0041656
X004572
X004826
X00508
X005334
X005588
X005842
X006096
X00635
X00593478Y00291569
X00568078
X00568078Y00266169
X00593478
Y00240769
X00568078
T08
X0004825Y00320351
Y00440751
M30
