G04*
G04 #@! TF.GenerationSoftware,Altium Limited,Altium Designer,23.0.1 (38)*
G04*
G04 Layer_Color=16711935*
%FSLAX44Y44*%
%MOMM*%
G71*
G04*
G04 #@! TF.SameCoordinates,88FC3FB3-D5F9-4073-A5BC-648FF294B969*
G04*
G04*
G04 #@! TF.FilePolarity,Negative*
G04*
G01*
G75*
%ADD66C,3.4160*%
G04:AMPARAMS|DCode=69|XSize=1.9mm|YSize=1.9mm|CornerRadius=0.23mm|HoleSize=0mm|Usage=FLASHONLY|Rotation=0.000|XOffset=0mm|YOffset=0mm|HoleType=Round|Shape=RoundedRectangle|*
%AMROUNDEDRECTD69*
21,1,1.9000,1.4400,0,0,0.0*
21,1,1.4400,1.9000,0,0,0.0*
1,1,0.4600,0.7200,-0.7200*
1,1,0.4600,-0.7200,-0.7200*
1,1,0.4600,-0.7200,0.7200*
1,1,0.4600,0.7200,0.7200*
%
%ADD69ROUNDEDRECTD69*%
%ADD70C,1.9000*%
G04:AMPARAMS|DCode=71|XSize=1.408mm|YSize=1.408mm|CornerRadius=0.1808mm|HoleSize=0mm|Usage=FLASHONLY|Rotation=90.000|XOffset=0mm|YOffset=0mm|HoleType=Round|Shape=RoundedRectangle|*
%AMROUNDEDRECTD71*
21,1,1.4080,1.0464,0,0,90.0*
21,1,1.0464,1.4080,0,0,90.0*
1,1,0.3616,0.5232,0.5232*
1,1,0.3616,0.5232,-0.5232*
1,1,0.3616,-0.5232,-0.5232*
1,1,0.3616,-0.5232,0.5232*
%
%ADD71ROUNDEDRECTD71*%
%ADD72C,1.4080*%
%ADD73C,1.7000*%
%ADD74O,1.9000X0.9500*%
%ADD75O,1.0000X1.5000*%
%ADD76O,1.7000X2.5000*%
G04:AMPARAMS|DCode=77|XSize=0.9mm|YSize=1.6mm|CornerRadius=0.225mm|HoleSize=0mm|Usage=FLASHONLY|Rotation=135.000|XOffset=0mm|YOffset=0mm|HoleType=Round|Shape=RoundedRectangle|*
%AMROUNDEDRECTD77*
21,1,0.9000,1.1500,0,0,135.0*
21,1,0.4500,1.6000,0,0,135.0*
1,1,0.4500,0.2475,0.5657*
1,1,0.4500,0.5657,0.2475*
1,1,0.4500,-0.2475,-0.5657*
1,1,0.4500,-0.5657,-0.2475*
%
%ADD77ROUNDEDRECTD77*%
G04:AMPARAMS|DCode=78|XSize=3.9mm|YSize=2mm|CornerRadius=0.525mm|HoleSize=0mm|Usage=FLASHONLY|Rotation=180.000|XOffset=0mm|YOffset=0mm|HoleType=Round|Shape=RoundedRectangle|*
%AMROUNDEDRECTD78*
21,1,3.9000,0.9500,0,0,180.0*
21,1,2.8500,2.0000,0,0,180.0*
1,1,1.0500,-1.4250,0.4750*
1,1,1.0500,1.4250,0.4750*
1,1,1.0500,1.4250,-0.4750*
1,1,1.0500,-1.4250,-0.4750*
%
%ADD78ROUNDEDRECTD78*%
G04:AMPARAMS|DCode=79|XSize=4.5mm|YSize=2.3mm|CornerRadius=0.6mm|HoleSize=0mm|Usage=FLASHONLY|Rotation=90.000|XOffset=0mm|YOffset=0mm|HoleType=Round|Shape=RoundedRectangle|*
%AMROUNDEDRECTD79*
21,1,4.5000,1.1000,0,0,90.0*
21,1,3.3000,2.3000,0,0,90.0*
1,1,1.2000,0.5500,1.6500*
1,1,1.2000,0.5500,-1.6500*
1,1,1.2000,-0.5500,-1.6500*
1,1,1.2000,-0.5500,1.6500*
%
%ADD79ROUNDEDRECTD79*%
%ADD101C,1.5080*%
G04:AMPARAMS|DCode=102|XSize=1.508mm|YSize=1.508mm|CornerRadius=0.1908mm|HoleSize=0mm|Usage=FLASHONLY|Rotation=270.000|XOffset=0mm|YOffset=0mm|HoleType=Round|Shape=RoundedRectangle|*
%AMROUNDEDRECTD102*
21,1,1.5080,1.1264,0,0,270.0*
21,1,1.1264,1.5080,0,0,270.0*
1,1,0.3816,-0.5632,-0.5632*
1,1,0.3816,-0.5632,0.5632*
1,1,0.3816,0.5632,0.5632*
1,1,0.3816,0.5632,-0.5632*
%
%ADD102ROUNDEDRECTD102*%
G36*
X667401Y327411D02*
X668244Y327391D01*
X668589Y327334D01*
X668962Y327305D01*
X669039Y327286D01*
X669145Y327257D01*
X669288Y327229D01*
X669422Y327210D01*
X669585Y327162D01*
X669748Y327133D01*
X669882Y327114D01*
X669988Y327066D01*
X670112Y327037D01*
X670189Y327018D01*
X670294Y326970D01*
X670438Y326941D01*
X670572Y326884D01*
X670649Y326865D01*
X670783Y326826D01*
X670821Y326788D01*
X670917Y326769D01*
X671128Y326673D01*
X671204Y326654D01*
X671291Y326606D01*
X671396Y326577D01*
X671520Y326510D01*
X671645Y326462D01*
X671683Y326424D01*
X671722Y326405D01*
X671817Y326366D01*
X672181Y326175D01*
X672316Y326098D01*
X672354Y326060D01*
X672488Y325983D01*
X672584Y325926D01*
X672622Y325887D01*
X672756Y325811D01*
X672852Y325753D01*
X672986Y325658D01*
X673025Y325638D01*
X673034Y325610D01*
X673130Y325552D01*
X673235Y325466D01*
X673274Y325447D01*
X673331Y325389D01*
X673369Y325370D01*
X673427Y325313D01*
X673465Y325293D01*
X673523Y325236D01*
X673561Y325217D01*
X673734Y325044D01*
X673772Y325025D01*
X673896Y324901D01*
X674011Y324805D01*
X674031Y324767D01*
X674059Y324757D01*
X674126Y324690D01*
X674145Y324651D01*
X674222Y324575D01*
X674241Y324537D01*
X674318Y324460D01*
X674337Y324422D01*
X674414Y324345D01*
X674433Y324307D01*
X674567Y324173D01*
X674586Y324134D01*
X674644Y324077D01*
X674720Y323943D01*
X674749Y323933D01*
X674778Y323885D01*
X674797Y323847D01*
X674854Y323789D01*
X674874Y323751D01*
X674988Y323559D01*
X675027Y323521D01*
X675084Y323425D01*
X675123Y323387D01*
X675199Y323253D01*
X675295Y323080D01*
X675372Y322946D01*
X675525Y322659D01*
X675544Y322582D01*
X675573Y322553D01*
X675621Y322429D01*
X675697Y322257D01*
X675736Y322122D01*
X675774Y322084D01*
X675812Y321912D01*
X675860Y321806D01*
X675908Y321586D01*
X675956Y321480D01*
X675975Y321404D01*
X675994Y321289D01*
X676052Y321059D01*
X676090Y320752D01*
X676119Y320590D01*
X676138Y320532D01*
X676157Y200780D01*
X676138Y200243D01*
X676119Y200167D01*
X676100Y200033D01*
X676081Y199956D01*
X676052Y199697D01*
X676033Y199621D01*
X675985Y199381D01*
X675966Y199305D01*
X675918Y199180D01*
X675889Y199056D01*
X675870Y198979D01*
X675822Y198854D01*
X675803Y198778D01*
X675774Y198653D01*
X675745Y198624D01*
X675697Y198500D01*
X675649Y198395D01*
X675602Y198270D01*
X675525Y198097D01*
X675506Y198021D01*
X675448Y197963D01*
X675429Y197887D01*
X675352Y197772D01*
X675333Y197695D01*
X675295Y197657D01*
X675142Y197369D01*
X675084Y197312D01*
X675065Y197255D01*
X675027Y197216D01*
X674969Y197120D01*
X674931Y197082D01*
X674854Y196948D01*
X674826Y196938D01*
X674701Y196756D01*
X674682Y196718D01*
X674653Y196689D01*
X674576Y196574D01*
X674538Y196555D01*
X674529Y196526D01*
X674433Y196431D01*
X674414Y196392D01*
X674337Y196316D01*
X674318Y196277D01*
X674260Y196220D01*
X674212Y196153D01*
X674117Y196038D01*
X674078Y196019D01*
X673848Y195789D01*
X673810Y195770D01*
X673599Y195559D01*
X673561Y195540D01*
X673484Y195463D01*
X673446Y195444D01*
X673408Y195406D01*
X673312Y195348D01*
X673274Y195310D01*
X673178Y195252D01*
X673149Y195224D01*
X673044Y195137D01*
X672910Y195042D01*
X672814Y194984D01*
X672737Y194907D01*
X672661Y194888D01*
X672622Y194850D01*
X672526Y194792D01*
X672488Y194754D01*
X672354Y194677D01*
X672181Y194582D01*
X672153Y194553D01*
X672028Y194505D01*
X671990Y194467D01*
X671952Y194447D01*
X671856Y194409D01*
X671760Y194352D01*
X671664Y194313D01*
X671530Y194237D01*
X671434Y194179D01*
X671358Y194160D01*
X671147Y194064D01*
X671070Y194045D01*
X670984Y193997D01*
X670879Y193969D01*
X670754Y193901D01*
X670610Y193873D01*
X670438Y193796D01*
X670304Y193777D01*
X670198Y193729D01*
X670093Y193700D01*
X670016Y193681D01*
X669882Y193624D01*
X669691Y193604D01*
X669614Y193585D01*
X669451Y193537D01*
X669250Y193509D01*
X669173Y193489D01*
X669068Y193461D01*
X668953Y193442D01*
X668579Y193413D01*
X668503Y193394D01*
X668369Y193375D01*
X668311Y193355D01*
X666587Y193336D01*
X666328Y193365D01*
X666232Y193384D01*
X666117Y193403D01*
X665782Y193432D01*
X665648Y193451D01*
X665542Y193480D01*
X665418Y193509D01*
X665284Y193528D01*
X665207Y193547D01*
X665121Y193576D01*
X664824Y193624D01*
X664699Y193671D01*
X664498Y193719D01*
X664393Y193767D01*
X664268Y193796D01*
X664192Y193815D01*
X664086Y193863D01*
X663962Y193892D01*
X663856Y193940D01*
X663732Y193988D01*
X663559Y194064D01*
X663483Y194083D01*
X663358Y194151D01*
X663234Y194179D01*
X663195Y194218D01*
X663042Y194275D01*
X663004Y194313D01*
X662965Y194333D01*
X662869Y194371D01*
X662505Y194562D01*
X662410Y194620D01*
X662295Y194697D01*
X662237Y194716D01*
X662180Y194773D01*
X662084Y194811D01*
X662046Y194850D01*
X661911Y194926D01*
X661816Y194984D01*
X661682Y195080D01*
X661643Y195099D01*
X661634Y195128D01*
X661547Y195176D01*
X661490Y195233D01*
X661452Y195252D01*
X661394Y195310D01*
X661298Y195367D01*
X661222Y195444D01*
X661183Y195463D01*
X661049Y195597D01*
X661011Y195616D01*
X660973Y195674D01*
X660934Y195693D01*
X660465Y196162D01*
X660446Y196201D01*
X660369Y196277D01*
X660350Y196316D01*
X660197Y196469D01*
X660178Y196507D01*
X660101Y196584D01*
X660082Y196622D01*
X660043Y196660D01*
X659756Y197063D01*
X659698Y197159D01*
X659660Y197197D01*
X659603Y197293D01*
X659564Y197331D01*
X659488Y197465D01*
X659296Y197810D01*
X659162Y198059D01*
X659066Y198270D01*
X659028Y198404D01*
X658990Y198442D01*
X658970Y198557D01*
X658894Y198672D01*
X658875Y198787D01*
X658817Y198921D01*
X658779Y199094D01*
X658750Y199199D01*
X658712Y199295D01*
X658673Y199487D01*
X658654Y199563D01*
X658606Y199784D01*
X658587Y199975D01*
X658568Y200033D01*
X658549Y200224D01*
X658530Y200282D01*
X658511Y302809D01*
Y319900D01*
X658539Y320465D01*
X658559Y320618D01*
X658578Y320714D01*
X658597Y320829D01*
X658616Y321002D01*
X658635Y321097D01*
X658654Y321174D01*
X658702Y321394D01*
X658731Y321500D01*
X658769Y321595D01*
X658808Y321787D01*
X658846Y321883D01*
X658875Y321988D01*
X658932Y322122D01*
X658970Y322218D01*
X658990Y322295D01*
X659018Y322324D01*
X659066Y322448D01*
X659085Y322525D01*
X659114Y322553D01*
X659162Y322678D01*
X659181Y322735D01*
X659373Y323080D01*
X659526Y323368D01*
X659564Y323406D01*
X659622Y323502D01*
X659651Y323531D01*
X659814Y323770D01*
X659833Y323809D01*
X659861Y323818D01*
X659890Y323885D01*
X659928Y323923D01*
X659986Y324019D01*
X660043Y324077D01*
X660063Y324115D01*
X660158Y324211D01*
X660178Y324249D01*
X660312Y324383D01*
X660331Y324422D01*
X660427Y324517D01*
X660446Y324556D01*
X660474Y324585D01*
X660570Y324700D01*
X660609Y324719D01*
X661068Y325178D01*
X661107Y325198D01*
X661183Y325274D01*
X661222Y325293D01*
X661279Y325351D01*
X661318Y325370D01*
X661375Y325428D01*
X661471Y325485D01*
X661528Y325542D01*
X661567Y325562D01*
X661624Y325619D01*
X661720Y325677D01*
X661777Y325734D01*
X661816Y325753D01*
X662007Y325868D01*
X662141Y325945D01*
X662180Y325983D01*
X662314Y326060D01*
X662486Y326156D01*
X662515Y326184D01*
X662640Y326232D01*
X662678Y326271D01*
X662831Y326328D01*
X662879Y326376D01*
X662984Y326405D01*
X663071Y326472D01*
X663195Y326520D01*
X663234Y326558D01*
X663310Y326577D01*
X663521Y326673D01*
X663598Y326692D01*
X663684Y326740D01*
X663789Y326769D01*
X663914Y326836D01*
X664038Y326865D01*
X664173Y326922D01*
X664345Y326960D01*
X664469Y327008D01*
X664575Y327037D01*
X664651Y327056D01*
X664786Y327114D01*
X664958Y327133D01*
X665035Y327152D01*
X665140Y327181D01*
X665360Y327229D01*
X665495Y327248D01*
X665590Y327286D01*
X665782Y327305D01*
X665916Y327324D01*
X666165Y327344D01*
X666242Y327363D01*
X666299Y327382D01*
X667181Y327401D01*
X667238Y327420D01*
X667401Y327411D01*
D02*
G37*
%LPC*%
G36*
X666970Y325389D02*
X666548Y325370D01*
X666318Y325332D01*
X666261Y325313D01*
X665954Y325293D01*
X665878Y325274D01*
X665772Y325246D01*
X665696Y325226D01*
X665514Y325198D01*
X665437Y325178D01*
X665274Y325131D01*
X665130Y325102D01*
X665025Y325054D01*
X664920Y325025D01*
X664843Y325006D01*
X664757Y324977D01*
X664661Y324939D01*
X664537Y324910D01*
X664508Y324882D01*
X664383Y324834D01*
X664249Y324776D01*
X664153Y324738D01*
X663981Y324661D01*
X663885Y324623D01*
X663847Y324585D01*
X663770Y324565D01*
X663655Y324489D01*
X663617Y324469D01*
X663540Y324450D01*
X663483Y324393D01*
X663406Y324374D01*
X663329Y324297D01*
X663253Y324278D01*
X663176Y324201D01*
X663100Y324182D01*
X663061Y324144D01*
X662965Y324086D01*
X662927Y324067D01*
X662917Y324038D01*
X662850Y324010D01*
X662793Y323952D01*
X662697Y323895D01*
X662640Y323837D01*
X662601Y323818D01*
X662525Y323741D01*
X662486Y323722D01*
X662410Y323646D01*
X662371Y323627D01*
X662352Y323588D01*
X662314Y323569D01*
X662199Y323454D01*
X662161Y323435D01*
X661940Y323214D01*
X661921Y323176D01*
X661844Y323100D01*
X661825Y323061D01*
X661749Y322985D01*
X661730Y322946D01*
X661634Y322850D01*
X661615Y322812D01*
X661586Y322803D01*
X661519Y322678D01*
X661423Y322544D01*
X661346Y322410D01*
X661308Y322371D01*
X661135Y322046D01*
X661107Y322017D01*
X661059Y321893D01*
X661021Y321854D01*
X660963Y321701D01*
X660934Y321672D01*
X660887Y321548D01*
X660839Y321461D01*
X660771Y321279D01*
X660733Y321184D01*
X660714Y321107D01*
X660695Y320973D01*
X660637Y320839D01*
X660618Y320609D01*
X660580Y320455D01*
X660561Y320398D01*
X660542Y200512D01*
X660561Y200378D01*
X660580Y200301D01*
X660599Y200243D01*
X660637Y199918D01*
X660695Y199784D01*
X660714Y199650D01*
X660762Y199487D01*
X660810Y199362D01*
X660867Y199228D01*
X660906Y199132D01*
X660973Y199008D01*
X661001Y198902D01*
X661059Y198845D01*
X661078Y198768D01*
X661155Y198653D01*
X661174Y198596D01*
X661251Y198481D01*
X661289Y198385D01*
X661318Y198375D01*
X661366Y198270D01*
X661423Y198213D01*
X661500Y198078D01*
X661557Y197983D01*
X661615Y197925D01*
X661634Y197887D01*
X661710Y197810D01*
X661730Y197772D01*
X661835Y197666D01*
X661921Y197561D01*
X661940Y197523D01*
X662065Y197398D01*
X662103Y197379D01*
X662276Y197207D01*
X662314Y197187D01*
X662400Y197101D01*
X662515Y197005D01*
X662620Y196919D01*
X662659Y196900D01*
X662716Y196842D01*
X662755Y196823D01*
X662793Y196785D01*
X662860Y196737D01*
X663042Y196613D01*
X663176Y196536D01*
X663214Y196498D01*
X663483Y196344D01*
X663550Y196297D01*
X663674Y196249D01*
X663713Y196210D01*
X663751Y196191D01*
X663847Y196153D01*
X663942Y196095D01*
X664153Y196000D01*
X664354Y195913D01*
X664479Y195884D01*
X664508Y195856D01*
X664632Y195808D01*
X664718Y195779D01*
X664814Y195741D01*
X664958Y195712D01*
X665063Y195664D01*
X665169Y195635D01*
X665322Y195597D01*
X665418Y195559D01*
X665590Y195540D01*
X665744Y195501D01*
X665849Y195473D01*
X666031Y195444D01*
X666223Y195425D01*
X666452Y195386D01*
X666510Y195367D01*
X667449Y195348D01*
X668100Y195367D01*
X668330Y195406D01*
X668388Y195425D01*
X668656Y195444D01*
X668790Y195463D01*
X668953Y195511D01*
X669250Y195559D01*
X669374Y195607D01*
X669499Y195635D01*
X669604Y195664D01*
X669729Y195712D01*
X669806Y195731D01*
X669911Y195760D01*
X670035Y195808D01*
X670112Y195827D01*
X670208Y195884D01*
X670285Y195904D01*
X670419Y195961D01*
X670515Y196000D01*
X670591Y196019D01*
X670630Y196057D01*
X670706Y196076D01*
X670850Y196162D01*
X670974Y196210D01*
X671013Y196249D01*
X671051Y196268D01*
X671147Y196306D01*
X671281Y196383D01*
X671338Y196440D01*
X671415Y196459D01*
X671472Y196517D01*
X671607Y196593D01*
X671702Y196651D01*
X671741Y196689D01*
X671837Y196747D01*
X671894Y196804D01*
X671932Y196823D01*
X671971Y196862D01*
X672066Y196919D01*
X672143Y196996D01*
X672181Y197015D01*
X672258Y197092D01*
X672296Y197111D01*
X672335Y197168D01*
X672373Y197187D01*
X672402Y197216D01*
X672421Y197255D01*
X672450Y197264D01*
X672747Y197561D01*
X672766Y197599D01*
X672938Y197772D01*
X672958Y197810D01*
X673072Y197925D01*
X673139Y198030D01*
X673264Y198213D01*
X673360Y198347D01*
X673437Y198481D01*
X673494Y198577D01*
X673532Y198672D01*
X673571Y198711D01*
X673590Y198787D01*
X673666Y198902D01*
X673686Y198979D01*
X673724Y199075D01*
X673753Y199104D01*
X673781Y199209D01*
X673848Y199333D01*
X673877Y199458D01*
X673935Y199592D01*
X673973Y199764D01*
X674021Y199870D01*
X674050Y199994D01*
X674069Y200186D01*
X674107Y200339D01*
X674126Y200397D01*
X674145Y240250D01*
Y240269D01*
X674136Y320043D01*
X674117Y320369D01*
X674078Y320522D01*
X674050Y320704D01*
X674031Y320839D01*
X673982Y320944D01*
X673954Y321069D01*
X673935Y321145D01*
X673877Y321279D01*
X673858Y321356D01*
X673781Y321528D01*
X673743Y321662D01*
X673705Y321701D01*
X673686Y321777D01*
X673647Y321873D01*
X673590Y321969D01*
X673551Y322065D01*
X673360Y322410D01*
X673302Y322506D01*
X673264Y322544D01*
X673207Y322640D01*
X673149Y322697D01*
X673130Y322755D01*
X673053Y322831D01*
X673034Y322870D01*
X672977Y322908D01*
X672958Y322946D01*
X672881Y323023D01*
X672833Y323090D01*
X672795Y323109D01*
X672785Y323138D01*
X672296Y323627D01*
X672258Y323646D01*
X672181Y323722D01*
X672143Y323741D01*
X672086Y323799D01*
X672047Y323818D01*
X672009Y323856D01*
X671913Y323914D01*
X671875Y323952D01*
X671702Y324086D01*
X671645Y324105D01*
X671607Y324144D01*
X671472Y324220D01*
X671338Y324316D01*
X671204Y324393D01*
X671166Y324412D01*
X671137Y324441D01*
X671013Y324489D01*
X670974Y324527D01*
X670936Y324546D01*
X670840Y324585D01*
X670802Y324604D01*
X670773Y324632D01*
X670668Y324661D01*
X670610Y324719D01*
X670534Y324738D01*
X670399Y324795D01*
X670304Y324834D01*
X670227Y324853D01*
X670131Y324910D01*
X670035Y324929D01*
X669863Y325006D01*
X669729Y325025D01*
X669624Y325073D01*
X669422Y325121D01*
X669327Y325159D01*
X669154Y325198D01*
X669020Y325217D01*
X668857Y325265D01*
X668694Y325293D01*
X668503Y325313D01*
X668273Y325351D01*
X668215Y325370D01*
X666970Y325389D01*
D02*
G37*
%LPD*%
G36*
X668321Y321662D02*
X668474Y321643D01*
X668656Y321615D01*
X668790Y321595D01*
X668924Y321538D01*
X669001Y321519D01*
X669173Y321442D01*
X669307Y321385D01*
X669576Y321231D01*
X669633Y321174D01*
X669671Y321155D01*
X669748Y321078D01*
X669786Y321059D01*
X669911Y320934D01*
X669930Y320896D01*
X669968Y320877D01*
X670016Y320810D01*
X670103Y320704D01*
X670122Y320666D01*
X670160Y320628D01*
X670179Y320590D01*
X670275Y320455D01*
X670294Y320379D01*
X670352Y320321D01*
X670371Y320245D01*
X670467Y319996D01*
X670486Y319862D01*
X670505Y319804D01*
X670524Y319632D01*
X670543Y319574D01*
X670534Y319220D01*
X670515Y319105D01*
X670467Y318884D01*
X670447Y318808D01*
X670371Y318635D01*
X670352Y318578D01*
X670275Y318444D01*
X670218Y318386D01*
X670198Y318348D01*
X670026Y318175D01*
X669921Y318089D01*
X669786Y318013D01*
X669758Y317984D01*
X669738Y317907D01*
X670419Y317897D01*
X670447Y317869D01*
X670467Y316029D01*
X670447Y315953D01*
X670409Y315934D01*
X664134Y315943D01*
X664105Y315972D01*
X664115Y316173D01*
X664134Y316365D01*
X664153Y316480D01*
X664192Y316671D01*
X664211Y316844D01*
X664230Y317035D01*
X664268Y317227D01*
X664297Y317409D01*
X664316Y317600D01*
X664354Y317831D01*
X664402Y317878D01*
X666548Y317897D01*
X666558Y317965D01*
X666529Y317993D01*
X666491Y318013D01*
X666376Y318089D01*
X666338Y318108D01*
X666242Y318204D01*
X666203Y318223D01*
X666175Y318252D01*
X666155Y318290D01*
X666098Y318348D01*
X666041Y318444D01*
X666002Y318482D01*
X665907Y318654D01*
X665878Y318721D01*
X665849Y318846D01*
X665791Y318980D01*
X665772Y319593D01*
X665791Y319785D01*
X665849Y319976D01*
X665887Y320130D01*
X665945Y320264D01*
X665983Y320360D01*
X666079Y320532D01*
X666146Y320638D01*
X666155Y320647D01*
X666175Y320685D01*
X666213Y320724D01*
X666232Y320762D01*
X666366Y320896D01*
X666385Y320934D01*
X666491Y321040D01*
X666529Y321059D01*
X666606Y321136D01*
X666644Y321155D01*
X666683Y321193D01*
X666817Y321270D01*
X666855Y321308D01*
X666893Y321327D01*
X667037Y321413D01*
X667142Y321442D01*
X667200Y321500D01*
X667353Y321538D01*
X667487Y321595D01*
X667660Y321615D01*
X667717Y321634D01*
X667928Y321653D01*
X667985Y321672D01*
X668321Y321662D01*
D02*
G37*
G36*
X668426Y313721D02*
X668618Y313701D01*
X668752Y313682D01*
X668857Y313634D01*
X668982Y313606D01*
X669154Y313529D01*
X669250Y313491D01*
X669422Y313395D01*
X669518Y313337D01*
X669557Y313299D01*
X669652Y313242D01*
X669729Y313165D01*
X669767Y313146D01*
X669911Y313002D01*
X669930Y312964D01*
X669968Y312945D01*
X669988Y312906D01*
X670045Y312849D01*
X670103Y312753D01*
X670141Y312715D01*
X670218Y312581D01*
X670265Y312533D01*
X670294Y312427D01*
X670352Y312370D01*
X670371Y312293D01*
X670447Y312121D01*
X670467Y311987D01*
X670505Y311833D01*
X670524Y311776D01*
X670543Y311412D01*
X670515Y311153D01*
X670467Y310952D01*
X670447Y310875D01*
X670371Y310703D01*
X670352Y310645D01*
X670275Y310511D01*
X670218Y310454D01*
X670198Y310415D01*
X670045Y310262D01*
X669940Y310176D01*
X669806Y310080D01*
X669710Y310023D01*
X669681Y309994D01*
X669700Y309956D01*
X670447Y309936D01*
X670467Y308097D01*
X670447Y308020D01*
X666912Y308011D01*
X666893D01*
X665791Y308020D01*
X665772Y309783D01*
X665753Y309841D01*
X665791Y309936D01*
X666711Y309956D01*
X666730Y309994D01*
X666606Y310061D01*
X666510Y310118D01*
X666376Y310214D01*
X666338Y310233D01*
X666318Y310272D01*
X666280Y310291D01*
X666203Y310368D01*
X666117Y310473D01*
X666021Y310607D01*
X665868Y310894D01*
X665849Y310971D01*
X665811Y311067D01*
X665791Y311124D01*
X665772Y311661D01*
X665791Y311852D01*
X665811Y311929D01*
X665868Y312140D01*
X665887Y312216D01*
X665935Y312303D01*
X665964Y312408D01*
X666041Y312523D01*
X666060Y312600D01*
X666098Y312638D01*
X666155Y312734D01*
X666175Y312772D01*
X666213Y312810D01*
X666232Y312849D01*
X666366Y312983D01*
X666385Y313021D01*
X666491Y313127D01*
X666529Y313146D01*
X666558Y313174D01*
X666663Y313261D01*
X666797Y313356D01*
X666836Y313376D01*
X666874Y313414D01*
X666912Y313433D01*
X667037Y313500D01*
X667161Y313548D01*
X667200Y313586D01*
X667353Y313625D01*
X667487Y313682D01*
X667660Y313701D01*
X667717Y313721D01*
X668292Y313740D01*
X668426Y313721D01*
D02*
G37*
G36*
X668560Y305635D02*
X668809Y305616D01*
X668943Y305597D01*
X669049Y305568D01*
X669173Y305520D01*
X669461Y305386D01*
X669595Y305309D01*
X669652Y305252D01*
X669691Y305233D01*
X669949Y304974D01*
X670045Y304840D01*
X670103Y304744D01*
X670141Y304706D01*
X670275Y304457D01*
X670361Y304255D01*
X670399Y304102D01*
X670447Y303978D01*
X670467Y303901D01*
X670486Y303709D01*
X670505Y303652D01*
X670524Y303441D01*
X670543Y303384D01*
X670534Y302914D01*
X670515Y302742D01*
X670495Y302646D01*
X670457Y302397D01*
X670438Y302301D01*
X670371Y302119D01*
X670332Y301985D01*
X670304Y301956D01*
X670275Y301851D01*
X670198Y301736D01*
X670179Y301659D01*
X670141Y301621D01*
X670083Y301525D01*
X670026Y301467D01*
X670007Y301429D01*
X669949Y301372D01*
X669930Y301333D01*
X669873Y301276D01*
X669758Y301180D01*
X669738Y301142D01*
X669691Y301113D01*
X669652Y301094D01*
X669614Y301056D01*
X669518Y300998D01*
X669470Y300950D01*
X669346Y300902D01*
X669317Y300874D01*
X669193Y300826D01*
X669106Y300797D01*
X669010Y300759D01*
X668790Y300730D01*
X668733Y300711D01*
X665897Y300692D01*
X665849Y300739D01*
X665830Y302521D01*
X665859Y302550D01*
X668484Y302569D01*
X668675Y302588D01*
X668848Y302665D01*
X668924Y302742D01*
X668962Y302761D01*
X669030Y302885D01*
X669068Y302924D01*
X669087Y303249D01*
X669068Y303326D01*
X669049Y303384D01*
X669030Y303422D01*
X668953Y303537D01*
X668848Y303623D01*
X668752Y303681D01*
X668656Y303719D01*
X667756Y303738D01*
X667736D01*
X666041Y303748D01*
X665954Y303738D01*
X665878Y303757D01*
X665849Y303786D01*
X665830Y305587D01*
X665859Y305616D01*
X665926Y305644D01*
X668560Y305635D01*
D02*
G37*
G36*
X666951Y298622D02*
X666970Y298584D01*
X666989Y298067D01*
X668790Y298047D01*
X669039Y298028D01*
X669116Y298009D01*
X669384Y297971D01*
X669547Y297904D01*
X669671Y297875D01*
X669719Y297827D01*
X669844Y297779D01*
X669882Y297741D01*
X669978Y297683D01*
X669997Y297645D01*
X670035Y297626D01*
X670103Y297559D01*
X670237Y297386D01*
X670313Y297252D01*
X670342Y297223D01*
X670390Y297099D01*
X670438Y297013D01*
X670457Y296936D01*
X670524Y296601D01*
X670543Y296543D01*
X670534Y296151D01*
X670515Y295959D01*
X670495Y295882D01*
X670476Y295786D01*
X670457Y295633D01*
X670438Y295537D01*
X670371Y295355D01*
X670352Y295279D01*
X670304Y295193D01*
X670275Y295087D01*
X670227Y295039D01*
X670093Y295020D01*
X670035Y295039D01*
X670016D01*
X669528Y295049D01*
X669020Y295078D01*
X668991Y295106D01*
X668972Y295164D01*
X668991Y295240D01*
X669010Y295298D01*
X669030Y295604D01*
X669010Y295739D01*
X668972Y295873D01*
X668934Y295911D01*
X668915Y295949D01*
X668838Y296026D01*
X668713Y296074D01*
X668618Y296112D01*
X666999Y296103D01*
X666979Y295126D01*
X666960Y295049D01*
X665878Y295039D01*
X665849Y295068D01*
X665830Y296045D01*
X665772Y296103D01*
X664125Y296122D01*
X664067Y296218D01*
X664086Y296275D01*
X664077Y296955D01*
X664086Y297022D01*
X664115Y297051D01*
X664287Y297147D01*
X664383Y297185D01*
X664479Y297243D01*
X665226Y297607D01*
X665322Y297645D01*
X665418Y297703D01*
X665514Y297741D01*
X665610Y297798D01*
X665686Y297817D01*
X665724Y297856D01*
X665763Y297875D01*
X665811Y297923D01*
X665830Y298555D01*
X665849Y298613D01*
X665926Y298632D01*
X666797Y298622D01*
X666874Y298641D01*
X666951Y298622D01*
D02*
G37*
G36*
X670447Y292826D02*
X670467Y290968D01*
X670447Y290910D01*
X668091Y290891D01*
X667976Y290872D01*
X667851Y290824D01*
X667775Y290805D01*
X667679Y290767D01*
X667641Y290728D01*
X667564Y290709D01*
X667506Y290652D01*
X667468Y290632D01*
X667344Y290508D01*
X667324Y290469D01*
X667267Y290412D01*
X667248Y290354D01*
X667171Y290240D01*
X667152Y290105D01*
X667133Y290048D01*
X667152Y289818D01*
X667171Y289741D01*
X667228Y289646D01*
X667248Y289607D01*
X667286Y289569D01*
X667391Y289483D01*
X667487Y289425D01*
X667593Y289377D01*
X667669Y289358D01*
X667842Y289339D01*
X670447Y289320D01*
X670467Y287442D01*
X670438Y287413D01*
X668139Y287394D01*
X667660Y287413D01*
X667525Y287433D01*
X667296Y287490D01*
X667161Y287509D01*
X667027Y287567D01*
X666951Y287586D01*
X666548Y287778D01*
X666510Y287816D01*
X666414Y287873D01*
X666338Y287950D01*
X666299Y287969D01*
X666251Y288017D01*
X666232Y288055D01*
X666146Y288141D01*
X666021Y288324D01*
X665945Y288458D01*
X665887Y288554D01*
X665868Y288630D01*
X665830Y288764D01*
X665791Y288860D01*
X665772Y289531D01*
X665791Y289665D01*
X665811Y289741D01*
X665868Y289952D01*
X666002Y290240D01*
X666060Y290335D01*
X666117Y290393D01*
X666136Y290431D01*
X666299Y290594D01*
X666472Y290728D01*
X666510Y290747D01*
X666548Y290786D01*
X666644Y290805D01*
X666692Y290853D01*
X666683Y290882D01*
X664134Y290901D01*
X664105Y290929D01*
X664086Y290968D01*
X664105Y291025D01*
X664125Y291274D01*
X664144Y291351D01*
X664182Y291581D01*
X664201Y291658D01*
X664220Y291907D01*
X664259Y292136D01*
X664278Y292194D01*
X664297Y292443D01*
X664316Y292520D01*
X664335Y292711D01*
X664354Y292788D01*
X664441Y292855D01*
X664546Y292845D01*
X665878Y292855D01*
X665897D01*
X670256Y292845D01*
X670419Y292855D01*
X670447Y292826D01*
D02*
G37*
G36*
X668167Y285239D02*
X668417Y285220D01*
X668675Y285191D01*
X668781Y285162D01*
X668905Y285114D01*
X668982Y285095D01*
X669154Y285018D01*
X669403Y284903D01*
X669442Y284865D01*
X669480Y284846D01*
X669614Y284750D01*
X669652Y284731D01*
X669729Y284654D01*
X669767Y284635D01*
X669968Y284434D01*
X669988Y284396D01*
X670045Y284338D01*
X670103Y284242D01*
X670141Y284204D01*
X670218Y284070D01*
X670265Y284022D01*
X670294Y283917D01*
X670352Y283859D01*
X670371Y283783D01*
X670467Y283533D01*
X670486Y283399D01*
X670505Y283323D01*
X670524Y283265D01*
X670543Y282901D01*
X670515Y282642D01*
X670467Y282441D01*
X670447Y282365D01*
X670275Y282001D01*
X670198Y281924D01*
X670179Y281886D01*
X670045Y281752D01*
X669806Y281569D01*
X669710Y281512D01*
X669681Y281483D01*
X669691Y281455D01*
X670304Y281435D01*
X670361Y281455D01*
X670447Y281426D01*
X670467Y279548D01*
X670419Y279500D01*
X665791Y279510D01*
X665772Y281273D01*
X665753Y281330D01*
X665782Y281416D01*
X665849Y281445D01*
X666702Y281435D01*
X666730Y281464D01*
X666721Y281493D01*
X666472Y281627D01*
X666414Y281684D01*
X666376Y281704D01*
X666299Y281780D01*
X666261Y281800D01*
X666175Y281886D01*
X666155Y281924D01*
X666117Y281962D01*
X666021Y282096D01*
X665868Y282384D01*
X665830Y282518D01*
X665791Y282614D01*
X665772Y283227D01*
X665791Y283304D01*
X665811Y283438D01*
X665849Y283533D01*
X665868Y283648D01*
X665926Y283783D01*
X665964Y283878D01*
Y283897D01*
X666079Y284108D01*
X666155Y284242D01*
X666213Y284300D01*
X666232Y284338D01*
X666309Y284415D01*
X666328Y284453D01*
X666510Y284635D01*
X666548Y284654D01*
X666625Y284731D01*
X666663Y284750D01*
X666721Y284808D01*
X666759Y284827D01*
X666874Y284903D01*
X666970Y284942D01*
X667008Y284980D01*
X667104Y285018D01*
X667228Y285086D01*
X667353Y285114D01*
X667487Y285172D01*
X667621Y285191D01*
X667679Y285210D01*
X668024Y285229D01*
X668081Y285248D01*
X668167Y285239D01*
D02*
G37*
G36*
X670447Y277096D02*
X670467Y275218D01*
X670438Y275189D01*
X668100Y275170D01*
X668024Y275151D01*
X667813Y275093D01*
X667564Y274978D01*
X667506Y274921D01*
X667468Y274902D01*
X667344Y274777D01*
X667324Y274739D01*
X667267Y274681D01*
X667171Y274509D01*
X667152Y274375D01*
X667133Y274317D01*
X667152Y274068D01*
X667190Y273972D01*
X667248Y273877D01*
X667315Y273810D01*
X667353Y273790D01*
X667391Y273752D01*
X667487Y273695D01*
X667621Y273637D01*
X670419Y273618D01*
X670447Y273589D01*
X670467Y271712D01*
X670438Y271683D01*
X668445Y271664D01*
X667794Y271683D01*
X667775D01*
X667612Y271692D01*
X667497Y271712D01*
X667420Y271731D01*
X667200Y271779D01*
X667094Y271807D01*
X666912Y271874D01*
X666663Y271989D01*
X666568Y272047D01*
X666433Y272143D01*
X666395Y272162D01*
X666203Y272353D01*
X666117Y272459D01*
X666021Y272593D01*
X665907Y272804D01*
X665878Y272871D01*
X665849Y272995D01*
X665791Y273129D01*
X665772Y273800D01*
X665811Y274030D01*
X665849Y274126D01*
X665868Y274241D01*
X665983Y274490D01*
X666060Y274624D01*
X666098Y274662D01*
X666155Y274758D01*
X666184Y274787D01*
X666223Y274806D01*
X666232Y274835D01*
X666280Y274883D01*
X666318Y274902D01*
X666328Y274930D01*
X666606Y275132D01*
X666749Y275199D01*
X666740Y275247D01*
X665935Y275266D01*
X665907Y275294D01*
X665887Y277076D01*
X665916Y277105D01*
X670419Y277124D01*
X670447Y277096D01*
D02*
G37*
G36*
Y269278D02*
X670467Y267381D01*
X670438Y267353D01*
X668139Y267333D01*
X667832Y267257D01*
X667583Y267142D01*
X667487Y267084D01*
X667344Y266941D01*
X667324Y266902D01*
X667267Y266845D01*
X667248Y266787D01*
X667171Y266672D01*
X667152Y266538D01*
X667133Y266481D01*
X667152Y266251D01*
X667171Y266174D01*
X667228Y266078D01*
X667248Y266040D01*
X667353Y265935D01*
X667602Y265801D01*
X670419Y265781D01*
X670447Y265753D01*
X670467Y263932D01*
X670438Y263846D01*
X668158Y263827D01*
X667851Y263846D01*
X667602Y263865D01*
X667411Y263885D01*
X667248Y263932D01*
X667104Y263961D01*
X666912Y264038D01*
X666702Y264134D01*
X666510Y264249D01*
X666472Y264268D01*
X666433Y264306D01*
X666395Y264325D01*
X666318Y264402D01*
X666280Y264421D01*
X666251Y264450D01*
X666232Y264488D01*
X666155Y264565D01*
X666136Y264603D01*
X666079Y264660D01*
X666060Y264699D01*
X665964Y264833D01*
X665945Y264910D01*
X665916Y264938D01*
X665868Y265063D01*
X665830Y265197D01*
X665791Y265293D01*
X665772Y265925D01*
X665791Y266117D01*
X665839Y266280D01*
X665868Y266385D01*
X665926Y266519D01*
X665945Y266557D01*
X665983Y266653D01*
X666041Y266749D01*
X666117Y266826D01*
X666136Y266864D01*
X666338Y267065D01*
X666376Y267084D01*
X666414Y267123D01*
X666520Y267190D01*
X666673Y267285D01*
X666692Y267324D01*
X666654Y267343D01*
X664211Y267333D01*
X664134Y267353D01*
X664086Y267400D01*
X664096Y267448D01*
X664125Y267630D01*
X664153Y267889D01*
X664173Y267966D01*
X664192Y268081D01*
X664230Y268426D01*
X664268Y268617D01*
X664287Y268732D01*
X664316Y269029D01*
X664335Y269106D01*
X664354Y269240D01*
X664383Y269269D01*
X667602Y269288D01*
X667621D01*
X670447Y269278D01*
D02*
G37*
G36*
X666960Y261729D02*
X666979Y261212D01*
X667008Y261183D01*
X668886Y261164D01*
X669145Y261135D01*
X669327Y261106D01*
X669403Y261087D01*
X669489Y261058D01*
X669614Y261010D01*
X669671Y260991D01*
X669710Y260972D01*
X669748Y260934D01*
X669825Y260915D01*
X669863Y260876D01*
X669959Y260819D01*
X670179Y260599D01*
X670198Y260560D01*
X670237Y260522D01*
X670313Y260388D01*
X670371Y260292D01*
X670447Y260119D01*
X670467Y260005D01*
X670486Y259928D01*
X670505Y259870D01*
X670524Y259717D01*
X670543Y259660D01*
X670534Y259267D01*
X670515Y259075D01*
X670495Y258999D01*
X670467Y258836D01*
X670447Y258702D01*
X670390Y258568D01*
X670371Y258453D01*
X670294Y258280D01*
X670256Y258184D01*
X670208Y258156D01*
X669738Y258165D01*
X669097Y258194D01*
X668991Y258223D01*
X668972Y258280D01*
X668991Y258357D01*
X669010Y258414D01*
X669030Y258778D01*
X668972Y259008D01*
X668828Y259152D01*
X668790Y259171D01*
X668694Y259209D01*
X667123Y259229D01*
X667066Y259248D01*
X666999Y259219D01*
X666979Y258204D01*
X666951Y258175D01*
X665935Y258156D01*
X665849Y258184D01*
X665830Y259123D01*
X665801Y259209D01*
X665092Y259229D01*
X664192D01*
X664105Y259257D01*
X664077Y259324D01*
X664086Y260024D01*
X664067Y260081D01*
X664096Y260148D01*
X664192Y260206D01*
X664230Y260244D01*
X664383Y260302D01*
X664421Y260340D01*
X664460Y260359D01*
X665054Y260646D01*
X665150Y260685D01*
X665188Y260723D01*
X665265Y260742D01*
X665360Y260800D01*
X665456Y260838D01*
X665552Y260896D01*
X665648Y260934D01*
X665744Y260991D01*
X665782Y261010D01*
X665811Y261039D01*
X665830Y261710D01*
X665859Y261739D01*
X666932Y261758D01*
X666960Y261729D01*
D02*
G37*
G36*
X670447Y255943D02*
X670467Y254065D01*
X670438Y254036D01*
X667909Y254017D01*
X667698Y253921D01*
X667554Y253777D01*
X667535Y253739D01*
X667449Y253596D01*
X667420Y253490D01*
X667363Y253356D01*
X667334Y253174D01*
X667305Y252934D01*
X667286Y252877D01*
X667267Y252436D01*
X667248Y252360D01*
X667200Y252331D01*
X667152Y252340D01*
X667027Y252369D01*
X666836Y252388D01*
X666730Y252417D01*
X666635Y252436D01*
X666520Y252455D01*
X666366Y252475D01*
X666271Y252494D01*
X666117Y252532D01*
X665897Y252561D01*
X665878D01*
X665791Y252589D01*
X665772Y252781D01*
X665791Y252915D01*
X665820Y253021D01*
X665868Y253145D01*
X665983Y253394D01*
X666041Y253452D01*
X666060Y253490D01*
X666117Y253547D01*
X666165Y253615D01*
X666203Y253634D01*
X666232Y253662D01*
X666338Y253749D01*
X666376Y253768D01*
X666414Y253806D01*
X666452Y253825D01*
X666596Y253912D01*
X666702Y253940D01*
X666730Y253969D01*
X666721Y253998D01*
X666654Y254027D01*
X666012Y254017D01*
X665907Y254046D01*
X665887Y255923D01*
X665916Y255952D01*
X670419Y255971D01*
X670447Y255943D01*
D02*
G37*
G36*
X668752Y250415D02*
X668943Y250357D01*
X669078Y250338D01*
X669212Y250281D01*
X669384Y250204D01*
X669518Y250127D01*
X669614Y250070D01*
X669691Y249993D01*
X669729Y249974D01*
X669949Y249754D01*
X670007Y249658D01*
X670064Y249601D01*
X670083Y249562D01*
X670179Y249428D01*
X670198Y249351D01*
X670246Y249303D01*
X670294Y249179D01*
X670371Y249007D01*
X670409Y248853D01*
X670447Y248757D01*
X670467Y248681D01*
X670486Y248489D01*
X670505Y248432D01*
X670524Y248221D01*
X670543Y248164D01*
X670534Y247675D01*
X670515Y247502D01*
X670476Y247292D01*
X670457Y247177D01*
X670438Y247081D01*
X670371Y246899D01*
X670332Y246765D01*
X670304Y246736D01*
X670275Y246631D01*
X670198Y246516D01*
X670179Y246439D01*
X670122Y246382D01*
X670103Y246343D01*
X670007Y246209D01*
X669988Y246171D01*
X669767Y245951D01*
X669729Y245931D01*
X669691Y245893D01*
X669557Y245797D01*
X669422Y245721D01*
X669384Y245682D01*
X669346Y245663D01*
X669221Y245615D01*
X669125Y245577D01*
X669001Y245548D01*
X668867Y245510D01*
X668809Y245491D01*
X665878Y245471D01*
X665849Y245500D01*
X665830Y247282D01*
X665859Y247311D01*
X665926Y247340D01*
X668254Y247330D01*
X668560Y247349D01*
X668828Y247426D01*
X668886Y247483D01*
X668953Y247531D01*
X669030Y247665D01*
X669068Y247704D01*
X669087Y248029D01*
X669068Y248106D01*
X668991Y248278D01*
X668886Y248384D01*
X668675Y248499D01*
X666932Y248518D01*
X666912Y248518D01*
X665878D01*
X665849Y248547D01*
X665830Y250386D01*
X665859Y250415D01*
X668330Y250434D01*
X668752Y250415D01*
D02*
G37*
G36*
X670447Y243067D02*
X670467Y241189D01*
X670438Y241160D01*
X669078Y241141D01*
X668120D01*
X667985Y241122D01*
X667889Y241084D01*
X667813Y241065D01*
X667564Y240950D01*
X667525Y240911D01*
X667487Y240892D01*
X667305Y240710D01*
X667209Y240538D01*
X667171Y240499D01*
X667152Y240346D01*
X667133Y240289D01*
X667152Y240059D01*
X667248Y239848D01*
X667296Y239800D01*
X667334Y239781D01*
X667372Y239743D01*
X667506Y239666D01*
X667641Y239608D01*
X670419Y239589D01*
X670447Y239561D01*
X670467Y237683D01*
X670399Y237635D01*
X670332Y237645D01*
X667669Y237664D01*
X667516Y237683D01*
X667363Y237721D01*
X667181Y237750D01*
X666932Y237846D01*
X666529Y238037D01*
X666472Y238095D01*
X666433Y238114D01*
X666376Y238171D01*
X666338Y238190D01*
X666203Y238325D01*
X666117Y238430D01*
X666021Y238564D01*
X665907Y238775D01*
X665878Y238842D01*
X665849Y238967D01*
X665791Y239101D01*
X665772Y239733D01*
X665791Y239925D01*
X665811Y240001D01*
X665849Y240097D01*
X665868Y240212D01*
X666002Y240499D01*
X666060Y240595D01*
X666098Y240634D01*
X666155Y240729D01*
X666347Y240921D01*
X666462Y240998D01*
X666568Y241084D01*
X666749Y241170D01*
X666740Y241218D01*
X666673Y241247D01*
X665993Y241237D01*
X665906Y241266D01*
X665887Y243048D01*
X665916Y243076D01*
X670419Y243096D01*
X670447Y243067D01*
D02*
G37*
G36*
X668263Y235499D02*
X668436Y235479D01*
X668618Y235451D01*
X668752Y235431D01*
X668886Y235374D01*
X668962Y235355D01*
X669097Y235297D01*
X669135Y235278D01*
X669269Y235221D01*
X669403Y235144D01*
X669499Y235087D01*
X669557Y235029D01*
X669595Y235010D01*
X669671Y234933D01*
X669710Y234914D01*
X669892Y234732D01*
X669940Y234665D01*
X670026Y234560D01*
X670122Y234426D01*
X670198Y234291D01*
X670256Y234196D01*
X670294Y234100D01*
X670313Y234023D01*
X670342Y233994D01*
X670371Y233889D01*
X670409Y233736D01*
X670428Y233678D01*
X670447Y233468D01*
X670467Y233410D01*
X670457Y233036D01*
X670438Y232864D01*
X670419Y232768D01*
X670399Y232691D01*
X670371Y232548D01*
X670323Y232423D01*
X670256Y232241D01*
X670218Y232203D01*
X670198Y232146D01*
X670103Y232011D01*
X670083Y231973D01*
X670026Y231915D01*
X670007Y231877D01*
X669921Y231791D01*
X669854Y231743D01*
X669834Y231705D01*
X669806Y231695D01*
X669777Y231666D01*
X669758Y231628D01*
X669786Y231599D01*
X669873Y231609D01*
X670064Y231647D01*
X670227Y231676D01*
X670380Y231714D01*
X670515Y231772D01*
X670725Y231868D01*
X670783Y231925D01*
X670821Y231944D01*
X670907Y232031D01*
X670927Y232069D01*
X670965Y232107D01*
X671022Y232203D01*
X671089Y232327D01*
X671118Y232452D01*
X671137Y232509D01*
X671156Y232682D01*
X671176Y232739D01*
X671166Y232979D01*
X671147Y233190D01*
X671118Y233410D01*
X671147Y233496D01*
X671358Y233515D01*
X671549Y233535D01*
X671875Y233573D01*
X671952Y233592D01*
X672450Y233630D01*
X672488Y233573D01*
X672536Y233333D01*
X672555Y233276D01*
X672574Y232299D01*
X672536Y232031D01*
X672517Y231973D01*
X672478Y231724D01*
X672421Y231590D01*
X672402Y231494D01*
X672306Y231283D01*
X672268Y231187D01*
X672114Y230919D01*
X672038Y230842D01*
X672019Y230804D01*
X671961Y230747D01*
X671942Y230708D01*
X671913Y230680D01*
X671875Y230660D01*
X671837Y230603D01*
X671798Y230584D01*
X671750Y230536D01*
X671645Y230450D01*
X671472Y230316D01*
X671415Y230296D01*
X671377Y230258D01*
X671166Y230143D01*
X671128Y230124D01*
X670955Y230047D01*
X670802Y230009D01*
X670697Y229961D01*
X670553Y229932D01*
X670476Y229913D01*
X670371Y229884D01*
X670275Y229865D01*
X670160Y229846D01*
X669786Y229818D01*
X669729Y229798D01*
X667372Y229779D01*
X667353Y229779D01*
X665820D01*
X665791Y229808D01*
X665772Y231705D01*
X665820Y231753D01*
X665926Y231743D01*
X666357Y231753D01*
X666414Y231733D01*
X666558Y231743D01*
X666635Y231762D01*
X666625Y231810D01*
X666452Y231906D01*
X666357Y231963D01*
X666203Y232117D01*
X666117Y232222D01*
X666021Y232356D01*
X665868Y232644D01*
X665830Y232778D01*
X665791Y232873D01*
X665772Y233468D01*
X665791Y233659D01*
X665839Y233822D01*
X665868Y233946D01*
X665964Y234196D01*
X666021Y234291D01*
X666060Y234387D01*
X666117Y234445D01*
X666136Y234483D01*
X666232Y234617D01*
X666251Y234655D01*
X666424Y234828D01*
X666443Y234866D01*
X666491Y234895D01*
X666663Y235029D01*
X666759Y235087D01*
X666836Y235163D01*
X666912Y235182D01*
X666960Y235230D01*
X667142Y235297D01*
X667181Y235336D01*
X667276Y235355D01*
X667449Y235431D01*
X667641Y235451D01*
X667698Y235470D01*
X667928Y235489D01*
X667985Y235508D01*
X668263Y235499D01*
D02*
G37*
G36*
X669767Y227499D02*
X669863Y227461D01*
X669940Y227442D01*
X669997Y227422D01*
X670131Y227346D01*
X670189Y227288D01*
X670256Y227240D01*
X670275Y227202D01*
X670313Y227164D01*
X670390Y227030D01*
X670447Y226934D01*
X670467Y226838D01*
X670486Y226781D01*
X670505Y226608D01*
X670524Y226551D01*
X670505Y226263D01*
X670486Y226206D01*
X670467Y226052D01*
X670352Y225803D01*
X670227Y225679D01*
X670055Y225545D01*
X669930Y225497D01*
X669921Y225487D01*
X669863Y225468D01*
X669767Y225449D01*
X669710Y225430D01*
X669451Y225439D01*
X669355Y225459D01*
X669173Y225526D01*
X669058Y225602D01*
X669020Y225621D01*
X668895Y225746D01*
X668876Y225784D01*
X668838Y225823D01*
X668723Y226014D01*
X668685Y226167D01*
X668646Y226263D01*
X668656Y226694D01*
X668675Y226771D01*
X668704Y226876D01*
X668819Y227125D01*
X668876Y227183D01*
X668895Y227221D01*
X668943Y227269D01*
X668982Y227288D01*
X669001Y227327D01*
X669039Y227346D01*
X669154Y227422D01*
X669193Y227442D01*
X669269Y227461D01*
X669365Y227499D01*
X669576Y227518D01*
X669767Y227499D01*
D02*
G37*
G36*
X670447Y223140D02*
X670467Y221301D01*
X670447Y221224D01*
X670409Y221205D01*
X669269Y221215D01*
X669193Y221195D01*
X669087Y221090D01*
X669068Y221052D01*
X669010Y220994D01*
X668991Y220956D01*
X668915Y220879D01*
X668895Y220841D01*
X668838Y220783D01*
X668781Y220688D01*
X668809Y220659D01*
X668876Y220630D01*
X668953Y220611D01*
X669078Y220563D01*
X669154Y220544D01*
X669288Y220486D01*
X669365Y220467D01*
X669576Y220371D01*
X669652Y220352D01*
X669700Y220304D01*
X669825Y220257D01*
X669863Y220218D01*
X669959Y220161D01*
X670035Y220084D01*
X670074Y220065D01*
X670083Y220036D01*
X670179Y219940D01*
X670198Y219902D01*
X670275Y219825D01*
X670294Y219749D01*
X670342Y219701D01*
X670390Y219576D01*
X670438Y219471D01*
X670476Y219260D01*
X670505Y219097D01*
X670524Y219040D01*
X670543Y218542D01*
X670524Y218235D01*
X670505Y218158D01*
X670457Y218111D01*
X670313Y218082D01*
X669959Y218053D01*
X669882Y218034D01*
X669652Y217996D01*
X669461Y217976D01*
X669039Y217938D01*
X669010Y217967D01*
X669030Y218158D01*
X669049Y218216D01*
X669039Y218436D01*
X669020Y218532D01*
X668991Y218657D01*
X668943Y218743D01*
X668867Y218858D01*
X668828Y218877D01*
X668752Y218954D01*
X668713Y218973D01*
X668570Y219059D01*
X668464Y219088D01*
X668359Y219136D01*
X668158Y219184D01*
X668005Y219222D01*
X667870Y219260D01*
X667794Y219241D01*
X667746Y219193D01*
X667688Y219097D01*
X667660Y219069D01*
X667497Y218829D01*
X667305Y218561D01*
X667248Y218465D01*
X667190Y218407D01*
X667171Y218369D01*
X666979Y218101D01*
X666960Y218063D01*
X666864Y217929D01*
X666845Y217890D01*
X666807Y217852D01*
X666788Y217813D01*
X666740Y217785D01*
X666683Y217804D01*
X666625Y217861D01*
X666587Y217881D01*
X666548Y217919D01*
X666443Y217986D01*
X666203Y218168D01*
X666165Y218187D01*
X666127Y218225D01*
X666088Y218245D01*
X666050Y218283D01*
X665945Y218350D01*
X665839Y218436D01*
X665801Y218455D01*
X665744Y218513D01*
X665705Y218532D01*
X665667Y218570D01*
X665533Y218647D01*
X665475Y218704D01*
X665437Y218724D01*
X665399Y218762D01*
X665360Y218781D01*
X665322Y218839D01*
X665332Y218887D01*
X665408Y218963D01*
X665427Y219002D01*
X665485Y219059D01*
X665504Y219097D01*
X665581Y219174D01*
X665600Y219212D01*
X665657Y219270D01*
X665676Y219308D01*
X665753Y219385D01*
X665772Y219423D01*
X665849Y219500D01*
X665868Y219538D01*
X665945Y219615D01*
X665964Y219653D01*
X666021Y219710D01*
X666041Y219749D01*
X666117Y219825D01*
X666136Y219864D01*
X666165Y219892D01*
X666251Y219998D01*
X666385Y220170D01*
X666433Y220237D01*
X666529Y220352D01*
X666568Y220371D01*
X666596Y220419D01*
X666615Y220458D01*
X666644Y220467D01*
X666692Y220534D01*
X666711Y220573D01*
X666769Y220630D01*
X666788Y220668D01*
X666864Y220745D01*
X666884Y220783D01*
X666960Y220860D01*
X666979Y220898D01*
X667037Y220956D01*
X667056Y220994D01*
X667133Y221071D01*
X667190Y221167D01*
X667161Y221195D01*
X667047Y221215D01*
X666989Y221195D01*
X666979Y221205D01*
X664192Y221195D01*
X664115Y221215D01*
X664086Y221243D01*
X664115Y221444D01*
X664134Y221636D01*
X664153Y221751D01*
X664192Y221943D01*
X664220Y222240D01*
X664240Y222316D01*
X664278Y222546D01*
X664297Y222623D01*
X664316Y222872D01*
X664354Y223102D01*
X664441Y223169D01*
X664546Y223159D01*
X670323Y223169D01*
X670342Y223169D01*
X670399Y223188D01*
X670447Y223140D01*
D02*
G37*
G36*
Y215763D02*
X670467Y213905D01*
X670447Y213847D01*
X667937Y213828D01*
X667842Y213809D01*
X667717Y213761D01*
X667621Y213723D01*
X667458Y213617D01*
X667439Y213579D01*
X667411Y213570D01*
X667382Y213541D01*
X667324Y213445D01*
X667276Y213397D01*
X667228Y213272D01*
X667209Y213196D01*
X667190Y213062D01*
X667209Y212985D01*
X667228Y212928D01*
X667248Y212813D01*
X667305Y212755D01*
X667324Y212717D01*
X667430Y212631D01*
X667468Y212612D01*
X667497Y212583D01*
X667621Y212535D01*
X667717Y212496D01*
X667899Y212468D01*
X670447Y212449D01*
X670467Y210609D01*
X670447Y210533D01*
X667985Y210523D01*
X667832Y210485D01*
X667736Y210446D01*
X667602Y210389D01*
X667506Y210331D01*
X667363Y210188D01*
X667344Y210149D01*
X667305Y210111D01*
X667286Y210073D01*
X667257Y210044D01*
X667238Y209967D01*
X667209Y209843D01*
X667190Y209785D01*
X667200Y209699D01*
X667219Y209622D01*
X667248Y209498D01*
X667305Y209440D01*
X667324Y209402D01*
X667430Y209316D01*
X667468Y209297D01*
X667497Y209268D01*
X667621Y209220D01*
X667717Y209182D01*
X667899Y209153D01*
X670447Y209134D01*
X670467Y207237D01*
X670438Y207208D01*
X668254Y207189D01*
X667947Y207208D01*
X667525Y207227D01*
X667449Y207247D01*
X667344Y207275D01*
X667200Y207304D01*
X667123Y207323D01*
X666989Y207381D01*
X666893Y207400D01*
X666769Y207467D01*
X666644Y207515D01*
X666606Y207553D01*
X666472Y207630D01*
X666376Y207687D01*
X666136Y207927D01*
X666117Y207965D01*
X666088Y207975D01*
X666002Y208118D01*
X665868Y208368D01*
X665830Y208502D01*
X665791Y208597D01*
X665772Y209172D01*
X665791Y209364D01*
X665811Y209440D01*
X665839Y209527D01*
X665868Y209651D01*
X665926Y209785D01*
X665945Y209824D01*
X665983Y209919D01*
X666060Y210054D01*
X666098Y210092D01*
X666155Y210188D01*
X666395Y210427D01*
X666433Y210446D01*
X666491Y210504D01*
X666529Y210523D01*
X666596Y210590D01*
X666692Y210628D01*
X666711Y210705D01*
X666683Y210734D01*
X666587Y210791D01*
X666452Y210887D01*
X666414Y210906D01*
X666357Y210964D01*
X666318Y210983D01*
X666203Y211098D01*
X666117Y211203D01*
X666021Y211337D01*
X665868Y211625D01*
X665849Y211682D01*
Y211701D01*
X665830Y211759D01*
X665791Y211855D01*
X665772Y212430D01*
X665791Y212621D01*
X665811Y212698D01*
X665839Y212784D01*
X665868Y212889D01*
X666002Y213177D01*
X666069Y213282D01*
X666108Y213301D01*
X666136Y213349D01*
X666155Y213388D01*
X666328Y213560D01*
X666433Y213646D01*
X666472Y213665D01*
X666500Y213694D01*
X666606Y213780D01*
X666769Y213867D01*
X666759Y213914D01*
X665974Y213934D01*
X665887Y213962D01*
X665897Y215754D01*
X665935Y215773D01*
X665993Y215792D01*
X670275Y215783D01*
X670419Y215792D01*
X670447Y215763D01*
D02*
G37*
G36*
X668426Y205024D02*
X668618Y205005D01*
X668752Y204986D01*
X668857Y204938D01*
X668982Y204909D01*
X669154Y204832D01*
X669250Y204794D01*
X669422Y204698D01*
X669518Y204641D01*
X669557Y204603D01*
X669652Y204545D01*
X669729Y204468D01*
X669767Y204449D01*
X669911Y204305D01*
X669930Y204267D01*
X669968Y204248D01*
X669988Y204210D01*
X670045Y204152D01*
X670103Y204056D01*
X670141Y204018D01*
X670218Y203884D01*
X670265Y203836D01*
X670294Y203731D01*
X670352Y203673D01*
X670371Y203597D01*
X670447Y203424D01*
X670467Y203290D01*
X670505Y203137D01*
X670524Y203079D01*
X670543Y202715D01*
X670515Y202456D01*
X670467Y202255D01*
X670447Y202179D01*
X670371Y202006D01*
X670352Y201949D01*
X670275Y201815D01*
X670218Y201757D01*
X670198Y201719D01*
X670045Y201566D01*
X669940Y201479D01*
X669806Y201383D01*
X669710Y201326D01*
X669681Y201297D01*
X669700Y201259D01*
X670447Y201240D01*
X670467Y199400D01*
X670438Y199314D01*
X665791Y199324D01*
X665772Y201087D01*
X665753Y201144D01*
X665791Y201240D01*
X666711Y201259D01*
X666730Y201297D01*
X666606Y201364D01*
X666510Y201422D01*
X666376Y201518D01*
X666338Y201537D01*
X666318Y201575D01*
X666280Y201594D01*
X666203Y201671D01*
X666117Y201776D01*
X666021Y201910D01*
X665868Y202198D01*
X665849Y202274D01*
X665811Y202370D01*
X665791Y202428D01*
X665772Y202964D01*
X665791Y203156D01*
X665811Y203232D01*
X665868Y203443D01*
X665887Y203520D01*
X665935Y203606D01*
X665964Y203711D01*
X666041Y203827D01*
X666060Y203903D01*
X666117Y203961D01*
X666136Y203999D01*
X666251Y204171D01*
X666261Y204181D01*
X666366Y204286D01*
X666385Y204325D01*
X666491Y204430D01*
X666529Y204449D01*
X666558Y204478D01*
X666663Y204564D01*
X666797Y204660D01*
X666836Y204679D01*
X666874Y204717D01*
X666912Y204737D01*
X667037Y204804D01*
X667161Y204852D01*
X667200Y204890D01*
X667353Y204928D01*
X667487Y204986D01*
X667660Y205005D01*
X667717Y205024D01*
X668292Y205043D01*
X668426Y205024D01*
D02*
G37*
%LPC*%
G36*
X668120Y319718D02*
X667928Y319699D01*
X667851Y319679D01*
X667641Y319584D01*
X667583Y319526D01*
X667545Y319507D01*
X667439Y319402D01*
X667420Y319363D01*
X667382Y319325D01*
X667267Y319114D01*
Y319095D01*
X667248Y318961D01*
X667228Y318904D01*
X667248Y318597D01*
X667324Y318424D01*
X667344Y318348D01*
X667401Y318290D01*
X667420Y318252D01*
X667621Y318051D01*
X667717Y318013D01*
X667755Y317974D01*
X667822Y317945D01*
X667985Y317917D01*
X668043Y317897D01*
X668244Y317907D01*
X668426Y317936D01*
X668675Y318051D01*
X668713Y318089D01*
X668781Y318137D01*
X668828Y318204D01*
X668867Y318223D01*
X668876Y318252D01*
X668972Y318386D01*
X669010Y318482D01*
X669058Y318606D01*
X669078Y318798D01*
X669068Y318961D01*
X669049Y319038D01*
X669010Y319133D01*
X668953Y319268D01*
X668895Y319363D01*
X668713Y319545D01*
X668464Y319679D01*
X668407Y319699D01*
X668120Y319718D01*
D02*
G37*
G36*
X668139Y311805D02*
X667870Y311766D01*
X667660Y311670D01*
X667621Y311632D01*
X667583Y311613D01*
X667430Y311460D01*
X667420Y311450D01*
Y311431D01*
X667363Y311373D01*
X667344Y311335D01*
X667296Y311230D01*
X667248Y311105D01*
X667228Y310914D01*
X667248Y310665D01*
X667267Y310588D01*
X667324Y310492D01*
X667344Y310415D01*
X667401Y310358D01*
X667420Y310320D01*
X667535Y310205D01*
X667641Y310118D01*
X667679Y310099D01*
X667717Y310061D01*
X667784Y310032D01*
X667861Y310013D01*
X667985Y309965D01*
X668120Y309946D01*
X668311Y309965D01*
X668407Y310004D01*
X668484Y310023D01*
X668579Y310061D01*
X668675Y310118D01*
X668733Y310176D01*
X668800Y310224D01*
X668819Y310262D01*
X668848Y310291D01*
X668934Y310396D01*
X668991Y310492D01*
X669049Y310626D01*
X669068Y311048D01*
X669020Y311172D01*
X668991Y311278D01*
X668915Y311393D01*
X668895Y311431D01*
X668819Y311508D01*
X668800Y311546D01*
X668742Y311584D01*
X668637Y311670D01*
X668598Y311690D01*
X668474Y311757D01*
X668378Y311776D01*
X668139Y311805D01*
D02*
G37*
G36*
X668196Y283294D02*
X667947Y283275D01*
X667794Y283237D01*
X667755Y283198D01*
X667679Y283179D01*
X667621Y283121D01*
X667583Y283102D01*
X667439Y282959D01*
X667420Y282920D01*
X667363Y282863D01*
X667344Y282824D01*
X667296Y282719D01*
X667257Y282623D01*
X667228Y282346D01*
X667267Y282077D01*
X667324Y281982D01*
X667344Y281905D01*
X667401Y281847D01*
X667420Y281809D01*
X667545Y281684D01*
X667679Y281589D01*
X667813Y281512D01*
X668005Y281455D01*
X668139Y281435D01*
X668273Y281455D01*
X668464Y281512D01*
X668675Y281608D01*
X668752Y281684D01*
X668790Y281704D01*
X668838Y281771D01*
X668972Y281943D01*
X669049Y282135D01*
X669068Y282537D01*
X669020Y282662D01*
X668991Y282767D01*
X668915Y282882D01*
X668895Y282920D01*
X668838Y282978D01*
X668819Y283016D01*
X668771Y283064D01*
X668733Y283083D01*
X668656Y283160D01*
X668579Y283179D01*
X668464Y283256D01*
X668330Y283275D01*
X668311D01*
X668196Y283294D01*
D02*
G37*
G36*
Y233592D02*
X668024Y233573D01*
X667889Y233535D01*
X667813Y233515D01*
X667717Y233477D01*
X667621Y233420D01*
X667545Y233343D01*
X667506Y233324D01*
X667478Y233295D01*
X667458Y233257D01*
X667401Y233199D01*
X667324Y233065D01*
X667267Y232969D01*
X667248Y232835D01*
X667228Y232759D01*
X667248Y232452D01*
X667324Y232280D01*
X667344Y232203D01*
X667401Y232146D01*
X667420Y232107D01*
X667564Y231963D01*
X667602Y231944D01*
X667641Y231906D01*
X667889Y231772D01*
X668254Y231753D01*
X668273D01*
X668349Y231772D01*
X668484Y231791D01*
X668522Y231829D01*
X668560Y231849D01*
X668656Y231887D01*
X668713Y231944D01*
X668752Y231963D01*
X668800Y232011D01*
X668819Y232050D01*
X668848Y232059D01*
X668934Y232184D01*
X668991Y232280D01*
X669049Y232414D01*
X669068Y232586D01*
X669087Y232644D01*
X669078Y232653D01*
X669058Y232864D01*
X669010Y232988D01*
X668953Y233123D01*
X668886Y233228D01*
X668848Y233247D01*
X668838Y233276D01*
X668790Y233324D01*
X668752Y233343D01*
X668694Y233400D01*
X668503Y233515D01*
X668426Y233535D01*
X668369Y233554D01*
X668254Y233573D01*
X668196Y233592D01*
D02*
G37*
G36*
X668139Y203108D02*
X667870Y203070D01*
X667660Y202974D01*
X667621Y202936D01*
X667583Y202916D01*
X667439Y202773D01*
X667420Y202734D01*
X667363Y202677D01*
X667344Y202638D01*
X667296Y202533D01*
X667248Y202409D01*
X667228Y202217D01*
X667248Y201968D01*
X667267Y201891D01*
X667324Y201796D01*
X667344Y201719D01*
X667401Y201661D01*
X667420Y201623D01*
X667535Y201508D01*
X667641Y201422D01*
X667679Y201403D01*
X667717Y201364D01*
X667784Y201336D01*
X667861Y201317D01*
X667985Y201269D01*
X668120Y201249D01*
X668311Y201269D01*
X668407Y201307D01*
X668484Y201326D01*
X668579Y201364D01*
X668675Y201422D01*
X668733Y201479D01*
X668800Y201527D01*
X668819Y201566D01*
X668848Y201594D01*
X668934Y201700D01*
X668991Y201796D01*
X669049Y201930D01*
X669068Y202140D01*
Y202351D01*
X669020Y202476D01*
X668991Y202581D01*
X668915Y202696D01*
X668895Y202734D01*
X668838Y202792D01*
X668790Y202859D01*
X668752Y202878D01*
X668694Y202936D01*
X668598Y202993D01*
X668474Y203060D01*
X668378Y203079D01*
X668139Y203108D01*
D02*
G37*
%LPD*%
D66*
X48250Y320351D02*
D03*
Y440751D02*
D03*
D69*
X583150Y148192D02*
D03*
X187960Y508000D02*
D03*
X457200D02*
D03*
X279400Y25400D02*
D03*
X508000D02*
D03*
D70*
X608550Y148192D02*
D03*
X633950D02*
D03*
X659350D02*
D03*
X213360Y508000D02*
D03*
X238760D02*
D03*
X264160D02*
D03*
X289560D02*
D03*
X314960D02*
D03*
X340360D02*
D03*
X365760D02*
D03*
X391160D02*
D03*
X416560D02*
D03*
X482600D02*
D03*
X508000D02*
D03*
X533400D02*
D03*
X558800D02*
D03*
X584200D02*
D03*
X609600D02*
D03*
X635000D02*
D03*
X304800Y25400D02*
D03*
X330200D02*
D03*
X355600D02*
D03*
X381000D02*
D03*
X406400D02*
D03*
X431800D02*
D03*
X457200D02*
D03*
X635000D02*
D03*
X609600D02*
D03*
X584200D02*
D03*
X558800D02*
D03*
X533400D02*
D03*
D71*
X412997Y385905D02*
D03*
D72*
Y435905D02*
D03*
D73*
X593478Y291569D02*
D03*
Y266169D02*
D03*
Y240769D02*
D03*
X568078D02*
D03*
X568078Y266169D02*
D03*
X568078Y291569D02*
D03*
D74*
X21500Y345551D02*
D03*
Y415551D02*
D03*
D75*
X48500Y405551D02*
D03*
Y355551D02*
D03*
D76*
X304040Y375360D02*
D03*
X329440D02*
D03*
Y451561D02*
D03*
X304040D02*
D03*
D77*
X504093Y306224D02*
D03*
X469586Y340731D02*
D03*
D78*
X85000Y29000D02*
D03*
D79*
X113000Y77000D02*
D03*
X53000Y77000D02*
D03*
D101*
X75250Y368051D02*
D03*
Y393051D02*
D03*
X95250D02*
D03*
D102*
Y368051D02*
D03*
M02*
