G04*
G04 #@! TF.GenerationSoftware,Altium Limited,Altium Designer,23.0.1 (38)*
G04*
G04 Layer_Color=8388736*
%FSLAX44Y44*%
%MOMM*%
G71*
G04*
G04 #@! TF.SameCoordinates,88FC3FB3-D5F9-4073-A5BC-648FF294B969*
G04*
G04*
G04 #@! TF.FilePolarity,Negative*
G04*
G01*
G75*
%ADD12C,0.1000*%
G04:AMPARAMS|DCode=43|XSize=1.15mm|YSize=0.9mm|CornerRadius=0.13mm|HoleSize=0mm|Usage=FLASHONLY|Rotation=90.000|XOffset=0mm|YOffset=0mm|HoleType=Round|Shape=RoundedRectangle|*
%AMROUNDEDRECTD43*
21,1,1.1500,0.6400,0,0,90.0*
21,1,0.8900,0.9000,0,0,90.0*
1,1,0.2600,0.3200,0.4450*
1,1,0.2600,0.3200,-0.4450*
1,1,0.2600,-0.3200,-0.4450*
1,1,0.2600,-0.3200,0.4450*
%
%ADD43ROUNDEDRECTD43*%
G04:AMPARAMS|DCode=44|XSize=1.6mm|YSize=1.3mm|CornerRadius=0.17mm|HoleSize=0mm|Usage=FLASHONLY|Rotation=90.000|XOffset=0mm|YOffset=0mm|HoleType=Round|Shape=RoundedRectangle|*
%AMROUNDEDRECTD44*
21,1,1.6000,0.9600,0,0,90.0*
21,1,1.2600,1.3000,0,0,90.0*
1,1,0.3400,0.4800,0.6300*
1,1,0.3400,0.4800,-0.6300*
1,1,0.3400,-0.4800,-0.6300*
1,1,0.3400,-0.4800,0.6300*
%
%ADD44ROUNDEDRECTD44*%
G04:AMPARAMS|DCode=45|XSize=2.5mm|YSize=1.6mm|CornerRadius=0.2mm|HoleSize=0mm|Usage=FLASHONLY|Rotation=180.000|XOffset=0mm|YOffset=0mm|HoleType=Round|Shape=RoundedRectangle|*
%AMROUNDEDRECTD45*
21,1,2.5000,1.2000,0,0,180.0*
21,1,2.1000,1.6000,0,0,180.0*
1,1,0.4000,-1.0500,0.6000*
1,1,0.4000,1.0500,0.6000*
1,1,0.4000,1.0500,-0.6000*
1,1,0.4000,-1.0500,-0.6000*
%
%ADD45ROUNDEDRECTD45*%
G04:AMPARAMS|DCode=46|XSize=3.1mm|YSize=1.6mm|CornerRadius=0.2mm|HoleSize=0mm|Usage=FLASHONLY|Rotation=90.000|XOffset=0mm|YOffset=0mm|HoleType=Round|Shape=RoundedRectangle|*
%AMROUNDEDRECTD46*
21,1,3.1000,1.2000,0,0,90.0*
21,1,2.7000,1.6000,0,0,90.0*
1,1,0.4000,0.6000,1.3500*
1,1,0.4000,0.6000,-1.3500*
1,1,0.4000,-0.6000,-1.3500*
1,1,0.4000,-0.6000,1.3500*
%
%ADD46ROUNDEDRECTD46*%
G04:AMPARAMS|DCode=47|XSize=1.3mm|YSize=1.7mm|CornerRadius=0.17mm|HoleSize=0mm|Usage=FLASHONLY|Rotation=90.000|XOffset=0mm|YOffset=0mm|HoleType=Round|Shape=RoundedRectangle|*
%AMROUNDEDRECTD47*
21,1,1.3000,1.3600,0,0,90.0*
21,1,0.9600,1.7000,0,0,90.0*
1,1,0.3400,0.6800,0.4800*
1,1,0.3400,0.6800,-0.4800*
1,1,0.3400,-0.6800,-0.4800*
1,1,0.3400,-0.6800,0.4800*
%
%ADD47ROUNDEDRECTD47*%
G04:AMPARAMS|DCode=48|XSize=1.1mm|YSize=1.5mm|CornerRadius=0.175mm|HoleSize=0mm|Usage=FLASHONLY|Rotation=90.000|XOffset=0mm|YOffset=0mm|HoleType=Round|Shape=RoundedRectangle|*
%AMROUNDEDRECTD48*
21,1,1.1000,1.1500,0,0,90.0*
21,1,0.7500,1.5000,0,0,90.0*
1,1,0.3500,0.5750,0.3750*
1,1,0.3500,0.5750,-0.3750*
1,1,0.3500,-0.5750,-0.3750*
1,1,0.3500,-0.5750,0.3750*
%
%ADD48ROUNDEDRECTD48*%
G04:AMPARAMS|DCode=49|XSize=1mm|YSize=1.1mm|CornerRadius=0.14mm|HoleSize=0mm|Usage=FLASHONLY|Rotation=315.000|XOffset=0mm|YOffset=0mm|HoleType=Round|Shape=RoundedRectangle|*
%AMROUNDEDRECTD49*
21,1,1.0000,0.8200,0,0,315.0*
21,1,0.7200,1.1000,0,0,315.0*
1,1,0.2800,-0.0354,-0.5445*
1,1,0.2800,-0.5445,-0.0354*
1,1,0.2800,0.0354,0.5445*
1,1,0.2800,0.5445,0.0354*
%
%ADD49ROUNDEDRECTD49*%
G04:AMPARAMS|DCode=50|XSize=1.04mm|YSize=1.12mm|CornerRadius=0.144mm|HoleSize=0mm|Usage=FLASHONLY|Rotation=135.000|XOffset=0mm|YOffset=0mm|HoleType=Round|Shape=RoundedRectangle|*
%AMROUNDEDRECTD50*
21,1,1.0400,0.8320,0,0,135.0*
21,1,0.7520,1.1200,0,0,135.0*
1,1,0.2880,0.0283,0.5600*
1,1,0.2880,0.5600,0.0283*
1,1,0.2880,-0.0283,-0.5600*
1,1,0.2880,-0.5600,-0.0283*
%
%ADD50ROUNDEDRECTD50*%
G04:AMPARAMS|DCode=51|XSize=1mm|YSize=1.1mm|CornerRadius=0.14mm|HoleSize=0mm|Usage=FLASHONLY|Rotation=0.000|XOffset=0mm|YOffset=0mm|HoleType=Round|Shape=RoundedRectangle|*
%AMROUNDEDRECTD51*
21,1,1.0000,0.8200,0,0,0.0*
21,1,0.7200,1.1000,0,0,0.0*
1,1,0.2800,0.3600,-0.4100*
1,1,0.2800,-0.3600,-0.4100*
1,1,0.2800,-0.3600,0.4100*
1,1,0.2800,0.3600,0.4100*
%
%ADD51ROUNDEDRECTD51*%
G04:AMPARAMS|DCode=52|XSize=0.5mm|YSize=1.45mm|CornerRadius=0.09mm|HoleSize=0mm|Usage=FLASHONLY|Rotation=270.000|XOffset=0mm|YOffset=0mm|HoleType=Round|Shape=RoundedRectangle|*
%AMROUNDEDRECTD52*
21,1,0.5000,1.2700,0,0,270.0*
21,1,0.3200,1.4500,0,0,270.0*
1,1,0.1800,-0.6350,-0.1600*
1,1,0.1800,-0.6350,0.1600*
1,1,0.1800,0.6350,0.1600*
1,1,0.1800,0.6350,-0.1600*
%
%ADD52ROUNDEDRECTD52*%
G04:AMPARAMS|DCode=53|XSize=1.04mm|YSize=1.12mm|CornerRadius=0.144mm|HoleSize=0mm|Usage=FLASHONLY|Rotation=180.000|XOffset=0mm|YOffset=0mm|HoleType=Round|Shape=RoundedRectangle|*
%AMROUNDEDRECTD53*
21,1,1.0400,0.8320,0,0,180.0*
21,1,0.7520,1.1200,0,0,180.0*
1,1,0.2880,-0.3760,0.4160*
1,1,0.2880,0.3760,0.4160*
1,1,0.2880,0.3760,-0.4160*
1,1,0.2880,-0.3760,-0.4160*
%
%ADD53ROUNDEDRECTD53*%
G04:AMPARAMS|DCode=54|XSize=2.07mm|YSize=0.7mm|CornerRadius=0.125mm|HoleSize=0mm|Usage=FLASHONLY|Rotation=90.000|XOffset=0mm|YOffset=0mm|HoleType=Round|Shape=RoundedRectangle|*
%AMROUNDEDRECTD54*
21,1,2.0700,0.4500,0,0,90.0*
21,1,1.8200,0.7000,0,0,90.0*
1,1,0.2500,0.2250,0.9100*
1,1,0.2500,0.2250,-0.9100*
1,1,0.2500,-0.2250,-0.9100*
1,1,0.2500,-0.2250,0.9100*
%
%ADD54ROUNDEDRECTD54*%
G04:AMPARAMS|DCode=55|XSize=1mm|YSize=1.05mm|CornerRadius=0.14mm|HoleSize=0mm|Usage=FLASHONLY|Rotation=270.000|XOffset=0mm|YOffset=0mm|HoleType=Round|Shape=RoundedRectangle|*
%AMROUNDEDRECTD55*
21,1,1.0000,0.7700,0,0,270.0*
21,1,0.7200,1.0500,0,0,270.0*
1,1,0.2800,-0.3850,-0.3600*
1,1,0.2800,-0.3850,0.3600*
1,1,0.2800,0.3850,0.3600*
1,1,0.2800,0.3850,-0.3600*
%
%ADD55ROUNDEDRECTD55*%
G04:AMPARAMS|DCode=56|XSize=3.34mm|YSize=2.1mm|CornerRadius=0.2mm|HoleSize=0mm|Usage=FLASHONLY|Rotation=90.000|XOffset=0mm|YOffset=0mm|HoleType=Round|Shape=RoundedRectangle|*
%AMROUNDEDRECTD56*
21,1,3.3400,1.7000,0,0,90.0*
21,1,2.9400,2.1000,0,0,90.0*
1,1,0.4000,0.8500,1.4700*
1,1,0.4000,0.8500,-1.4700*
1,1,0.4000,-0.8500,-1.4700*
1,1,0.4000,-0.8500,1.4700*
%
%ADD56ROUNDEDRECTD56*%
G04:AMPARAMS|DCode=57|XSize=1.03mm|YSize=2.1mm|CornerRadius=0.1198mm|HoleSize=0mm|Usage=FLASHONLY|Rotation=90.000|XOffset=0mm|YOffset=0mm|HoleType=Round|Shape=RoundedRectangle|*
%AMROUNDEDRECTD57*
21,1,1.0300,1.8605,0,0,90.0*
21,1,0.7905,2.1000,0,0,90.0*
1,1,0.2395,0.9303,0.3953*
1,1,0.2395,0.9303,-0.3953*
1,1,0.2395,-0.9303,-0.3953*
1,1,0.2395,-0.9303,0.3953*
%
%ADD57ROUNDEDRECTD57*%
G04:AMPARAMS|DCode=58|XSize=1.04mm|YSize=1.12mm|CornerRadius=0.144mm|HoleSize=0mm|Usage=FLASHONLY|Rotation=90.000|XOffset=0mm|YOffset=0mm|HoleType=Round|Shape=RoundedRectangle|*
%AMROUNDEDRECTD58*
21,1,1.0400,0.8320,0,0,90.0*
21,1,0.7520,1.1200,0,0,90.0*
1,1,0.2880,0.4160,0.3760*
1,1,0.2880,0.4160,-0.3760*
1,1,0.2880,-0.4160,-0.3760*
1,1,0.2880,-0.4160,0.3760*
%
%ADD58ROUNDEDRECTD58*%
G04:AMPARAMS|DCode=59|XSize=1.1mm|YSize=0.65mm|CornerRadius=0.105mm|HoleSize=0mm|Usage=FLASHONLY|Rotation=0.000|XOffset=0mm|YOffset=0mm|HoleType=Round|Shape=RoundedRectangle|*
%AMROUNDEDRECTD59*
21,1,1.1000,0.4400,0,0,0.0*
21,1,0.8900,0.6500,0,0,0.0*
1,1,0.2100,0.4450,-0.2200*
1,1,0.2100,-0.4450,-0.2200*
1,1,0.2100,-0.4450,0.2200*
1,1,0.2100,0.4450,0.2200*
%
%ADD59ROUNDEDRECTD59*%
G04:AMPARAMS|DCode=60|XSize=1.8016mm|YSize=2.5016mm|CornerRadius=0.2208mm|HoleSize=0mm|Usage=FLASHONLY|Rotation=135.000|XOffset=0mm|YOffset=0mm|HoleType=Round|Shape=RoundedRectangle|*
%AMROUNDEDRECTD60*
21,1,1.8016,2.0600,0,0,135.0*
21,1,1.3600,2.5016,0,0,135.0*
1,1,0.4416,0.2475,1.2092*
1,1,0.4416,1.2092,0.2475*
1,1,0.4416,-0.2475,-1.2092*
1,1,0.4416,-1.2092,-0.2475*
%
%ADD60ROUNDEDRECTD60*%
G04:AMPARAMS|DCode=61|XSize=0.65mm|YSize=1.6mm|CornerRadius=0.1325mm|HoleSize=0mm|Usage=FLASHONLY|Rotation=225.000|XOffset=0mm|YOffset=0mm|HoleType=Round|Shape=RoundedRectangle|*
%AMROUNDEDRECTD61*
21,1,0.6500,1.3350,0,0,225.0*
21,1,0.3850,1.6000,0,0,225.0*
1,1,0.2650,-0.6081,0.3359*
1,1,0.2650,-0.3359,0.6081*
1,1,0.2650,0.6081,-0.3359*
1,1,0.2650,0.3359,-0.6081*
%
%ADD61ROUNDEDRECTD61*%
G04:AMPARAMS|DCode=62|XSize=1.6mm|YSize=0.65mm|CornerRadius=0.1325mm|HoleSize=0mm|Usage=FLASHONLY|Rotation=225.000|XOffset=0mm|YOffset=0mm|HoleType=Round|Shape=RoundedRectangle|*
%AMROUNDEDRECTD62*
21,1,1.6000,0.3850,0,0,225.0*
21,1,1.3350,0.6500,0,0,225.0*
1,1,0.2650,-0.6081,-0.3359*
1,1,0.2650,0.3359,0.6081*
1,1,0.2650,0.6081,0.3359*
1,1,0.2650,-0.3359,-0.6081*
%
%ADD62ROUNDEDRECTD62*%
G04:AMPARAMS|DCode=63|XSize=1.15mm|YSize=0.9mm|CornerRadius=0.13mm|HoleSize=0mm|Usage=FLASHONLY|Rotation=180.000|XOffset=0mm|YOffset=0mm|HoleType=Round|Shape=RoundedRectangle|*
%AMROUNDEDRECTD63*
21,1,1.1500,0.6400,0,0,180.0*
21,1,0.8900,0.9000,0,0,180.0*
1,1,0.2600,-0.4450,0.3200*
1,1,0.2600,0.4450,0.3200*
1,1,0.2600,0.4450,-0.3200*
1,1,0.2600,-0.4450,-0.3200*
%
%ADD63ROUNDEDRECTD63*%
G04:AMPARAMS|DCode=64|XSize=1mm|YSize=1.1mm|CornerRadius=0.14mm|HoleSize=0mm|Usage=FLASHONLY|Rotation=90.000|XOffset=0mm|YOffset=0mm|HoleType=Round|Shape=RoundedRectangle|*
%AMROUNDEDRECTD64*
21,1,1.0000,0.8200,0,0,90.0*
21,1,0.7200,1.1000,0,0,90.0*
1,1,0.2800,0.4100,0.3600*
1,1,0.2800,0.4100,-0.3600*
1,1,0.2800,-0.4100,-0.3600*
1,1,0.2800,-0.4100,0.3600*
%
%ADD64ROUNDEDRECTD64*%
G04:AMPARAMS|DCode=65|XSize=1.75mm|YSize=1.55mm|CornerRadius=0.195mm|HoleSize=0mm|Usage=FLASHONLY|Rotation=90.000|XOffset=0mm|YOffset=0mm|HoleType=Round|Shape=RoundedRectangle|*
%AMROUNDEDRECTD65*
21,1,1.7500,1.1600,0,0,90.0*
21,1,1.3600,1.5500,0,0,90.0*
1,1,0.3900,0.5800,0.6800*
1,1,0.3900,0.5800,-0.6800*
1,1,0.3900,-0.5800,-0.6800*
1,1,0.3900,-0.5800,0.6800*
%
%ADD65ROUNDEDRECTD65*%
%ADD66C,3.4160*%
%ADD67C,1.3000*%
G04:AMPARAMS|DCode=68|XSize=1.3mm|YSize=1.3mm|CornerRadius=0.17mm|HoleSize=0mm|Usage=FLASHONLY|Rotation=270.000|XOffset=0mm|YOffset=0mm|HoleType=Round|Shape=RoundedRectangle|*
%AMROUNDEDRECTD68*
21,1,1.3000,0.9600,0,0,270.0*
21,1,0.9600,1.3000,0,0,270.0*
1,1,0.3400,-0.4800,-0.4800*
1,1,0.3400,-0.4800,0.4800*
1,1,0.3400,0.4800,0.4800*
1,1,0.3400,0.4800,-0.4800*
%
%ADD68ROUNDEDRECTD68*%
G04:AMPARAMS|DCode=69|XSize=1.9mm|YSize=1.9mm|CornerRadius=0.23mm|HoleSize=0mm|Usage=FLASHONLY|Rotation=0.000|XOffset=0mm|YOffset=0mm|HoleType=Round|Shape=RoundedRectangle|*
%AMROUNDEDRECTD69*
21,1,1.9000,1.4400,0,0,0.0*
21,1,1.4400,1.9000,0,0,0.0*
1,1,0.4600,0.7200,-0.7200*
1,1,0.4600,-0.7200,-0.7200*
1,1,0.4600,-0.7200,0.7200*
1,1,0.4600,0.7200,0.7200*
%
%ADD69ROUNDEDRECTD69*%
%ADD70C,1.9000*%
G04:AMPARAMS|DCode=71|XSize=1.408mm|YSize=1.408mm|CornerRadius=0.1808mm|HoleSize=0mm|Usage=FLASHONLY|Rotation=90.000|XOffset=0mm|YOffset=0mm|HoleType=Round|Shape=RoundedRectangle|*
%AMROUNDEDRECTD71*
21,1,1.4080,1.0464,0,0,90.0*
21,1,1.0464,1.4080,0,0,90.0*
1,1,0.3616,0.5232,0.5232*
1,1,0.3616,0.5232,-0.5232*
1,1,0.3616,-0.5232,-0.5232*
1,1,0.3616,-0.5232,0.5232*
%
%ADD71ROUNDEDRECTD71*%
%ADD72C,1.4080*%
%ADD73C,1.7000*%
%ADD74O,1.9000X0.9500*%
%ADD75O,1.0000X1.5000*%
%ADD76O,1.7000X2.5000*%
G04:AMPARAMS|DCode=77|XSize=0.9mm|YSize=1.6mm|CornerRadius=0.225mm|HoleSize=0mm|Usage=FLASHONLY|Rotation=135.000|XOffset=0mm|YOffset=0mm|HoleType=Round|Shape=RoundedRectangle|*
%AMROUNDEDRECTD77*
21,1,0.9000,1.1500,0,0,135.0*
21,1,0.4500,1.6000,0,0,135.0*
1,1,0.4500,0.2475,0.5657*
1,1,0.4500,0.5657,0.2475*
1,1,0.4500,-0.2475,-0.5657*
1,1,0.4500,-0.5657,-0.2475*
%
%ADD77ROUNDEDRECTD77*%
G04:AMPARAMS|DCode=78|XSize=3.9mm|YSize=2mm|CornerRadius=0.525mm|HoleSize=0mm|Usage=FLASHONLY|Rotation=180.000|XOffset=0mm|YOffset=0mm|HoleType=Round|Shape=RoundedRectangle|*
%AMROUNDEDRECTD78*
21,1,3.9000,0.9500,0,0,180.0*
21,1,2.8500,2.0000,0,0,180.0*
1,1,1.0500,-1.4250,0.4750*
1,1,1.0500,1.4250,0.4750*
1,1,1.0500,1.4250,-0.4750*
1,1,1.0500,-1.4250,-0.4750*
%
%ADD78ROUNDEDRECTD78*%
G04:AMPARAMS|DCode=79|XSize=4.5mm|YSize=2.3mm|CornerRadius=0.6mm|HoleSize=0mm|Usage=FLASHONLY|Rotation=90.000|XOffset=0mm|YOffset=0mm|HoleType=Round|Shape=RoundedRectangle|*
%AMROUNDEDRECTD79*
21,1,4.5000,1.1000,0,0,90.0*
21,1,3.3000,2.3000,0,0,90.0*
1,1,1.2000,0.5500,1.6500*
1,1,1.2000,0.5500,-1.6500*
1,1,1.2000,-0.5500,-1.6500*
1,1,1.2000,-0.5500,1.6500*
%
%ADD79ROUNDEDRECTD79*%
G36*
X11000Y402551D02*
Y415551D01*
X11008Y415852D01*
X11031Y416152D01*
X11071Y416451D01*
X11126Y416746D01*
X11196Y417039D01*
X11281Y417328D01*
X11382Y417612D01*
X11497Y417890D01*
X11627Y418162D01*
X11770Y418426D01*
X11928Y418683D01*
X12098Y418931D01*
X12281Y419170D01*
X12477Y419399D01*
X12684Y419617D01*
X12902Y419824D01*
X13131Y420020D01*
X13370Y420203D01*
X13618Y420373D01*
X13875Y420531D01*
X14139Y420674D01*
X14411Y420804D01*
X14689Y420919D01*
X14973Y421020D01*
X15262Y421105D01*
X15554Y421175D01*
X15850Y421230D01*
X16149Y421269D01*
X16449Y421293D01*
X16750Y421301D01*
X26250D01*
X26551Y421293D01*
X26851Y421269D01*
X27150Y421230D01*
X27445Y421175D01*
X27738Y421105D01*
X28027Y421020D01*
X28311Y420919D01*
X28589Y420804D01*
X28860Y420674D01*
X29125Y420531D01*
X29382Y420373D01*
X29630Y420203D01*
X29869Y420020D01*
X30097Y419824D01*
X30316Y419617D01*
X30523Y419399D01*
X30719Y419170D01*
X30902Y418931D01*
X31072Y418683D01*
X31230Y418426D01*
X31373Y418162D01*
X31503Y417890D01*
X31618Y417612D01*
X31718Y417328D01*
X31804Y417039D01*
X31874Y416746D01*
X31929Y416451D01*
X31969Y416152D01*
X31992Y415852D01*
X32000Y415551D01*
Y402551D01*
X11000D01*
D02*
G37*
G36*
X31992Y345250D02*
X31969Y344950D01*
X31929Y344651D01*
X31874Y344356D01*
X31804Y344063D01*
X31718Y343774D01*
X31618Y343490D01*
X31503Y343212D01*
X31373Y342941D01*
X31230Y342676D01*
X31072Y342419D01*
X30902Y342171D01*
X30719Y341932D01*
X30523Y341703D01*
X30316Y341485D01*
X30097Y341278D01*
X29869Y341082D01*
X29630Y340899D01*
X29382Y340729D01*
X29125Y340571D01*
X28860Y340428D01*
X28589Y340298D01*
X28311Y340183D01*
X28027Y340083D01*
X27738Y339997D01*
X27445Y339927D01*
X27150Y339872D01*
X26851Y339832D01*
X26551Y339809D01*
X26250Y339801D01*
X16750D01*
X16449Y339809D01*
X16149Y339832D01*
X15850Y339872D01*
X15554Y339927D01*
X15262Y339997D01*
X14973Y340083D01*
X14689Y340183D01*
X14411Y340298D01*
X14139Y340428D01*
X13875Y340571D01*
X13618Y340729D01*
X13370Y340899D01*
X13131Y341082D01*
X12902Y341278D01*
X12684Y341485D01*
X12477Y341703D01*
X12281Y341932D01*
X12098Y342171D01*
X11928Y342419D01*
X11770Y342676D01*
X11627Y342941D01*
X11497Y343212D01*
X11382Y343490D01*
X11281Y343774D01*
X11196Y344063D01*
X11126Y344356D01*
X11071Y344651D01*
X11031Y344950D01*
X11008Y345250D01*
X11000Y345551D01*
Y358551D01*
X32000D01*
Y345551D01*
X31992Y345250D01*
D02*
G37*
G36*
X660588Y329197D02*
X666656D01*
X666674D01*
X678093Y329188D01*
X678084Y303035D01*
X678020Y303044D01*
X678002Y303099D01*
X677975Y303126D01*
X677793Y303108D01*
X660734Y303126D01*
X660715Y303144D01*
X660670Y303099D01*
X660661Y303035D01*
X660579Y303044D01*
X660588Y329197D01*
D02*
G37*
G36*
X54789Y495774D02*
X54854D01*
X54928Y495765D01*
X55094Y495728D01*
X55279Y495682D01*
X55483Y495608D01*
X55686Y495506D01*
X55779Y495442D01*
X55871Y495368D01*
X55880D01*
X55890Y495349D01*
X55917Y495321D01*
X55945Y495294D01*
X55991Y495247D01*
X56028Y495201D01*
X56130Y495072D01*
X56232Y494896D01*
X56333Y494693D01*
X56426Y494461D01*
X56491Y494184D01*
X55307Y494055D01*
Y494073D01*
X55298Y494110D01*
X55279Y494175D01*
X55261Y494258D01*
X55233Y494341D01*
X55187Y494434D01*
X55141Y494517D01*
X55076Y494591D01*
X55067Y494600D01*
X55039Y494619D01*
X55002Y494646D01*
X54947Y494683D01*
X54882Y494711D01*
X54799Y494739D01*
X54697Y494757D01*
X54595Y494767D01*
X54577D01*
X54531Y494757D01*
X54457Y494748D01*
X54364Y494720D01*
X54262Y494683D01*
X54152Y494619D01*
X54040Y494535D01*
X53939Y494415D01*
X53930Y494397D01*
X53911Y494378D01*
X53893Y494341D01*
X53874Y494304D01*
X53846Y494249D01*
X53828Y494184D01*
X53800Y494101D01*
X53763Y494008D01*
X53735Y493907D01*
X53708Y493787D01*
X53680Y493657D01*
X53652Y493509D01*
X53634Y493343D01*
X53615Y493158D01*
X53597Y492964D01*
X53606Y492973D01*
X53615Y492991D01*
X53643Y493010D01*
X53680Y493047D01*
X53726Y493093D01*
X53782Y493139D01*
X53911Y493241D01*
X54078Y493334D01*
X54272Y493426D01*
X54383Y493463D01*
X54494Y493481D01*
X54614Y493500D01*
X54743Y493509D01*
X54817D01*
X54873Y493500D01*
X54937Y493491D01*
X55011Y493481D01*
X55104Y493463D01*
X55196Y493435D01*
X55400Y493361D01*
X55511Y493315D01*
X55622Y493260D01*
X55732Y493195D01*
X55843Y493112D01*
X55954Y493019D01*
X56056Y492917D01*
X56065Y492908D01*
X56084Y492890D01*
X56111Y492862D01*
X56139Y492816D01*
X56185Y492751D01*
X56232Y492686D01*
X56278Y492603D01*
X56333Y492511D01*
X56389Y492409D01*
X56435Y492289D01*
X56481Y492169D01*
X56528Y492030D01*
X56555Y491891D01*
X56583Y491734D01*
X56602Y491577D01*
X56611Y491401D01*
Y491392D01*
Y491355D01*
Y491309D01*
X56602Y491235D01*
X56592Y491152D01*
X56583Y491059D01*
X56565Y490948D01*
X56537Y490837D01*
X56472Y490578D01*
X56426Y490449D01*
X56361Y490319D01*
X56297Y490190D01*
X56223Y490061D01*
X56130Y489931D01*
X56028Y489820D01*
X56019Y489811D01*
X56001Y489792D01*
X55973Y489765D01*
X55927Y489728D01*
X55871Y489682D01*
X55797Y489635D01*
X55723Y489580D01*
X55631Y489524D01*
X55529Y489469D01*
X55418Y489413D01*
X55298Y489367D01*
X55159Y489321D01*
X55021Y489284D01*
X54873Y489256D01*
X54715Y489238D01*
X54549Y489228D01*
X54503D01*
X54457Y489238D01*
X54392D01*
X54309Y489256D01*
X54207Y489265D01*
X54105Y489293D01*
X53985Y489321D01*
X53865Y489358D01*
X53735Y489413D01*
X53597Y489469D01*
X53467Y489543D01*
X53329Y489626D01*
X53199Y489728D01*
X53070Y489848D01*
X52950Y489977D01*
X52940Y489987D01*
X52922Y490014D01*
X52894Y490061D01*
X52857Y490125D01*
X52802Y490209D01*
X52755Y490310D01*
X52700Y490430D01*
X52644Y490569D01*
X52580Y490736D01*
X52524Y490911D01*
X52478Y491115D01*
X52432Y491346D01*
X52386Y491586D01*
X52358Y491854D01*
X52339Y492141D01*
X52330Y492455D01*
Y492464D01*
Y492474D01*
Y492501D01*
Y492529D01*
Y492622D01*
X52339Y492742D01*
X52349Y492890D01*
X52367Y493056D01*
X52386Y493241D01*
X52413Y493435D01*
X52441Y493639D01*
X52487Y493851D01*
X52543Y494064D01*
X52607Y494277D01*
X52681Y494471D01*
X52765Y494665D01*
X52866Y494841D01*
X52977Y494998D01*
X52986Y495007D01*
X53005Y495035D01*
X53042Y495072D01*
X53098Y495118D01*
X53162Y495183D01*
X53236Y495247D01*
X53329Y495321D01*
X53430Y495395D01*
X53551Y495460D01*
X53671Y495534D01*
X53819Y495599D01*
X53967Y495663D01*
X54124Y495710D01*
X54299Y495747D01*
X54475Y495774D01*
X54669Y495784D01*
X54743D01*
X54789Y495774D01*
D02*
G37*
G36*
X94166D02*
X94240D01*
X94324Y495765D01*
X94416Y495747D01*
X94527Y495719D01*
X94638Y495691D01*
X94767Y495645D01*
X94897Y495599D01*
X95026Y495534D01*
X95165Y495460D01*
X95294Y495377D01*
X95424Y495275D01*
X95553Y495155D01*
X95674Y495025D01*
X95683Y495016D01*
X95701Y494988D01*
X95729Y494942D01*
X95775Y494878D01*
X95821Y494794D01*
X95877Y494693D01*
X95932Y494572D01*
X95988Y494434D01*
X96043Y494267D01*
X96108Y494082D01*
X96154Y493879D01*
X96201Y493657D01*
X96247Y493407D01*
X96274Y493139D01*
X96293Y492853D01*
X96302Y492538D01*
Y492529D01*
Y492520D01*
Y492492D01*
Y492464D01*
Y492372D01*
X96293Y492252D01*
X96284Y492104D01*
X96265Y491937D01*
X96247Y491762D01*
X96219Y491568D01*
X96182Y491355D01*
X96145Y491152D01*
X96089Y490939D01*
X96025Y490726D01*
X95951Y490532D01*
X95858Y490338D01*
X95766Y490162D01*
X95646Y490005D01*
X95637Y489996D01*
X95618Y489968D01*
X95581Y489931D01*
X95526Y489885D01*
X95461Y489829D01*
X95387Y489755D01*
X95294Y489691D01*
X95193Y489617D01*
X95082Y489543D01*
X94952Y489478D01*
X94814Y489413D01*
X94666Y489349D01*
X94499Y489302D01*
X94333Y489265D01*
X94157Y489238D01*
X93963Y489228D01*
X93889D01*
X93843Y489238D01*
X93778D01*
X93704Y489247D01*
X93528Y489275D01*
X93334Y489330D01*
X93140Y489395D01*
X92937Y489497D01*
X92844Y489552D01*
X92752Y489626D01*
X92743Y489635D01*
X92733Y489645D01*
X92706Y489672D01*
X92678Y489700D01*
X92641Y489746D01*
X92595Y489792D01*
X92558Y489857D01*
X92502Y489922D01*
X92456Y490005D01*
X92401Y490088D01*
X92354Y490190D01*
X92308Y490301D01*
X92262Y490412D01*
X92225Y490541D01*
X92188Y490671D01*
X92160Y490819D01*
X93344Y490957D01*
Y490939D01*
X93353Y490893D01*
X93362Y490828D01*
X93390Y490754D01*
X93418Y490662D01*
X93455Y490569D01*
X93501Y490486D01*
X93566Y490412D01*
X93575Y490403D01*
X93603Y490384D01*
X93639Y490356D01*
X93695Y490329D01*
X93769Y490301D01*
X93843Y490273D01*
X93945Y490255D01*
X94046Y490246D01*
X94065D01*
X94111Y490255D01*
X94176Y490264D01*
X94268Y490292D01*
X94370Y490329D01*
X94472Y490393D01*
X94583Y490477D01*
X94684Y490588D01*
X94693Y490606D01*
X94712Y490625D01*
X94730Y490662D01*
X94749Y490699D01*
X94777Y490754D01*
X94795Y490819D01*
X94832Y490902D01*
X94860Y490994D01*
X94888Y491096D01*
X94915Y491216D01*
X94943Y491346D01*
X94971Y491494D01*
X94989Y491660D01*
X95008Y491845D01*
X95026Y492039D01*
X95017Y492030D01*
X95008Y492021D01*
X94980Y491993D01*
X94943Y491956D01*
X94897Y491919D01*
X94841Y491873D01*
X94712Y491771D01*
X94545Y491669D01*
X94342Y491586D01*
X94231Y491549D01*
X94120Y491531D01*
X94000Y491512D01*
X93871Y491503D01*
X93797D01*
X93741Y491512D01*
X93676Y491521D01*
X93603Y491531D01*
X93427Y491577D01*
X93223Y491642D01*
X93122Y491697D01*
X93011Y491753D01*
X92900Y491817D01*
X92789Y491891D01*
X92678Y491984D01*
X92576Y492085D01*
X92567Y492095D01*
X92549Y492113D01*
X92530Y492150D01*
X92493Y492187D01*
X92447Y492252D01*
X92401Y492317D01*
X92354Y492400D01*
X92308Y492492D01*
X92253Y492594D01*
X92206Y492714D01*
X92160Y492834D01*
X92114Y492973D01*
X92077Y493112D01*
X92058Y493269D01*
X92040Y493435D01*
X92031Y493602D01*
Y493611D01*
Y493648D01*
Y493694D01*
X92040Y493768D01*
X92049Y493851D01*
X92058Y493944D01*
X92077Y494055D01*
X92105Y494166D01*
X92169Y494415D01*
X92216Y494554D01*
X92271Y494683D01*
X92336Y494813D01*
X92419Y494942D01*
X92502Y495062D01*
X92604Y495183D01*
X92613Y495192D01*
X92632Y495210D01*
X92659Y495238D01*
X92706Y495275D01*
X92770Y495321D01*
X92835Y495377D01*
X92918Y495423D01*
X93011Y495488D01*
X93103Y495543D01*
X93223Y495589D01*
X93344Y495645D01*
X93473Y495691D01*
X93612Y495728D01*
X93760Y495756D01*
X93908Y495774D01*
X94074Y495784D01*
X94120D01*
X94166Y495774D01*
D02*
G37*
G36*
X86215Y494517D02*
X83895D01*
X83700Y493426D01*
X83710D01*
X83719Y493435D01*
X83774Y493463D01*
X83858Y493491D01*
X83959Y493537D01*
X84089Y493574D01*
X84227Y493602D01*
X84385Y493629D01*
X84542Y493639D01*
X84625D01*
X84681Y493629D01*
X84745Y493620D01*
X84828Y493611D01*
X84921Y493592D01*
X85022Y493565D01*
X85235Y493491D01*
X85355Y493444D01*
X85466Y493389D01*
X85587Y493315D01*
X85707Y493232D01*
X85818Y493139D01*
X85929Y493038D01*
X85938Y493028D01*
X85956Y493010D01*
X85984Y492973D01*
X86021Y492927D01*
X86058Y492871D01*
X86114Y492797D01*
X86160Y492714D01*
X86215Y492622D01*
X86271Y492520D01*
X86317Y492400D01*
X86372Y492270D01*
X86409Y492141D01*
X86446Y491993D01*
X86474Y491836D01*
X86493Y491669D01*
X86502Y491494D01*
Y491484D01*
Y491457D01*
Y491420D01*
X86493Y491364D01*
Y491290D01*
X86474Y491207D01*
X86465Y491115D01*
X86446Y491022D01*
X86391Y490800D01*
X86308Y490560D01*
X86252Y490430D01*
X86197Y490310D01*
X86123Y490190D01*
X86040Y490070D01*
X86030Y490061D01*
X86012Y490033D01*
X85975Y489996D01*
X85929Y489940D01*
X85864Y489876D01*
X85781Y489802D01*
X85688Y489728D01*
X85587Y489654D01*
X85466Y489571D01*
X85337Y489497D01*
X85198Y489423D01*
X85041Y489358D01*
X84875Y489302D01*
X84699Y489265D01*
X84505Y489238D01*
X84301Y489228D01*
X84218D01*
X84153Y489238D01*
X84080Y489247D01*
X83987Y489256D01*
X83895Y489265D01*
X83784Y489284D01*
X83562Y489339D01*
X83312Y489432D01*
X83192Y489478D01*
X83072Y489543D01*
X82961Y489617D01*
X82850Y489700D01*
X82841Y489709D01*
X82822Y489719D01*
X82794Y489746D01*
X82757Y489783D01*
X82720Y489839D01*
X82665Y489894D01*
X82619Y489959D01*
X82563Y490033D01*
X82499Y490125D01*
X82443Y490218D01*
X82341Y490440D01*
X82249Y490689D01*
X82221Y490828D01*
X82193Y490976D01*
X83414Y491105D01*
Y491087D01*
X83423Y491041D01*
X83441Y490957D01*
X83469Y490865D01*
X83506Y490763D01*
X83562Y490652D01*
X83636Y490551D01*
X83719Y490449D01*
X83728Y490440D01*
X83765Y490412D01*
X83821Y490375D01*
X83895Y490329D01*
X83978Y490282D01*
X84080Y490246D01*
X84200Y490218D01*
X84320Y490209D01*
X84338D01*
X84385Y490218D01*
X84459Y490227D01*
X84551Y490246D01*
X84653Y490282D01*
X84764Y490338D01*
X84875Y490421D01*
X84976Y490523D01*
X84986Y490541D01*
X85022Y490578D01*
X85059Y490652D01*
X85115Y490763D01*
X85161Y490893D01*
X85207Y491050D01*
X85235Y491244D01*
X85244Y491466D01*
Y491475D01*
Y491494D01*
Y491521D01*
Y491568D01*
X85235Y491669D01*
X85207Y491799D01*
X85180Y491947D01*
X85133Y492095D01*
X85069Y492233D01*
X84976Y492353D01*
X84967Y492363D01*
X84930Y492400D01*
X84865Y492446D01*
X84791Y492511D01*
X84690Y492566D01*
X84570Y492612D01*
X84431Y492649D01*
X84283Y492659D01*
X84227D01*
X84190Y492649D01*
X84098Y492631D01*
X83968Y492603D01*
X83821Y492548D01*
X83663Y492464D01*
X83580Y492409D01*
X83497Y492344D01*
X83414Y492270D01*
X83331Y492187D01*
X82341Y492326D01*
X82970Y495663D01*
X86215D01*
Y494517D01*
D02*
G37*
G36*
X79466Y495774D02*
X79549Y495765D01*
X79642Y495756D01*
X79743Y495737D01*
X79854Y495719D01*
X80095Y495654D01*
X80335Y495562D01*
X80464Y495506D01*
X80575Y495442D01*
X80696Y495358D01*
X80797Y495266D01*
X80807Y495257D01*
X80825Y495247D01*
X80843Y495210D01*
X80880Y495173D01*
X80927Y495127D01*
X80973Y495062D01*
X81019Y494998D01*
X81075Y494915D01*
X81167Y494730D01*
X81260Y494517D01*
X81297Y494397D01*
X81315Y494267D01*
X81334Y494129D01*
X81343Y493990D01*
Y493971D01*
Y493916D01*
X81334Y493833D01*
X81324Y493731D01*
X81306Y493602D01*
X81278Y493463D01*
X81241Y493315D01*
X81186Y493167D01*
X81176Y493149D01*
X81158Y493102D01*
X81121Y493019D01*
X81065Y492917D01*
X81001Y492797D01*
X80918Y492659D01*
X80816Y492511D01*
X80696Y492353D01*
X80686Y492344D01*
X80649Y492298D01*
X80594Y492233D01*
X80511Y492141D01*
X80400Y492030D01*
X80261Y491882D01*
X80095Y491725D01*
X79891Y491531D01*
X79882Y491521D01*
X79864Y491512D01*
X79836Y491484D01*
X79799Y491447D01*
X79697Y491355D01*
X79577Y491244D01*
X79457Y491124D01*
X79337Y491004D01*
X79226Y490902D01*
X79189Y490856D01*
X79152Y490819D01*
X79142Y490809D01*
X79124Y490791D01*
X79096Y490754D01*
X79059Y490708D01*
X78976Y490606D01*
X78902Y490486D01*
X81343D01*
Y489349D01*
X77044D01*
Y489358D01*
Y489376D01*
X77053Y489413D01*
X77062Y489460D01*
X77071Y489515D01*
X77081Y489580D01*
X77118Y489746D01*
X77173Y489931D01*
X77247Y490135D01*
X77339Y490356D01*
X77460Y490569D01*
Y490578D01*
X77478Y490597D01*
X77497Y490634D01*
X77534Y490671D01*
X77571Y490736D01*
X77626Y490800D01*
X77691Y490883D01*
X77765Y490976D01*
X77848Y491087D01*
X77950Y491198D01*
X78061Y491327D01*
X78190Y491466D01*
X78329Y491605D01*
X78486Y491762D01*
X78652Y491928D01*
X78837Y492104D01*
X78847Y492113D01*
X78874Y492141D01*
X78911Y492178D01*
X78967Y492233D01*
X79041Y492289D01*
X79115Y492363D01*
X79281Y492529D01*
X79447Y492705D01*
X79614Y492880D01*
X79688Y492954D01*
X79762Y493038D01*
X79817Y493102D01*
X79854Y493158D01*
X79864Y493176D01*
X79891Y493223D01*
X79938Y493297D01*
X79984Y493398D01*
X80030Y493509D01*
X80076Y493639D01*
X80104Y493768D01*
X80113Y493907D01*
Y493916D01*
Y493925D01*
Y493971D01*
X80104Y494055D01*
X80085Y494147D01*
X80058Y494249D01*
X80021Y494351D01*
X79965Y494452D01*
X79891Y494545D01*
X79882Y494554D01*
X79854Y494582D01*
X79799Y494619D01*
X79734Y494656D01*
X79642Y494693D01*
X79540Y494730D01*
X79420Y494757D01*
X79281Y494767D01*
X79216D01*
X79142Y494757D01*
X79059Y494739D01*
X78957Y494711D01*
X78856Y494665D01*
X78754Y494609D01*
X78662Y494535D01*
X78652Y494526D01*
X78625Y494489D01*
X78588Y494434D01*
X78551Y494351D01*
X78504Y494249D01*
X78467Y494110D01*
X78430Y493953D01*
X78412Y493768D01*
X77192Y493888D01*
Y493898D01*
X77201Y493934D01*
Y493981D01*
X77219Y494055D01*
X77228Y494138D01*
X77256Y494230D01*
X77284Y494332D01*
X77312Y494452D01*
X77404Y494683D01*
X77515Y494924D01*
X77589Y495044D01*
X77672Y495155D01*
X77765Y495247D01*
X77866Y495340D01*
X77876Y495349D01*
X77894Y495358D01*
X77922Y495377D01*
X77968Y495414D01*
X78024Y495442D01*
X78098Y495479D01*
X78172Y495525D01*
X78264Y495562D01*
X78366Y495608D01*
X78477Y495645D01*
X78717Y495719D01*
X79004Y495765D01*
X79152Y495774D01*
X79309Y495784D01*
X79401D01*
X79466Y495774D01*
D02*
G37*
G36*
X76202Y489349D02*
X74973D01*
Y490578D01*
X76202D01*
Y489349D01*
D02*
G37*
G36*
X73336Y491706D02*
X74131D01*
Y490634D01*
X73336D01*
Y489349D01*
X72153D01*
Y490634D01*
X69527D01*
Y491697D01*
X72301Y495774D01*
X73336D01*
Y491706D01*
D02*
G37*
G36*
X67031Y495774D02*
X67114Y495765D01*
X67206Y495756D01*
X67308Y495737D01*
X67419Y495719D01*
X67659Y495654D01*
X67900Y495562D01*
X68029Y495506D01*
X68140Y495442D01*
X68260Y495358D01*
X68362Y495266D01*
X68371Y495257D01*
X68390Y495247D01*
X68408Y495210D01*
X68445Y495173D01*
X68491Y495127D01*
X68538Y495062D01*
X68584Y494998D01*
X68639Y494915D01*
X68732Y494730D01*
X68824Y494517D01*
X68861Y494397D01*
X68880Y494267D01*
X68898Y494129D01*
X68907Y493990D01*
Y493971D01*
Y493916D01*
X68898Y493833D01*
X68889Y493731D01*
X68871Y493602D01*
X68843Y493463D01*
X68806Y493315D01*
X68750Y493167D01*
X68741Y493149D01*
X68723Y493102D01*
X68686Y493019D01*
X68630Y492917D01*
X68565Y492797D01*
X68482Y492659D01*
X68380Y492511D01*
X68260Y492353D01*
X68251Y492344D01*
X68214Y492298D01*
X68159Y492233D01*
X68075Y492141D01*
X67964Y492030D01*
X67826Y491882D01*
X67659Y491725D01*
X67456Y491531D01*
X67447Y491521D01*
X67428Y491512D01*
X67400Y491484D01*
X67363Y491447D01*
X67262Y491355D01*
X67141Y491244D01*
X67021Y491124D01*
X66901Y491004D01*
X66790Y490902D01*
X66753Y490856D01*
X66716Y490819D01*
X66707Y490809D01*
X66688Y490791D01*
X66661Y490754D01*
X66624Y490708D01*
X66541Y490606D01*
X66467Y490486D01*
X68907D01*
Y489349D01*
X64608D01*
Y489358D01*
Y489376D01*
X64618Y489413D01*
X64627Y489460D01*
X64636Y489515D01*
X64645Y489580D01*
X64682Y489746D01*
X64738Y489931D01*
X64812Y490135D01*
X64904Y490356D01*
X65024Y490569D01*
Y490578D01*
X65043Y490597D01*
X65061Y490634D01*
X65098Y490671D01*
X65135Y490736D01*
X65191Y490800D01*
X65255Y490883D01*
X65329Y490976D01*
X65413Y491087D01*
X65514Y491198D01*
X65625Y491327D01*
X65755Y491466D01*
X65893Y491605D01*
X66051Y491762D01*
X66217Y491928D01*
X66402Y492104D01*
X66411Y492113D01*
X66439Y492141D01*
X66476Y492178D01*
X66531Y492233D01*
X66605Y492289D01*
X66679Y492363D01*
X66846Y492529D01*
X67012Y492705D01*
X67179Y492880D01*
X67252Y492954D01*
X67326Y493038D01*
X67382Y493102D01*
X67419Y493158D01*
X67428Y493176D01*
X67456Y493223D01*
X67502Y493297D01*
X67548Y493398D01*
X67595Y493509D01*
X67641Y493639D01*
X67668Y493768D01*
X67678Y493907D01*
Y493916D01*
Y493925D01*
Y493971D01*
X67668Y494055D01*
X67650Y494147D01*
X67622Y494249D01*
X67585Y494351D01*
X67530Y494452D01*
X67456Y494545D01*
X67447Y494554D01*
X67419Y494582D01*
X67363Y494619D01*
X67299Y494656D01*
X67206Y494693D01*
X67105Y494730D01*
X66984Y494757D01*
X66846Y494767D01*
X66781D01*
X66707Y494757D01*
X66624Y494739D01*
X66522Y494711D01*
X66420Y494665D01*
X66319Y494609D01*
X66226Y494535D01*
X66217Y494526D01*
X66189Y494489D01*
X66152Y494434D01*
X66115Y494351D01*
X66069Y494249D01*
X66032Y494110D01*
X65995Y493953D01*
X65977Y493768D01*
X64756Y493888D01*
Y493898D01*
X64765Y493934D01*
Y493981D01*
X64784Y494055D01*
X64793Y494138D01*
X64821Y494230D01*
X64849Y494332D01*
X64876Y494452D01*
X64969Y494683D01*
X65080Y494924D01*
X65154Y495044D01*
X65237Y495155D01*
X65329Y495247D01*
X65431Y495340D01*
X65440Y495349D01*
X65459Y495358D01*
X65487Y495377D01*
X65533Y495414D01*
X65588Y495442D01*
X65662Y495479D01*
X65736Y495525D01*
X65829Y495562D01*
X65930Y495608D01*
X66041Y495645D01*
X66282Y495719D01*
X66568Y495765D01*
X66716Y495774D01*
X66873Y495784D01*
X66966D01*
X67031Y495774D01*
D02*
G37*
G36*
X63767Y489349D02*
X62537D01*
Y490578D01*
X63767D01*
Y489349D01*
D02*
G37*
G36*
X89377Y495774D02*
X89451Y495765D01*
X89544Y495747D01*
X89636Y495728D01*
X89747Y495700D01*
X89867Y495663D01*
X89978Y495617D01*
X90098Y495571D01*
X90219Y495506D01*
X90339Y495423D01*
X90459Y495340D01*
X90570Y495238D01*
X90672Y495118D01*
X90681Y495109D01*
X90699Y495081D01*
X90727Y495035D01*
X90773Y494970D01*
X90820Y494878D01*
X90875Y494767D01*
X90931Y494646D01*
X90986Y494489D01*
X91041Y494323D01*
X91106Y494129D01*
X91152Y493916D01*
X91199Y493676D01*
X91245Y493417D01*
X91273Y493139D01*
X91291Y492834D01*
X91300Y492501D01*
Y492492D01*
Y492483D01*
Y492455D01*
Y492418D01*
Y492326D01*
X91291Y492206D01*
X91282Y492058D01*
X91263Y491882D01*
X91245Y491697D01*
X91226Y491494D01*
X91189Y491281D01*
X91143Y491059D01*
X91097Y490846D01*
X91032Y490634D01*
X90968Y490421D01*
X90875Y490227D01*
X90782Y490042D01*
X90672Y489885D01*
X90662Y489876D01*
X90644Y489857D01*
X90616Y489820D01*
X90579Y489783D01*
X90524Y489737D01*
X90459Y489682D01*
X90376Y489617D01*
X90293Y489561D01*
X90191Y489497D01*
X90089Y489432D01*
X89969Y489376D01*
X89839Y489330D01*
X89701Y489293D01*
X89544Y489256D01*
X89387Y489238D01*
X89220Y489228D01*
X89183D01*
X89128Y489238D01*
X89063D01*
X88989Y489247D01*
X88896Y489265D01*
X88795Y489284D01*
X88684Y489321D01*
X88564Y489358D01*
X88443Y489404D01*
X88314Y489460D01*
X88194Y489534D01*
X88064Y489608D01*
X87944Y489709D01*
X87824Y489811D01*
X87713Y489940D01*
X87704Y489950D01*
X87685Y489977D01*
X87657Y490024D01*
X87630Y490079D01*
X87584Y490162D01*
X87537Y490264D01*
X87482Y490393D01*
X87436Y490532D01*
X87380Y490699D01*
X87325Y490883D01*
X87278Y491096D01*
X87241Y491327D01*
X87205Y491586D01*
X87177Y491873D01*
X87158Y492178D01*
X87149Y492511D01*
Y492520D01*
Y492529D01*
Y492557D01*
Y492594D01*
Y492686D01*
X87158Y492807D01*
X87168Y492954D01*
X87186Y493130D01*
X87205Y493315D01*
X87223Y493518D01*
X87260Y493731D01*
X87297Y493944D01*
X87352Y494166D01*
X87408Y494378D01*
X87482Y494582D01*
X87565Y494776D01*
X87657Y494961D01*
X87768Y495118D01*
X87778Y495127D01*
X87796Y495146D01*
X87824Y495183D01*
X87870Y495220D01*
X87916Y495275D01*
X87981Y495331D01*
X88064Y495386D01*
X88148Y495451D01*
X88249Y495515D01*
X88351Y495571D01*
X88471Y495626D01*
X88601Y495682D01*
X88739Y495719D01*
X88896Y495756D01*
X89054Y495774D01*
X89220Y495784D01*
X89312D01*
X89377Y495774D01*
D02*
G37*
G36*
X59514D02*
X59597Y495765D01*
X59680Y495756D01*
X59782Y495747D01*
X59884Y495728D01*
X60115Y495673D01*
X60355Y495589D01*
X60466Y495534D01*
X60586Y495469D01*
X60688Y495395D01*
X60790Y495312D01*
X60799Y495303D01*
X60808Y495294D01*
X60836Y495266D01*
X60873Y495229D01*
X60910Y495183D01*
X60947Y495127D01*
X61049Y494988D01*
X61141Y494813D01*
X61215Y494619D01*
X61280Y494388D01*
X61289Y494258D01*
X61298Y494129D01*
Y494119D01*
Y494110D01*
Y494055D01*
X61289Y493971D01*
X61271Y493861D01*
X61243Y493740D01*
X61197Y493611D01*
X61141Y493472D01*
X61058Y493334D01*
X61049Y493315D01*
X61012Y493278D01*
X60965Y493213D01*
X60891Y493139D01*
X60799Y493047D01*
X60688Y492964D01*
X60559Y492880D01*
X60411Y492807D01*
X60420D01*
X60438Y492797D01*
X60466Y492788D01*
X60503Y492770D01*
X60596Y492714D01*
X60716Y492640D01*
X60845Y492557D01*
X60984Y492446D01*
X61113Y492317D01*
X61224Y492169D01*
X61234Y492150D01*
X61271Y492095D01*
X61317Y492011D01*
X61363Y491900D01*
X61418Y491762D01*
X61455Y491595D01*
X61493Y491420D01*
X61502Y491226D01*
Y491216D01*
Y491189D01*
Y491142D01*
X61493Y491078D01*
X61483Y491004D01*
X61474Y490911D01*
X61455Y490819D01*
X61428Y490717D01*
X61363Y490486D01*
X61317Y490366D01*
X61261Y490246D01*
X61197Y490125D01*
X61113Y490005D01*
X61030Y489894D01*
X60929Y489783D01*
X60919Y489774D01*
X60901Y489755D01*
X60873Y489728D01*
X60827Y489700D01*
X60771Y489654D01*
X60697Y489608D01*
X60623Y489561D01*
X60531Y489506D01*
X60429Y489450D01*
X60309Y489404D01*
X60189Y489358D01*
X60059Y489312D01*
X59911Y489284D01*
X59754Y489256D01*
X59597Y489238D01*
X59422Y489228D01*
X59338D01*
X59274Y489238D01*
X59200Y489247D01*
X59116Y489256D01*
X59024Y489265D01*
X58913Y489284D01*
X58682Y489339D01*
X58441Y489423D01*
X58321Y489469D01*
X58201Y489534D01*
X58081Y489598D01*
X57970Y489682D01*
X57961Y489691D01*
X57942Y489709D01*
X57905Y489737D01*
X57859Y489783D01*
X57813Y489839D01*
X57757Y489903D01*
X57692Y489987D01*
X57628Y490070D01*
X57563Y490172D01*
X57498Y490282D01*
X57443Y490403D01*
X57397Y490541D01*
X57351Y490680D01*
X57313Y490837D01*
X57295Y490994D01*
X57286Y491170D01*
Y491179D01*
Y491198D01*
Y491226D01*
Y491263D01*
X57295Y491364D01*
X57313Y491484D01*
X57351Y491632D01*
X57387Y491799D01*
X57452Y491965D01*
X57535Y492132D01*
Y492141D01*
X57545Y492150D01*
X57582Y492206D01*
X57646Y492280D01*
X57739Y492381D01*
X57850Y492492D01*
X57988Y492603D01*
X58155Y492705D01*
X58349Y492807D01*
X58340D01*
X58330Y492816D01*
X58275Y492844D01*
X58192Y492890D01*
X58090Y492945D01*
X57970Y493028D01*
X57859Y493121D01*
X57748Y493232D01*
X57656Y493352D01*
X57646Y493371D01*
X57619Y493417D01*
X57591Y493481D01*
X57554Y493583D01*
X57508Y493694D01*
X57480Y493833D01*
X57452Y493971D01*
X57443Y494129D01*
Y494138D01*
Y494156D01*
Y494193D01*
X57452Y494249D01*
X57461Y494304D01*
X57471Y494378D01*
X57508Y494545D01*
X57563Y494730D01*
X57656Y494933D01*
X57711Y495025D01*
X57776Y495127D01*
X57859Y495220D01*
X57942Y495312D01*
X57951Y495321D01*
X57970Y495331D01*
X57998Y495358D01*
X58035Y495386D01*
X58090Y495423D01*
X58146Y495460D01*
X58219Y495506D01*
X58312Y495552D01*
X58404Y495589D01*
X58506Y495636D01*
X58626Y495673D01*
X58756Y495710D01*
X58895Y495737D01*
X59042Y495765D01*
X59200Y495774D01*
X59366Y495784D01*
X59458D01*
X59514Y495774D01*
D02*
G37*
G36*
X49566D02*
X49649Y495765D01*
X49732Y495756D01*
X49834Y495747D01*
X49935Y495728D01*
X50167Y495673D01*
X50407Y495589D01*
X50518Y495534D01*
X50638Y495469D01*
X50740Y495395D01*
X50842Y495312D01*
X50851Y495303D01*
X50860Y495294D01*
X50888Y495266D01*
X50925Y495229D01*
X50962Y495183D01*
X50999Y495127D01*
X51100Y494988D01*
X51193Y494813D01*
X51267Y494619D01*
X51332Y494388D01*
X51341Y494258D01*
X51350Y494129D01*
Y494119D01*
Y494110D01*
Y494055D01*
X51341Y493971D01*
X51322Y493861D01*
X51295Y493740D01*
X51248Y493611D01*
X51193Y493472D01*
X51110Y493334D01*
X51100Y493315D01*
X51063Y493278D01*
X51017Y493213D01*
X50943Y493139D01*
X50851Y493047D01*
X50740Y492964D01*
X50610Y492880D01*
X50462Y492807D01*
X50472D01*
X50490Y492797D01*
X50518Y492788D01*
X50555Y492770D01*
X50647Y492714D01*
X50768Y492640D01*
X50897Y492557D01*
X51036Y492446D01*
X51165Y492317D01*
X51276Y492169D01*
X51285Y492150D01*
X51322Y492095D01*
X51369Y492011D01*
X51415Y491900D01*
X51470Y491762D01*
X51507Y491595D01*
X51544Y491420D01*
X51554Y491226D01*
Y491216D01*
Y491189D01*
Y491142D01*
X51544Y491078D01*
X51535Y491004D01*
X51526Y490911D01*
X51507Y490819D01*
X51480Y490717D01*
X51415Y490486D01*
X51369Y490366D01*
X51313Y490246D01*
X51248Y490125D01*
X51165Y490005D01*
X51082Y489894D01*
X50980Y489783D01*
X50971Y489774D01*
X50953Y489755D01*
X50925Y489728D01*
X50879Y489700D01*
X50823Y489654D01*
X50749Y489608D01*
X50675Y489561D01*
X50583Y489506D01*
X50481Y489450D01*
X50361Y489404D01*
X50241Y489358D01*
X50111Y489312D01*
X49963Y489284D01*
X49806Y489256D01*
X49649Y489238D01*
X49473Y489228D01*
X49390D01*
X49325Y489238D01*
X49251Y489247D01*
X49168Y489256D01*
X49076Y489265D01*
X48965Y489284D01*
X48734Y489339D01*
X48493Y489423D01*
X48373Y489469D01*
X48253Y489534D01*
X48133Y489598D01*
X48022Y489682D01*
X48012Y489691D01*
X47994Y489709D01*
X47957Y489737D01*
X47911Y489783D01*
X47864Y489839D01*
X47809Y489903D01*
X47744Y489987D01*
X47680Y490070D01*
X47615Y490172D01*
X47550Y490282D01*
X47495Y490403D01*
X47448Y490541D01*
X47402Y490680D01*
X47365Y490837D01*
X47347Y490994D01*
X47337Y491170D01*
Y491179D01*
Y491198D01*
Y491226D01*
Y491263D01*
X47347Y491364D01*
X47365Y491484D01*
X47402Y491632D01*
X47439Y491799D01*
X47504Y491965D01*
X47587Y492132D01*
Y492141D01*
X47596Y492150D01*
X47633Y492206D01*
X47698Y492280D01*
X47790Y492381D01*
X47902Y492492D01*
X48040Y492603D01*
X48207Y492705D01*
X48401Y492807D01*
X48391D01*
X48382Y492816D01*
X48327Y492844D01*
X48243Y492890D01*
X48142Y492945D01*
X48022Y493028D01*
X47911Y493121D01*
X47800Y493232D01*
X47707Y493352D01*
X47698Y493371D01*
X47670Y493417D01*
X47643Y493481D01*
X47606Y493583D01*
X47559Y493694D01*
X47532Y493833D01*
X47504Y493971D01*
X47495Y494129D01*
Y494138D01*
Y494156D01*
Y494193D01*
X47504Y494249D01*
X47513Y494304D01*
X47522Y494378D01*
X47559Y494545D01*
X47615Y494730D01*
X47707Y494933D01*
X47763Y495025D01*
X47828Y495127D01*
X47911Y495220D01*
X47994Y495312D01*
X48003Y495321D01*
X48022Y495331D01*
X48049Y495358D01*
X48086Y495386D01*
X48142Y495423D01*
X48197Y495460D01*
X48271Y495506D01*
X48364Y495552D01*
X48456Y495589D01*
X48558Y495636D01*
X48678Y495673D01*
X48808Y495710D01*
X48946Y495737D01*
X49094Y495765D01*
X49251Y495774D01*
X49418Y495784D01*
X49510D01*
X49566Y495774D01*
D02*
G37*
G36*
X44610D02*
X44684Y495765D01*
X44776Y495747D01*
X44869Y495728D01*
X44980Y495700D01*
X45100Y495663D01*
X45211Y495617D01*
X45331Y495571D01*
X45451Y495506D01*
X45572Y495423D01*
X45692Y495340D01*
X45803Y495238D01*
X45904Y495118D01*
X45914Y495109D01*
X45932Y495081D01*
X45960Y495035D01*
X46006Y494970D01*
X46052Y494878D01*
X46108Y494767D01*
X46163Y494646D01*
X46219Y494489D01*
X46274Y494323D01*
X46339Y494129D01*
X46385Y493916D01*
X46431Y493676D01*
X46478Y493417D01*
X46505Y493139D01*
X46524Y492834D01*
X46533Y492501D01*
Y492492D01*
Y492483D01*
Y492455D01*
Y492418D01*
Y492326D01*
X46524Y492206D01*
X46515Y492058D01*
X46496Y491882D01*
X46478Y491697D01*
X46459Y491494D01*
X46422Y491281D01*
X46376Y491059D01*
X46330Y490846D01*
X46265Y490634D01*
X46200Y490421D01*
X46108Y490227D01*
X46015Y490042D01*
X45904Y489885D01*
X45895Y489876D01*
X45877Y489857D01*
X45849Y489820D01*
X45812Y489783D01*
X45757Y489737D01*
X45692Y489682D01*
X45609Y489617D01*
X45525Y489561D01*
X45424Y489497D01*
X45322Y489432D01*
X45202Y489376D01*
X45072Y489330D01*
X44934Y489293D01*
X44776Y489256D01*
X44619Y489238D01*
X44453Y489228D01*
X44416D01*
X44360Y489238D01*
X44296D01*
X44222Y489247D01*
X44129Y489265D01*
X44028Y489284D01*
X43917Y489321D01*
X43796Y489358D01*
X43676Y489404D01*
X43547Y489460D01*
X43427Y489534D01*
X43297Y489608D01*
X43177Y489709D01*
X43057Y489811D01*
X42946Y489940D01*
X42937Y489950D01*
X42918Y489977D01*
X42890Y490024D01*
X42863Y490079D01*
X42816Y490162D01*
X42770Y490264D01*
X42715Y490393D01*
X42668Y490532D01*
X42613Y490699D01*
X42558Y490883D01*
X42511Y491096D01*
X42474Y491327D01*
X42437Y491586D01*
X42410Y491873D01*
X42391Y492178D01*
X42382Y492511D01*
Y492520D01*
Y492529D01*
Y492557D01*
Y492594D01*
Y492686D01*
X42391Y492807D01*
X42400Y492954D01*
X42419Y493130D01*
X42437Y493315D01*
X42456Y493518D01*
X42493Y493731D01*
X42530Y493944D01*
X42585Y494166D01*
X42641Y494378D01*
X42715Y494582D01*
X42798Y494776D01*
X42890Y494961D01*
X43001Y495118D01*
X43011Y495127D01*
X43029Y495146D01*
X43057Y495183D01*
X43103Y495220D01*
X43149Y495275D01*
X43214Y495331D01*
X43297Y495386D01*
X43380Y495451D01*
X43482Y495515D01*
X43584Y495571D01*
X43704Y495626D01*
X43833Y495682D01*
X43972Y495719D01*
X44129Y495756D01*
X44286Y495774D01*
X44453Y495784D01*
X44545D01*
X44610Y495774D01*
D02*
G37*
G36*
X672947Y295250D02*
X668981D01*
X668967D01*
X668940D01*
X668884D01*
X668815D01*
X668634Y295236D01*
X668426Y295222D01*
X668204Y295208D01*
X667982Y295167D01*
X667788Y295125D01*
X667719Y295084D01*
X667650Y295056D01*
X667636Y295042D01*
X667580Y295000D01*
X667525Y294945D01*
X667442Y294862D01*
X667372Y294751D01*
X667303Y294612D01*
X667261Y294446D01*
X667247Y294265D01*
Y294196D01*
X667261Y294127D01*
X667275Y294030D01*
X667303Y293919D01*
X667345Y293794D01*
X667400Y293655D01*
X667483Y293531D01*
X667497Y293517D01*
X667525Y293475D01*
X667580Y293419D01*
X667664Y293350D01*
X667761Y293267D01*
X667872Y293184D01*
X668010Y293114D01*
X668177Y293045D01*
X668204D01*
X668260Y293017D01*
X668371Y293004D01*
X668523Y292976D01*
X668731Y292948D01*
X668981Y292934D01*
X669272Y292906D01*
X669619D01*
X672947D01*
Y291062D01*
X669147D01*
X669134D01*
X669106D01*
X669050D01*
X668981D01*
X668815D01*
X668607Y291048D01*
X668385Y291034D01*
X668177Y291020D01*
X667982Y290993D01*
X667899Y290965D01*
X667844Y290951D01*
X667830D01*
X667788Y290937D01*
X667733Y290909D01*
X667677Y290882D01*
X667525Y290784D01*
X667456Y290715D01*
X667400Y290646D01*
X667386Y290632D01*
X667372Y290604D01*
X667345Y290563D01*
X667317Y290507D01*
X667289Y290424D01*
X667275Y290327D01*
X667247Y290216D01*
Y290022D01*
X667261Y289939D01*
X667275Y289841D01*
X667303Y289717D01*
X667345Y289592D01*
X667400Y289467D01*
X667483Y289328D01*
X667497Y289314D01*
X667525Y289273D01*
X667580Y289217D01*
X667650Y289148D01*
X667747Y289065D01*
X667858Y288982D01*
X667996Y288912D01*
X668149Y288843D01*
X668163D01*
X668232Y288815D01*
X668343Y288801D01*
X668482Y288774D01*
X668690Y288746D01*
X668926Y288732D01*
X669231Y288704D01*
X669577D01*
X672947D01*
Y286860D01*
X665985D01*
Y288552D01*
X666942D01*
X666928Y288566D01*
X666901Y288593D01*
X666845Y288649D01*
X666762Y288718D01*
X666679Y288801D01*
X666596Y288898D01*
X666485Y289023D01*
X666388Y289162D01*
X666291Y289314D01*
X666180Y289481D01*
X665999Y289841D01*
X665930Y290049D01*
X665874Y290257D01*
X665847Y290479D01*
X665833Y290715D01*
Y290826D01*
X665847Y290951D01*
X665861Y291103D01*
X665902Y291284D01*
X665944Y291478D01*
X666013Y291672D01*
X666110Y291866D01*
X666124Y291894D01*
X666166Y291950D01*
X666221Y292047D01*
X666318Y292157D01*
X666443Y292282D01*
X666582Y292421D01*
X666762Y292560D01*
X666956Y292684D01*
X666928Y292712D01*
X666859Y292768D01*
X666762Y292851D01*
X666637Y292976D01*
X666499Y293128D01*
X666360Y293295D01*
X666221Y293475D01*
X666110Y293669D01*
X666096Y293697D01*
X666069Y293766D01*
X666027Y293877D01*
X665972Y294016D01*
X665916Y294182D01*
X665874Y294376D01*
X665847Y294585D01*
X665833Y294806D01*
Y294931D01*
X665847Y295070D01*
X665874Y295250D01*
X665916Y295458D01*
X665972Y295666D01*
X666041Y295888D01*
X666152Y296096D01*
X666166Y296124D01*
X666207Y296179D01*
X666277Y296276D01*
X666374Y296401D01*
X666513Y296526D01*
X666665Y296665D01*
X666845Y296789D01*
X667067Y296901D01*
X667081Y296914D01*
X667150Y296928D01*
X667261Y296956D01*
X667414Y296998D01*
X667608Y297039D01*
X667858Y297067D01*
X668163Y297081D01*
X668510Y297095D01*
X672947D01*
Y295250D01*
D02*
G37*
G36*
Y283753D02*
X672934D01*
X672920Y283739D01*
X672864Y283725D01*
X672809Y283698D01*
X672739Y283670D01*
X672642Y283642D01*
X672531Y283615D01*
X672407Y283573D01*
X672393D01*
X672379Y283559D01*
X672323Y283545D01*
X672254Y283517D01*
X672198Y283504D01*
X672212Y283476D01*
X672268Y283420D01*
X672351Y283323D01*
X672448Y283199D01*
X672559Y283046D01*
X672684Y282880D01*
X672781Y282685D01*
X672878Y282491D01*
X672892Y282463D01*
X672906Y282394D01*
X672947Y282283D01*
X672989Y282145D01*
X673031Y281978D01*
X673058Y281784D01*
X673086Y281562D01*
X673100Y281340D01*
Y281243D01*
X673086Y281160D01*
Y281077D01*
X673072Y280966D01*
X673031Y280730D01*
X672961Y280453D01*
X672864Y280175D01*
X672726Y279898D01*
X672531Y279648D01*
X672517D01*
X672504Y279620D01*
X672420Y279551D01*
X672296Y279454D01*
X672129Y279343D01*
X671921Y279232D01*
X671672Y279135D01*
X671380Y279066D01*
X671228Y279052D01*
X671061Y279038D01*
X671034D01*
X670964D01*
X670853Y279052D01*
X670715Y279080D01*
X670548Y279107D01*
X670382Y279149D01*
X670201Y279218D01*
X670021Y279315D01*
X669994Y279329D01*
X669938Y279371D01*
X669855Y279426D01*
X669758Y279523D01*
X669647Y279620D01*
X669522Y279759D01*
X669411Y279912D01*
X669314Y280092D01*
X669300Y280120D01*
X669272Y280189D01*
X669231Y280300D01*
X669161Y280466D01*
X669092Y280674D01*
X669023Y280924D01*
X668953Y281229D01*
X668884Y281562D01*
Y281576D01*
X668870Y281618D01*
X668856Y281687D01*
X668842Y281770D01*
X668829Y281881D01*
X668801Y282006D01*
X668731Y282283D01*
X668662Y282574D01*
X668593Y282880D01*
X668510Y283143D01*
X668468Y283268D01*
X668426Y283365D01*
X668246D01*
X668218D01*
X668163D01*
X668066Y283351D01*
X667941Y283337D01*
X667816Y283296D01*
X667691Y283254D01*
X667580Y283185D01*
X667483Y283088D01*
X667469Y283074D01*
X667442Y283032D01*
X667414Y282963D01*
X667358Y282866D01*
X667317Y282727D01*
X667289Y282561D01*
X667261Y282353D01*
X667247Y282103D01*
Y282020D01*
X667261Y281936D01*
X667275Y281826D01*
X667303Y281701D01*
X667331Y281562D01*
X667386Y281437D01*
X667456Y281326D01*
X667469Y281312D01*
X667497Y281285D01*
X667539Y281229D01*
X667608Y281174D01*
X667705Y281091D01*
X667830Y281021D01*
X667969Y280952D01*
X668135Y280882D01*
X667830Y279232D01*
X667816D01*
X667788Y279246D01*
X667733Y279260D01*
X667664Y279288D01*
X667580Y279315D01*
X667483Y279357D01*
X667261Y279454D01*
X667026Y279593D01*
X666776Y279759D01*
X666540Y279953D01*
X666332Y280189D01*
Y280203D01*
X666304Y280217D01*
X666291Y280258D01*
X666249Y280314D01*
X666221Y280397D01*
X666180Y280480D01*
X666124Y280591D01*
X666083Y280702D01*
X666041Y280841D01*
X665985Y280993D01*
X665944Y281160D01*
X665916Y281354D01*
X665874Y281548D01*
X665861Y281770D01*
X665833Y281992D01*
Y282450D01*
X665847Y282547D01*
Y282658D01*
X665874Y282935D01*
X665902Y283226D01*
X665958Y283531D01*
X666041Y283823D01*
X666083Y283947D01*
X666138Y284072D01*
Y284086D01*
X666152Y284100D01*
X666193Y284169D01*
X666249Y284280D01*
X666332Y284405D01*
X666443Y284558D01*
X666568Y284696D01*
X666721Y284821D01*
X666873Y284932D01*
X666901Y284946D01*
X666956Y284974D01*
X667081Y285015D01*
X667150Y285029D01*
X667247Y285057D01*
X667345Y285085D01*
X667469Y285098D01*
X667608Y285126D01*
X667761Y285140D01*
X667927Y285154D01*
X668107Y285168D01*
X668301Y285182D01*
X668523D01*
X670673Y285154D01*
X670687D01*
X670715D01*
X670756D01*
X670826D01*
X670992D01*
X671186Y285168D01*
X671408D01*
X671630Y285196D01*
X671852Y285209D01*
X672032Y285237D01*
X672046D01*
X672101Y285251D01*
X672198Y285279D01*
X672309Y285306D01*
X672448Y285362D01*
X672601Y285417D01*
X672767Y285487D01*
X672947Y285570D01*
Y283753D01*
D02*
G37*
G36*
Y275821D02*
X669411D01*
X669397D01*
X669355D01*
X669300D01*
X669231D01*
X669134D01*
X669036D01*
X668801Y275807D01*
X668565Y275793D01*
X668315Y275765D01*
X668107Y275737D01*
X668024Y275723D01*
X667955Y275696D01*
X667941D01*
X667899Y275668D01*
X667844Y275640D01*
X667761Y275599D01*
X667594Y275474D01*
X667511Y275404D01*
X667442Y275307D01*
X667428Y275294D01*
X667414Y275266D01*
X667386Y275210D01*
X667345Y275127D01*
X667303Y275030D01*
X667275Y274933D01*
X667261Y274808D01*
X667247Y274669D01*
Y274586D01*
X667261Y274503D01*
X667275Y274392D01*
X667317Y274253D01*
X667358Y274115D01*
X667428Y273962D01*
X667511Y273810D01*
X667525Y273796D01*
X667553Y273754D01*
X667622Y273685D01*
X667691Y273602D01*
X667802Y273518D01*
X667913Y273435D01*
X668066Y273352D01*
X668218Y273297D01*
X668232D01*
X668301Y273269D01*
X668412Y273255D01*
X668579Y273227D01*
X668676Y273213D01*
X668801Y273199D01*
X668926Y273186D01*
X669078D01*
X669231Y273172D01*
X669411Y273158D01*
X669605D01*
X669813D01*
X672947D01*
Y271313D01*
X665985D01*
Y273019D01*
X667012D01*
X666998Y273033D01*
X666956Y273061D01*
X666901Y273116D01*
X666832Y273186D01*
X666734Y273269D01*
X666637Y273380D01*
X666526Y273505D01*
X666415Y273643D01*
X666318Y273796D01*
X666207Y273976D01*
X666110Y274156D01*
X666013Y274364D01*
X665944Y274586D01*
X665888Y274808D01*
X665847Y275058D01*
X665833Y275307D01*
Y275404D01*
X665847Y275529D01*
X665861Y275682D01*
X665888Y275848D01*
X665930Y276028D01*
X665985Y276223D01*
X666055Y276417D01*
X666069Y276445D01*
X666096Y276500D01*
X666138Y276597D01*
X666207Y276708D01*
X666291Y276833D01*
X666388Y276958D01*
X666499Y277083D01*
X666623Y277194D01*
X666637Y277207D01*
X666679Y277235D01*
X666748Y277277D01*
X666845Y277332D01*
X666956Y277402D01*
X667095Y277457D01*
X667234Y277512D01*
X667400Y277554D01*
X667414D01*
X667483Y277568D01*
X667580Y277596D01*
X667719Y277610D01*
X667886Y277637D01*
X668107Y277651D01*
X668343Y277665D01*
X668634D01*
X672947D01*
Y275821D01*
D02*
G37*
G36*
X672837Y270204D02*
X672850Y270190D01*
X672878Y270107D01*
X672920Y269968D01*
X672961Y269788D01*
X673017Y269580D01*
X673058Y269330D01*
X673086Y269053D01*
X673100Y268762D01*
Y268678D01*
X673086Y268581D01*
X673072Y268456D01*
X673058Y268318D01*
X673031Y268165D01*
X672989Y268013D01*
X672934Y267860D01*
X672920Y267846D01*
X672906Y267791D01*
X672864Y267721D01*
X672823Y267638D01*
X672684Y267444D01*
X672601Y267347D01*
X672504Y267264D01*
X672490Y267250D01*
X672448Y267236D01*
X672393Y267208D01*
X672309Y267167D01*
X672212Y267125D01*
X672088Y267083D01*
X671949Y267042D01*
X671796Y267014D01*
X671783D01*
X671727Y267000D01*
X671644D01*
X671505Y266986D01*
X671325Y266973D01*
X671103D01*
X670978Y266959D01*
X670826D01*
X670673D01*
X670493D01*
X667456D01*
Y266113D01*
X665985D01*
Y266959D01*
X664599D01*
X663517Y268803D01*
X665985D01*
Y270065D01*
X667456D01*
Y268803D01*
X670271D01*
X670285D01*
X670312D01*
X670354D01*
X670409D01*
X670548D01*
X670715D01*
X670881Y268817D01*
X671048D01*
X671172D01*
X671228Y268831D01*
X671255D01*
X671283Y268845D01*
X671339Y268872D01*
X671408Y268914D01*
X671491Y268997D01*
X671505Y269025D01*
X671533Y269081D01*
X671561Y269177D01*
X671574Y269302D01*
Y269358D01*
X671561Y269413D01*
X671547Y269496D01*
X671533Y269608D01*
X671505Y269732D01*
X671463Y269885D01*
X671408Y270051D01*
X672837Y270218D01*
Y270204D01*
D02*
G37*
G36*
X670007Y260759D02*
X670021D01*
X670049D01*
X670090D01*
X670146Y260773D01*
X670285Y260787D01*
X670479Y260815D01*
X670673Y260870D01*
X670895Y260954D01*
X671103Y261051D01*
X671283Y261189D01*
X671297Y261203D01*
X671353Y261273D01*
X671422Y261356D01*
X671505Y261481D01*
X671588Y261633D01*
X671658Y261827D01*
X671713Y262035D01*
X671727Y262257D01*
Y262327D01*
X671713Y262410D01*
X671699Y262507D01*
X671672Y262618D01*
X671630Y262743D01*
X671574Y262867D01*
X671491Y262978D01*
X671477Y262992D01*
X671450Y263034D01*
X671394Y263089D01*
X671311Y263145D01*
X671200Y263228D01*
X671075Y263297D01*
X670909Y263367D01*
X670729Y263436D01*
X671034Y265267D01*
X671048D01*
X671075Y265253D01*
X671131Y265225D01*
X671200Y265197D01*
X671283Y265156D01*
X671380Y265114D01*
X671602Y264989D01*
X671852Y264837D01*
X672115Y264643D01*
X672351Y264407D01*
X672573Y264143D01*
Y264129D01*
X672601Y264116D01*
X672615Y264060D01*
X672656Y264005D01*
X672698Y263935D01*
X672739Y263838D01*
X672781Y263741D01*
X672837Y263616D01*
X672934Y263339D01*
X673017Y263020D01*
X673072Y262645D01*
X673100Y262243D01*
Y262160D01*
X673086Y262077D01*
Y261952D01*
X673058Y261800D01*
X673031Y261619D01*
X673003Y261425D01*
X672947Y261231D01*
X672892Y261009D01*
X672809Y260787D01*
X672712Y260565D01*
X672601Y260343D01*
X672462Y260121D01*
X672309Y259914D01*
X672129Y259733D01*
X671921Y259553D01*
X671907Y259539D01*
X671880Y259525D01*
X671824Y259497D01*
X671755Y259442D01*
X671658Y259400D01*
X671547Y259345D01*
X671422Y259275D01*
X671269Y259220D01*
X671103Y259151D01*
X670923Y259095D01*
X670729Y259026D01*
X670507Y258984D01*
X670285Y258943D01*
X670049Y258901D01*
X669785Y258887D01*
X669522Y258873D01*
X669508D01*
X669453D01*
X669355D01*
X669231Y258887D01*
X669092Y258901D01*
X668926Y258915D01*
X668745Y258943D01*
X668537Y258984D01*
X668107Y259095D01*
X667886Y259165D01*
X667650Y259248D01*
X667428Y259359D01*
X667220Y259484D01*
X667012Y259622D01*
X666818Y259775D01*
X666804Y259789D01*
X666776Y259816D01*
X666721Y259872D01*
X666665Y259941D01*
X666596Y260024D01*
X666513Y260135D01*
X666415Y260260D01*
X666318Y260399D01*
X666235Y260551D01*
X666138Y260732D01*
X666055Y260912D01*
X665985Y261120D01*
X665930Y261328D01*
X665874Y261564D01*
X665847Y261800D01*
X665833Y262049D01*
Y262202D01*
X665847Y262313D01*
X665861Y262437D01*
X665888Y262590D01*
X665916Y262757D01*
X665958Y262937D01*
X666013Y263131D01*
X666083Y263325D01*
X666166Y263533D01*
X666277Y263741D01*
X666388Y263935D01*
X666526Y264129D01*
X666693Y264324D01*
X666873Y264490D01*
X666887Y264504D01*
X666915Y264532D01*
X666984Y264573D01*
X667067Y264629D01*
X667178Y264698D01*
X667303Y264767D01*
X667469Y264851D01*
X667650Y264934D01*
X667858Y265017D01*
X668093Y265100D01*
X668343Y265170D01*
X668634Y265239D01*
X668940Y265294D01*
X669272Y265336D01*
X669619Y265364D01*
X670007D01*
Y260759D01*
D02*
G37*
G36*
X672947Y255670D02*
X665985D01*
Y257514D01*
X672947D01*
Y255670D01*
D02*
G37*
G36*
X665056D02*
X663351D01*
Y257514D01*
X665056D01*
Y255670D01*
D02*
G37*
G36*
X672947Y251301D02*
Y249207D01*
X663351Y245768D01*
Y247862D01*
X670451Y250303D01*
X663351Y252646D01*
Y254713D01*
X672947Y251301D01*
D02*
G37*
G36*
Y239291D02*
X669411D01*
X669397D01*
X669355D01*
X669300D01*
X669231D01*
X669134D01*
X669036D01*
X668801Y239277D01*
X668565Y239263D01*
X668315Y239236D01*
X668107Y239208D01*
X668024Y239194D01*
X667955Y239166D01*
X667941D01*
X667899Y239139D01*
X667844Y239111D01*
X667761Y239069D01*
X667594Y238944D01*
X667511Y238875D01*
X667442Y238778D01*
X667428Y238764D01*
X667414Y238736D01*
X667386Y238681D01*
X667345Y238598D01*
X667303Y238501D01*
X667275Y238404D01*
X667261Y238279D01*
X667247Y238140D01*
Y238057D01*
X667261Y237974D01*
X667275Y237863D01*
X667317Y237724D01*
X667358Y237585D01*
X667428Y237433D01*
X667511Y237280D01*
X667525Y237266D01*
X667553Y237225D01*
X667622Y237155D01*
X667691Y237072D01*
X667802Y236989D01*
X667913Y236906D01*
X668066Y236823D01*
X668218Y236767D01*
X668232D01*
X668301Y236739D01*
X668412Y236726D01*
X668579Y236698D01*
X668676Y236684D01*
X668801Y236670D01*
X668926Y236656D01*
X669078D01*
X669231Y236642D01*
X669411Y236628D01*
X669605D01*
X669813D01*
X672947D01*
Y234784D01*
X665985D01*
Y236490D01*
X667012D01*
X666998Y236504D01*
X666956Y236531D01*
X666901Y236587D01*
X666832Y236656D01*
X666734Y236739D01*
X666637Y236850D01*
X666526Y236975D01*
X666415Y237114D01*
X666318Y237266D01*
X666207Y237447D01*
X666110Y237627D01*
X666013Y237835D01*
X665944Y238057D01*
X665888Y238279D01*
X665847Y238528D01*
X665833Y238778D01*
Y238875D01*
X665847Y239000D01*
X665861Y239153D01*
X665888Y239319D01*
X665930Y239499D01*
X665985Y239693D01*
X666055Y239888D01*
X666069Y239915D01*
X666096Y239971D01*
X666138Y240068D01*
X666207Y240179D01*
X666291Y240303D01*
X666388Y240428D01*
X666499Y240553D01*
X666623Y240664D01*
X666637Y240678D01*
X666679Y240706D01*
X666748Y240747D01*
X666845Y240803D01*
X666956Y240872D01*
X667095Y240928D01*
X667234Y240983D01*
X667400Y241025D01*
X667414D01*
X667483Y241039D01*
X667580Y241066D01*
X667719Y241080D01*
X667886Y241108D01*
X668107Y241122D01*
X668343Y241136D01*
X668634D01*
X672947D01*
Y239291D01*
D02*
G37*
G36*
Y231067D02*
X665985D01*
Y232912D01*
X672947D01*
Y231067D01*
D02*
G37*
G36*
X665056D02*
X663351D01*
Y232912D01*
X665056D01*
Y231067D01*
D02*
G37*
G36*
X670007Y221234D02*
X670021D01*
X670049D01*
X670090D01*
X670146Y221248D01*
X670285Y221262D01*
X670479Y221290D01*
X670673Y221345D01*
X670895Y221429D01*
X671103Y221526D01*
X671283Y221664D01*
X671297Y221678D01*
X671353Y221748D01*
X671422Y221831D01*
X671505Y221956D01*
X671588Y222108D01*
X671658Y222302D01*
X671713Y222510D01*
X671727Y222732D01*
Y222802D01*
X671713Y222885D01*
X671699Y222982D01*
X671672Y223093D01*
X671630Y223218D01*
X671574Y223342D01*
X671491Y223453D01*
X671477Y223467D01*
X671450Y223509D01*
X671394Y223564D01*
X671311Y223620D01*
X671200Y223703D01*
X671075Y223772D01*
X670909Y223842D01*
X670729Y223911D01*
X671034Y225742D01*
X671048D01*
X671075Y225728D01*
X671131Y225700D01*
X671200Y225672D01*
X671283Y225631D01*
X671380Y225589D01*
X671602Y225464D01*
X671852Y225312D01*
X672115Y225118D01*
X672351Y224882D01*
X672573Y224618D01*
Y224604D01*
X672601Y224591D01*
X672615Y224535D01*
X672656Y224480D01*
X672698Y224410D01*
X672739Y224313D01*
X672781Y224216D01*
X672837Y224091D01*
X672934Y223814D01*
X673017Y223495D01*
X673072Y223121D01*
X673100Y222718D01*
Y222635D01*
X673086Y222552D01*
Y222427D01*
X673058Y222275D01*
X673031Y222094D01*
X673003Y221900D01*
X672947Y221706D01*
X672892Y221484D01*
X672809Y221262D01*
X672712Y221040D01*
X672601Y220818D01*
X672462Y220597D01*
X672309Y220389D01*
X672129Y220208D01*
X671921Y220028D01*
X671907Y220014D01*
X671880Y220000D01*
X671824Y219972D01*
X671755Y219917D01*
X671658Y219875D01*
X671547Y219820D01*
X671422Y219751D01*
X671269Y219695D01*
X671103Y219626D01*
X670923Y219570D01*
X670729Y219501D01*
X670507Y219459D01*
X670285Y219418D01*
X670049Y219376D01*
X669785Y219362D01*
X669522Y219348D01*
X669508D01*
X669453D01*
X669355D01*
X669231Y219362D01*
X669092Y219376D01*
X668926Y219390D01*
X668745Y219418D01*
X668537Y219459D01*
X668107Y219570D01*
X667886Y219640D01*
X667650Y219723D01*
X667428Y219834D01*
X667220Y219959D01*
X667012Y220097D01*
X666818Y220250D01*
X666804Y220264D01*
X666776Y220291D01*
X666721Y220347D01*
X666665Y220416D01*
X666596Y220499D01*
X666513Y220610D01*
X666415Y220735D01*
X666318Y220874D01*
X666235Y221026D01*
X666138Y221207D01*
X666055Y221387D01*
X665985Y221595D01*
X665930Y221803D01*
X665874Y222039D01*
X665847Y222275D01*
X665833Y222524D01*
Y222677D01*
X665847Y222788D01*
X665861Y222913D01*
X665888Y223065D01*
X665916Y223232D01*
X665958Y223412D01*
X666013Y223606D01*
X666083Y223800D01*
X666166Y224008D01*
X666277Y224216D01*
X666388Y224410D01*
X666526Y224604D01*
X666693Y224799D01*
X666873Y224965D01*
X666887Y224979D01*
X666915Y225007D01*
X666984Y225048D01*
X667067Y225104D01*
X667178Y225173D01*
X667303Y225243D01*
X667469Y225326D01*
X667650Y225409D01*
X667858Y225492D01*
X668093Y225575D01*
X668343Y225645D01*
X668634Y225714D01*
X668940Y225769D01*
X669272Y225811D01*
X669619Y225839D01*
X670007D01*
Y221234D01*
D02*
G37*
G36*
X672947Y216367D02*
X671935D01*
X671963Y216353D01*
X672032Y216297D01*
X672143Y216200D01*
X672268Y216075D01*
X672407Y215937D01*
X672559Y215756D01*
X672698Y215562D01*
X672823Y215354D01*
X672837Y215326D01*
X672864Y215257D01*
X672906Y215132D01*
X672961Y214994D01*
X673017Y214813D01*
X673058Y214605D01*
X673086Y214397D01*
X673100Y214175D01*
Y214065D01*
X673086Y213981D01*
X673072Y213870D01*
X673045Y213759D01*
X673017Y213621D01*
X672975Y213468D01*
X672934Y213316D01*
X672864Y213149D01*
X672795Y212983D01*
X672698Y212803D01*
X672587Y212636D01*
X672462Y212456D01*
X672309Y212289D01*
X672143Y212123D01*
X672129Y212109D01*
X672101Y212081D01*
X672046Y212040D01*
X671963Y211998D01*
X671866Y211929D01*
X671741Y211859D01*
X671602Y211776D01*
X671436Y211707D01*
X671255Y211624D01*
X671061Y211541D01*
X670839Y211471D01*
X670604Y211416D01*
X670340Y211360D01*
X670063Y211319D01*
X669772Y211291D01*
X669453Y211277D01*
X669439D01*
X669369D01*
X669286D01*
X669161Y211291D01*
X669009Y211305D01*
X668842Y211319D01*
X668648Y211346D01*
X668454Y211374D01*
X668010Y211471D01*
X667788Y211541D01*
X667567Y211624D01*
X667345Y211721D01*
X667137Y211832D01*
X666942Y211957D01*
X666762Y212095D01*
X666748Y212109D01*
X666721Y212137D01*
X666679Y212178D01*
X666610Y212248D01*
X666540Y212331D01*
X666471Y212428D01*
X666388Y212539D01*
X666291Y212678D01*
X666207Y212816D01*
X666124Y212983D01*
X665972Y213330D01*
X665916Y213538D01*
X665874Y213745D01*
X665847Y213967D01*
X665833Y214203D01*
Y214314D01*
X665847Y214397D01*
X665861Y214494D01*
X665888Y214619D01*
X665916Y214744D01*
X665958Y214897D01*
X665999Y215049D01*
X666069Y215216D01*
X666152Y215382D01*
X666235Y215548D01*
X666360Y215729D01*
X666485Y215895D01*
X666637Y216062D01*
X666804Y216228D01*
X663351D01*
Y218072D01*
X672947D01*
Y216367D01*
D02*
G37*
G36*
Y208448D02*
X672934D01*
X672920Y208434D01*
X672864Y208420D01*
X672809Y208392D01*
X672739Y208365D01*
X672642Y208337D01*
X672531Y208309D01*
X672407Y208267D01*
X672393D01*
X672379Y208254D01*
X672323Y208240D01*
X672254Y208212D01*
X672198Y208198D01*
X672212Y208170D01*
X672268Y208115D01*
X672351Y208018D01*
X672448Y207893D01*
X672559Y207740D01*
X672684Y207574D01*
X672781Y207380D01*
X672878Y207186D01*
X672892Y207158D01*
X672906Y207089D01*
X672947Y206978D01*
X672989Y206839D01*
X673031Y206673D01*
X673058Y206479D01*
X673086Y206257D01*
X673100Y206035D01*
Y205938D01*
X673086Y205854D01*
Y205771D01*
X673072Y205660D01*
X673031Y205424D01*
X672961Y205147D01*
X672864Y204870D01*
X672726Y204592D01*
X672531Y204343D01*
X672517D01*
X672504Y204315D01*
X672420Y204246D01*
X672296Y204149D01*
X672129Y204038D01*
X671921Y203927D01*
X671672Y203830D01*
X671380Y203760D01*
X671228Y203746D01*
X671061Y203733D01*
X671034D01*
X670964D01*
X670853Y203746D01*
X670715Y203774D01*
X670548Y203802D01*
X670382Y203843D01*
X670201Y203913D01*
X670021Y204010D01*
X669994Y204024D01*
X669938Y204065D01*
X669855Y204121D01*
X669758Y204218D01*
X669647Y204315D01*
X669522Y204454D01*
X669411Y204606D01*
X669314Y204787D01*
X669300Y204814D01*
X669272Y204884D01*
X669231Y204995D01*
X669161Y205161D01*
X669092Y205369D01*
X669023Y205619D01*
X668953Y205924D01*
X668884Y206257D01*
Y206271D01*
X668870Y206312D01*
X668856Y206381D01*
X668842Y206465D01*
X668829Y206576D01*
X668801Y206700D01*
X668731Y206978D01*
X668662Y207269D01*
X668593Y207574D01*
X668510Y207838D01*
X668468Y207962D01*
X668426Y208060D01*
X668246D01*
X668218D01*
X668163D01*
X668066Y208046D01*
X667941Y208032D01*
X667816Y207990D01*
X667691Y207949D01*
X667580Y207879D01*
X667483Y207782D01*
X667469Y207768D01*
X667442Y207727D01*
X667414Y207657D01*
X667358Y207560D01*
X667317Y207422D01*
X667289Y207255D01*
X667261Y207047D01*
X667247Y206798D01*
Y206714D01*
X667261Y206631D01*
X667275Y206520D01*
X667303Y206395D01*
X667331Y206257D01*
X667386Y206132D01*
X667456Y206021D01*
X667469Y206007D01*
X667497Y205979D01*
X667539Y205924D01*
X667608Y205868D01*
X667705Y205785D01*
X667830Y205716D01*
X667969Y205646D01*
X668135Y205577D01*
X667830Y203927D01*
X667816D01*
X667788Y203941D01*
X667733Y203955D01*
X667664Y203982D01*
X667580Y204010D01*
X667483Y204051D01*
X667261Y204149D01*
X667026Y204287D01*
X666776Y204454D01*
X666540Y204648D01*
X666332Y204884D01*
Y204897D01*
X666304Y204911D01*
X666291Y204953D01*
X666249Y205009D01*
X666221Y205092D01*
X666180Y205175D01*
X666124Y205286D01*
X666083Y205397D01*
X666041Y205536D01*
X665985Y205688D01*
X665944Y205854D01*
X665916Y206049D01*
X665874Y206243D01*
X665861Y206465D01*
X665833Y206686D01*
Y207144D01*
X665847Y207241D01*
Y207352D01*
X665874Y207630D01*
X665902Y207921D01*
X665958Y208226D01*
X666041Y208517D01*
X666083Y208642D01*
X666138Y208767D01*
Y208781D01*
X666152Y208794D01*
X666193Y208864D01*
X666249Y208975D01*
X666332Y209100D01*
X666443Y209252D01*
X666568Y209391D01*
X666721Y209516D01*
X666873Y209627D01*
X666901Y209641D01*
X666956Y209668D01*
X667081Y209710D01*
X667150Y209724D01*
X667247Y209751D01*
X667345Y209779D01*
X667469Y209793D01*
X667608Y209821D01*
X667761Y209835D01*
X667927Y209848D01*
X668107Y209862D01*
X668301Y209876D01*
X668523D01*
X670673Y209848D01*
X670687D01*
X670715D01*
X670756D01*
X670826D01*
X670992D01*
X671186Y209862D01*
X671408D01*
X671630Y209890D01*
X671852Y209904D01*
X672032Y209932D01*
X672046D01*
X672101Y209946D01*
X672198Y209973D01*
X672309Y210001D01*
X672448Y210057D01*
X672601Y210112D01*
X672767Y210181D01*
X672947Y210265D01*
Y208448D01*
D02*
G37*
G36*
Y200487D02*
X665403Y200473D01*
X672947Y198587D01*
Y196715D01*
X665403Y194829D01*
X672947D01*
Y193040D01*
X663351D01*
Y195938D01*
X669910Y197658D01*
X663351Y199364D01*
Y202276D01*
X672947D01*
Y200487D01*
D02*
G37*
%LPC*%
G36*
X664213Y316089D02*
X664231Y316052D01*
X664313Y316025D01*
X664385Y316007D01*
X664503Y315962D01*
X664649Y315925D01*
X664740Y315889D01*
X664839Y315862D01*
X665067Y315780D01*
X665212Y315744D01*
X665330Y315698D01*
X665475Y315662D01*
X665603Y315607D01*
X665721Y315580D01*
X665811Y315544D01*
X665966Y315498D01*
X666257Y315408D01*
X666375Y315362D01*
X666475Y315335D01*
X666547Y315317D01*
X666729Y315244D01*
X666865Y315217D01*
X666965Y315171D01*
X667065Y315144D01*
X667138Y315126D01*
X667238Y315081D01*
X667356Y315053D01*
X667447Y315017D01*
X667547Y314990D01*
X667619Y314972D01*
X667737Y314926D01*
X667792Y314872D01*
X667774Y312710D01*
Y312691D01*
X667783Y312065D01*
X667774Y311892D01*
X667792Y311874D01*
X667774Y311838D01*
X667792Y311819D01*
X667774Y311765D01*
X667792Y311147D01*
X667855Y311138D01*
X667901Y311183D01*
X667919Y311220D01*
X667955Y311256D01*
X667973Y311292D01*
X668237Y311647D01*
X668300Y311747D01*
X668337Y311783D01*
X668355Y311819D01*
X669073Y312810D01*
X669145Y312918D01*
X669173Y312946D01*
X669191Y312982D01*
X669227Y313018D01*
X669245Y313055D01*
X669282Y313091D01*
X669300Y313127D01*
X669790Y313800D01*
X669972Y314054D01*
X670054Y314154D01*
X670108Y314172D01*
X670235Y314118D01*
X670308Y314099D01*
X670490Y314027D01*
X670608Y314000D01*
X670699Y313963D01*
X670799Y313936D01*
X670971Y313872D01*
X671071Y313845D01*
X671244Y313781D01*
X671389Y313745D01*
X671480Y313709D01*
X671634Y313663D01*
X671752Y313618D01*
X671852Y313591D01*
X671925Y313573D01*
X672052Y313518D01*
X672198Y313482D01*
X672325Y313427D01*
X672470Y313391D01*
X672561Y313354D01*
X672688Y313318D01*
X672806Y313273D01*
X672906Y313246D01*
X673079Y313182D01*
X673233Y313137D01*
X673306Y313118D01*
X673397Y313082D01*
X673469Y313064D01*
X673596Y313009D01*
X673642Y313000D01*
X673678Y313018D01*
X673651Y313118D01*
X673569Y313200D01*
X673551Y313236D01*
X673460Y313364D01*
X673442Y313400D01*
X673388Y313454D01*
X673369Y313491D01*
X673315Y313545D01*
X673260Y313636D01*
X672906Y314118D01*
X672879Y314145D01*
X672861Y314181D01*
X672824Y314217D01*
X672806Y314254D01*
X672634Y314481D01*
X672570Y314581D01*
X672534Y314617D01*
X672479Y314708D01*
X672443Y314744D01*
X672425Y314781D01*
X672207Y315071D01*
X671943Y315426D01*
X671871Y315535D01*
X671843Y315562D01*
X671825Y315598D01*
X671653Y315825D01*
X671580Y315934D01*
X671553Y315962D01*
X671534Y315998D01*
X671498Y316034D01*
X671480Y316107D01*
X671498Y316161D01*
X671553Y316216D01*
X671607Y316307D01*
X671644Y316343D01*
X671698Y316434D01*
X671734Y316470D01*
X671789Y316561D01*
X671825Y316597D01*
X671843Y316634D01*
X671898Y316688D01*
X671952Y316779D01*
X671989Y316815D01*
X672007Y316852D01*
X672316Y317270D01*
X672497Y317524D01*
X672579Y317624D01*
X672652Y317733D01*
X672679Y317760D01*
X672697Y317797D01*
X672779Y317896D01*
X672842Y317996D01*
X673015Y318223D01*
X673088Y318333D01*
X673115Y318360D01*
X673133Y318396D01*
X673260Y318560D01*
X673615Y319041D01*
X673642Y319068D01*
X673678Y319159D01*
X673633Y319205D01*
X673406Y319123D01*
X673306Y319096D01*
X673133Y319032D01*
X673033Y319005D01*
X672961Y318987D01*
X672870Y318950D01*
X672743Y318914D01*
X672625Y318869D01*
X672470Y318823D01*
X672298Y318759D01*
X672198Y318732D01*
X672025Y318669D01*
X671952Y318650D01*
X671807Y318596D01*
X671707Y318569D01*
X671634Y318551D01*
X671516Y318505D01*
X671416Y318478D01*
X671244Y318414D01*
X671144Y318387D01*
X671026Y318342D01*
X670926Y318314D01*
X670853Y318296D01*
X670735Y318251D01*
X670653Y318223D01*
X670581Y318205D01*
X670490Y318169D01*
X670308Y318114D01*
X670190Y318069D01*
X670108Y318042D01*
X670036Y318060D01*
X670008Y318087D01*
X669990Y318124D01*
X669954Y318160D01*
X669936Y318196D01*
X669899Y318233D01*
X669881Y318269D01*
X669845Y318305D01*
X669827Y318342D01*
X669381Y318950D01*
X669336Y319014D01*
X669218Y319186D01*
X669173Y319250D01*
X669136Y319286D01*
X669082Y319377D01*
X669045Y319414D01*
X668991Y319504D01*
X668955Y319541D01*
X668936Y319577D01*
X668628Y319995D01*
X668510Y320168D01*
X668464Y320231D01*
X668428Y320267D01*
X668410Y320304D01*
X668319Y320431D01*
X668300Y320467D01*
X668246Y320522D01*
X668228Y320558D01*
X668192Y320594D01*
X668173Y320631D01*
X668001Y320858D01*
X667874Y321058D01*
X667819Y321076D01*
X667774Y321031D01*
X667792Y317324D01*
X667728Y317261D01*
X667592Y317233D01*
X667492Y317188D01*
X667374Y317161D01*
X667301Y317143D01*
X667201Y317097D01*
X667056Y317061D01*
X666965Y317024D01*
X666838Y316988D01*
X666765Y316970D01*
X666638Y316915D01*
X666520Y316888D01*
X666429Y316852D01*
X666329Y316825D01*
X666257Y316806D01*
X666139Y316761D01*
X666039Y316734D01*
X665866Y316670D01*
X665766Y316643D01*
X665693Y316625D01*
X665603Y316588D01*
X665475Y316552D01*
X665303Y316488D01*
X665230Y316470D01*
X664912Y316370D01*
X664794Y316325D01*
X664594Y316271D01*
X664494Y316225D01*
X664394Y316198D01*
X664322Y316180D01*
X664231Y316143D01*
X664213Y316089D01*
D02*
G37*
G36*
X54549Y492603D02*
X54494D01*
X54420Y492585D01*
X54336Y492566D01*
X54244Y492529D01*
X54142Y492483D01*
X54040Y492409D01*
X53948Y492317D01*
X53939Y492307D01*
X53911Y492261D01*
X53874Y492196D01*
X53828Y492113D01*
X53782Y491993D01*
X53745Y491854D01*
X53717Y491688D01*
X53708Y491494D01*
Y491484D01*
Y491466D01*
Y491438D01*
Y491392D01*
X53726Y491290D01*
X53745Y491152D01*
X53772Y491004D01*
X53819Y490846D01*
X53883Y490699D01*
X53976Y490569D01*
X53985Y490560D01*
X54022Y490523D01*
X54087Y490467D01*
X54161Y490412D01*
X54253Y490347D01*
X54355Y490301D01*
X54475Y490264D01*
X54605Y490246D01*
X54660D01*
X54725Y490264D01*
X54808Y490282D01*
X54891Y490310D01*
X54993Y490356D01*
X55085Y490421D01*
X55178Y490504D01*
X55187Y490514D01*
X55215Y490560D01*
X55252Y490625D01*
X55298Y490717D01*
X55335Y490837D01*
X55372Y490985D01*
X55400Y491170D01*
X55409Y491383D01*
Y491392D01*
Y491410D01*
Y491447D01*
Y491484D01*
X55400Y491595D01*
X55381Y491734D01*
X55344Y491882D01*
X55307Y492039D01*
X55243Y492187D01*
X55159Y492307D01*
X55150Y492317D01*
X55113Y492353D01*
X55067Y492400D01*
X54993Y492455D01*
X54900Y492511D01*
X54799Y492557D01*
X54679Y492594D01*
X54549Y492603D01*
D02*
G37*
G36*
X94018Y494767D02*
X93963D01*
X93898Y494748D01*
X93824Y494730D01*
X93732Y494702D01*
X93639Y494646D01*
X93547Y494582D01*
X93455Y494489D01*
X93445Y494480D01*
X93418Y494434D01*
X93381Y494369D01*
X93344Y494277D01*
X93307Y494156D01*
X93270Y493999D01*
X93242Y493814D01*
X93233Y493602D01*
Y493592D01*
Y493574D01*
Y493546D01*
Y493500D01*
X93242Y493389D01*
X93260Y493260D01*
X93288Y493102D01*
X93334Y492954D01*
X93390Y492807D01*
X93473Y492686D01*
X93482Y492677D01*
X93519Y492640D01*
X93566Y492594D01*
X93639Y492548D01*
X93732Y492492D01*
X93834Y492446D01*
X93954Y492409D01*
X94083Y492400D01*
X94102D01*
X94139Y492409D01*
X94203Y492418D01*
X94287Y492437D01*
X94379Y492464D01*
X94481Y492520D01*
X94583Y492585D01*
X94675Y492677D01*
X94684Y492686D01*
X94712Y492733D01*
X94758Y492797D01*
X94804Y492880D01*
X94841Y493001D01*
X94888Y493139D01*
X94915Y493306D01*
X94925Y493500D01*
Y493509D01*
Y493528D01*
Y493555D01*
Y493602D01*
X94906Y493703D01*
X94888Y493842D01*
X94860Y493990D01*
X94804Y494147D01*
X94740Y494295D01*
X94647Y494434D01*
X94638Y494452D01*
X94601Y494489D01*
X94545Y494535D01*
X94472Y494600D01*
X94379Y494665D01*
X94268Y494711D01*
X94148Y494748D01*
X94018Y494767D01*
D02*
G37*
G36*
X72153Y493907D02*
X70664Y491706D01*
X72153D01*
Y493907D01*
D02*
G37*
G36*
X89220Y494767D02*
X89183D01*
X89137Y494757D01*
X89091Y494748D01*
X89026Y494730D01*
X88961Y494702D01*
X88887Y494665D01*
X88822Y494619D01*
X88813Y494609D01*
X88795Y494591D01*
X88767Y494554D01*
X88730Y494508D01*
X88684Y494434D01*
X88647Y494351D01*
X88601Y494240D01*
X88564Y494110D01*
Y494101D01*
X88554Y494092D01*
Y494055D01*
X88545Y494018D01*
X88536Y493962D01*
X88527Y493898D01*
X88517Y493824D01*
X88508Y493731D01*
X88490Y493620D01*
X88480Y493509D01*
X88471Y493371D01*
X88462Y493232D01*
X88453Y493065D01*
Y492899D01*
X88443Y492705D01*
Y492501D01*
Y492492D01*
Y492455D01*
Y492390D01*
Y492317D01*
Y492224D01*
X88453Y492122D01*
Y492002D01*
X88462Y491882D01*
X88471Y491623D01*
X88490Y491364D01*
X88499Y491244D01*
X88517Y491133D01*
X88536Y491031D01*
X88554Y490939D01*
X88564Y490920D01*
X88573Y490874D01*
X88601Y490800D01*
X88628Y490717D01*
X88674Y490625D01*
X88721Y490532D01*
X88776Y490449D01*
X88832Y490384D01*
X88841Y490375D01*
X88860Y490366D01*
X88896Y490338D01*
X88943Y490319D01*
X88998Y490292D01*
X89063Y490264D01*
X89137Y490255D01*
X89220Y490246D01*
X89257D01*
X89303Y490255D01*
X89349Y490264D01*
X89414Y490282D01*
X89479Y490301D01*
X89544Y490338D01*
X89608Y490384D01*
X89618Y490393D01*
X89636Y490412D01*
X89673Y490449D01*
X89710Y490504D01*
X89747Y490569D01*
X89793Y490662D01*
X89839Y490763D01*
X89876Y490893D01*
Y490902D01*
X89886Y490911D01*
Y490948D01*
X89895Y490985D01*
X89904Y491041D01*
X89914Y491105D01*
X89932Y491179D01*
X89941Y491272D01*
X89950Y491373D01*
X89969Y491494D01*
X89978Y491623D01*
X89987Y491771D01*
X89997Y491928D01*
Y492104D01*
X90006Y492298D01*
Y492501D01*
Y492511D01*
Y492548D01*
Y492612D01*
Y492686D01*
Y492779D01*
X89997Y492880D01*
Y493001D01*
X89987Y493121D01*
X89978Y493380D01*
X89960Y493629D01*
X89941Y493750D01*
X89923Y493870D01*
X89904Y493971D01*
X89886Y494055D01*
Y494064D01*
X89876Y494073D01*
X89867Y494119D01*
X89839Y494193D01*
X89812Y494286D01*
X89766Y494378D01*
X89719Y494471D01*
X89664Y494554D01*
X89608Y494619D01*
X89599Y494628D01*
X89581Y494646D01*
X89544Y494665D01*
X89497Y494693D01*
X89442Y494720D01*
X89377Y494748D01*
X89303Y494757D01*
X89220Y494767D01*
D02*
G37*
G36*
X59375Y494813D02*
X59320D01*
X59255Y494804D01*
X59172Y494785D01*
X59079Y494757D01*
X58987Y494720D01*
X58895Y494674D01*
X58811Y494600D01*
X58802Y494591D01*
X58783Y494563D01*
X58747Y494517D01*
X58710Y494452D01*
X58673Y494369D01*
X58636Y494277D01*
X58617Y494166D01*
X58608Y494036D01*
Y494018D01*
Y493971D01*
X58617Y493907D01*
X58636Y493824D01*
X58654Y493731D01*
X58691Y493639D01*
X58747Y493546D01*
X58811Y493463D01*
X58821Y493454D01*
X58848Y493435D01*
X58895Y493398D01*
X58959Y493361D01*
X59042Y493324D01*
X59135Y493287D01*
X59246Y493269D01*
X59366Y493260D01*
X59422D01*
X59486Y493269D01*
X59569Y493287D01*
X59662Y493306D01*
X59754Y493343D01*
X59847Y493398D01*
X59930Y493463D01*
X59939Y493472D01*
X59967Y493500D01*
X59995Y493546D01*
X60041Y493620D01*
X60078Y493703D01*
X60106Y493796D01*
X60133Y493916D01*
X60143Y494045D01*
Y494064D01*
Y494101D01*
X60133Y494166D01*
X60115Y494240D01*
X60087Y494332D01*
X60050Y494425D01*
X60004Y494517D01*
X59930Y494600D01*
X59921Y494609D01*
X59893Y494637D01*
X59847Y494665D01*
X59782Y494711D01*
X59699Y494748D01*
X59606Y494776D01*
X59495Y494804D01*
X59375Y494813D01*
D02*
G37*
G36*
X59384Y492289D02*
X59310D01*
X59227Y492270D01*
X59135Y492252D01*
X59024Y492215D01*
X58913Y492159D01*
X58802Y492076D01*
X58710Y491974D01*
X58700Y491956D01*
X58673Y491919D01*
X58645Y491854D01*
X58608Y491771D01*
X58562Y491669D01*
X58534Y491558D01*
X58506Y491429D01*
X58497Y491299D01*
Y491290D01*
Y491281D01*
Y491253D01*
Y491216D01*
X58515Y491124D01*
X58534Y491004D01*
X58562Y490874D01*
X58608Y490745D01*
X58673Y490615D01*
X58756Y490495D01*
X58765Y490486D01*
X58802Y490449D01*
X58857Y490412D01*
X58931Y490356D01*
X59024Y490310D01*
X59135Y490264D01*
X59264Y490227D01*
X59403Y490218D01*
X59468D01*
X59532Y490236D01*
X59625Y490255D01*
X59727Y490282D01*
X59828Y490329D01*
X59930Y490393D01*
X60032Y490486D01*
X60041Y490495D01*
X60069Y490541D01*
X60115Y490597D01*
X60161Y490689D01*
X60207Y490800D01*
X60254Y490939D01*
X60281Y491096D01*
X60291Y491281D01*
Y491290D01*
Y491299D01*
Y491355D01*
X60281Y491438D01*
X60263Y491540D01*
X60226Y491660D01*
X60180Y491780D01*
X60115Y491900D01*
X60032Y492011D01*
X60022Y492021D01*
X59985Y492058D01*
X59930Y492104D01*
X59856Y492150D01*
X59764Y492206D01*
X59653Y492243D01*
X59523Y492280D01*
X59384Y492289D01*
D02*
G37*
G36*
X49427Y494813D02*
X49372D01*
X49307Y494804D01*
X49224Y494785D01*
X49131Y494757D01*
X49039Y494720D01*
X48946Y494674D01*
X48863Y494600D01*
X48854Y494591D01*
X48835Y494563D01*
X48798Y494517D01*
X48761Y494452D01*
X48724Y494369D01*
X48687Y494277D01*
X48669Y494166D01*
X48660Y494036D01*
Y494018D01*
Y493971D01*
X48669Y493907D01*
X48687Y493824D01*
X48706Y493731D01*
X48743Y493639D01*
X48798Y493546D01*
X48863Y493463D01*
X48872Y493454D01*
X48900Y493435D01*
X48946Y493398D01*
X49011Y493361D01*
X49094Y493324D01*
X49187Y493287D01*
X49297Y493269D01*
X49418Y493260D01*
X49473D01*
X49538Y493269D01*
X49621Y493287D01*
X49714Y493306D01*
X49806Y493343D01*
X49899Y493398D01*
X49982Y493463D01*
X49991Y493472D01*
X50019Y493500D01*
X50046Y493546D01*
X50093Y493620D01*
X50130Y493703D01*
X50157Y493796D01*
X50185Y493916D01*
X50194Y494045D01*
Y494064D01*
Y494101D01*
X50185Y494166D01*
X50167Y494240D01*
X50139Y494332D01*
X50102Y494425D01*
X50056Y494517D01*
X49982Y494600D01*
X49973Y494609D01*
X49945Y494637D01*
X49899Y494665D01*
X49834Y494711D01*
X49751Y494748D01*
X49658Y494776D01*
X49547Y494804D01*
X49427Y494813D01*
D02*
G37*
G36*
X49436Y492289D02*
X49362D01*
X49279Y492270D01*
X49187Y492252D01*
X49076Y492215D01*
X48965Y492159D01*
X48854Y492076D01*
X48761Y491974D01*
X48752Y491956D01*
X48724Y491919D01*
X48697Y491854D01*
X48660Y491771D01*
X48613Y491669D01*
X48586Y491558D01*
X48558Y491429D01*
X48549Y491299D01*
Y491290D01*
Y491281D01*
Y491253D01*
Y491216D01*
X48567Y491124D01*
X48586Y491004D01*
X48613Y490874D01*
X48660Y490745D01*
X48724Y490615D01*
X48808Y490495D01*
X48817Y490486D01*
X48854Y490449D01*
X48909Y490412D01*
X48983Y490356D01*
X49076Y490310D01*
X49187Y490264D01*
X49316Y490227D01*
X49455Y490218D01*
X49519D01*
X49584Y490236D01*
X49677Y490255D01*
X49778Y490282D01*
X49880Y490329D01*
X49982Y490393D01*
X50083Y490486D01*
X50093Y490495D01*
X50120Y490541D01*
X50167Y490597D01*
X50213Y490689D01*
X50259Y490800D01*
X50305Y490939D01*
X50333Y491096D01*
X50342Y491281D01*
Y491290D01*
Y491299D01*
Y491355D01*
X50333Y491438D01*
X50315Y491540D01*
X50278Y491660D01*
X50231Y491780D01*
X50167Y491900D01*
X50083Y492011D01*
X50074Y492021D01*
X50037Y492058D01*
X49982Y492104D01*
X49908Y492150D01*
X49815Y492206D01*
X49704Y492243D01*
X49575Y492280D01*
X49436Y492289D01*
D02*
G37*
G36*
X44453Y494767D02*
X44416D01*
X44370Y494757D01*
X44323Y494748D01*
X44259Y494730D01*
X44194Y494702D01*
X44120Y494665D01*
X44055Y494619D01*
X44046Y494609D01*
X44028Y494591D01*
X44000Y494554D01*
X43963Y494508D01*
X43917Y494434D01*
X43880Y494351D01*
X43833Y494240D01*
X43796Y494110D01*
Y494101D01*
X43787Y494092D01*
Y494055D01*
X43778Y494018D01*
X43769Y493962D01*
X43759Y493898D01*
X43750Y493824D01*
X43741Y493731D01*
X43722Y493620D01*
X43713Y493509D01*
X43704Y493371D01*
X43695Y493232D01*
X43685Y493065D01*
Y492899D01*
X43676Y492705D01*
Y492501D01*
Y492492D01*
Y492455D01*
Y492390D01*
Y492317D01*
Y492224D01*
X43685Y492122D01*
Y492002D01*
X43695Y491882D01*
X43704Y491623D01*
X43722Y491364D01*
X43732Y491244D01*
X43750Y491133D01*
X43769Y491031D01*
X43787Y490939D01*
X43796Y490920D01*
X43806Y490874D01*
X43833Y490800D01*
X43861Y490717D01*
X43907Y490625D01*
X43954Y490532D01*
X44009Y490449D01*
X44064Y490384D01*
X44074Y490375D01*
X44092Y490366D01*
X44129Y490338D01*
X44176Y490319D01*
X44231Y490292D01*
X44296Y490264D01*
X44370Y490255D01*
X44453Y490246D01*
X44490D01*
X44536Y490255D01*
X44582Y490264D01*
X44647Y490282D01*
X44712Y490301D01*
X44776Y490338D01*
X44841Y490384D01*
X44850Y490393D01*
X44869Y490412D01*
X44906Y490449D01*
X44943Y490504D01*
X44980Y490569D01*
X45026Y490662D01*
X45072Y490763D01*
X45109Y490893D01*
Y490902D01*
X45118Y490911D01*
Y490948D01*
X45128Y490985D01*
X45137Y491041D01*
X45146Y491105D01*
X45165Y491179D01*
X45174Y491272D01*
X45183Y491373D01*
X45202Y491494D01*
X45211Y491623D01*
X45220Y491771D01*
X45230Y491928D01*
Y492104D01*
X45239Y492298D01*
Y492501D01*
Y492511D01*
Y492548D01*
Y492612D01*
Y492686D01*
Y492779D01*
X45230Y492880D01*
Y493001D01*
X45220Y493121D01*
X45211Y493380D01*
X45192Y493629D01*
X45174Y493750D01*
X45156Y493870D01*
X45137Y493971D01*
X45118Y494055D01*
Y494064D01*
X45109Y494073D01*
X45100Y494119D01*
X45072Y494193D01*
X45045Y494286D01*
X44998Y494378D01*
X44952Y494471D01*
X44897Y494554D01*
X44841Y494619D01*
X44832Y494628D01*
X44813Y494646D01*
X44776Y494665D01*
X44730Y494693D01*
X44675Y494720D01*
X44610Y494748D01*
X44536Y494757D01*
X44453Y494767D01*
D02*
G37*
G36*
X670215Y283365D02*
X669994D01*
X669619D01*
Y283351D01*
X669647Y283296D01*
X669661Y283212D01*
X669702Y283088D01*
X669744Y282935D01*
X669799Y282727D01*
X669855Y282505D01*
X669910Y282228D01*
Y282200D01*
X669924Y282158D01*
X669938Y282103D01*
X669966Y281978D01*
X670007Y281812D01*
X670049Y281645D01*
X670104Y281479D01*
X670174Y281340D01*
X670229Y281229D01*
X670243Y281215D01*
X670271Y281174D01*
X670326Y281118D01*
X670396Y281063D01*
X670493Y280993D01*
X670604Y280938D01*
X670729Y280896D01*
X670867Y280882D01*
X670881D01*
X670937D01*
X671006Y280896D01*
X671089Y280924D01*
X671200Y280952D01*
X671311Y280993D01*
X671422Y281063D01*
X671533Y281160D01*
X671547Y281174D01*
X671574Y281215D01*
X671616Y281271D01*
X671672Y281368D01*
X671727Y281465D01*
X671769Y281590D01*
X671796Y281742D01*
X671810Y281895D01*
Y281978D01*
X671796Y282075D01*
X671769Y282200D01*
X671727Y282353D01*
X671672Y282505D01*
X671602Y282685D01*
X671491Y282852D01*
X671477Y282866D01*
X671450Y282907D01*
X671394Y282963D01*
X671325Y283032D01*
X671228Y283101D01*
X671131Y283171D01*
X671006Y283240D01*
X670881Y283282D01*
X670867D01*
X670839Y283296D01*
X670770Y283309D01*
X670687Y283323D01*
X670562Y283337D01*
X670409Y283351D01*
X670215Y283365D01*
D02*
G37*
G36*
X668884Y263533D02*
X668870D01*
X668842D01*
X668815D01*
X668759Y263519D01*
X668607Y263505D01*
X668440Y263478D01*
X668246Y263422D01*
X668038Y263353D01*
X667844Y263242D01*
X667677Y263117D01*
X667664Y263103D01*
X667608Y263048D01*
X667539Y262964D01*
X667456Y262854D01*
X667386Y262715D01*
X667317Y262548D01*
X667261Y262368D01*
X667247Y262160D01*
Y262063D01*
X667275Y261952D01*
X667303Y261813D01*
X667358Y261661D01*
X667428Y261494D01*
X667539Y261328D01*
X667691Y261175D01*
X667705Y261162D01*
X667775Y261120D01*
X667872Y261051D01*
X668010Y260981D01*
X668177Y260898D01*
X668385Y260843D01*
X668621Y260801D01*
X668884Y260787D01*
Y263533D01*
D02*
G37*
G36*
Y224008D02*
X668870D01*
X668842D01*
X668815D01*
X668759Y223994D01*
X668607Y223980D01*
X668440Y223953D01*
X668246Y223897D01*
X668038Y223828D01*
X667844Y223717D01*
X667677Y223592D01*
X667664Y223578D01*
X667608Y223523D01*
X667539Y223440D01*
X667456Y223329D01*
X667386Y223190D01*
X667317Y223023D01*
X667261Y222843D01*
X667247Y222635D01*
Y222538D01*
X667275Y222427D01*
X667303Y222288D01*
X667358Y222136D01*
X667428Y221970D01*
X667539Y221803D01*
X667691Y221651D01*
X667705Y221637D01*
X667775Y221595D01*
X667872Y221526D01*
X668010Y221456D01*
X668177Y221373D01*
X668385Y221318D01*
X668621Y221276D01*
X668884Y221262D01*
Y224008D01*
D02*
G37*
G36*
X669508Y216228D02*
X669494D01*
X669453D01*
X669397D01*
X669314D01*
X669217Y216214D01*
X669092Y216200D01*
X668842Y216173D01*
X668551Y216117D01*
X668274Y216048D01*
X667996Y215937D01*
X667886Y215867D01*
X667775Y215784D01*
X667747Y215770D01*
X667691Y215701D01*
X667608Y215618D01*
X667511Y215493D01*
X667414Y215326D01*
X667331Y215146D01*
X667275Y214924D01*
X667247Y214689D01*
Y214661D01*
X667261Y214578D01*
X667275Y214453D01*
X667317Y214314D01*
X667372Y214134D01*
X667469Y213954D01*
X667594Y213773D01*
X667775Y213593D01*
X667802Y213579D01*
X667872Y213524D01*
X667996Y213454D01*
X668163Y213385D01*
X668385Y213302D01*
X668648Y213232D01*
X668967Y213177D01*
X669328Y213163D01*
X669342D01*
X669369D01*
X669439D01*
X669508D01*
X669605Y213177D01*
X669702D01*
X669938Y213205D01*
X670201Y213232D01*
X670479Y213288D01*
X670729Y213371D01*
X670839Y213413D01*
X670937Y213468D01*
X670950D01*
X670964Y213496D01*
X671048Y213551D01*
X671158Y213648D01*
X671283Y213787D01*
X671422Y213967D01*
X671533Y214175D01*
X671616Y214425D01*
X671630Y214564D01*
X671644Y214702D01*
Y214730D01*
X671630Y214813D01*
X671616Y214924D01*
X671574Y215077D01*
X671519Y215243D01*
X671422Y215424D01*
X671297Y215604D01*
X671117Y215784D01*
X671089Y215798D01*
X671020Y215854D01*
X670895Y215923D01*
X670715Y216006D01*
X670493Y216089D01*
X670215Y216159D01*
X669883Y216214D01*
X669508Y216228D01*
D02*
G37*
G36*
X670215Y208060D02*
X669994D01*
X669619D01*
Y208046D01*
X669647Y207990D01*
X669661Y207907D01*
X669702Y207782D01*
X669744Y207630D01*
X669799Y207422D01*
X669855Y207200D01*
X669910Y206922D01*
Y206895D01*
X669924Y206853D01*
X669938Y206798D01*
X669966Y206673D01*
X670007Y206506D01*
X670049Y206340D01*
X670104Y206173D01*
X670174Y206035D01*
X670229Y205924D01*
X670243Y205910D01*
X670271Y205868D01*
X670326Y205813D01*
X670396Y205757D01*
X670493Y205688D01*
X670604Y205632D01*
X670729Y205591D01*
X670867Y205577D01*
X670881D01*
X670937D01*
X671006Y205591D01*
X671089Y205619D01*
X671200Y205646D01*
X671311Y205688D01*
X671422Y205757D01*
X671533Y205854D01*
X671547Y205868D01*
X671574Y205910D01*
X671616Y205965D01*
X671672Y206063D01*
X671727Y206159D01*
X671769Y206284D01*
X671796Y206437D01*
X671810Y206590D01*
Y206673D01*
X671796Y206770D01*
X671769Y206895D01*
X671727Y207047D01*
X671672Y207200D01*
X671602Y207380D01*
X671491Y207546D01*
X671477Y207560D01*
X671450Y207602D01*
X671394Y207657D01*
X671325Y207727D01*
X671228Y207796D01*
X671131Y207865D01*
X671006Y207935D01*
X670881Y207976D01*
X670867D01*
X670839Y207990D01*
X670770Y208004D01*
X670687Y208018D01*
X670562Y208032D01*
X670409Y208046D01*
X670215Y208060D01*
D02*
G37*
%LPD*%
D12*
X99442Y492760D02*
G03*
X93346Y498856I-6096J0D01*
G01*
Y486664D02*
G03*
X99442Y492760I0J6096D01*
G01*
X44958Y498856D02*
G03*
X38862Y492760I0J-6096D01*
G01*
D02*
G03*
X44958Y486664I6096J0D01*
G01*
X93346D01*
X44958Y498856D02*
X93346D01*
D43*
X251684Y361590D02*
D03*
X266684D02*
D03*
X251684Y443091D02*
D03*
X266684D02*
D03*
X39628Y215072D02*
D03*
X54628D02*
D03*
X266684Y378551D02*
D03*
X251684D02*
D03*
D44*
X633950Y303859D02*
D03*
Y228929D02*
D03*
D45*
X111596Y471784D02*
D03*
Y516784D02*
D03*
X27596D02*
D03*
Y471784D02*
D03*
D46*
X244634Y65265D02*
D03*
Y112265D02*
D03*
X172903D02*
D03*
Y65265D02*
D03*
D47*
X48250Y253894D02*
D03*
Y278894D02*
D03*
D48*
X524568Y264815D02*
D03*
Y246115D02*
D03*
X544160D02*
D03*
Y264815D02*
D03*
D49*
X507205Y212318D02*
D03*
X496032Y223491D02*
D03*
D50*
X529282Y190418D02*
D03*
X518110Y201590D02*
D03*
X493328Y363250D02*
D03*
X504500Y352077D02*
D03*
X527020Y329491D02*
D03*
X515847Y340663D02*
D03*
X377877Y226425D02*
D03*
X389049Y215253D02*
D03*
D51*
X266196Y328848D02*
D03*
X250396Y328848D02*
D03*
X266196Y411291D02*
D03*
X250396Y411291D02*
D03*
X156347Y433614D02*
D03*
X140547D02*
D03*
X140547Y324967D02*
D03*
X156347Y324967D02*
D03*
X39600Y232032D02*
D03*
X55400D02*
D03*
X217700Y194204D02*
D03*
X201900Y194204D02*
D03*
X185271Y194204D02*
D03*
X169471Y194204D02*
D03*
X266196Y345152D02*
D03*
X250396Y345152D02*
D03*
X266196Y395151D02*
D03*
X250396D02*
D03*
X266196Y426672D02*
D03*
X250396Y426672D02*
D03*
D52*
X48250Y393551D02*
D03*
Y387051D02*
D03*
X48250Y380551D02*
D03*
X48250Y374051D02*
D03*
Y367551D02*
D03*
D53*
X172503Y433502D02*
D03*
X188303D02*
D03*
X172503Y324966D02*
D03*
X188303D02*
D03*
D54*
X134453Y405936D02*
D03*
X147153Y405936D02*
D03*
X159853Y405936D02*
D03*
X172553D02*
D03*
X185253D02*
D03*
X197953D02*
D03*
X210653Y405936D02*
D03*
X223353Y405936D02*
D03*
X223353Y356436D02*
D03*
X210653D02*
D03*
X197953D02*
D03*
X185253D02*
D03*
X172553D02*
D03*
X159853D02*
D03*
X147153D02*
D03*
X134453D02*
D03*
X174700Y265462D02*
D03*
X187400Y265462D02*
D03*
X200100D02*
D03*
X212800Y265462D02*
D03*
X212800Y216061D02*
D03*
X200100D02*
D03*
X187400D02*
D03*
X174700Y216061D02*
D03*
D55*
X119500Y233032D02*
D03*
X94500Y242532D02*
D03*
X119500Y252032D02*
D03*
D56*
X36000Y166654D02*
D03*
D57*
X96000Y189554D02*
D03*
Y166654D02*
D03*
Y143754D02*
D03*
D58*
X120469Y162554D02*
D03*
Y146754D02*
D03*
X233087Y161438D02*
D03*
Y145638D02*
D03*
X507377Y263365D02*
D03*
X507377Y247565D02*
D03*
X158552Y232632D02*
D03*
Y248432D02*
D03*
D59*
X217145Y163062D02*
D03*
Y144062D02*
D03*
X190145D02*
D03*
Y153562D02*
D03*
X190145Y163062D02*
D03*
D60*
X472344Y337974D02*
D03*
X501336Y308982D02*
D03*
D61*
X479465Y255788D02*
D03*
X473808Y250131D02*
D03*
X468151Y244474D02*
D03*
X462494Y238817D02*
D03*
X456837Y233160D02*
D03*
X451180Y227503D02*
D03*
X445523Y221846D02*
D03*
X439867Y216190D02*
D03*
X379055Y277001D02*
D03*
X384712Y282658D02*
D03*
X390369Y288314D02*
D03*
X396026Y293971D02*
D03*
X401683Y299628D02*
D03*
X407340Y305285D02*
D03*
X412997Y310942D02*
D03*
X418653Y316599D02*
D03*
D62*
Y216190D02*
D03*
X412997Y221846D02*
D03*
X407340Y227503D02*
D03*
X401683Y233160D02*
D03*
X396026Y238817D02*
D03*
X390369Y244474D02*
D03*
X384712Y250131D02*
D03*
X379055Y255788D02*
D03*
X439867Y316599D02*
D03*
X445523Y310942D02*
D03*
X451180Y305285D02*
D03*
X456837Y299628D02*
D03*
X462494Y293971D02*
D03*
X468151Y288314D02*
D03*
X473808Y282658D02*
D03*
X479465Y277001D02*
D03*
D63*
X468419Y435597D02*
D03*
Y420597D02*
D03*
X603249Y435597D02*
D03*
Y420597D02*
D03*
X513362Y435597D02*
D03*
Y420597D02*
D03*
X535834Y435597D02*
D03*
Y420597D02*
D03*
X558306Y435597D02*
D03*
Y420597D02*
D03*
X580778Y435597D02*
D03*
Y420597D02*
D03*
X490891Y435597D02*
D03*
Y420597D02*
D03*
X625721Y435597D02*
D03*
Y420597D02*
D03*
D64*
X468420Y401516D02*
D03*
Y385716D02*
D03*
X625722Y401516D02*
D03*
Y385716D02*
D03*
X490891Y401516D02*
D03*
Y385716D02*
D03*
X513363Y401516D02*
D03*
Y385716D02*
D03*
X580778Y401516D02*
D03*
Y385716D02*
D03*
X603250Y401516D02*
D03*
Y385716D02*
D03*
X558306Y401516D02*
D03*
Y385716D02*
D03*
X535835Y401516D02*
D03*
Y385716D02*
D03*
D65*
X229000Y21250D02*
D03*
X186500D02*
D03*
D66*
X48250Y320351D02*
D03*
Y440751D02*
D03*
D67*
X75250Y368051D02*
D03*
Y393051D02*
D03*
X95250D02*
D03*
D68*
Y368051D02*
D03*
D69*
X583150Y148192D02*
D03*
X187960Y508000D02*
D03*
X457200D02*
D03*
X279400Y25400D02*
D03*
X508000D02*
D03*
D70*
X608550Y148192D02*
D03*
X633950D02*
D03*
X659350D02*
D03*
X213360Y508000D02*
D03*
X238760D02*
D03*
X264160D02*
D03*
X289560D02*
D03*
X314960D02*
D03*
X340360D02*
D03*
X365760D02*
D03*
X391160D02*
D03*
X416560D02*
D03*
X482600D02*
D03*
X508000D02*
D03*
X533400D02*
D03*
X558800D02*
D03*
X584200D02*
D03*
X609600D02*
D03*
X304800Y25400D02*
D03*
X330200D02*
D03*
X355600D02*
D03*
X381000D02*
D03*
X406400D02*
D03*
X431800D02*
D03*
X457200D02*
D03*
X635000D02*
D03*
X609600D02*
D03*
X584200D02*
D03*
X558800D02*
D03*
X533400D02*
D03*
D71*
X412997Y385905D02*
D03*
D72*
Y435905D02*
D03*
D73*
X593478Y291569D02*
D03*
Y266169D02*
D03*
Y240769D02*
D03*
X568078D02*
D03*
X568078Y266169D02*
D03*
X568078Y291569D02*
D03*
X635000Y508000D02*
D03*
D74*
X21500Y345551D02*
D03*
Y415551D02*
D03*
D75*
X48500Y405551D02*
D03*
Y355551D02*
D03*
D76*
X304040Y375360D02*
D03*
X329440D02*
D03*
Y451561D02*
D03*
X304040D02*
D03*
D77*
X504093Y306224D02*
D03*
X469586Y340731D02*
D03*
D78*
X85000Y29000D02*
D03*
D79*
X113000Y77000D02*
D03*
X53000Y77000D02*
D03*
M02*
