G04*
G04 #@! TF.GenerationSoftware,Altium Limited,Altium Designer,23.0.1 (38)*
G04*
G04 Layer_Physical_Order=2*
G04 Layer_Color=14286848*
%FSLAX44Y44*%
%MOMM*%
G71*
G04*
G04 #@! TF.SameCoordinates,88FC3FB3-D5F9-4073-A5BC-648FF294B969*
G04*
G04*
G04 #@! TF.FilePolarity,Positive*
G04*
G01*
G75*
%ADD14C,0.3000*%
%ADD72C,1.4080*%
%ADD74O,1.9000X0.9500*%
G04:AMPARAMS|DCode=77|XSize=0.9mm|YSize=1.6mm|CornerRadius=0.225mm|HoleSize=0mm|Usage=FLASHONLY|Rotation=135.000|XOffset=0mm|YOffset=0mm|HoleType=Round|Shape=RoundedRectangle|*
%AMROUNDEDRECTD77*
21,1,0.9000,1.1500,0,0,135.0*
21,1,0.4500,1.6000,0,0,135.0*
1,1,0.4500,0.2475,0.5657*
1,1,0.4500,0.5657,0.2475*
1,1,0.4500,-0.2475,-0.5657*
1,1,0.4500,-0.5657,-0.2475*
%
%ADD77ROUNDEDRECTD77*%
%ADD80C,0.5000*%
%ADD81C,0.9000*%
%ADD83C,0.6000*%
%ADD84C,3.3160*%
G04:AMPARAMS|DCode=87|XSize=1.8mm|YSize=1.8mm|CornerRadius=0.18mm|HoleSize=0mm|Usage=FLASHONLY|Rotation=0.000|XOffset=0mm|YOffset=0mm|HoleType=Round|Shape=RoundedRectangle|*
%AMROUNDEDRECTD87*
21,1,1.8000,1.4400,0,0,0.0*
21,1,1.4400,1.8000,0,0,0.0*
1,1,0.3600,0.7200,-0.7200*
1,1,0.3600,-0.7200,-0.7200*
1,1,0.3600,-0.7200,0.7200*
1,1,0.3600,0.7200,0.7200*
%
%ADD87ROUNDEDRECTD87*%
%ADD88C,1.8000*%
G04:AMPARAMS|DCode=89|XSize=1.308mm|YSize=1.308mm|CornerRadius=0.1308mm|HoleSize=0mm|Usage=FLASHONLY|Rotation=90.000|XOffset=0mm|YOffset=0mm|HoleType=Round|Shape=RoundedRectangle|*
%AMROUNDEDRECTD89*
21,1,1.3080,1.0464,0,0,90.0*
21,1,1.0464,1.3080,0,0,90.0*
1,1,0.2616,0.5232,0.5232*
1,1,0.2616,0.5232,-0.5232*
1,1,0.2616,-0.5232,-0.5232*
1,1,0.2616,-0.5232,0.5232*
%
%ADD89ROUNDEDRECTD89*%
%ADD90C,1.3080*%
%ADD91C,1.6000*%
%ADD92O,0.9000X1.4000*%
%ADD93O,1.6000X2.4000*%
G04:AMPARAMS|DCode=94|XSize=3.8mm|YSize=1.9mm|CornerRadius=0.475mm|HoleSize=0mm|Usage=FLASHONLY|Rotation=180.000|XOffset=0mm|YOffset=0mm|HoleType=Round|Shape=RoundedRectangle|*
%AMROUNDEDRECTD94*
21,1,3.8000,0.9500,0,0,180.0*
21,1,2.8500,1.9000,0,0,180.0*
1,1,0.9500,-1.4250,0.4750*
1,1,0.9500,1.4250,0.4750*
1,1,0.9500,1.4250,-0.4750*
1,1,0.9500,-1.4250,-0.4750*
%
%ADD94ROUNDEDRECTD94*%
G04:AMPARAMS|DCode=95|XSize=4.4mm|YSize=2.2mm|CornerRadius=0.55mm|HoleSize=0mm|Usage=FLASHONLY|Rotation=90.000|XOffset=0mm|YOffset=0mm|HoleType=Round|Shape=RoundedRectangle|*
%AMROUNDEDRECTD95*
21,1,4.4000,1.1000,0,0,90.0*
21,1,3.3000,2.2000,0,0,90.0*
1,1,1.1000,0.5500,1.6500*
1,1,1.1000,0.5500,-1.6500*
1,1,1.1000,-0.5500,-1.6500*
1,1,1.1000,-0.5500,1.6500*
%
%ADD95ROUNDEDRECTD95*%
%ADD96C,0.6000*%
%ADD97C,0.8000*%
%ADD98C,0.8000*%
%ADD99C,0.4000*%
G04:AMPARAMS|DCode=100|XSize=1.408mm|YSize=1.408mm|CornerRadius=0.1408mm|HoleSize=0mm|Usage=FLASHONLY|Rotation=270.000|XOffset=0mm|YOffset=0mm|HoleType=Round|Shape=RoundedRectangle|*
%AMROUNDEDRECTD100*
21,1,1.4080,1.1264,0,0,270.0*
21,1,1.1264,1.4080,0,0,270.0*
1,1,0.2816,-0.5632,-0.5632*
1,1,0.2816,-0.5632,0.5632*
1,1,0.2816,0.5632,0.5632*
1,1,0.2816,0.5632,-0.5632*
%
%ADD100ROUNDEDRECTD100*%
G36*
X9945Y528922D02*
X147833D01*
X148022Y527652D01*
X146770Y527272D01*
X146566Y527231D01*
X146374Y527152D01*
X144680Y526638D01*
X143119Y525803D01*
X142926Y525724D01*
X142753Y525608D01*
X141192Y524774D01*
X139824Y523651D01*
X139651Y523535D01*
X139503Y523388D01*
X138135Y522265D01*
X137012Y520897D01*
X136865Y520749D01*
X136749Y520576D01*
X135626Y519208D01*
X134792Y517647D01*
X134676Y517473D01*
X134596Y517281D01*
X133762Y515720D01*
X133248Y514026D01*
X133168Y513834D01*
X133128Y513629D01*
X132614Y511936D01*
X132441Y510174D01*
X132400Y509970D01*
Y509761D01*
X132226Y508000D01*
X132400Y506239D01*
Y506030D01*
X132441Y505826D01*
X132614Y504064D01*
X133128Y502371D01*
X133168Y502166D01*
X133248Y501973D01*
X133762Y500280D01*
X134596Y498719D01*
X134676Y498526D01*
X134792Y498353D01*
X135626Y496792D01*
X136749Y495424D01*
X136865Y495251D01*
X137013Y495103D01*
X138135Y493735D01*
X139503Y492612D01*
X139651Y492465D01*
X139824Y492349D01*
X141192Y491226D01*
X142753Y490392D01*
X142926Y490276D01*
X143119Y490196D01*
X144680Y489362D01*
X146374Y488848D01*
X146566Y488769D01*
X146771Y488728D01*
X148464Y488214D01*
X150226Y488041D01*
X150430Y488000D01*
X150639D01*
X152400Y487826D01*
X154161Y488000D01*
X154370D01*
X154574Y488041D01*
X156336Y488214D01*
X158029Y488728D01*
X158234Y488769D01*
X158426Y488848D01*
X160120Y489362D01*
X161681Y490196D01*
X161873Y490276D01*
X162047Y490392D01*
X163608Y491226D01*
X164976Y492349D01*
X165149Y492465D01*
X165297Y492612D01*
X166665Y493735D01*
X167788Y495103D01*
X167935Y495251D01*
X168051Y495424D01*
X169174Y496792D01*
X170008Y498353D01*
X170124Y498526D01*
X170203Y498719D01*
X171038Y500280D01*
X171552Y501974D01*
X171631Y502166D01*
X171672Y502370D01*
X172186Y504064D01*
X172359Y505826D01*
X172400Y506030D01*
Y506239D01*
X172574Y508000D01*
X172400Y509761D01*
Y509970D01*
X172359Y510174D01*
X172186Y511936D01*
X171672Y513629D01*
X171631Y513834D01*
X171552Y514026D01*
X171038Y515720D01*
X170203Y517281D01*
X170124Y517473D01*
X170008Y517647D01*
X169174Y519208D01*
X168051Y520576D01*
X167935Y520749D01*
X167788Y520896D01*
X166665Y522265D01*
X165296Y523388D01*
X165149Y523535D01*
X164976Y523651D01*
X163608Y524774D01*
X162047Y525608D01*
X161873Y525724D01*
X161681Y525803D01*
X160120Y526638D01*
X158426Y527152D01*
X158234Y527231D01*
X158029Y527272D01*
X156778Y527652D01*
X156966Y528922D01*
X643031D01*
X655877Y516076D01*
Y403506D01*
X655877Y403506D01*
X656187Y401945D01*
X657071Y400622D01*
X681268Y376425D01*
Y360344D01*
X679998Y360155D01*
X679672Y361229D01*
X679631Y361434D01*
X679552Y361626D01*
X679038Y363320D01*
X678204Y364881D01*
X678124Y365074D01*
X678008Y365247D01*
X677174Y366808D01*
X676051Y368176D01*
X675935Y368349D01*
X675788Y368497D01*
X674665Y369865D01*
X673297Y370988D01*
X673149Y371135D01*
X672976Y371251D01*
X671608Y372374D01*
X670047Y373208D01*
X669874Y373324D01*
X669681Y373404D01*
X668120Y374238D01*
X666426Y374752D01*
X666234Y374831D01*
X666030Y374872D01*
X664336Y375386D01*
X662574Y375559D01*
X662370Y375600D01*
X662161D01*
X660400Y375774D01*
X658639Y375600D01*
X658430D01*
X658226Y375559D01*
X656464Y375386D01*
X654770Y374872D01*
X654566Y374831D01*
X654374Y374752D01*
X652680Y374238D01*
X651119Y373403D01*
X650926Y373324D01*
X650753Y373208D01*
X649192Y372374D01*
X647824Y371251D01*
X647651Y371135D01*
X647504Y370988D01*
X646135Y369865D01*
X645012Y368497D01*
X644865Y368349D01*
X644749Y368176D01*
X643626Y366808D01*
X642792Y365247D01*
X642676Y365074D01*
X642597Y364881D01*
X641762Y363320D01*
X641248Y361626D01*
X641169Y361434D01*
X641128Y361230D01*
X640614Y359536D01*
X640441Y357774D01*
X640400Y357570D01*
Y357362D01*
X640227Y355600D01*
X640400Y353838D01*
Y353630D01*
X640441Y353426D01*
X640614Y351664D01*
X641128Y349971D01*
X641169Y349766D01*
X641248Y349574D01*
X641762Y347880D01*
X642597Y346319D01*
X642676Y346126D01*
X642792Y345953D01*
X643626Y344392D01*
X644749Y343024D01*
X644865Y342851D01*
X645012Y342703D01*
X646135Y341335D01*
X647503Y340212D01*
X647651Y340065D01*
X647824Y339949D01*
X649192Y338826D01*
X650753Y337992D01*
X650926Y337876D01*
X651119Y337797D01*
X652680Y336962D01*
X654374Y336448D01*
X654566Y336369D01*
X654771Y336328D01*
X656464Y335814D01*
X658226Y335641D01*
X658430Y335600D01*
X658639D01*
X660400Y335426D01*
X662161Y335600D01*
X662370D01*
X662574Y335641D01*
X664336Y335814D01*
X666029Y336328D01*
X666234Y336369D01*
X666426Y336448D01*
X668120Y336962D01*
X669681Y337796D01*
X669874Y337876D01*
X670047Y337992D01*
X671608Y338826D01*
X672976Y339949D01*
X673149Y340065D01*
X673297Y340213D01*
X674665Y341335D01*
X675788Y342703D01*
X675935Y342851D01*
X676051Y343024D01*
X677174Y344392D01*
X678008Y345953D01*
X678124Y346126D01*
X678204Y346319D01*
X679038Y347880D01*
X679552Y349574D01*
X679631Y349766D01*
X679672Y349971D01*
X679998Y351045D01*
X681268Y350856D01*
Y80944D01*
X679998Y80756D01*
X679672Y81830D01*
X679631Y82034D01*
X679552Y82226D01*
X679038Y83920D01*
X678203Y85481D01*
X678124Y85674D01*
X678008Y85847D01*
X677174Y87408D01*
X676051Y88776D01*
X675935Y88949D01*
X675788Y89096D01*
X674665Y90465D01*
X673297Y91588D01*
X673149Y91735D01*
X672976Y91851D01*
X671608Y92974D01*
X670047Y93808D01*
X669874Y93924D01*
X669681Y94003D01*
X668120Y94838D01*
X666426Y95352D01*
X666234Y95431D01*
X666030Y95472D01*
X664336Y95986D01*
X662574Y96159D01*
X662370Y96200D01*
X662161D01*
X660400Y96374D01*
X658639Y96200D01*
X658430D01*
X658226Y96159D01*
X656464Y95986D01*
X654771Y95472D01*
X654566Y95431D01*
X654374Y95352D01*
X653674Y95140D01*
X653001Y96262D01*
X655155Y98416D01*
X655158Y98413D01*
X658214Y101992D01*
X660674Y106005D01*
X662475Y110353D01*
X663573Y114929D01*
X663942Y119621D01*
X663938D01*
Y136998D01*
X663982Y137010D01*
X666718Y138589D01*
X668952Y140824D01*
X670532Y143560D01*
X671350Y146612D01*
Y149772D01*
X670532Y152824D01*
X668952Y155560D01*
X666718Y157794D01*
X663982Y159374D01*
X660930Y160192D01*
X657770D01*
X654718Y159374D01*
X651982Y157794D01*
X649748Y155560D01*
X648168Y152824D01*
X647350Y149772D01*
Y146612D01*
X648168Y143560D01*
X649748Y140824D01*
X651982Y138589D01*
X654718Y137010D01*
X654762Y136998D01*
Y119621D01*
X654803Y119414D01*
X654422Y115549D01*
X653235Y111633D01*
X651306Y108024D01*
X648842Y105022D01*
X648666Y104905D01*
X639195Y95434D01*
X639192Y95437D01*
X636136Y91858D01*
X633676Y87845D01*
X631875Y83497D01*
X630777Y78921D01*
X630408Y74229D01*
X630412D01*
Y36594D01*
X630368Y36582D01*
X627632Y35002D01*
X625398Y32768D01*
X623818Y30032D01*
X623000Y26980D01*
Y23820D01*
X623818Y20768D01*
X625398Y18032D01*
X627632Y15798D01*
X630368Y14218D01*
X633420Y13400D01*
X636580D01*
X639632Y14218D01*
X642368Y15798D01*
X644602Y18032D01*
X646182Y20768D01*
X647000Y23820D01*
Y26980D01*
X646182Y30032D01*
X644602Y32768D01*
X642368Y35002D01*
X639632Y36582D01*
X639588Y36594D01*
Y71271D01*
X640858Y71460D01*
X641128Y70571D01*
X641169Y70366D01*
X641248Y70174D01*
X641762Y68480D01*
X642596Y66919D01*
X642676Y66726D01*
X642792Y66553D01*
X643626Y64992D01*
X644749Y63624D01*
X644865Y63451D01*
X645013Y63303D01*
X646135Y61935D01*
X647503Y60813D01*
X647651Y60665D01*
X647824Y60549D01*
X649192Y59426D01*
X650753Y58592D01*
X650926Y58476D01*
X651119Y58396D01*
X652680Y57562D01*
X654373Y57048D01*
X654566Y56969D01*
X654771Y56928D01*
X656464Y56414D01*
X658226Y56241D01*
X658430Y56200D01*
X658639D01*
X660400Y56027D01*
X662161Y56200D01*
X662370D01*
X662574Y56241D01*
X664336Y56414D01*
X666029Y56928D01*
X666234Y56969D01*
X666426Y57048D01*
X668120Y57562D01*
X669681Y58397D01*
X669874Y58476D01*
X670047Y58592D01*
X671608Y59426D01*
X672976Y60549D01*
X673149Y60665D01*
X673297Y60812D01*
X674665Y61935D01*
X675788Y63303D01*
X675935Y63451D01*
X676051Y63624D01*
X677174Y64992D01*
X678008Y66553D01*
X678124Y66726D01*
X678203Y66919D01*
X679038Y68480D01*
X679552Y70174D01*
X679631Y70366D01*
X679672Y70571D01*
X679998Y71645D01*
X681268Y71456D01*
Y52471D01*
X657071Y28275D01*
X656187Y26952D01*
X655877Y25391D01*
X655877Y25391D01*
Y14433D01*
X654607Y13907D01*
X654149Y14365D01*
X651944Y15278D01*
X649557D01*
X647351Y14365D01*
X645664Y12677D01*
X644883Y10793D01*
X643788Y10340D01*
X641727Y10069D01*
X641629Y10088D01*
X360621D01*
X360414Y10047D01*
X356549Y10428D01*
X352633Y11615D01*
X349024Y13544D01*
X347671Y14655D01*
X348396Y15703D01*
X349014Y15346D01*
X350968Y14218D01*
X354020Y13400D01*
X357180D01*
X360232Y14218D01*
X362968Y15798D01*
X365202Y18032D01*
X366782Y20768D01*
X367600Y23820D01*
Y26980D01*
X366782Y30032D01*
X365202Y32768D01*
X362968Y35002D01*
X361717Y35724D01*
Y136038D01*
X361684Y136208D01*
X361309Y140965D01*
X360155Y145771D01*
X358264Y150338D01*
X355682Y154552D01*
X352472Y158310D01*
X348713Y161520D01*
X344499Y164102D01*
X339933Y165994D01*
X335127Y167148D01*
X330370Y167522D01*
X330200Y167556D01*
X242848D01*
X242257Y167438D01*
X241654D01*
X241098Y167208D01*
X240507Y167090D01*
X240006Y166755D01*
X239449Y166525D01*
X239023Y166099D01*
X238522Y165764D01*
X238187Y165263D01*
X237761Y164837D01*
X237531Y164280D01*
X237196Y163779D01*
X237078Y163188D01*
X236848Y162632D01*
Y162029D01*
X236730Y161438D01*
X236848Y160847D01*
Y160245D01*
X237078Y159688D01*
X237196Y159097D01*
X237531Y158596D01*
X237761Y158040D01*
X238187Y157613D01*
X238522Y157112D01*
X239023Y156778D01*
X239449Y156352D01*
X240006Y156121D01*
X240507Y155786D01*
X241098Y155669D01*
X241654Y155438D01*
X242257D01*
X242848Y155321D01*
X330200D01*
X330482Y155377D01*
X333978Y155032D01*
X337611Y153930D01*
X340959Y152141D01*
X343894Y149732D01*
X346302Y146798D01*
X348092Y143449D01*
X349194Y139816D01*
X349538Y136320D01*
X349482Y136038D01*
Y35724D01*
X348232Y35002D01*
X345998Y32768D01*
X344418Y30032D01*
X343600Y26980D01*
Y23820D01*
X344418Y20768D01*
X345998Y18032D01*
X347505Y16524D01*
X348009Y16020D01*
X347155Y15078D01*
X346022Y16008D01*
X345905Y16184D01*
X341360Y20729D01*
X341382Y20768D01*
X342200Y23820D01*
Y26980D01*
X341382Y30032D01*
X339802Y32768D01*
X337568Y35002D01*
X334832Y36582D01*
X331780Y37400D01*
X328620D01*
X325568Y36582D01*
X322832Y35002D01*
X320598Y32768D01*
X319018Y30032D01*
X318200Y26980D01*
Y23820D01*
X319018Y20768D01*
X320598Y18032D01*
X322832Y15798D01*
X325568Y14218D01*
X328620Y13400D01*
X331780D01*
X334832Y14218D01*
X334871Y14240D01*
X339416Y9695D01*
X339413Y9692D01*
X342992Y6636D01*
X345093Y5348D01*
X344734Y4078D01*
X142335D01*
X141637Y5348D01*
X141670Y5400D01*
X141874Y5441D01*
X143636Y5614D01*
X145329Y6128D01*
X145534Y6169D01*
X145726Y6248D01*
X147420Y6762D01*
X148981Y7596D01*
X149173Y7676D01*
X149347Y7792D01*
X150908Y8626D01*
X152276Y9749D01*
X152449Y9865D01*
X152597Y10013D01*
X153965Y11135D01*
X155087Y12503D01*
X155235Y12651D01*
X155351Y12824D01*
X156474Y14192D01*
X157308Y15753D01*
X157424Y15926D01*
X157503Y16119D01*
X158338Y17680D01*
X158852Y19374D01*
X158931Y19566D01*
X158972Y19771D01*
X159486Y21464D01*
X159659Y23226D01*
X159700Y23430D01*
Y23639D01*
X159874Y25400D01*
X159700Y27161D01*
Y27370D01*
X159659Y27575D01*
X159486Y29336D01*
X158972Y31029D01*
X158931Y31234D01*
X158852Y31426D01*
X158338Y33120D01*
X157503Y34681D01*
X157424Y34873D01*
X157308Y35047D01*
X156474Y36608D01*
X155351Y37976D01*
X155235Y38149D01*
X155088Y38297D01*
X153965Y39665D01*
X152597Y40788D01*
X152449Y40935D01*
X152276Y41051D01*
X150908Y42174D01*
X149347Y43008D01*
X149173Y43124D01*
X148981Y43204D01*
X147420Y44038D01*
X145726Y44552D01*
X145534Y44631D01*
X145330Y44672D01*
X143636Y45186D01*
X141874Y45359D01*
X141670Y45400D01*
X141461D01*
X139700Y45574D01*
X137939Y45400D01*
X137730D01*
X137526Y45359D01*
X135764Y45186D01*
X134070Y44672D01*
X133866Y44631D01*
X133674Y44552D01*
X131980Y44038D01*
X130419Y43203D01*
X130226Y43124D01*
X130053Y43008D01*
X128492Y42174D01*
X127124Y41051D01*
X126951Y40935D01*
X126804Y40788D01*
X125435Y39665D01*
X124312Y38296D01*
X124165Y38149D01*
X124049Y37976D01*
X122926Y36608D01*
X122092Y35047D01*
X121976Y34873D01*
X121897Y34681D01*
X121062Y33120D01*
X120548Y31426D01*
X120469Y31234D01*
X120428Y31030D01*
X119914Y29336D01*
X119741Y27574D01*
X119700Y27370D01*
Y27162D01*
X119527Y25400D01*
X119700Y23638D01*
Y23430D01*
X119741Y23226D01*
X119914Y21464D01*
X120428Y19770D01*
X120469Y19566D01*
X120548Y19374D01*
X121062Y17680D01*
X121896Y16119D01*
X121976Y15926D01*
X122092Y15753D01*
X122926Y14192D01*
X124049Y12824D01*
X124165Y12651D01*
X124312Y12503D01*
X125435Y11135D01*
X126803Y10012D01*
X126951Y9865D01*
X127124Y9749D01*
X128492Y8626D01*
X130053Y7792D01*
X130226Y7676D01*
X130419Y7596D01*
X131980Y6762D01*
X133674Y6248D01*
X133866Y6169D01*
X134071Y6128D01*
X135764Y5614D01*
X137526Y5441D01*
X137730Y5400D01*
X137763Y5348D01*
X137065Y4078D01*
X9945D01*
X9781Y4046D01*
X7675Y4465D01*
X5750Y5750D01*
X4465Y7675D01*
X4046Y9781D01*
X4078Y9945D01*
Y521618D01*
X4078Y522844D01*
X4070Y522886D01*
X4236Y524084D01*
X4470Y525261D01*
X5780Y527220D01*
X7739Y528530D01*
X9827Y528945D01*
X9945Y528922D01*
D02*
G37*
%LPC*%
G36*
X316540Y520000D02*
X313380D01*
X310328Y519182D01*
X307592Y517602D01*
X305358Y515368D01*
X303778Y512632D01*
X302960Y509580D01*
Y506420D01*
X303778Y503368D01*
X304254Y502543D01*
X303213Y501807D01*
X301014Y504382D01*
X301560Y506420D01*
Y509580D01*
X300742Y512632D01*
X299162Y515368D01*
X296928Y517602D01*
X294192Y519182D01*
X291140Y520000D01*
X287980D01*
X284928Y519182D01*
X282192Y517602D01*
X279958Y515368D01*
X278378Y512632D01*
X277560Y509580D01*
Y506420D01*
X278378Y503368D01*
X279958Y500632D01*
X282192Y498398D01*
X284928Y496818D01*
X287980Y496000D01*
X291140D01*
X293115Y496529D01*
X295160Y494037D01*
X296996Y490602D01*
X298127Y486875D01*
X298484Y483256D01*
X298432Y482999D01*
Y465123D01*
X296195Y463406D01*
X294432Y461108D01*
X293323Y458432D01*
X292945Y455560D01*
Y447561D01*
X293323Y444689D01*
X294432Y442013D01*
X296195Y439715D01*
X298493Y437952D01*
X301168Y436844D01*
X304040Y436466D01*
X306912Y436844D01*
X309587Y437952D01*
X311885Y439715D01*
X313648Y442013D01*
X314757Y444689D01*
X315135Y447561D01*
Y455560D01*
X314757Y458432D01*
X313648Y461108D01*
X311885Y463406D01*
X309648Y465123D01*
Y482999D01*
X309628Y483100D01*
X309254Y487848D01*
X308119Y492577D01*
X306257Y497071D01*
X304888Y499306D01*
X305892Y500098D01*
X307592Y498398D01*
X310328Y496818D01*
X313380Y496000D01*
X316540D01*
X319592Y496818D01*
X322328Y498398D01*
X324562Y500632D01*
X326142Y503368D01*
X326960Y506420D01*
Y509580D01*
X326142Y512632D01*
X324562Y515368D01*
X322328Y517602D01*
X319592Y519182D01*
X316540Y520000D01*
D02*
G37*
G36*
X464400Y520094D02*
X450000D01*
X448127Y519721D01*
X446539Y518661D01*
X445479Y517073D01*
X445106Y515200D01*
Y500800D01*
X445479Y498927D01*
X446431Y497502D01*
X446187Y496895D01*
X445773Y496374D01*
X445274Y496525D01*
X440469Y496999D01*
Y496999D01*
X439222Y497055D01*
X437453Y497230D01*
X434553Y498109D01*
X431880Y499538D01*
X430497Y500674D01*
X429563Y501486D01*
X428682Y502366D01*
X427720Y503329D01*
X427742Y503368D01*
X428560Y506420D01*
Y509580D01*
X427742Y512632D01*
X426162Y515368D01*
X423928Y517602D01*
X421192Y519182D01*
X418140Y520000D01*
X414980D01*
X411928Y519182D01*
X409192Y517602D01*
X406958Y515368D01*
X405378Y512632D01*
X404560Y509580D01*
Y506420D01*
X405378Y503368D01*
X406958Y500632D01*
X409192Y498398D01*
X411928Y496818D01*
X414980Y496000D01*
X418140D01*
X421192Y496818D01*
X421231Y496840D01*
X423074Y494997D01*
X423074Y494997D01*
X423053Y494976D01*
X426785Y491912D01*
X431043Y489636D01*
X435664Y488235D01*
X440469Y487761D01*
Y487761D01*
X441715Y487705D01*
X443485Y487531D01*
X446385Y486651D01*
X449057Y485222D01*
X450441Y484087D01*
X451375Y483274D01*
X452256Y482394D01*
X499541Y435109D01*
Y434404D01*
X500454Y432199D01*
X502142Y430511D01*
X504347Y429597D01*
X506734D01*
X508940Y430511D01*
X510627Y432199D01*
X511541Y434404D01*
Y436791D01*
X510627Y438996D01*
X508940Y440684D01*
X506734Y441597D01*
X506029D01*
X457864Y489763D01*
X457863Y489763D01*
X457885Y489785D01*
X454153Y492848D01*
X450807Y494636D01*
X451125Y495906D01*
X462805D01*
X522012Y436699D01*
Y434404D01*
X522926Y432199D01*
X524614Y430511D01*
X526819Y429597D01*
X529206D01*
X531411Y430511D01*
X533099Y432199D01*
X534012Y434404D01*
Y436791D01*
X533099Y438996D01*
X531411Y440684D01*
X530718Y440971D01*
X469294Y502395D01*
Y515200D01*
X468922Y517073D01*
X467861Y518661D01*
X466273Y519721D01*
X464400Y520094D01*
D02*
G37*
G36*
X341940Y520000D02*
X338780D01*
X335728Y519182D01*
X332992Y517602D01*
X330758Y515368D01*
X329178Y512632D01*
X328360Y509580D01*
Y506420D01*
X329178Y503368D01*
X330758Y500632D01*
X332992Y498398D01*
X335728Y496818D01*
X338780Y496000D01*
X341940D01*
X344992Y496818D01*
X347728Y498398D01*
X349962Y500632D01*
X351542Y503368D01*
X352360Y506420D01*
Y509580D01*
X351542Y512632D01*
X349962Y515368D01*
X347728Y517602D01*
X344992Y519182D01*
X341940Y520000D01*
D02*
G37*
G36*
X240340D02*
X237180D01*
X234128Y519182D01*
X231392Y517602D01*
X229158Y515368D01*
X227578Y512632D01*
X226760Y509580D01*
Y506420D01*
X227578Y503368D01*
X229158Y500632D01*
X231392Y498398D01*
X234128Y496818D01*
X237180Y496000D01*
X240340D01*
X243392Y496818D01*
X246128Y498398D01*
X248362Y500632D01*
X249942Y503368D01*
X250760Y506420D01*
Y509580D01*
X249942Y512632D01*
X248362Y515368D01*
X246128Y517602D01*
X243392Y519182D01*
X240340Y520000D01*
D02*
G37*
G36*
X214940D02*
X211780D01*
X208728Y519182D01*
X205992Y517602D01*
X203758Y515368D01*
X202178Y512632D01*
X201360Y509580D01*
Y506420D01*
X202178Y503368D01*
X203758Y500632D01*
X205992Y498398D01*
X208728Y496818D01*
X211780Y496000D01*
X214940D01*
X217992Y496818D01*
X220728Y498398D01*
X222962Y500632D01*
X224542Y503368D01*
X225360Y506420D01*
Y509580D01*
X224542Y512632D01*
X222962Y515368D01*
X220728Y517602D01*
X217992Y519182D01*
X214940Y520000D01*
D02*
G37*
G36*
X195160Y520094D02*
X180760D01*
X178887Y519721D01*
X177299Y518661D01*
X176238Y517073D01*
X175866Y515200D01*
Y500800D01*
X176238Y498927D01*
X177299Y497339D01*
X178887Y496278D01*
X180760Y495906D01*
X195160D01*
X197033Y496278D01*
X198621Y497339D01*
X199681Y498927D01*
X200054Y500800D01*
Y515200D01*
X199681Y517073D01*
X198621Y518661D01*
X197033Y519721D01*
X195160Y520094D01*
D02*
G37*
G36*
X636580Y520000D02*
X633420D01*
X630368Y519182D01*
X627632Y517602D01*
X625398Y515368D01*
X623818Y512632D01*
X623000Y509580D01*
Y506420D01*
X623818Y503368D01*
X625398Y500632D01*
X627632Y498398D01*
X630368Y496818D01*
X630950Y496662D01*
X631648Y494362D01*
X631792Y494093D01*
X630760Y493328D01*
X620760Y503329D01*
X620782Y503368D01*
X621600Y506420D01*
Y509580D01*
X620782Y512632D01*
X619202Y515368D01*
X616968Y517602D01*
X614232Y519182D01*
X611180Y520000D01*
X608020D01*
X604968Y519182D01*
X602232Y517602D01*
X599998Y515368D01*
X598418Y512632D01*
X597600Y509580D01*
Y506420D01*
X598418Y503368D01*
X599998Y500632D01*
X602232Y498398D01*
X604968Y496818D01*
X608020Y496000D01*
X611180D01*
X614232Y496818D01*
X614271Y496840D01*
X624645Y486466D01*
X625541Y485571D01*
X625541Y485571D01*
X625543Y485568D01*
X625544Y485568D01*
X625544Y485567D01*
X626372Y484642D01*
X627972Y482692D01*
X629751Y479365D01*
X630846Y475755D01*
X631198Y472181D01*
X631162Y472000D01*
Y464761D01*
X629892Y464509D01*
X628324Y468295D01*
X625864Y472308D01*
X622808Y475887D01*
X622805Y475884D01*
X595360Y503329D01*
X595382Y503368D01*
X596200Y506420D01*
Y509580D01*
X595382Y512632D01*
X593802Y515368D01*
X591568Y517602D01*
X588832Y519182D01*
X585780Y520000D01*
X582620D01*
X579568Y519182D01*
X576832Y517602D01*
X574598Y515368D01*
X573018Y512632D01*
X572200Y509580D01*
Y506420D01*
X573018Y503368D01*
X574598Y500632D01*
X576832Y498398D01*
X579568Y496818D01*
X582620Y496000D01*
X585780D01*
X588832Y496818D01*
X588871Y496840D01*
X616316Y469395D01*
X616492Y469278D01*
X618956Y466276D01*
X620885Y462667D01*
X622072Y458751D01*
X622453Y454886D01*
X622412Y454679D01*
Y447979D01*
X621142Y447828D01*
X621128Y447885D01*
X619464Y451902D01*
X617192Y455610D01*
X614382Y458900D01*
X614370Y458919D01*
X569960Y503329D01*
X569982Y503368D01*
X570800Y506420D01*
Y509580D01*
X569982Y512632D01*
X568402Y515368D01*
X566168Y517602D01*
X563432Y519182D01*
X560380Y520000D01*
X557220D01*
X554168Y519182D01*
X551432Y517602D01*
X549198Y515368D01*
X547618Y512632D01*
X546800Y509580D01*
Y506420D01*
X547618Y503368D01*
X549198Y500632D01*
X551432Y498398D01*
X554168Y496818D01*
X557220Y496000D01*
X560380D01*
X563432Y496818D01*
X563471Y496840D01*
X606999Y453312D01*
X607881Y452430D01*
X608707Y451503D01*
X610229Y449649D01*
X611947Y446435D01*
X613005Y442948D01*
X613342Y439525D01*
X612813Y438996D01*
X611899Y436791D01*
Y434404D01*
X612813Y432199D01*
X613311Y431700D01*
Y409078D01*
X613352Y408871D01*
X612972Y405006D01*
X611784Y401090D01*
X609855Y397482D01*
X607391Y394480D01*
X607215Y394362D01*
X600231Y387378D01*
X599080Y388023D01*
X599651Y390400D01*
X600020Y395092D01*
X600016D01*
Y431700D01*
X600514Y432199D01*
X601428Y434404D01*
Y436791D01*
X600514Y438996D01*
X600016Y439494D01*
Y440785D01*
X600004Y440843D01*
X599681Y444122D01*
X598708Y447331D01*
X597127Y450289D01*
X595042Y452830D01*
X595007Y452882D01*
X595005Y452883D01*
X595004Y452885D01*
X544560Y503329D01*
X544582Y503368D01*
X545400Y506420D01*
Y509580D01*
X544582Y512632D01*
X543002Y515368D01*
X540768Y517602D01*
X538032Y519182D01*
X534980Y520000D01*
X531820D01*
X528768Y519182D01*
X526032Y517602D01*
X523798Y515368D01*
X522218Y512632D01*
X521400Y509580D01*
Y506420D01*
X522218Y503368D01*
X523798Y500632D01*
X526032Y498398D01*
X528768Y496818D01*
X531820Y496000D01*
X534980D01*
X538032Y496818D01*
X538071Y496840D01*
X588515Y446396D01*
X588517Y446395D01*
X588518Y446393D01*
X588592Y446344D01*
X589802Y444767D01*
X590597Y442846D01*
X590857Y440873D01*
X590839Y440785D01*
Y439494D01*
X590341Y438996D01*
X589428Y436791D01*
Y434404D01*
X590341Y432199D01*
X590839Y431700D01*
Y395092D01*
X590881Y394884D01*
X590500Y391020D01*
X589312Y387104D01*
X587383Y383495D01*
X584920Y380493D01*
X584744Y380376D01*
X515763Y311395D01*
X514144Y311572D01*
X513535Y312484D01*
X510353Y315666D01*
X508616Y316827D01*
X506568Y317234D01*
X504520Y316827D01*
X502783Y315666D01*
X494651Y307535D01*
X493491Y305798D01*
X493083Y303750D01*
X493491Y301701D01*
X494651Y299965D01*
X497833Y296782D01*
X498745Y296173D01*
X498923Y294555D01*
X493525Y289156D01*
X493520Y289149D01*
X493513Y289145D01*
X493399Y288975D01*
X490419Y286529D01*
X486827Y284609D01*
X482928Y283426D01*
X479080Y283047D01*
X478875Y283088D01*
X469064D01*
Y283104D01*
X465919Y282690D01*
X462988Y281476D01*
X460472Y279545D01*
X460483Y279534D01*
X458647Y277698D01*
X457942D01*
X455737Y276784D01*
X454049Y275096D01*
X453135Y272891D01*
Y270504D01*
X454049Y268299D01*
X455737Y266611D01*
X457942Y265697D01*
X460329D01*
X462534Y266611D01*
X463631Y265911D01*
X464112Y264749D01*
X465800Y263061D01*
X468005Y262148D01*
X470392D01*
X472598Y263061D01*
X473198Y263662D01*
X477837D01*
X478657Y262612D01*
X478696Y262416D01*
X478500Y261943D01*
Y259557D01*
X479413Y257351D01*
X481101Y255663D01*
X483197Y254795D01*
X483414Y254574D01*
X483890Y253611D01*
X483415Y252992D01*
X482103Y249825D01*
X481706Y246814D01*
X481181Y246289D01*
X480267Y244084D01*
Y241697D01*
X481181Y239492D01*
X482225Y238447D01*
X481068Y237290D01*
X480154Y235084D01*
Y233840D01*
X479008Y232740D01*
X478525Y232743D01*
X478463Y232746D01*
X435044Y276165D01*
X432092Y279118D01*
X431205Y280027D01*
X431133Y280116D01*
X431108Y280137D01*
X431108Y280137D01*
X430348Y280760D01*
X429848Y281186D01*
X429744Y281341D01*
X429418Y281558D01*
X428435Y282362D01*
X427816Y282891D01*
X423946Y285263D01*
X419753Y286999D01*
X415340Y288059D01*
X410816Y288415D01*
Y288414D01*
X391134D01*
X390923Y288372D01*
X387847Y288777D01*
X384783Y290046D01*
X382325Y291933D01*
X382206Y292109D01*
X382204Y292111D01*
X382202Y292114D01*
X379914Y294402D01*
Y295107D01*
X379000Y297312D01*
X377312Y299000D01*
X375107Y299914D01*
X372720D01*
X370515Y299000D01*
X368827Y297312D01*
X367914Y295107D01*
Y293013D01*
X367164Y292250D01*
X366822Y292036D01*
X364566D01*
X362361Y291123D01*
X360673Y289435D01*
X359760Y287229D01*
Y285019D01*
X359244Y284473D01*
X358700Y284083D01*
X357693Y284500D01*
X355307D01*
X353101Y283587D01*
X352761Y283247D01*
X351588Y283733D01*
Y320151D01*
X351592D01*
X351223Y324843D01*
X350125Y329419D01*
X348324Y333767D01*
X345864Y337780D01*
X342808Y341359D01*
X339229Y344415D01*
X335216Y346875D01*
X330868Y348675D01*
X326292Y349774D01*
X321600Y350144D01*
Y350139D01*
X278000D01*
X277930Y350125D01*
X276126Y350363D01*
X274381Y351086D01*
X272881Y352236D01*
X271731Y353736D01*
X271008Y355481D01*
X270770Y357285D01*
X270784Y357355D01*
Y399324D01*
X271283Y399822D01*
X272196Y402027D01*
Y404414D01*
X271283Y406620D01*
X269595Y408307D01*
X267390Y409221D01*
X265003D01*
X264144Y408865D01*
X263088Y409571D01*
Y423352D01*
X263117D01*
X262649Y428104D01*
X261263Y432673D01*
X259012Y436884D01*
X255983Y440575D01*
X252292Y443605D01*
X248081Y445855D01*
X243512Y447241D01*
X238760Y447709D01*
Y447680D01*
X176347D01*
X175849Y448179D01*
X173643Y449092D01*
X171257D01*
X169051Y448179D01*
X167363Y446491D01*
X166450Y444286D01*
Y441899D01*
X166858Y440914D01*
X166152Y439858D01*
X161903D01*
Y441064D01*
X162295Y442010D01*
Y444398D01*
X161381Y446603D01*
X159694Y448291D01*
X157488Y449204D01*
X155101D01*
X152896Y448291D01*
X151208Y446603D01*
X150295Y444398D01*
Y442010D01*
X150687Y441064D01*
Y438727D01*
X150751Y438405D01*
X151052Y436123D01*
X152057Y433695D01*
X153656Y431611D01*
X155740Y430012D01*
X158167Y429007D01*
X160450Y428706D01*
X160772Y428642D01*
X238760D01*
X238887Y428668D01*
X240617Y428440D01*
X242347Y427723D01*
X243833Y426583D01*
X244973Y425097D01*
X245690Y423367D01*
X245918Y421637D01*
X245892Y421510D01*
Y417667D01*
X244836Y416961D01*
X244041Y417291D01*
X241654D01*
X239449Y416377D01*
X237761Y414689D01*
X236848Y412484D01*
Y410097D01*
X237761Y407892D01*
X238260Y407393D01*
Y373570D01*
X238288Y373427D01*
X237937Y371661D01*
X236856Y370043D01*
X235238Y368962D01*
X233472Y368611D01*
X233329Y368639D01*
X170083D01*
X169904Y368604D01*
X167896Y369003D01*
X166196Y370139D01*
X166097Y370288D01*
X166095Y370289D01*
X166093Y370292D01*
X165853Y370532D01*
Y371237D01*
X164939Y373442D01*
X163251Y375130D01*
X161046Y376044D01*
X158659D01*
X156454Y375130D01*
X154766Y373442D01*
X154190Y372052D01*
X152815D01*
X152239Y373442D01*
X150551Y375130D01*
X148346Y376044D01*
X145959D01*
X143754Y375130D01*
X142066Y373442D01*
X141153Y371237D01*
Y368850D01*
X142066Y366645D01*
X143754Y364957D01*
X145959Y364044D01*
X146664D01*
X148462Y362246D01*
X148458Y362243D01*
X152037Y359187D01*
X156050Y356728D01*
X160398Y354926D01*
X164974Y353828D01*
X169666Y353459D01*
Y353463D01*
X232843D01*
X233010Y353496D01*
X234942Y353112D01*
X236720Y351923D01*
X237909Y350145D01*
X238293Y348214D01*
X238260Y348046D01*
Y332745D01*
X237761Y332247D01*
X236848Y330041D01*
Y327654D01*
X237761Y325449D01*
X239449Y323761D01*
X241654Y322848D01*
X244041D01*
X244836Y323177D01*
X245892Y322472D01*
Y313431D01*
X245483Y312444D01*
Y310056D01*
X246397Y307851D01*
X248085Y306163D01*
X250290Y305250D01*
X252677D01*
X254882Y306163D01*
X256570Y307851D01*
X257483Y310056D01*
Y312444D01*
X257108Y313350D01*
Y325887D01*
X258378Y326513D01*
X259403Y325727D01*
X262055Y324628D01*
X264900Y324254D01*
Y324260D01*
X323783D01*
X323838Y324271D01*
X325504Y324051D01*
X327107Y323387D01*
X328483Y322331D01*
X329539Y320954D01*
X330203Y319351D01*
X330423Y317686D01*
X330412Y317631D01*
Y273365D01*
X330408D01*
X330777Y268673D01*
X331875Y264097D01*
X333676Y259748D01*
X336136Y255736D01*
X339192Y252157D01*
X342771Y249100D01*
X346784Y246641D01*
X351132Y244840D01*
X355708Y243741D01*
X360400Y243372D01*
Y243377D01*
X425282D01*
X425780Y242878D01*
X427985Y241965D01*
X428690D01*
X458710Y211945D01*
X458707Y211942D01*
X462285Y208886D01*
X466298Y206427D01*
X470646Y204625D01*
X475223Y203527D01*
X479915Y203158D01*
Y203162D01*
X494058D01*
X494060Y203162D01*
X498526Y203514D01*
X502883Y204560D01*
X507023Y206275D01*
X510844Y208616D01*
X514251Y211526D01*
X517161Y214933D01*
X519503Y218754D01*
X521218Y222894D01*
X522264Y227251D01*
X522615Y231718D01*
X522615Y231719D01*
X522592Y231839D01*
X522911Y233445D01*
X523889Y234908D01*
X525352Y235885D01*
X526957Y236205D01*
X527077Y236181D01*
X558025D01*
X559275Y234015D01*
X561324Y231967D01*
X563832Y230518D01*
X566629Y229769D01*
X569526D01*
X572323Y230518D01*
X574832Y231967D01*
X576880Y234015D01*
X578328Y236523D01*
X579078Y239321D01*
Y242217D01*
X578328Y245015D01*
X576880Y247523D01*
X574832Y249571D01*
X572323Y251019D01*
X569526Y251769D01*
X566629D01*
X563832Y251019D01*
X561324Y249571D01*
X559275Y247523D01*
X558025Y245357D01*
X527077D01*
Y245386D01*
X523540Y244920D01*
X523342Y244838D01*
X522636Y245894D01*
X534248Y257506D01*
X534250Y257509D01*
X534253Y257511D01*
X534390Y257716D01*
X537089Y259787D01*
X540464Y261185D01*
X543841Y261629D01*
X544086Y261581D01*
X558025D01*
X559275Y259415D01*
X561323Y257367D01*
X563832Y255919D01*
X566629Y255169D01*
X569526D01*
X572323Y255919D01*
X574832Y257367D01*
X576880Y259415D01*
X578328Y261923D01*
X579078Y264721D01*
Y267617D01*
X578328Y270415D01*
X576880Y272923D01*
X574832Y274971D01*
X572323Y276419D01*
X569526Y277169D01*
X566629D01*
X563832Y276419D01*
X561323Y274971D01*
X559275Y272923D01*
X558025Y270757D01*
X544086D01*
Y270780D01*
X540478Y270425D01*
X539901Y271644D01*
X551494Y283237D01*
X551616Y283420D01*
X554106Y285330D01*
X557205Y286614D01*
X558164Y286740D01*
X559275Y284815D01*
X561324Y282767D01*
X563832Y281318D01*
X566629Y280569D01*
X569526D01*
X572323Y281318D01*
X574832Y282767D01*
X575418Y283353D01*
X576614Y282925D01*
X576726Y281777D01*
X578010Y277547D01*
X580094Y273648D01*
X582898Y270231D01*
X582844Y268983D01*
X582478Y267617D01*
Y264721D01*
X583227Y261923D01*
X584675Y259415D01*
X586723Y257367D01*
X589232Y255919D01*
X592029Y255169D01*
X594926D01*
X597723Y255919D01*
X600232Y257367D01*
X602280Y259415D01*
X603728Y261923D01*
X604478Y264721D01*
Y267617D01*
X603728Y270415D01*
X602280Y272923D01*
X600232Y274971D01*
X597723Y276419D01*
X594926Y277169D01*
X592029D01*
X589614Y276521D01*
X589401Y276734D01*
X589206Y276864D01*
X587213Y279461D01*
X586366Y281507D01*
X587374Y282391D01*
X589232Y281318D01*
X592029Y280569D01*
X594926D01*
X597723Y281318D01*
X600232Y282767D01*
X602280Y284815D01*
X603728Y287323D01*
X604478Y290121D01*
Y293017D01*
X603728Y295815D01*
X602280Y298323D01*
X600232Y300371D01*
X597723Y301819D01*
X594926Y302569D01*
X592029D01*
X589232Y301819D01*
X586723Y300371D01*
X585687Y299334D01*
X584455Y299643D01*
X584281Y300215D01*
X582829Y302932D01*
X580875Y305313D01*
X578493Y307268D01*
X575776Y308720D01*
X572828Y309614D01*
X569887Y309904D01*
X569763Y309929D01*
X564193D01*
X564180Y309926D01*
X562764Y309787D01*
X562221Y310935D01*
X637555Y386268D01*
X637558Y386265D01*
X640614Y389844D01*
X643074Y393857D01*
X644874Y398205D01*
X645973Y402781D01*
X646342Y407473D01*
X646338D01*
Y484227D01*
X646317Y484333D01*
X646018Y487368D01*
X645102Y490388D01*
X643614Y493172D01*
X641688Y495518D01*
X641624Y495614D01*
X641621Y495616D01*
X641619Y495619D01*
X641616Y495621D01*
X641614Y495624D01*
X641564Y495658D01*
X641134Y496218D01*
X641436Y497859D01*
X642368Y498398D01*
X644602Y500632D01*
X646182Y503368D01*
X647000Y506420D01*
Y509580D01*
X646182Y512632D01*
X644602Y515368D01*
X642368Y517602D01*
X639632Y519182D01*
X636580Y520000D01*
D02*
G37*
G36*
X509580D02*
X506420D01*
X503368Y519182D01*
X500632Y517602D01*
X498398Y515368D01*
X496818Y512632D01*
X496000Y509580D01*
Y506420D01*
X496818Y503368D01*
X498398Y500632D01*
X500632Y498398D01*
X503368Y496818D01*
X506420Y496000D01*
X509580D01*
X512632Y496818D01*
X512671Y496840D01*
X567080Y442431D01*
X567178Y442366D01*
X568076Y441023D01*
X568378Y439505D01*
X567869Y438996D01*
X566956Y436791D01*
Y434404D01*
X567869Y432199D01*
X569557Y430511D01*
X571762Y429597D01*
X574149D01*
X576355Y430511D01*
X578042Y432199D01*
X578956Y434404D01*
Y436791D01*
X578042Y438996D01*
X577550Y439488D01*
X577109Y442842D01*
X575750Y446123D01*
X574334Y447969D01*
X573587Y448941D01*
X573567Y448921D01*
X573567Y448921D01*
X519160Y503329D01*
X519182Y503368D01*
X520000Y506420D01*
Y509580D01*
X519182Y512632D01*
X517602Y515368D01*
X515368Y517602D01*
X512632Y519182D01*
X509580Y520000D01*
D02*
G37*
G36*
X484180D02*
X481020D01*
X477968Y519182D01*
X475232Y517602D01*
X472998Y515368D01*
X471418Y512632D01*
X470600Y509580D01*
Y506420D01*
X471418Y503368D01*
X472998Y500632D01*
X475232Y498398D01*
X477968Y496818D01*
X481020Y496000D01*
X484180D01*
X487232Y496818D01*
X487271Y496840D01*
X544047Y440064D01*
X544225Y439945D01*
X545192Y438499D01*
X544484Y436791D01*
Y434404D01*
X545398Y432199D01*
X547085Y430511D01*
X549291Y429597D01*
X551678D01*
X553883Y430511D01*
X555571Y432199D01*
X556484Y434404D01*
Y436791D01*
X555571Y438996D01*
X554244Y440323D01*
X553880Y441522D01*
X552449Y444199D01*
X550614Y446436D01*
X550536Y446553D01*
X550533Y446555D01*
Y446555D01*
X550533Y446555D01*
X493760Y503329D01*
X493782Y503368D01*
X494600Y506420D01*
Y509580D01*
X493782Y512632D01*
X492202Y515368D01*
X489968Y517602D01*
X487232Y519182D01*
X484180Y520000D01*
D02*
G37*
G36*
X392740D02*
X389580D01*
X386528Y519182D01*
X383792Y517602D01*
X381558Y515368D01*
X379978Y512632D01*
X379160Y509580D01*
Y506420D01*
X379978Y503368D01*
X381558Y500632D01*
X383792Y498398D01*
X386528Y496818D01*
X389580Y496000D01*
X392740D01*
X393053Y496084D01*
X401942Y487194D01*
X401940Y487191D01*
X405518Y484134D01*
X409531Y481675D01*
X413879Y479874D01*
X418456Y478776D01*
X423147Y478406D01*
Y478411D01*
X425146D01*
X425354Y478452D01*
X429219Y478071D01*
X433134Y476884D01*
X436743Y474954D01*
X439745Y472491D01*
X439863Y472315D01*
X477069Y435109D01*
Y434404D01*
X477982Y432199D01*
X479670Y430511D01*
X481876Y429597D01*
X484263D01*
X486468Y430511D01*
X488156Y432199D01*
X489069Y434404D01*
Y436791D01*
X488156Y438996D01*
X486468Y440684D01*
X484263Y441597D01*
X483558D01*
X446351Y478804D01*
X446354Y478807D01*
X442775Y481863D01*
X438763Y484322D01*
X434415Y486123D01*
X429838Y487222D01*
X425146Y487591D01*
Y487587D01*
X423147D01*
X422940Y487546D01*
X419075Y487926D01*
X415159Y489114D01*
X411551Y491043D01*
X408549Y493507D01*
X408431Y493683D01*
X401026Y501088D01*
X402342Y503368D01*
X403160Y506420D01*
Y509580D01*
X402342Y512632D01*
X400762Y515368D01*
X398528Y517602D01*
X395792Y519182D01*
X392740Y520000D01*
D02*
G37*
G36*
X367340D02*
X364180D01*
X361128Y519182D01*
X358392Y517602D01*
X356158Y515368D01*
X354578Y512632D01*
X353760Y509580D01*
Y506420D01*
X354578Y503368D01*
X356158Y500632D01*
X358392Y498398D01*
X361128Y496818D01*
X364180Y496000D01*
X367340D01*
X370392Y496818D01*
X370431Y496840D01*
X390437Y476835D01*
X390434Y476832D01*
X394012Y473775D01*
X398025Y471316D01*
X402373Y469515D01*
X406950Y468416D01*
X411642Y468047D01*
Y468051D01*
X412840D01*
X413047Y468093D01*
X416912Y467712D01*
X420827Y466524D01*
X424436Y464595D01*
X427438Y462132D01*
X427556Y461956D01*
X454500Y435011D01*
Y434306D01*
X455414Y432101D01*
X457101Y430413D01*
X459307Y429500D01*
X461693D01*
X463899Y430413D01*
X465587Y432101D01*
X466500Y434306D01*
Y436693D01*
X465587Y438899D01*
X463899Y440587D01*
X461693Y441500D01*
X460989D01*
X434044Y468444D01*
X434047Y468447D01*
X430469Y471504D01*
X426456Y473963D01*
X422108Y475764D01*
X417531Y476863D01*
X412840Y477232D01*
Y477228D01*
X411642D01*
X411434Y477186D01*
X407569Y477567D01*
X403654Y478755D01*
X400045Y480684D01*
X397043Y483148D01*
X396925Y483323D01*
X376920Y503329D01*
X376942Y503368D01*
X377760Y506420D01*
Y509580D01*
X376942Y512632D01*
X375362Y515368D01*
X373128Y517602D01*
X370392Y519182D01*
X367340Y520000D01*
D02*
G37*
G36*
X50178Y460331D02*
X46322D01*
X42539Y459579D01*
X38975Y458103D01*
X35768Y455960D01*
X33041Y453233D01*
X30898Y450026D01*
X29422Y446462D01*
X28670Y442679D01*
Y438823D01*
X29422Y435040D01*
X30898Y431476D01*
X33041Y428270D01*
X35768Y425542D01*
X38975Y423400D01*
X42539Y421923D01*
X46322Y421171D01*
X50178D01*
X53961Y421923D01*
X57525Y423400D01*
X60732Y425542D01*
X63459Y428270D01*
X65602Y431476D01*
X67077Y435040D01*
X67830Y438823D01*
Y442679D01*
X67077Y446462D01*
X65602Y450026D01*
X63459Y453233D01*
X60732Y455960D01*
X57525Y458103D01*
X53961Y459579D01*
X50178Y460331D01*
D02*
G37*
G36*
X26250Y423368D02*
X16750D01*
X14727Y423102D01*
X12842Y422321D01*
X11223Y421078D01*
X9980Y419459D01*
X9199Y417574D01*
X8933Y415551D01*
X9199Y413528D01*
X9980Y411643D01*
X11223Y410024D01*
X12842Y408781D01*
X14727Y408000D01*
X16750Y407734D01*
X26250D01*
X28273Y408000D01*
X30158Y408781D01*
X31777Y410024D01*
X33019Y411643D01*
X33800Y413528D01*
X34067Y415551D01*
X33800Y417574D01*
X33019Y419459D01*
X31777Y421078D01*
X30158Y422321D01*
X28273Y423102D01*
X26250Y423368D01*
D02*
G37*
G36*
X48500Y415616D02*
X46542Y415358D01*
X44718Y414602D01*
X43151Y413400D01*
X41949Y411833D01*
X41193Y410009D01*
X40935Y408051D01*
Y403051D01*
X41193Y401093D01*
X41706Y399856D01*
X41430Y399218D01*
X40920Y398661D01*
X40900Y398649D01*
X38897D01*
X38368Y398868D01*
X37867Y399203D01*
X37276Y399320D01*
X36720Y399551D01*
X36117D01*
X35526Y399669D01*
X29609D01*
X29018Y399551D01*
X28415D01*
X27859Y399320D01*
X27268Y399203D01*
X26767Y398868D01*
X26210Y398638D01*
X25784Y398212D01*
X25283Y397877D01*
X24948Y397376D01*
X24522Y396950D01*
X24292Y396393D01*
X23957Y395892D01*
X23839Y395301D01*
X23609Y394744D01*
Y394142D01*
X23491Y393551D01*
X23609Y392960D01*
Y392358D01*
X23839Y391801D01*
X23957Y391210D01*
X24292Y390709D01*
X24522Y390152D01*
X24948Y389726D01*
X25283Y389225D01*
X25784Y388891D01*
X26210Y388465D01*
X26767Y388234D01*
X27268Y387899D01*
X27859Y387782D01*
X28415Y387551D01*
X29018D01*
X29609Y387434D01*
X35526D01*
X36117Y387551D01*
X36720D01*
X37276Y387782D01*
X37867Y387899D01*
X38368Y388234D01*
X38897Y388453D01*
X41089D01*
X41218Y388479D01*
X43257Y388210D01*
X45276Y387374D01*
X46904Y386125D01*
X46976Y386018D01*
X46979Y386016D01*
X46981Y386013D01*
X49547Y383446D01*
X49645Y383381D01*
X52812Y380676D01*
X56461Y378440D01*
X60416Y376802D01*
X64577Y375803D01*
X68729Y375476D01*
X68844Y375453D01*
X75409D01*
X75650Y375501D01*
X78697Y375100D01*
X81761Y373831D01*
X84194Y371964D01*
X84327Y371764D01*
X84332Y371761D01*
X84336Y371756D01*
X85124Y370968D01*
Y362419D01*
X85466Y360699D01*
X86440Y359241D01*
X87898Y358267D01*
X89618Y357925D01*
X100882D01*
X102602Y358267D01*
X104060Y359241D01*
X105034Y360699D01*
X105376Y362419D01*
Y373683D01*
X105034Y375403D01*
X104060Y376861D01*
X102602Y377835D01*
X100882Y378177D01*
X92494D01*
X91554Y378974D01*
X91542Y378983D01*
X90602Y379755D01*
X88094Y381813D01*
X84147Y383923D01*
X82589Y384395D01*
X82229Y385832D01*
X83284Y386886D01*
X84588Y389145D01*
X84864Y389210D01*
X85636D01*
X85912Y389145D01*
X87216Y386886D01*
X89085Y385017D01*
X91375Y383695D01*
X93928Y383011D01*
X96572D01*
X99125Y383695D01*
X101415Y385017D01*
X103284Y386886D01*
X104606Y389176D01*
X105290Y391729D01*
Y394373D01*
X104606Y396926D01*
X103284Y399216D01*
X101415Y401085D01*
X99125Y402407D01*
X96572Y403091D01*
X93928D01*
X91375Y402407D01*
X89085Y401085D01*
X87216Y399216D01*
X85912Y396958D01*
X85636Y396892D01*
X84864D01*
X84588Y396958D01*
X83284Y399216D01*
X81415Y401085D01*
X79125Y402407D01*
X76572Y403091D01*
X73928D01*
X71375Y402407D01*
X69085Y401085D01*
X67216Y399216D01*
X65894Y396926D01*
X65210Y394373D01*
Y391729D01*
X65894Y389176D01*
X67127Y387041D01*
X66695Y385807D01*
X65499Y385925D01*
X62282Y386901D01*
X59317Y388485D01*
X56859Y390503D01*
X56757Y390656D01*
X54190Y393222D01*
X54187Y393224D01*
X54185Y393227D01*
X54105Y393281D01*
X52000Y395008D01*
X52217Y396473D01*
X52282Y396500D01*
X53849Y397702D01*
X55051Y399269D01*
X55807Y401093D01*
X56065Y403051D01*
Y408051D01*
X55807Y410009D01*
X55051Y411833D01*
X53849Y413400D01*
X52282Y414602D01*
X50458Y415358D01*
X48500Y415616D01*
D02*
G37*
G36*
X312040Y407133D02*
X308516Y406669D01*
X305232Y405309D01*
X302412Y403145D01*
X300248Y400325D01*
X298888Y397041D01*
X298424Y393517D01*
X298432D01*
Y388923D01*
X296195Y387206D01*
X294432Y384908D01*
X293323Y382232D01*
X292945Y379361D01*
Y371361D01*
X293323Y368489D01*
X294432Y365813D01*
X296195Y363515D01*
X298493Y361752D01*
X301168Y360644D01*
X304040Y360266D01*
X306912Y360644D01*
X309587Y361752D01*
X311885Y363515D01*
X313648Y365813D01*
X314757Y368489D01*
X315135Y371361D01*
Y379361D01*
X314757Y382232D01*
X313648Y384908D01*
X311885Y387206D01*
X309648Y388923D01*
Y393517D01*
X309634Y393585D01*
X309805Y394442D01*
X310329Y395227D01*
X311114Y395752D01*
X311972Y395922D01*
X312040Y395909D01*
X386864D01*
X387121Y395960D01*
X390740Y395603D01*
X394468Y394473D01*
X397903Y392637D01*
X400714Y390330D01*
X400859Y390112D01*
X403372Y387599D01*
Y380673D01*
X403707Y378992D01*
X404659Y377567D01*
X406084Y376615D01*
X407765Y376281D01*
X418229D01*
X419910Y376615D01*
X420175Y376793D01*
X421445Y376114D01*
Y373570D01*
X421463Y373480D01*
X421215Y372882D01*
X420616Y372634D01*
X420527Y372651D01*
X390680D01*
X390515Y372619D01*
X388443Y372891D01*
X386358Y373755D01*
X384700Y375027D01*
X384607Y375167D01*
X384501Y375238D01*
X381598Y377620D01*
X378176Y379449D01*
X374464Y380575D01*
X370726Y380944D01*
X370602Y380968D01*
X340323D01*
X340157Y382232D01*
X339049Y384908D01*
X337285Y387206D01*
X334987Y388969D01*
X332312Y390077D01*
X329440Y390455D01*
X326568Y390077D01*
X323893Y388969D01*
X321595Y387206D01*
X319832Y384908D01*
X318723Y382232D01*
X318345Y379361D01*
Y371361D01*
X318723Y368489D01*
X319832Y365813D01*
X321595Y363515D01*
X323893Y361752D01*
X326568Y360644D01*
X329440Y360266D01*
X332312Y360644D01*
X334987Y361752D01*
X337285Y363515D01*
X339049Y365813D01*
X340157Y368489D01*
X340323Y369753D01*
X370602D01*
X370768Y369786D01*
X372839Y369513D01*
X374924Y368649D01*
X376582Y367377D01*
X376676Y367237D01*
X376781Y367167D01*
X379684Y364784D01*
X383106Y362955D01*
X386819Y361829D01*
X390556Y361461D01*
X390680Y361436D01*
X420527D01*
X420586Y361448D01*
X423666Y361853D01*
X426592Y363065D01*
X429104Y364993D01*
X431032Y367505D01*
X432243Y370430D01*
X432649Y373511D01*
X432661Y373570D01*
Y381429D01*
X433576Y383014D01*
X434053Y384794D01*
Y386637D01*
X433576Y388418D01*
X432654Y390014D01*
X431351Y391317D01*
X429755Y392239D01*
X427975Y392716D01*
X426132D01*
X424351Y392239D01*
X423764Y391900D01*
X422341Y392545D01*
X422287Y392818D01*
X421334Y394243D01*
X419910Y395195D01*
X418229Y395530D01*
X411303D01*
X408790Y398042D01*
X408704Y398100D01*
X405083Y401192D01*
X400936Y403734D01*
X396442Y405595D01*
X391713Y406730D01*
X386966Y407104D01*
X386864Y407124D01*
X312040D01*
Y407133D01*
D02*
G37*
G36*
X48500Y365616D02*
X46542Y365358D01*
X44718Y364602D01*
X43151Y363400D01*
X41949Y361833D01*
X41193Y360009D01*
X40935Y358051D01*
Y353051D01*
X41193Y351093D01*
X41949Y349269D01*
X43151Y347702D01*
X44718Y346500D01*
X46542Y345744D01*
X48500Y345486D01*
X50458Y345744D01*
X52282Y346500D01*
X53849Y347702D01*
X55051Y349269D01*
X55807Y351093D01*
X56065Y353051D01*
Y358051D01*
X55807Y360009D01*
X55051Y361833D01*
X53849Y363400D01*
X52282Y364602D01*
X50458Y365358D01*
X48500Y365616D01*
D02*
G37*
G36*
X26250Y353368D02*
X16750D01*
X14727Y353102D01*
X12842Y352321D01*
X11223Y351078D01*
X9980Y349459D01*
X9199Y347574D01*
X8933Y345551D01*
X9199Y343528D01*
X9980Y341643D01*
X11223Y340024D01*
X12842Y338781D01*
X14727Y338000D01*
X16750Y337734D01*
X26250D01*
X28273Y338000D01*
X30158Y338781D01*
X31777Y340024D01*
X33019Y341643D01*
X33800Y343528D01*
X34067Y345551D01*
X33800Y347574D01*
X33019Y349459D01*
X31777Y351078D01*
X30158Y352321D01*
X28273Y353102D01*
X26250Y353368D01*
D02*
G37*
G36*
X667417Y330474D02*
X667201Y330444D01*
X667114Y330459D01*
X666233Y330440D01*
X665990Y330386D01*
X665931Y330393D01*
X665682Y330374D01*
X665585Y330347D01*
X665484Y330353D01*
X665413Y330342D01*
X665285Y330330D01*
X665102Y330274D01*
X665062Y330276D01*
X664928Y330257D01*
X664822Y330219D01*
X664710Y330218D01*
X664490Y330170D01*
X664455Y330155D01*
X664448Y330154D01*
X664391Y330136D01*
X664336Y330132D01*
X664261Y330111D01*
X664216Y330100D01*
X664088Y330039D01*
X664061Y330031D01*
X663910Y330024D01*
X663833Y330005D01*
X663803Y329990D01*
X663770Y329988D01*
X663664Y329959D01*
X663607Y329931D01*
X663581Y329925D01*
X663575Y329923D01*
X663509Y329908D01*
X663430Y329873D01*
X663371Y329863D01*
X663285Y329830D01*
X663226Y329816D01*
X663108Y329763D01*
X662968Y329734D01*
X662833Y329676D01*
X662792Y329647D01*
X662757Y329630D01*
X662690Y329598D01*
X662464Y329529D01*
X662390Y329489D01*
X662255Y329458D01*
X662118Y329395D01*
X662065Y329385D01*
X661985Y329332D01*
X661972Y329326D01*
X661805Y329221D01*
X661708Y329202D01*
X661612Y329138D01*
X661604Y329135D01*
X661559Y329107D01*
X661507Y329096D01*
X661428Y329044D01*
X661417Y329039D01*
X661384Y329018D01*
X661345Y329010D01*
X661141Y328875D01*
X661001Y328829D01*
X660828Y328734D01*
X660814Y328722D01*
X660796Y328716D01*
X660662Y328639D01*
X660607Y328591D01*
X660490Y328524D01*
X660465Y328502D01*
X660434Y328491D01*
X660242Y328376D01*
X660165Y328306D01*
X660146Y328299D01*
X660051Y328242D01*
X659906Y328111D01*
X659897Y328108D01*
X659801Y328050D01*
X659681Y327942D01*
X659614Y327897D01*
X659577Y327859D01*
X659461Y327782D01*
X659423Y327744D01*
X659365Y327705D01*
X659328Y327668D01*
X659212Y327590D01*
X659174Y327552D01*
X659116Y327514D01*
X659078Y327476D01*
X659021Y327437D01*
X658963Y327380D01*
X658906Y327341D01*
X658446Y326881D01*
X658400Y326813D01*
X658333Y326761D01*
X658310Y326745D01*
X658299Y326735D01*
X658261Y326705D01*
X658245Y326678D01*
X658221Y326658D01*
X658125Y326543D01*
X658100Y326498D01*
X658015Y326412D01*
X657976Y326354D01*
X657900Y326278D01*
X657861Y326220D01*
X657823Y326183D01*
X657746Y326067D01*
X657727Y326047D01*
X657591Y325844D01*
X657363Y325593D01*
X657326Y325532D01*
X657284Y325490D01*
X657121Y325251D01*
X657089Y325175D01*
X656999Y325076D01*
X656942Y324980D01*
X656921Y324921D01*
X656827Y324807D01*
X656686Y324543D01*
X656507Y324221D01*
X656424Y323960D01*
X656307Y323776D01*
X656299Y323756D01*
X656261Y323698D01*
X656239Y323590D01*
X656211Y323546D01*
X656203Y323524D01*
X656164Y323465D01*
X656146Y323379D01*
X656131Y323355D01*
X656106Y323293D01*
X656063Y323193D01*
X656036Y323067D01*
X656034Y323063D01*
X656006Y323019D01*
X655968Y322924D01*
X655955Y322856D01*
X655924Y322793D01*
X655895Y322688D01*
X655891Y322637D01*
X655891Y322635D01*
X655874Y322546D01*
X655808Y322387D01*
X655800Y322344D01*
X655780Y322305D01*
X655751Y322200D01*
X655746Y322118D01*
X655713Y322044D01*
X655675Y321870D01*
X655668Y321839D01*
X655667Y321833D01*
X655665Y321824D01*
X655664Y321770D01*
X655664Y321765D01*
X655636Y321697D01*
X655617Y321601D01*
X655616Y321467D01*
X655576Y321339D01*
X655567Y321256D01*
X655559Y321218D01*
X655559Y321188D01*
X655557Y321167D01*
X655559Y321140D01*
X655559Y321105D01*
X655523Y320998D01*
X655504Y320844D01*
X655512Y320731D01*
X655484Y320620D01*
X655456Y320055D01*
X655467Y319977D01*
X655452Y319900D01*
Y302809D01*
X655452Y302808D01*
X655452Y302808D01*
X655471Y200281D01*
X655518Y200047D01*
X655505Y199920D01*
X655524Y199729D01*
X655544Y199663D01*
X655563Y199479D01*
X655614Y199310D01*
X655618Y199133D01*
X655665Y198913D01*
X655674Y198893D01*
Y198887D01*
X655687Y198824D01*
X655687Y198822D01*
X655688Y198815D01*
X655712Y198695D01*
X655791Y198505D01*
X655793Y198430D01*
X655798Y198406D01*
X655799Y198394D01*
X655809Y198359D01*
X655831Y198258D01*
X655870Y198171D01*
X655872Y198159D01*
X655893Y198106D01*
X655893Y198079D01*
X655967Y197901D01*
X656006Y197717D01*
X656063Y197582D01*
X656095Y197537D01*
X656125Y197430D01*
X656137Y197407D01*
X656164Y197272D01*
X656249Y197145D01*
X656282Y197004D01*
X656377Y196793D01*
X656438Y196709D01*
X656469Y196609D01*
X656603Y196360D01*
X656616Y196344D01*
X656622Y196325D01*
X656814Y195980D01*
X656826Y195965D01*
X656832Y195948D01*
X656909Y195814D01*
X656973Y195740D01*
X656980Y195718D01*
X657038Y195623D01*
X657083Y195573D01*
X657133Y195489D01*
X657216Y195398D01*
X657267Y195285D01*
X657554Y194883D01*
X657739Y194709D01*
X657880Y194498D01*
X657899Y194479D01*
X657938Y194421D01*
X657995Y194364D01*
X658034Y194306D01*
X658168Y194172D01*
X658207Y194114D01*
X658263Y194057D01*
X658302Y193999D01*
X658772Y193530D01*
X658863Y193469D01*
X658886Y193435D01*
X659020Y193300D01*
X659078Y193262D01*
X659136Y193204D01*
X659251Y193127D01*
X659289Y193089D01*
X659306Y193078D01*
X659309Y193075D01*
X659314Y193073D01*
X659346Y193051D01*
X659385Y193012D01*
X659553Y192900D01*
X659725Y192744D01*
X659804Y192696D01*
X659904Y192591D01*
X660038Y192495D01*
X660150Y192444D01*
X660242Y192361D01*
X660338Y192304D01*
X660369Y192292D01*
X660394Y192271D01*
X660528Y192194D01*
X660569Y192181D01*
X660598Y192152D01*
X660712Y192075D01*
X660781Y192047D01*
X660836Y191997D01*
X660932Y191939D01*
X661014Y191910D01*
X661081Y191856D01*
X661445Y191664D01*
X661552Y191632D01*
X661598Y191596D01*
X661637Y191577D01*
X661681Y191565D01*
X661733Y191531D01*
X661771Y191516D01*
X661870Y191450D01*
X661923Y191439D01*
X661968Y191411D01*
X661988Y191404D01*
X662063Y191353D01*
X662251Y191316D01*
X662317Y191269D01*
X662489Y191192D01*
X662561Y191176D01*
X662590Y191155D01*
X662618Y191143D01*
X662634Y191133D01*
X662673Y191118D01*
X662696Y191107D01*
X662707Y191105D01*
X662758Y191085D01*
X662836Y191071D01*
X662926Y191031D01*
X663100Y190990D01*
X663274Y190911D01*
X663354Y190893D01*
X663450Y190848D01*
X663527Y190828D01*
X663555Y190827D01*
X663580Y190816D01*
X663639Y190802D01*
X663725Y190769D01*
X663741Y190766D01*
X663790Y190744D01*
X663991Y190696D01*
X664101Y190692D01*
X664337Y190604D01*
X664454Y190585D01*
X664467Y190579D01*
X664543Y190560D01*
X664673Y190554D01*
X664730Y190528D01*
X664796Y190513D01*
X664843Y190500D01*
X664855Y190499D01*
X664984Y190481D01*
X665042Y190484D01*
X665216Y190423D01*
X665350Y190404D01*
X665437Y190409D01*
X665521Y190384D01*
X665719Y190368D01*
X665728Y190366D01*
X665741Y190366D01*
X665856Y190356D01*
X665883Y190359D01*
X665990Y190325D01*
X666249Y190296D01*
X666436Y190312D01*
X666621Y190278D01*
X668345Y190297D01*
X668626Y190356D01*
X668800Y190346D01*
X668934Y190366D01*
X668959Y190374D01*
X669187Y190392D01*
X669319Y190429D01*
X669456Y190424D01*
X669571Y190444D01*
X669671Y190481D01*
X669683Y190481D01*
X669884Y190509D01*
X669927Y190525D01*
X669947Y190530D01*
X669991Y190541D01*
X670042Y190565D01*
X670044Y190566D01*
X670186Y190580D01*
X670240Y190596D01*
X670314Y190603D01*
X670416Y190633D01*
X670432Y190637D01*
X670436Y190639D01*
X670477Y190651D01*
X670558Y190693D01*
X670599Y190706D01*
X670758Y190714D01*
X670834Y190733D01*
X670864Y190747D01*
X670898Y190749D01*
X671003Y190778D01*
X671060Y190807D01*
X671087Y190812D01*
X671222Y190870D01*
X671234Y190878D01*
X671353Y190902D01*
X671444Y190940D01*
X671464Y190944D01*
X671498Y190960D01*
X671680Y191001D01*
X671772Y191042D01*
X671788Y191046D01*
X671842Y191073D01*
X671852Y191077D01*
X671855Y191080D01*
X671920Y191112D01*
X671977Y191139D01*
X672205Y191209D01*
X672279Y191248D01*
X672413Y191280D01*
X672623Y191376D01*
X672743Y191461D01*
X672750Y191464D01*
X672800Y191473D01*
X672896Y191512D01*
X672911Y191522D01*
X673008Y191556D01*
X673076Y191597D01*
X673147Y191638D01*
X673159Y191640D01*
X673230Y191687D01*
X673320Y191712D01*
X673359Y191731D01*
X673430Y191786D01*
X673430Y191786D01*
X673430Y191787D01*
X673529Y191863D01*
X673667Y191908D01*
X673839Y192003D01*
X673854Y192016D01*
X673872Y192022D01*
X674006Y192098D01*
X674079Y192162D01*
X674100Y192169D01*
X674196Y192227D01*
X674315Y192335D01*
X674317Y192336D01*
X674388Y192361D01*
X674451Y192399D01*
X674559Y192450D01*
X674626Y192525D01*
X674687Y192552D01*
X674821Y192648D01*
X674891Y192722D01*
X674980Y192770D01*
X675086Y192856D01*
X675155Y192940D01*
X675222Y193001D01*
X675313Y193062D01*
X675320Y193069D01*
X675436Y193146D01*
X675455Y193165D01*
X675571Y193243D01*
X675590Y193262D01*
X675648Y193300D01*
X675704Y193357D01*
X675762Y193396D01*
X675954Y193587D01*
X676011Y193626D01*
X676241Y193856D01*
X676288Y193925D01*
X676428Y194034D01*
X676443Y194060D01*
X676466Y194079D01*
X676562Y194194D01*
X676601Y194266D01*
X676615Y194287D01*
X676692Y194364D01*
X676695Y194369D01*
X676702Y194375D01*
X676750Y194442D01*
X676757Y194457D01*
X676838Y194520D01*
X676849Y194541D01*
X676887Y194570D01*
X676984Y194739D01*
X677121Y194877D01*
X677198Y194992D01*
X677205Y195009D01*
X677225Y195029D01*
X677350Y195211D01*
X677362Y195240D01*
X677376Y195251D01*
X677418Y195325D01*
X677510Y195430D01*
X677550Y195500D01*
X677592Y195547D01*
X677650Y195643D01*
X677684Y195739D01*
X677841Y195930D01*
X677994Y196218D01*
X678017Y196294D01*
X678036Y196341D01*
X678159Y196525D01*
X678178Y196621D01*
X678332Y196850D01*
X678343Y196907D01*
X678397Y197027D01*
X678413Y197099D01*
X678434Y197129D01*
X678447Y197156D01*
X678456Y197172D01*
X678472Y197212D01*
X678482Y197235D01*
X678485Y197245D01*
X678504Y197296D01*
X678511Y197337D01*
X678552Y197402D01*
X678561Y197424D01*
X678600Y197483D01*
X678644Y197705D01*
X678677Y197756D01*
X678725Y197881D01*
X678730Y197911D01*
X678755Y197966D01*
X678777Y198062D01*
X678789Y198112D01*
X678790Y198127D01*
X678810Y198180D01*
X678837Y198237D01*
X678857Y198314D01*
X678858Y198342D01*
X678869Y198368D01*
X678897Y198485D01*
X678933Y198562D01*
X678952Y198639D01*
X678956Y198713D01*
X678984Y198782D01*
X679018Y198949D01*
X679019Y198955D01*
X679019Y198957D01*
X679032Y199021D01*
X679032Y199171D01*
X679041Y199199D01*
X679048Y199214D01*
X679056Y199248D01*
X679092Y199360D01*
X679114Y199562D01*
X679128Y199600D01*
X679147Y199734D01*
X679138Y199895D01*
X679195Y200134D01*
X679214Y200671D01*
X679205Y200726D01*
X679216Y200781D01*
X679197Y320533D01*
X679126Y320888D01*
X679131Y321121D01*
X679116Y321208D01*
X679087Y321438D01*
X679028Y321615D01*
X679019Y321801D01*
X678962Y322031D01*
X678947Y322063D01*
X678943Y322146D01*
X678924Y322222D01*
X678880Y322314D01*
X678849Y322456D01*
X678798Y322573D01*
X678798Y322575D01*
X678760Y322748D01*
X678679Y322930D01*
X678677Y322963D01*
X678638Y323097D01*
X678627Y323120D01*
X678600Y323255D01*
X678521Y323373D01*
X678493Y323499D01*
X678447Y323600D01*
X678428Y323652D01*
X678417Y323668D01*
X678416Y323671D01*
X678410Y323679D01*
X678407Y323685D01*
X678399Y323723D01*
X678286Y323892D01*
X678224Y324098D01*
X678071Y324385D01*
X678042Y324421D01*
X678027Y324464D01*
X677960Y324582D01*
X677873Y324738D01*
X677861Y324753D01*
X677855Y324771D01*
X677778Y324905D01*
X677715Y324978D01*
X677707Y324999D01*
X677650Y325095D01*
X677604Y325145D01*
X677496Y325325D01*
X677417Y325412D01*
X677400Y325459D01*
X677372Y325507D01*
X677311Y325574D01*
X677299Y325594D01*
X677113Y325808D01*
X677017Y325952D01*
X676961Y326008D01*
X676807Y326239D01*
X676768Y326278D01*
X676730Y326335D01*
X676615Y326450D01*
X676577Y326508D01*
X676519Y326565D01*
X676480Y326623D01*
X676423Y326680D01*
X676385Y326738D01*
X676328Y326795D01*
X676289Y326853D01*
X676222Y326920D01*
X676161Y326960D01*
X676130Y327001D01*
X676103Y327016D01*
X676063Y327068D01*
X676044Y327079D01*
X676043Y327080D01*
X676015Y327116D01*
X675996Y327127D01*
X675975Y327148D01*
X675969Y327155D01*
X675961Y327162D01*
X675935Y327188D01*
X675908Y327206D01*
X675854Y327251D01*
X675851Y327252D01*
X675724Y327380D01*
X675666Y327418D01*
X675628Y327456D01*
X675570Y327495D01*
X675532Y327533D01*
X675474Y327572D01*
X675436Y327610D01*
X675258Y327729D01*
X675172Y327833D01*
X675067Y327920D01*
X674888Y328015D01*
X674764Y328147D01*
X674630Y328242D01*
X674518Y328293D01*
X674426Y328376D01*
X674331Y328433D01*
X674299Y328445D01*
X674273Y328467D01*
X674204Y328506D01*
X674157Y328549D01*
X674062Y328606D01*
X674030Y328617D01*
X674005Y328639D01*
X673888Y328706D01*
X673833Y328754D01*
X673699Y328831D01*
X673648Y328848D01*
X673606Y328881D01*
X673242Y329073D01*
X673136Y329104D01*
X673090Y329140D01*
X673052Y329159D01*
X673010Y329171D01*
X672971Y329203D01*
X672846Y329270D01*
X672840Y329272D01*
X672816Y329288D01*
X672777Y329296D01*
X672742Y329317D01*
X672618Y329365D01*
X672520Y329382D01*
X672481Y329394D01*
X672394Y329457D01*
X672183Y329553D01*
X672057Y329583D01*
X671953Y329652D01*
X671793Y329684D01*
X671777Y329695D01*
X671696Y329730D01*
X671623Y329767D01*
X671489Y329806D01*
X671437Y329810D01*
X671390Y329832D01*
X671313Y329851D01*
X671245Y329855D01*
X671236Y329858D01*
X671149Y329898D01*
X671130Y329902D01*
X671038Y329941D01*
X671016Y329945D01*
X670931Y329985D01*
X670854Y330004D01*
X670826Y330006D01*
X670800Y330018D01*
X670675Y330046D01*
X670578Y330049D01*
X670456Y330092D01*
X670448Y330096D01*
X670425Y330103D01*
X670315Y330142D01*
X670229Y330154D01*
X670117Y330174D01*
X670041Y330172D01*
X669977Y330195D01*
X669949Y330209D01*
X669909Y330219D01*
X669888Y330228D01*
X669874Y330231D01*
X669855Y330238D01*
X669805Y330245D01*
X669797Y330246D01*
X669782Y330253D01*
X669705Y330272D01*
X669446Y330285D01*
X669197Y330355D01*
X668958Y330373D01*
X668747Y330409D01*
X668528Y330402D01*
X668314Y330449D01*
X667525Y330467D01*
X667417Y330474D01*
D02*
G37*
G36*
X472061Y351741D02*
X470013Y351333D01*
X468276Y350173D01*
X460145Y342041D01*
X458984Y340305D01*
X458577Y338256D01*
X458984Y336208D01*
X460145Y334471D01*
X463326Y331289D01*
X465063Y330129D01*
X467112Y329721D01*
X469160Y330129D01*
X470896Y331289D01*
X479028Y339421D01*
X480189Y341158D01*
X480596Y343206D01*
X480189Y345255D01*
X479028Y346991D01*
X475846Y350173D01*
X474110Y351333D01*
X472061Y351741D01*
D02*
G37*
G36*
X50178Y339931D02*
X46322D01*
X42539Y339179D01*
X38975Y337703D01*
X35768Y335560D01*
X33041Y332833D01*
X30898Y329626D01*
X29422Y326062D01*
X28670Y322280D01*
Y318423D01*
X29422Y314640D01*
X30898Y311076D01*
X33041Y307869D01*
X35768Y305142D01*
X38975Y302999D01*
X42539Y301523D01*
X46322Y300771D01*
X50178D01*
X53961Y301523D01*
X57525Y302999D01*
X60732Y305142D01*
X63459Y307869D01*
X65602Y311076D01*
X67077Y314640D01*
X67830Y318423D01*
Y322280D01*
X67077Y326062D01*
X65602Y329626D01*
X63459Y332833D01*
X60732Y335560D01*
X57525Y337703D01*
X53961Y339179D01*
X50178Y339931D01*
D02*
G37*
G36*
X141693Y321500D02*
X139306D01*
X137101Y320587D01*
X135413Y318899D01*
X134500Y316693D01*
Y314307D01*
X135413Y312101D01*
X137101Y310413D01*
X139306Y309500D01*
X140011D01*
X176716Y272795D01*
X176892Y272678D01*
X179356Y269676D01*
X181285Y266067D01*
X182472Y262151D01*
X182853Y258286D01*
X182812Y258079D01*
Y233699D01*
X182313Y233200D01*
X181400Y230995D01*
Y228608D01*
X182313Y226403D01*
X184001Y224715D01*
X186207Y223801D01*
X188594D01*
X190799Y224715D01*
X192487Y226403D01*
X193400Y228608D01*
Y230995D01*
X192487Y233200D01*
X191988Y233699D01*
Y258079D01*
X191992D01*
X191623Y262771D01*
X190525Y267347D01*
X188724Y271695D01*
X186264Y275708D01*
X183208Y279287D01*
X183205Y279284D01*
X146500Y315989D01*
Y316693D01*
X145587Y318899D01*
X143899Y320587D01*
X141693Y321500D01*
D02*
G37*
G36*
X635530Y160192D02*
X632370D01*
X629318Y159374D01*
X626582Y157794D01*
X624348Y155560D01*
X622768Y152824D01*
X621950Y149772D01*
Y146612D01*
X622768Y143560D01*
X624348Y140824D01*
X626582Y138589D01*
X629318Y137010D01*
X629362Y136998D01*
Y118971D01*
X629403Y118764D01*
X629022Y114899D01*
X627835Y110983D01*
X625906Y107374D01*
X623442Y104372D01*
X623266Y104255D01*
X613795Y94784D01*
X613792Y94787D01*
X610736Y91208D01*
X608276Y87195D01*
X606475Y82847D01*
X605377Y78271D01*
X605008Y73579D01*
X605012D01*
Y36594D01*
X604968Y36582D01*
X602232Y35002D01*
X599998Y32768D01*
X598418Y30032D01*
X597600Y26980D01*
Y23820D01*
X598418Y20768D01*
X599998Y18032D01*
X602232Y15798D01*
X604968Y14218D01*
X608020Y13400D01*
X611180D01*
X614232Y14218D01*
X616968Y15798D01*
X619202Y18032D01*
X620782Y20768D01*
X621600Y23820D01*
Y26980D01*
X620782Y30032D01*
X619202Y32768D01*
X616968Y35002D01*
X614232Y36582D01*
X614188Y36594D01*
Y73579D01*
X614147Y73786D01*
X614528Y77651D01*
X615715Y81567D01*
X617644Y85176D01*
X620108Y88178D01*
X620284Y88295D01*
X629755Y97766D01*
X629758Y97763D01*
X632814Y101342D01*
X635274Y105355D01*
X637075Y109703D01*
X638173Y114279D01*
X638543Y118971D01*
X638538D01*
Y136998D01*
X638582Y137010D01*
X641318Y138589D01*
X643552Y140824D01*
X645132Y143560D01*
X645950Y146612D01*
Y149772D01*
X645132Y152824D01*
X643552Y155560D01*
X641318Y157794D01*
X638582Y159374D01*
X635530Y160192D01*
D02*
G37*
G36*
X610130D02*
X606970D01*
X603918Y159374D01*
X601182Y157794D01*
X598948Y155560D01*
X597368Y152824D01*
X596550Y149772D01*
Y146612D01*
X597368Y143560D01*
X598948Y140824D01*
X601182Y138589D01*
X601490Y138412D01*
Y118071D01*
X601502Y117976D01*
X601159Y114489D01*
X600114Y111044D01*
X598417Y107870D01*
X596932Y106061D01*
X596076Y105145D01*
X595283Y104179D01*
X592971Y101362D01*
X590664Y97046D01*
X589244Y92363D01*
X588764Y87493D01*
X588824D01*
Y59944D01*
X588840Y59816D01*
X588434Y57772D01*
X587204Y55930D01*
X585362Y54700D01*
X583318Y54293D01*
X583190Y54310D01*
X391925D01*
Y54337D01*
X388411Y53991D01*
X385032Y52966D01*
X381918Y51301D01*
X379189Y49061D01*
X376949Y46332D01*
X375284Y43218D01*
X374259Y39839D01*
X373913Y36325D01*
X373913D01*
X373802Y35101D01*
X373632Y35002D01*
X371398Y32768D01*
X369818Y30032D01*
X369000Y26980D01*
Y23820D01*
X369818Y20768D01*
X371398Y18032D01*
X373632Y15798D01*
X376368Y14218D01*
X379420Y13400D01*
X382580D01*
X385632Y14218D01*
X388368Y15798D01*
X390602Y18032D01*
X392182Y20768D01*
X393000Y23820D01*
Y26980D01*
X392182Y30032D01*
X390602Y32768D01*
X388368Y35002D01*
X388060Y35180D01*
Y36325D01*
X388057Y36349D01*
X388347Y37807D01*
X389187Y39063D01*
X390443Y39903D01*
X391901Y40193D01*
X391925Y40190D01*
X583190D01*
Y40155D01*
X587051Y40535D01*
X590763Y41661D01*
X594184Y43490D01*
X597183Y45951D01*
X599644Y48950D01*
X601473Y52371D01*
X602599Y56083D01*
X602979Y59944D01*
X602944D01*
Y87493D01*
X602931Y87591D01*
X603287Y90290D01*
X604367Y92898D01*
X605329Y94152D01*
X606131Y95090D01*
X606131Y95090D01*
X609443Y98968D01*
X612108Y103316D01*
X614059Y108028D01*
X615250Y112987D01*
X615650Y118071D01*
X615610D01*
Y138412D01*
X615918Y138589D01*
X618152Y140824D01*
X619732Y143560D01*
X620550Y146612D01*
Y149772D01*
X619732Y152824D01*
X618152Y155560D01*
X615918Y157794D01*
X613182Y159374D01*
X610130Y160192D01*
D02*
G37*
G36*
X118500Y102073D02*
X107500D01*
X105281Y101781D01*
X103213Y100925D01*
X101438Y99562D01*
X100075Y97787D01*
X99219Y95719D01*
X98927Y93500D01*
Y60500D01*
X99219Y58281D01*
X100075Y56213D01*
X101438Y54438D01*
X103213Y53075D01*
X105281Y52219D01*
X107500Y51927D01*
X118500D01*
X120719Y52219D01*
X122787Y53075D01*
X124562Y54438D01*
X125925Y56213D01*
X126781Y58281D01*
X127073Y60500D01*
Y93500D01*
X126781Y95719D01*
X125925Y97787D01*
X124562Y99562D01*
X122787Y100925D01*
X120719Y101781D01*
X118500Y102073D01*
D02*
G37*
G36*
X159000Y197156D02*
Y197119D01*
X109204D01*
X107246Y196861D01*
X105422Y196105D01*
X103855Y194903D01*
X102653Y193336D01*
X101897Y191512D01*
X101639Y189554D01*
X101897Y187596D01*
X102653Y185772D01*
X103855Y184205D01*
X105422Y183003D01*
X107246Y182247D01*
X109204Y181989D01*
X159000D01*
X159103Y182003D01*
X162484Y181670D01*
X165834Y180654D01*
X168922Y179003D01*
X171628Y176782D01*
X173849Y174076D01*
X175500Y170988D01*
X176516Y167638D01*
X176849Y164257D01*
X176835Y164154D01*
Y138329D01*
Y71213D01*
Y59317D01*
X177093Y57359D01*
X177849Y55535D01*
X179051Y53968D01*
X180618Y52766D01*
X182442Y52010D01*
X184400Y51752D01*
X186358Y52010D01*
X188182Y52766D01*
X189749Y53968D01*
X190951Y55535D01*
X191707Y57359D01*
X191965Y59317D01*
Y71213D01*
Y138329D01*
Y164154D01*
X192002D01*
X191595Y169317D01*
X190387Y174352D01*
X188405Y179137D01*
X185699Y183552D01*
X182336Y187490D01*
X178398Y190853D01*
X173983Y193559D01*
X169198Y195541D01*
X164163Y196749D01*
X159000Y197156D01*
D02*
G37*
G36*
X585780Y37400D02*
X582620D01*
X579568Y36582D01*
X576832Y35002D01*
X574598Y32768D01*
X573018Y30032D01*
X572200Y26980D01*
Y23820D01*
X573018Y20768D01*
X574598Y18032D01*
X576832Y15798D01*
X579568Y14218D01*
X582620Y13400D01*
X585780D01*
X588832Y14218D01*
X591568Y15798D01*
X593802Y18032D01*
X595382Y20768D01*
X596200Y23820D01*
Y26980D01*
X595382Y30032D01*
X593802Y32768D01*
X591568Y35002D01*
X588832Y36582D01*
X585780Y37400D01*
D02*
G37*
G36*
X560380D02*
X557220D01*
X554168Y36582D01*
X551432Y35002D01*
X549198Y32768D01*
X547618Y30032D01*
X546800Y26980D01*
Y23820D01*
X547618Y20768D01*
X549198Y18032D01*
X551432Y15798D01*
X554168Y14218D01*
X557220Y13400D01*
X560380D01*
X563432Y14218D01*
X566168Y15798D01*
X568402Y18032D01*
X569982Y20768D01*
X570800Y23820D01*
Y26980D01*
X569982Y30032D01*
X568402Y32768D01*
X566168Y35002D01*
X563432Y36582D01*
X560380Y37400D01*
D02*
G37*
G36*
X534980D02*
X531820D01*
X528768Y36582D01*
X526032Y35002D01*
X523798Y32768D01*
X522218Y30032D01*
X521400Y26980D01*
Y23820D01*
X522218Y20768D01*
X523798Y18032D01*
X526032Y15798D01*
X528768Y14218D01*
X531820Y13400D01*
X534980D01*
X538032Y14218D01*
X540768Y15798D01*
X543002Y18032D01*
X544582Y20768D01*
X545400Y23820D01*
Y26980D01*
X544582Y30032D01*
X543002Y32768D01*
X540768Y35002D01*
X538032Y36582D01*
X534980Y37400D01*
D02*
G37*
G36*
X458780D02*
X455620D01*
X452568Y36582D01*
X449832Y35002D01*
X447598Y32768D01*
X446018Y30032D01*
X445200Y26980D01*
Y23820D01*
X446018Y20768D01*
X447598Y18032D01*
X449832Y15798D01*
X452568Y14218D01*
X455620Y13400D01*
X458780D01*
X461832Y14218D01*
X464568Y15798D01*
X466802Y18032D01*
X468382Y20768D01*
X469200Y23820D01*
Y26980D01*
X468382Y30032D01*
X466802Y32768D01*
X464568Y35002D01*
X461832Y36582D01*
X458780Y37400D01*
D02*
G37*
G36*
X306380D02*
X303220D01*
X300168Y36582D01*
X297432Y35002D01*
X295198Y32768D01*
X293618Y30032D01*
X292800Y26980D01*
Y23820D01*
X293618Y20768D01*
X295198Y18032D01*
X297432Y15798D01*
X300168Y14218D01*
X303220Y13400D01*
X306380D01*
X309432Y14218D01*
X312168Y15798D01*
X314402Y18032D01*
X315982Y20768D01*
X316800Y23820D01*
Y26980D01*
X315982Y30032D01*
X314402Y32768D01*
X312168Y35002D01*
X309432Y36582D01*
X306380Y37400D01*
D02*
G37*
G36*
X515200Y37494D02*
X500800D01*
X498927Y37122D01*
X497339Y36061D01*
X496278Y34473D01*
X495906Y32600D01*
Y18200D01*
X496278Y16327D01*
X497339Y14739D01*
X498927Y13678D01*
X500800Y13306D01*
X515200D01*
X517073Y13678D01*
X518661Y14739D01*
X519721Y16327D01*
X520094Y18200D01*
Y32600D01*
X519721Y34473D01*
X518661Y36061D01*
X517073Y37122D01*
X515200Y37494D01*
D02*
G37*
G36*
X286600D02*
X272200D01*
X270327Y37122D01*
X268739Y36061D01*
X267679Y34473D01*
X267306Y32600D01*
Y18200D01*
X267679Y16327D01*
X268739Y14739D01*
X270327Y13678D01*
X272200Y13306D01*
X286600D01*
X288473Y13678D01*
X290061Y14739D01*
X291121Y16327D01*
X291494Y18200D01*
Y32600D01*
X291121Y34473D01*
X290061Y36061D01*
X288473Y37122D01*
X286600Y37494D01*
D02*
G37*
%LPD*%
G36*
X667401Y327411D02*
X668244Y327391D01*
X668589Y327334D01*
X668962Y327305D01*
X669039Y327286D01*
X669145Y327257D01*
X669288Y327229D01*
X669422Y327210D01*
X669585Y327162D01*
X669748Y327133D01*
X669882Y327114D01*
X669988Y327066D01*
X670112Y327037D01*
X670189Y327018D01*
X670294Y326970D01*
X670438Y326941D01*
X670572Y326884D01*
X670649Y326865D01*
X670783Y326826D01*
X670821Y326788D01*
X670917Y326769D01*
X671128Y326673D01*
X671204Y326654D01*
X671291Y326606D01*
X671396Y326577D01*
X671520Y326510D01*
X671645Y326462D01*
X671683Y326424D01*
X671722Y326405D01*
X671817Y326366D01*
X672181Y326175D01*
X672316Y326098D01*
X672354Y326060D01*
X672488Y325983D01*
X672584Y325926D01*
X672622Y325887D01*
X672756Y325811D01*
X672852Y325753D01*
X672986Y325658D01*
X673025Y325638D01*
X673034Y325610D01*
X673130Y325552D01*
X673235Y325466D01*
X673274Y325447D01*
X673331Y325389D01*
X673369Y325370D01*
X673427Y325313D01*
X673465Y325293D01*
X673523Y325236D01*
X673561Y325217D01*
X673734Y325044D01*
X673772Y325025D01*
X673896Y324901D01*
X674011Y324805D01*
X674031Y324767D01*
X674059Y324757D01*
X674126Y324690D01*
X674145Y324651D01*
X674222Y324575D01*
X674241Y324537D01*
X674318Y324460D01*
X674337Y324422D01*
X674414Y324345D01*
X674433Y324307D01*
X674567Y324173D01*
X674586Y324134D01*
X674644Y324077D01*
X674720Y323943D01*
X674749Y323933D01*
X674778Y323885D01*
X674797Y323847D01*
X674854Y323789D01*
X674874Y323751D01*
X674988Y323559D01*
X675027Y323521D01*
X675084Y323425D01*
X675123Y323387D01*
X675199Y323253D01*
X675295Y323080D01*
X675372Y322946D01*
X675525Y322659D01*
X675544Y322582D01*
X675573Y322553D01*
X675621Y322429D01*
X675697Y322257D01*
X675736Y322122D01*
X675774Y322084D01*
X675812Y321912D01*
X675860Y321806D01*
X675908Y321586D01*
X675956Y321480D01*
X675975Y321404D01*
X675994Y321289D01*
X676052Y321059D01*
X676090Y320752D01*
X676119Y320590D01*
X676138Y320532D01*
X676157Y200780D01*
X676138Y200243D01*
X676119Y200167D01*
X676100Y200033D01*
X676081Y199956D01*
X676052Y199697D01*
X676033Y199621D01*
X675985Y199381D01*
X675966Y199305D01*
X675918Y199180D01*
X675889Y199056D01*
X675870Y198979D01*
X675822Y198854D01*
X675803Y198778D01*
X675774Y198653D01*
X675745Y198624D01*
X675697Y198500D01*
X675649Y198395D01*
X675602Y198270D01*
X675525Y198097D01*
X675506Y198021D01*
X675448Y197963D01*
X675429Y197887D01*
X675352Y197772D01*
X675333Y197695D01*
X675295Y197657D01*
X675142Y197369D01*
X675084Y197312D01*
X675065Y197255D01*
X675027Y197216D01*
X674969Y197120D01*
X674931Y197082D01*
X674854Y196948D01*
X674826Y196938D01*
X674701Y196756D01*
X674682Y196718D01*
X674653Y196689D01*
X674576Y196574D01*
X674538Y196555D01*
X674529Y196526D01*
X674433Y196431D01*
X674414Y196392D01*
X674337Y196316D01*
X674318Y196277D01*
X674260Y196220D01*
X674212Y196153D01*
X674117Y196038D01*
X674078Y196019D01*
X673848Y195789D01*
X673810Y195770D01*
X673599Y195559D01*
X673561Y195540D01*
X673484Y195463D01*
X673446Y195444D01*
X673408Y195406D01*
X673312Y195348D01*
X673274Y195310D01*
X673178Y195252D01*
X673149Y195224D01*
X673044Y195137D01*
X672910Y195042D01*
X672814Y194984D01*
X672737Y194907D01*
X672661Y194888D01*
X672622Y194850D01*
X672526Y194792D01*
X672488Y194754D01*
X672354Y194677D01*
X672181Y194582D01*
X672153Y194553D01*
X672028Y194505D01*
X671990Y194467D01*
X671952Y194447D01*
X671856Y194409D01*
X671760Y194352D01*
X671664Y194313D01*
X671530Y194237D01*
X671434Y194179D01*
X671358Y194160D01*
X671147Y194064D01*
X671070Y194045D01*
X670984Y193997D01*
X670879Y193969D01*
X670754Y193901D01*
X670610Y193873D01*
X670438Y193796D01*
X670304Y193777D01*
X670198Y193729D01*
X670093Y193700D01*
X670016Y193681D01*
X669882Y193624D01*
X669691Y193604D01*
X669614Y193585D01*
X669451Y193537D01*
X669250Y193509D01*
X669173Y193489D01*
X669068Y193461D01*
X668953Y193442D01*
X668579Y193413D01*
X668503Y193394D01*
X668369Y193375D01*
X668311Y193355D01*
X666587Y193336D01*
X666328Y193365D01*
X666232Y193384D01*
X666117Y193403D01*
X665782Y193432D01*
X665648Y193451D01*
X665542Y193480D01*
X665418Y193509D01*
X665284Y193528D01*
X665207Y193547D01*
X665121Y193576D01*
X664824Y193624D01*
X664699Y193671D01*
X664498Y193719D01*
X664393Y193767D01*
X664268Y193796D01*
X664192Y193815D01*
X664086Y193863D01*
X663962Y193892D01*
X663856Y193940D01*
X663732Y193988D01*
X663559Y194064D01*
X663483Y194083D01*
X663358Y194151D01*
X663234Y194179D01*
X663195Y194218D01*
X663042Y194275D01*
X663004Y194313D01*
X662965Y194333D01*
X662869Y194371D01*
X662505Y194562D01*
X662410Y194620D01*
X662295Y194697D01*
X662237Y194716D01*
X662180Y194773D01*
X662084Y194811D01*
X662046Y194850D01*
X661911Y194926D01*
X661816Y194984D01*
X661682Y195080D01*
X661643Y195099D01*
X661634Y195128D01*
X661547Y195176D01*
X661490Y195233D01*
X661452Y195252D01*
X661394Y195310D01*
X661298Y195367D01*
X661222Y195444D01*
X661183Y195463D01*
X661049Y195597D01*
X661011Y195616D01*
X660973Y195674D01*
X660934Y195693D01*
X660465Y196162D01*
X660446Y196201D01*
X660369Y196277D01*
X660350Y196316D01*
X660197Y196469D01*
X660178Y196507D01*
X660101Y196584D01*
X660082Y196622D01*
X660043Y196660D01*
X659756Y197063D01*
X659698Y197159D01*
X659660Y197197D01*
X659603Y197293D01*
X659564Y197331D01*
X659488Y197465D01*
X659296Y197810D01*
X659162Y198059D01*
X659066Y198270D01*
X659028Y198404D01*
X658990Y198442D01*
X658970Y198557D01*
X658894Y198672D01*
X658875Y198787D01*
X658817Y198921D01*
X658779Y199094D01*
X658750Y199199D01*
X658712Y199295D01*
X658673Y199487D01*
X658654Y199563D01*
X658606Y199784D01*
X658587Y199975D01*
X658568Y200033D01*
X658549Y200224D01*
X658530Y200282D01*
X658511Y302809D01*
Y319900D01*
X658539Y320465D01*
X658559Y320618D01*
X658578Y320714D01*
X658597Y320829D01*
X658616Y321002D01*
X658635Y321097D01*
X658654Y321174D01*
X658702Y321394D01*
X658731Y321500D01*
X658769Y321595D01*
X658808Y321787D01*
X658846Y321883D01*
X658875Y321988D01*
X658932Y322122D01*
X658970Y322218D01*
X658990Y322295D01*
X659018Y322324D01*
X659066Y322448D01*
X659085Y322525D01*
X659114Y322553D01*
X659162Y322678D01*
X659181Y322735D01*
X659373Y323080D01*
X659526Y323368D01*
X659564Y323406D01*
X659622Y323502D01*
X659651Y323531D01*
X659814Y323770D01*
X659833Y323809D01*
X659861Y323818D01*
X659890Y323885D01*
X659928Y323923D01*
X659986Y324019D01*
X660043Y324077D01*
X660063Y324115D01*
X660158Y324211D01*
X660178Y324249D01*
X660312Y324383D01*
X660331Y324422D01*
X660427Y324517D01*
X660446Y324556D01*
X660474Y324585D01*
X660570Y324700D01*
X660609Y324719D01*
X661068Y325178D01*
X661107Y325198D01*
X661183Y325274D01*
X661222Y325293D01*
X661279Y325351D01*
X661318Y325370D01*
X661375Y325428D01*
X661471Y325485D01*
X661528Y325542D01*
X661567Y325562D01*
X661624Y325619D01*
X661720Y325677D01*
X661777Y325734D01*
X661816Y325753D01*
X662007Y325868D01*
X662141Y325945D01*
X662180Y325983D01*
X662314Y326060D01*
X662486Y326156D01*
X662515Y326184D01*
X662640Y326232D01*
X662678Y326271D01*
X662831Y326328D01*
X662879Y326376D01*
X662984Y326405D01*
X663071Y326472D01*
X663195Y326520D01*
X663234Y326558D01*
X663310Y326577D01*
X663521Y326673D01*
X663598Y326692D01*
X663684Y326740D01*
X663789Y326769D01*
X663914Y326836D01*
X664038Y326865D01*
X664173Y326922D01*
X664345Y326960D01*
X664469Y327008D01*
X664575Y327037D01*
X664651Y327056D01*
X664786Y327114D01*
X664958Y327133D01*
X665035Y327152D01*
X665140Y327181D01*
X665360Y327229D01*
X665495Y327248D01*
X665590Y327286D01*
X665782Y327305D01*
X665916Y327324D01*
X666165Y327344D01*
X666242Y327363D01*
X666299Y327382D01*
X667181Y327401D01*
X667238Y327420D01*
X667401Y327411D01*
D02*
G37*
%LPC*%
G36*
X666970Y325389D02*
X666548Y325370D01*
X666318Y325332D01*
X666261Y325313D01*
X665954Y325293D01*
X665878Y325274D01*
X665772Y325246D01*
X665696Y325226D01*
X665514Y325198D01*
X665437Y325178D01*
X665274Y325131D01*
X665130Y325102D01*
X665025Y325054D01*
X664920Y325025D01*
X664843Y325006D01*
X664757Y324977D01*
X664661Y324939D01*
X664537Y324910D01*
X664508Y324882D01*
X664383Y324834D01*
X664249Y324776D01*
X664153Y324738D01*
X663981Y324661D01*
X663885Y324623D01*
X663847Y324585D01*
X663770Y324565D01*
X663655Y324489D01*
X663617Y324469D01*
X663540Y324450D01*
X663483Y324393D01*
X663406Y324374D01*
X663329Y324297D01*
X663253Y324278D01*
X663176Y324201D01*
X663100Y324182D01*
X663061Y324144D01*
X662965Y324086D01*
X662927Y324067D01*
X662917Y324038D01*
X662850Y324010D01*
X662793Y323952D01*
X662697Y323895D01*
X662640Y323837D01*
X662601Y323818D01*
X662525Y323741D01*
X662486Y323722D01*
X662410Y323646D01*
X662371Y323627D01*
X662352Y323588D01*
X662314Y323569D01*
X662199Y323454D01*
X662161Y323435D01*
X661940Y323214D01*
X661921Y323176D01*
X661844Y323100D01*
X661825Y323061D01*
X661749Y322985D01*
X661730Y322946D01*
X661634Y322850D01*
X661615Y322812D01*
X661586Y322803D01*
X661519Y322678D01*
X661423Y322544D01*
X661346Y322410D01*
X661308Y322371D01*
X661135Y322046D01*
X661107Y322017D01*
X661059Y321893D01*
X661021Y321854D01*
X660963Y321701D01*
X660934Y321672D01*
X660887Y321548D01*
X660839Y321461D01*
X660771Y321279D01*
X660733Y321184D01*
X660714Y321107D01*
X660695Y320973D01*
X660637Y320839D01*
X660618Y320609D01*
X660580Y320455D01*
X660561Y320398D01*
X660542Y200512D01*
X660561Y200378D01*
X660580Y200301D01*
X660599Y200243D01*
X660637Y199918D01*
X660695Y199784D01*
X660714Y199650D01*
X660762Y199487D01*
X660810Y199362D01*
X660867Y199228D01*
X660906Y199132D01*
X660973Y199008D01*
X661001Y198902D01*
X661059Y198845D01*
X661078Y198768D01*
X661155Y198653D01*
X661174Y198596D01*
X661251Y198481D01*
X661289Y198385D01*
X661318Y198375D01*
X661366Y198270D01*
X661423Y198213D01*
X661500Y198078D01*
X661557Y197983D01*
X661615Y197925D01*
X661634Y197887D01*
X661710Y197810D01*
X661730Y197772D01*
X661835Y197666D01*
X661921Y197561D01*
X661940Y197523D01*
X662065Y197398D01*
X662103Y197379D01*
X662276Y197207D01*
X662314Y197187D01*
X662400Y197101D01*
X662515Y197005D01*
X662620Y196919D01*
X662659Y196900D01*
X662716Y196842D01*
X662755Y196823D01*
X662793Y196785D01*
X662860Y196737D01*
X663042Y196613D01*
X663176Y196536D01*
X663214Y196498D01*
X663483Y196344D01*
X663550Y196297D01*
X663674Y196249D01*
X663713Y196210D01*
X663751Y196191D01*
X663847Y196153D01*
X663942Y196095D01*
X664153Y196000D01*
X664354Y195913D01*
X664479Y195884D01*
X664508Y195856D01*
X664632Y195808D01*
X664718Y195779D01*
X664814Y195741D01*
X664958Y195712D01*
X665063Y195664D01*
X665169Y195635D01*
X665322Y195597D01*
X665418Y195559D01*
X665590Y195540D01*
X665744Y195501D01*
X665849Y195473D01*
X666031Y195444D01*
X666223Y195425D01*
X666452Y195386D01*
X666510Y195367D01*
X667449Y195348D01*
X668100Y195367D01*
X668330Y195406D01*
X668388Y195425D01*
X668656Y195444D01*
X668790Y195463D01*
X668953Y195511D01*
X669250Y195559D01*
X669374Y195607D01*
X669499Y195635D01*
X669604Y195664D01*
X669729Y195712D01*
X669806Y195731D01*
X669911Y195760D01*
X670035Y195808D01*
X670112Y195827D01*
X670208Y195884D01*
X670285Y195904D01*
X670419Y195961D01*
X670515Y196000D01*
X670591Y196019D01*
X670630Y196057D01*
X670706Y196076D01*
X670850Y196162D01*
X670974Y196210D01*
X671013Y196249D01*
X671051Y196268D01*
X671147Y196306D01*
X671281Y196383D01*
X671338Y196440D01*
X671415Y196459D01*
X671472Y196517D01*
X671607Y196593D01*
X671702Y196651D01*
X671741Y196689D01*
X671837Y196747D01*
X671894Y196804D01*
X671932Y196823D01*
X671971Y196862D01*
X672066Y196919D01*
X672143Y196996D01*
X672181Y197015D01*
X672258Y197092D01*
X672296Y197111D01*
X672335Y197168D01*
X672373Y197187D01*
X672402Y197216D01*
X672421Y197255D01*
X672450Y197264D01*
X672747Y197561D01*
X672766Y197599D01*
X672938Y197772D01*
X672958Y197810D01*
X673072Y197925D01*
X673139Y198030D01*
X673264Y198213D01*
X673360Y198347D01*
X673437Y198481D01*
X673494Y198577D01*
X673532Y198672D01*
X673571Y198711D01*
X673590Y198787D01*
X673666Y198902D01*
X673686Y198979D01*
X673724Y199075D01*
X673753Y199104D01*
X673781Y199209D01*
X673848Y199333D01*
X673877Y199458D01*
X673935Y199592D01*
X673973Y199764D01*
X674021Y199870D01*
X674050Y199994D01*
X674069Y200186D01*
X674107Y200339D01*
X674126Y200397D01*
X674145Y240250D01*
Y240269D01*
X674136Y320043D01*
X674117Y320369D01*
X674078Y320522D01*
X674050Y320704D01*
X674031Y320839D01*
X673982Y320944D01*
X673954Y321069D01*
X673935Y321145D01*
X673877Y321279D01*
X673858Y321356D01*
X673781Y321528D01*
X673743Y321662D01*
X673705Y321701D01*
X673686Y321777D01*
X673647Y321873D01*
X673590Y321969D01*
X673551Y322065D01*
X673360Y322410D01*
X673302Y322506D01*
X673264Y322544D01*
X673207Y322640D01*
X673149Y322697D01*
X673130Y322755D01*
X673053Y322831D01*
X673034Y322870D01*
X672977Y322908D01*
X672958Y322946D01*
X672881Y323023D01*
X672833Y323090D01*
X672795Y323109D01*
X672785Y323138D01*
X672296Y323627D01*
X672258Y323646D01*
X672181Y323722D01*
X672143Y323741D01*
X672086Y323799D01*
X672047Y323818D01*
X672009Y323856D01*
X671913Y323914D01*
X671875Y323952D01*
X671702Y324086D01*
X671645Y324105D01*
X671607Y324144D01*
X671472Y324220D01*
X671338Y324316D01*
X671204Y324393D01*
X671166Y324412D01*
X671137Y324441D01*
X671013Y324489D01*
X670974Y324527D01*
X670936Y324546D01*
X670840Y324585D01*
X670802Y324604D01*
X670773Y324632D01*
X670668Y324661D01*
X670610Y324719D01*
X670534Y324738D01*
X670399Y324795D01*
X670304Y324834D01*
X670227Y324853D01*
X670131Y324910D01*
X670035Y324929D01*
X669863Y325006D01*
X669729Y325025D01*
X669624Y325073D01*
X669422Y325121D01*
X669327Y325159D01*
X669154Y325198D01*
X669020Y325217D01*
X668857Y325265D01*
X668694Y325293D01*
X668503Y325313D01*
X668273Y325351D01*
X668215Y325370D01*
X666970Y325389D01*
D02*
G37*
%LPD*%
G36*
X668321Y321662D02*
X668474Y321643D01*
X668656Y321615D01*
X668790Y321595D01*
X668924Y321538D01*
X669001Y321519D01*
X669173Y321442D01*
X669307Y321385D01*
X669576Y321231D01*
X669633Y321174D01*
X669671Y321155D01*
X669748Y321078D01*
X669786Y321059D01*
X669911Y320934D01*
X669930Y320896D01*
X669968Y320877D01*
X670016Y320810D01*
X670103Y320704D01*
X670122Y320666D01*
X670160Y320628D01*
X670179Y320590D01*
X670275Y320455D01*
X670294Y320379D01*
X670352Y320321D01*
X670371Y320245D01*
X670467Y319996D01*
X670486Y319862D01*
X670505Y319804D01*
X670524Y319632D01*
X670543Y319574D01*
X670534Y319220D01*
X670515Y319105D01*
X670467Y318884D01*
X670447Y318808D01*
X670371Y318635D01*
X670352Y318578D01*
X670275Y318444D01*
X670218Y318386D01*
X670198Y318348D01*
X670026Y318175D01*
X669921Y318089D01*
X669786Y318013D01*
X669758Y317984D01*
X669738Y317907D01*
X670419Y317897D01*
X670447Y317869D01*
X670467Y316029D01*
X670447Y315953D01*
X670409Y315934D01*
X664134Y315943D01*
X664105Y315972D01*
X664115Y316173D01*
X664134Y316365D01*
X664153Y316480D01*
X664192Y316671D01*
X664211Y316844D01*
X664230Y317035D01*
X664268Y317227D01*
X664297Y317409D01*
X664316Y317600D01*
X664354Y317831D01*
X664402Y317878D01*
X666548Y317897D01*
X666558Y317965D01*
X666529Y317993D01*
X666491Y318013D01*
X666376Y318089D01*
X666338Y318108D01*
X666242Y318204D01*
X666203Y318223D01*
X666175Y318252D01*
X666155Y318290D01*
X666098Y318348D01*
X666041Y318444D01*
X666002Y318482D01*
X665907Y318654D01*
X665878Y318721D01*
X665849Y318846D01*
X665791Y318980D01*
X665772Y319593D01*
X665791Y319785D01*
X665849Y319976D01*
X665887Y320130D01*
X665945Y320264D01*
X665983Y320360D01*
X666079Y320532D01*
X666146Y320638D01*
X666155Y320647D01*
X666175Y320685D01*
X666213Y320724D01*
X666232Y320762D01*
X666366Y320896D01*
X666385Y320934D01*
X666491Y321040D01*
X666529Y321059D01*
X666606Y321136D01*
X666644Y321155D01*
X666683Y321193D01*
X666817Y321270D01*
X666855Y321308D01*
X666893Y321327D01*
X667037Y321413D01*
X667142Y321442D01*
X667200Y321500D01*
X667353Y321538D01*
X667487Y321595D01*
X667660Y321615D01*
X667717Y321634D01*
X667928Y321653D01*
X667985Y321672D01*
X668321Y321662D01*
D02*
G37*
G36*
X668426Y313721D02*
X668618Y313701D01*
X668752Y313682D01*
X668857Y313634D01*
X668982Y313606D01*
X669154Y313529D01*
X669250Y313491D01*
X669422Y313395D01*
X669518Y313337D01*
X669557Y313299D01*
X669652Y313242D01*
X669729Y313165D01*
X669767Y313146D01*
X669911Y313002D01*
X669930Y312964D01*
X669968Y312945D01*
X669988Y312906D01*
X670045Y312849D01*
X670103Y312753D01*
X670141Y312715D01*
X670218Y312581D01*
X670265Y312533D01*
X670294Y312427D01*
X670352Y312370D01*
X670371Y312293D01*
X670447Y312121D01*
X670467Y311987D01*
X670505Y311833D01*
X670524Y311776D01*
X670543Y311412D01*
X670515Y311153D01*
X670467Y310952D01*
X670447Y310875D01*
X670371Y310703D01*
X670352Y310645D01*
X670275Y310511D01*
X670218Y310454D01*
X670198Y310415D01*
X670045Y310262D01*
X669940Y310176D01*
X669806Y310080D01*
X669710Y310023D01*
X669681Y309994D01*
X669700Y309956D01*
X670447Y309936D01*
X670467Y308097D01*
X670447Y308020D01*
X666912Y308011D01*
X666893D01*
X665791Y308020D01*
X665772Y309783D01*
X665753Y309841D01*
X665791Y309936D01*
X666711Y309956D01*
X666730Y309994D01*
X666606Y310061D01*
X666510Y310118D01*
X666376Y310214D01*
X666338Y310233D01*
X666318Y310272D01*
X666280Y310291D01*
X666203Y310368D01*
X666117Y310473D01*
X666021Y310607D01*
X665868Y310894D01*
X665849Y310971D01*
X665811Y311067D01*
X665791Y311124D01*
X665772Y311661D01*
X665791Y311852D01*
X665811Y311929D01*
X665868Y312140D01*
X665887Y312216D01*
X665935Y312303D01*
X665964Y312408D01*
X666041Y312523D01*
X666060Y312600D01*
X666098Y312638D01*
X666155Y312734D01*
X666175Y312772D01*
X666213Y312810D01*
X666232Y312849D01*
X666366Y312983D01*
X666385Y313021D01*
X666491Y313127D01*
X666529Y313146D01*
X666558Y313174D01*
X666663Y313261D01*
X666797Y313356D01*
X666836Y313376D01*
X666874Y313414D01*
X666912Y313433D01*
X667037Y313500D01*
X667161Y313548D01*
X667200Y313586D01*
X667353Y313625D01*
X667487Y313682D01*
X667660Y313701D01*
X667717Y313721D01*
X668292Y313740D01*
X668426Y313721D01*
D02*
G37*
G36*
X668560Y305635D02*
X668809Y305616D01*
X668943Y305597D01*
X669049Y305568D01*
X669173Y305520D01*
X669461Y305386D01*
X669595Y305309D01*
X669652Y305252D01*
X669691Y305233D01*
X669949Y304974D01*
X670045Y304840D01*
X670103Y304744D01*
X670141Y304706D01*
X670275Y304457D01*
X670361Y304255D01*
X670399Y304102D01*
X670447Y303978D01*
X670467Y303901D01*
X670486Y303709D01*
X670505Y303652D01*
X670524Y303441D01*
X670543Y303384D01*
X670534Y302914D01*
X670515Y302742D01*
X670495Y302646D01*
X670457Y302397D01*
X670438Y302301D01*
X670371Y302119D01*
X670332Y301985D01*
X670304Y301956D01*
X670275Y301851D01*
X670198Y301736D01*
X670179Y301659D01*
X670141Y301621D01*
X670083Y301525D01*
X670026Y301467D01*
X670007Y301429D01*
X669949Y301372D01*
X669930Y301333D01*
X669873Y301276D01*
X669758Y301180D01*
X669738Y301142D01*
X669691Y301113D01*
X669652Y301094D01*
X669614Y301056D01*
X669518Y300998D01*
X669470Y300950D01*
X669346Y300902D01*
X669317Y300874D01*
X669193Y300826D01*
X669106Y300797D01*
X669010Y300759D01*
X668790Y300730D01*
X668733Y300711D01*
X665897Y300692D01*
X665849Y300739D01*
X665830Y302521D01*
X665859Y302550D01*
X668484Y302569D01*
X668675Y302588D01*
X668848Y302665D01*
X668924Y302742D01*
X668962Y302761D01*
X669030Y302885D01*
X669068Y302924D01*
X669087Y303249D01*
X669068Y303326D01*
X669049Y303384D01*
X669030Y303422D01*
X668953Y303537D01*
X668848Y303623D01*
X668752Y303681D01*
X668656Y303719D01*
X667756Y303738D01*
X667736D01*
X666041Y303748D01*
X665954Y303738D01*
X665878Y303757D01*
X665849Y303786D01*
X665830Y305587D01*
X665859Y305616D01*
X665926Y305644D01*
X668560Y305635D01*
D02*
G37*
G36*
X666951Y298622D02*
X666970Y298584D01*
X666989Y298067D01*
X668790Y298047D01*
X669039Y298028D01*
X669116Y298009D01*
X669384Y297971D01*
X669547Y297904D01*
X669671Y297875D01*
X669719Y297827D01*
X669844Y297779D01*
X669882Y297741D01*
X669978Y297683D01*
X669997Y297645D01*
X670035Y297626D01*
X670103Y297559D01*
X670237Y297386D01*
X670313Y297252D01*
X670342Y297223D01*
X670390Y297099D01*
X670438Y297013D01*
X670457Y296936D01*
X670524Y296601D01*
X670543Y296543D01*
X670534Y296151D01*
X670515Y295959D01*
X670495Y295882D01*
X670476Y295786D01*
X670457Y295633D01*
X670438Y295537D01*
X670371Y295355D01*
X670352Y295279D01*
X670304Y295193D01*
X670275Y295087D01*
X670227Y295039D01*
X670093Y295020D01*
X670035Y295039D01*
X670016D01*
X669528Y295049D01*
X669020Y295078D01*
X668991Y295106D01*
X668972Y295164D01*
X668991Y295240D01*
X669010Y295298D01*
X669030Y295604D01*
X669010Y295739D01*
X668972Y295873D01*
X668934Y295911D01*
X668915Y295949D01*
X668838Y296026D01*
X668713Y296074D01*
X668618Y296112D01*
X666999Y296103D01*
X666979Y295126D01*
X666960Y295049D01*
X665878Y295039D01*
X665849Y295068D01*
X665830Y296045D01*
X665772Y296103D01*
X664125Y296122D01*
X664067Y296218D01*
X664086Y296275D01*
X664077Y296955D01*
X664086Y297022D01*
X664115Y297051D01*
X664287Y297147D01*
X664383Y297185D01*
X664479Y297243D01*
X665226Y297607D01*
X665322Y297645D01*
X665418Y297703D01*
X665514Y297741D01*
X665610Y297798D01*
X665686Y297817D01*
X665724Y297856D01*
X665763Y297875D01*
X665811Y297923D01*
X665830Y298555D01*
X665849Y298613D01*
X665926Y298632D01*
X666797Y298622D01*
X666874Y298641D01*
X666951Y298622D01*
D02*
G37*
G36*
X670447Y292826D02*
X670467Y290968D01*
X670447Y290910D01*
X668091Y290891D01*
X667976Y290872D01*
X667851Y290824D01*
X667775Y290805D01*
X667679Y290767D01*
X667641Y290728D01*
X667564Y290709D01*
X667506Y290652D01*
X667468Y290632D01*
X667344Y290508D01*
X667324Y290469D01*
X667267Y290412D01*
X667248Y290354D01*
X667171Y290240D01*
X667152Y290105D01*
X667133Y290048D01*
X667152Y289818D01*
X667171Y289741D01*
X667228Y289646D01*
X667248Y289607D01*
X667286Y289569D01*
X667391Y289483D01*
X667487Y289425D01*
X667593Y289377D01*
X667669Y289358D01*
X667842Y289339D01*
X670447Y289320D01*
X670467Y287442D01*
X670438Y287413D01*
X668139Y287394D01*
X667660Y287413D01*
X667525Y287433D01*
X667296Y287490D01*
X667161Y287509D01*
X667027Y287567D01*
X666951Y287586D01*
X666548Y287778D01*
X666510Y287816D01*
X666414Y287873D01*
X666338Y287950D01*
X666299Y287969D01*
X666251Y288017D01*
X666232Y288055D01*
X666146Y288141D01*
X666021Y288324D01*
X665945Y288458D01*
X665887Y288554D01*
X665868Y288630D01*
X665830Y288764D01*
X665791Y288860D01*
X665772Y289531D01*
X665791Y289665D01*
X665811Y289741D01*
X665868Y289952D01*
X666002Y290240D01*
X666060Y290335D01*
X666117Y290393D01*
X666136Y290431D01*
X666299Y290594D01*
X666472Y290728D01*
X666510Y290747D01*
X666548Y290786D01*
X666644Y290805D01*
X666692Y290853D01*
X666683Y290882D01*
X664134Y290901D01*
X664105Y290929D01*
X664086Y290968D01*
X664105Y291025D01*
X664125Y291274D01*
X664144Y291351D01*
X664182Y291581D01*
X664201Y291658D01*
X664220Y291907D01*
X664259Y292136D01*
X664278Y292194D01*
X664297Y292443D01*
X664316Y292520D01*
X664335Y292711D01*
X664354Y292788D01*
X664441Y292855D01*
X664546Y292845D01*
X665878Y292855D01*
X665897D01*
X670256Y292845D01*
X670419Y292855D01*
X670447Y292826D01*
D02*
G37*
G36*
X668167Y285239D02*
X668417Y285220D01*
X668675Y285191D01*
X668781Y285162D01*
X668905Y285114D01*
X668982Y285095D01*
X669154Y285018D01*
X669403Y284903D01*
X669442Y284865D01*
X669480Y284846D01*
X669614Y284750D01*
X669652Y284731D01*
X669729Y284654D01*
X669767Y284635D01*
X669968Y284434D01*
X669988Y284396D01*
X670045Y284338D01*
X670103Y284242D01*
X670141Y284204D01*
X670218Y284070D01*
X670265Y284022D01*
X670294Y283917D01*
X670352Y283859D01*
X670371Y283783D01*
X670467Y283533D01*
X670486Y283399D01*
X670505Y283323D01*
X670524Y283265D01*
X670543Y282901D01*
X670515Y282642D01*
X670467Y282441D01*
X670447Y282365D01*
X670275Y282001D01*
X670198Y281924D01*
X670179Y281886D01*
X670045Y281752D01*
X669806Y281569D01*
X669710Y281512D01*
X669681Y281483D01*
X669691Y281455D01*
X670304Y281435D01*
X670361Y281455D01*
X670447Y281426D01*
X670467Y279548D01*
X670419Y279500D01*
X665791Y279510D01*
X665772Y281273D01*
X665753Y281330D01*
X665782Y281416D01*
X665849Y281445D01*
X666702Y281435D01*
X666730Y281464D01*
X666721Y281493D01*
X666472Y281627D01*
X666414Y281684D01*
X666376Y281704D01*
X666299Y281780D01*
X666261Y281800D01*
X666175Y281886D01*
X666155Y281924D01*
X666117Y281962D01*
X666021Y282096D01*
X665868Y282384D01*
X665830Y282518D01*
X665791Y282614D01*
X665772Y283227D01*
X665791Y283304D01*
X665811Y283438D01*
X665849Y283533D01*
X665868Y283648D01*
X665926Y283783D01*
X665964Y283878D01*
Y283897D01*
X666079Y284108D01*
X666155Y284242D01*
X666213Y284300D01*
X666232Y284338D01*
X666309Y284415D01*
X666328Y284453D01*
X666510Y284635D01*
X666548Y284654D01*
X666625Y284731D01*
X666663Y284750D01*
X666721Y284808D01*
X666759Y284827D01*
X666874Y284903D01*
X666970Y284942D01*
X667008Y284980D01*
X667104Y285018D01*
X667228Y285086D01*
X667353Y285114D01*
X667487Y285172D01*
X667621Y285191D01*
X667679Y285210D01*
X668024Y285229D01*
X668081Y285248D01*
X668167Y285239D01*
D02*
G37*
G36*
X670447Y277096D02*
X670467Y275218D01*
X670438Y275189D01*
X668100Y275170D01*
X668024Y275151D01*
X667813Y275093D01*
X667564Y274978D01*
X667506Y274921D01*
X667468Y274902D01*
X667344Y274777D01*
X667324Y274739D01*
X667267Y274681D01*
X667171Y274509D01*
X667152Y274375D01*
X667133Y274317D01*
X667152Y274068D01*
X667190Y273972D01*
X667248Y273877D01*
X667315Y273810D01*
X667353Y273790D01*
X667391Y273752D01*
X667487Y273695D01*
X667621Y273637D01*
X670419Y273618D01*
X670447Y273589D01*
X670467Y271712D01*
X670438Y271683D01*
X668445Y271664D01*
X667794Y271683D01*
X667775D01*
X667612Y271692D01*
X667497Y271712D01*
X667420Y271731D01*
X667200Y271779D01*
X667094Y271807D01*
X666912Y271874D01*
X666663Y271989D01*
X666568Y272047D01*
X666433Y272143D01*
X666395Y272162D01*
X666203Y272353D01*
X666117Y272459D01*
X666021Y272593D01*
X665907Y272804D01*
X665878Y272871D01*
X665849Y272995D01*
X665791Y273129D01*
X665772Y273800D01*
X665811Y274030D01*
X665849Y274126D01*
X665868Y274241D01*
X665983Y274490D01*
X666060Y274624D01*
X666098Y274662D01*
X666155Y274758D01*
X666184Y274787D01*
X666223Y274806D01*
X666232Y274835D01*
X666280Y274883D01*
X666318Y274902D01*
X666328Y274930D01*
X666606Y275132D01*
X666749Y275199D01*
X666740Y275247D01*
X665935Y275266D01*
X665907Y275294D01*
X665887Y277076D01*
X665916Y277105D01*
X670419Y277124D01*
X670447Y277096D01*
D02*
G37*
G36*
Y269278D02*
X670467Y267381D01*
X670438Y267353D01*
X668139Y267333D01*
X667832Y267257D01*
X667583Y267142D01*
X667487Y267084D01*
X667344Y266941D01*
X667324Y266902D01*
X667267Y266845D01*
X667248Y266787D01*
X667171Y266672D01*
X667152Y266538D01*
X667133Y266481D01*
X667152Y266251D01*
X667171Y266174D01*
X667228Y266078D01*
X667248Y266040D01*
X667353Y265935D01*
X667602Y265801D01*
X670419Y265781D01*
X670447Y265753D01*
X670467Y263932D01*
X670438Y263846D01*
X668158Y263827D01*
X667851Y263846D01*
X667602Y263865D01*
X667411Y263885D01*
X667248Y263932D01*
X667104Y263961D01*
X666912Y264038D01*
X666702Y264134D01*
X666510Y264249D01*
X666472Y264268D01*
X666433Y264306D01*
X666395Y264325D01*
X666318Y264402D01*
X666280Y264421D01*
X666251Y264450D01*
X666232Y264488D01*
X666155Y264565D01*
X666136Y264603D01*
X666079Y264660D01*
X666060Y264699D01*
X665964Y264833D01*
X665945Y264910D01*
X665916Y264938D01*
X665868Y265063D01*
X665830Y265197D01*
X665791Y265293D01*
X665772Y265925D01*
X665791Y266117D01*
X665839Y266280D01*
X665868Y266385D01*
X665926Y266519D01*
X665945Y266557D01*
X665983Y266653D01*
X666041Y266749D01*
X666117Y266826D01*
X666136Y266864D01*
X666338Y267065D01*
X666376Y267084D01*
X666414Y267123D01*
X666520Y267190D01*
X666673Y267285D01*
X666692Y267324D01*
X666654Y267343D01*
X664211Y267333D01*
X664134Y267353D01*
X664086Y267400D01*
X664096Y267448D01*
X664125Y267630D01*
X664153Y267889D01*
X664173Y267966D01*
X664192Y268081D01*
X664230Y268426D01*
X664268Y268617D01*
X664287Y268732D01*
X664316Y269029D01*
X664335Y269106D01*
X664354Y269240D01*
X664383Y269269D01*
X667602Y269288D01*
X667621D01*
X670447Y269278D01*
D02*
G37*
G36*
X666960Y261729D02*
X666979Y261212D01*
X667008Y261183D01*
X668886Y261164D01*
X669145Y261135D01*
X669327Y261106D01*
X669403Y261087D01*
X669489Y261058D01*
X669614Y261010D01*
X669671Y260991D01*
X669710Y260972D01*
X669748Y260934D01*
X669825Y260915D01*
X669863Y260876D01*
X669959Y260819D01*
X670179Y260599D01*
X670198Y260560D01*
X670237Y260522D01*
X670313Y260388D01*
X670371Y260292D01*
X670447Y260119D01*
X670467Y260005D01*
X670486Y259928D01*
X670505Y259870D01*
X670524Y259717D01*
X670543Y259660D01*
X670534Y259267D01*
X670515Y259075D01*
X670495Y258999D01*
X670467Y258836D01*
X670447Y258702D01*
X670390Y258568D01*
X670371Y258453D01*
X670294Y258280D01*
X670256Y258184D01*
X670208Y258156D01*
X669738Y258165D01*
X669097Y258194D01*
X668991Y258223D01*
X668972Y258280D01*
X668991Y258357D01*
X669010Y258414D01*
X669030Y258778D01*
X668972Y259008D01*
X668828Y259152D01*
X668790Y259171D01*
X668694Y259209D01*
X667123Y259229D01*
X667066Y259248D01*
X666999Y259219D01*
X666979Y258204D01*
X666951Y258175D01*
X665935Y258156D01*
X665849Y258184D01*
X665830Y259123D01*
X665801Y259209D01*
X665092Y259229D01*
X664192D01*
X664105Y259257D01*
X664077Y259324D01*
X664086Y260024D01*
X664067Y260081D01*
X664096Y260148D01*
X664192Y260206D01*
X664230Y260244D01*
X664383Y260302D01*
X664421Y260340D01*
X664460Y260359D01*
X665054Y260646D01*
X665150Y260685D01*
X665188Y260723D01*
X665265Y260742D01*
X665360Y260800D01*
X665456Y260838D01*
X665552Y260896D01*
X665648Y260934D01*
X665744Y260991D01*
X665782Y261010D01*
X665811Y261039D01*
X665830Y261710D01*
X665859Y261739D01*
X666932Y261758D01*
X666960Y261729D01*
D02*
G37*
G36*
X670447Y255943D02*
X670467Y254065D01*
X670438Y254036D01*
X667909Y254017D01*
X667698Y253921D01*
X667554Y253777D01*
X667535Y253739D01*
X667449Y253596D01*
X667420Y253490D01*
X667363Y253356D01*
X667334Y253174D01*
X667305Y252934D01*
X667286Y252877D01*
X667267Y252436D01*
X667248Y252360D01*
X667200Y252331D01*
X667152Y252340D01*
X667027Y252369D01*
X666836Y252388D01*
X666730Y252417D01*
X666635Y252436D01*
X666520Y252455D01*
X666366Y252475D01*
X666271Y252494D01*
X666117Y252532D01*
X665897Y252561D01*
X665878D01*
X665791Y252589D01*
X665772Y252781D01*
X665791Y252915D01*
X665820Y253021D01*
X665868Y253145D01*
X665983Y253394D01*
X666041Y253452D01*
X666060Y253490D01*
X666117Y253547D01*
X666165Y253615D01*
X666203Y253634D01*
X666232Y253662D01*
X666338Y253749D01*
X666376Y253768D01*
X666414Y253806D01*
X666452Y253825D01*
X666596Y253912D01*
X666702Y253940D01*
X666730Y253969D01*
X666721Y253998D01*
X666654Y254027D01*
X666012Y254017D01*
X665907Y254046D01*
X665887Y255923D01*
X665916Y255952D01*
X670419Y255971D01*
X670447Y255943D01*
D02*
G37*
G36*
X668752Y250415D02*
X668943Y250357D01*
X669078Y250338D01*
X669212Y250281D01*
X669384Y250204D01*
X669518Y250127D01*
X669614Y250070D01*
X669691Y249993D01*
X669729Y249974D01*
X669949Y249754D01*
X670007Y249658D01*
X670064Y249601D01*
X670083Y249562D01*
X670179Y249428D01*
X670198Y249351D01*
X670246Y249303D01*
X670294Y249179D01*
X670371Y249007D01*
X670409Y248853D01*
X670447Y248757D01*
X670467Y248681D01*
X670486Y248489D01*
X670505Y248432D01*
X670524Y248221D01*
X670543Y248164D01*
X670534Y247675D01*
X670515Y247502D01*
X670476Y247292D01*
X670457Y247177D01*
X670438Y247081D01*
X670371Y246899D01*
X670332Y246765D01*
X670304Y246736D01*
X670275Y246631D01*
X670198Y246516D01*
X670179Y246439D01*
X670122Y246382D01*
X670103Y246343D01*
X670007Y246209D01*
X669988Y246171D01*
X669767Y245951D01*
X669729Y245931D01*
X669691Y245893D01*
X669557Y245797D01*
X669422Y245721D01*
X669384Y245682D01*
X669346Y245663D01*
X669221Y245615D01*
X669125Y245577D01*
X669001Y245548D01*
X668867Y245510D01*
X668809Y245491D01*
X665878Y245471D01*
X665849Y245500D01*
X665830Y247282D01*
X665859Y247311D01*
X665926Y247340D01*
X668254Y247330D01*
X668560Y247349D01*
X668828Y247426D01*
X668886Y247483D01*
X668953Y247531D01*
X669030Y247665D01*
X669068Y247704D01*
X669087Y248029D01*
X669068Y248106D01*
X668991Y248278D01*
X668886Y248384D01*
X668675Y248499D01*
X666932Y248518D01*
X666912Y248518D01*
X665878D01*
X665849Y248547D01*
X665830Y250386D01*
X665859Y250415D01*
X668330Y250434D01*
X668752Y250415D01*
D02*
G37*
G36*
X670447Y243067D02*
X670467Y241189D01*
X670438Y241160D01*
X669078Y241141D01*
X668120D01*
X667985Y241122D01*
X667889Y241084D01*
X667813Y241065D01*
X667564Y240950D01*
X667525Y240911D01*
X667487Y240892D01*
X667305Y240710D01*
X667209Y240538D01*
X667171Y240499D01*
X667152Y240346D01*
X667133Y240289D01*
X667152Y240059D01*
X667248Y239848D01*
X667296Y239800D01*
X667334Y239781D01*
X667372Y239743D01*
X667506Y239666D01*
X667641Y239608D01*
X670419Y239589D01*
X670447Y239561D01*
X670467Y237683D01*
X670399Y237635D01*
X670332Y237645D01*
X667669Y237664D01*
X667516Y237683D01*
X667363Y237721D01*
X667181Y237750D01*
X666932Y237846D01*
X666529Y238037D01*
X666472Y238095D01*
X666433Y238114D01*
X666376Y238171D01*
X666338Y238190D01*
X666203Y238325D01*
X666117Y238430D01*
X666021Y238564D01*
X665907Y238775D01*
X665878Y238842D01*
X665849Y238967D01*
X665791Y239101D01*
X665772Y239733D01*
X665791Y239925D01*
X665811Y240001D01*
X665849Y240097D01*
X665868Y240212D01*
X666002Y240499D01*
X666060Y240595D01*
X666098Y240634D01*
X666155Y240729D01*
X666347Y240921D01*
X666462Y240998D01*
X666568Y241084D01*
X666749Y241170D01*
X666740Y241218D01*
X666673Y241247D01*
X665993Y241237D01*
X665906Y241266D01*
X665887Y243048D01*
X665916Y243076D01*
X670419Y243096D01*
X670447Y243067D01*
D02*
G37*
G36*
X668263Y235499D02*
X668436Y235479D01*
X668618Y235451D01*
X668752Y235431D01*
X668886Y235374D01*
X668962Y235355D01*
X669097Y235297D01*
X669135Y235278D01*
X669269Y235221D01*
X669403Y235144D01*
X669499Y235087D01*
X669557Y235029D01*
X669595Y235010D01*
X669671Y234933D01*
X669710Y234914D01*
X669892Y234732D01*
X669940Y234665D01*
X670026Y234560D01*
X670122Y234426D01*
X670198Y234291D01*
X670256Y234196D01*
X670294Y234100D01*
X670313Y234023D01*
X670342Y233994D01*
X670371Y233889D01*
X670409Y233736D01*
X670428Y233678D01*
X670447Y233468D01*
X670467Y233410D01*
X670457Y233036D01*
X670438Y232864D01*
X670419Y232768D01*
X670399Y232691D01*
X670371Y232548D01*
X670323Y232423D01*
X670256Y232241D01*
X670218Y232203D01*
X670198Y232146D01*
X670103Y232011D01*
X670083Y231973D01*
X670026Y231915D01*
X670007Y231877D01*
X669921Y231791D01*
X669854Y231743D01*
X669834Y231705D01*
X669806Y231695D01*
X669777Y231666D01*
X669758Y231628D01*
X669786Y231599D01*
X669873Y231609D01*
X670064Y231647D01*
X670227Y231676D01*
X670380Y231714D01*
X670515Y231772D01*
X670725Y231868D01*
X670783Y231925D01*
X670821Y231944D01*
X670907Y232031D01*
X670927Y232069D01*
X670965Y232107D01*
X671022Y232203D01*
X671089Y232327D01*
X671118Y232452D01*
X671137Y232509D01*
X671156Y232682D01*
X671176Y232739D01*
X671166Y232979D01*
X671147Y233190D01*
X671118Y233410D01*
X671147Y233496D01*
X671358Y233515D01*
X671549Y233535D01*
X671875Y233573D01*
X671952Y233592D01*
X672450Y233630D01*
X672488Y233573D01*
X672536Y233333D01*
X672555Y233276D01*
X672574Y232299D01*
X672536Y232031D01*
X672517Y231973D01*
X672478Y231724D01*
X672421Y231590D01*
X672402Y231494D01*
X672306Y231283D01*
X672268Y231187D01*
X672114Y230919D01*
X672038Y230842D01*
X672019Y230804D01*
X671961Y230747D01*
X671942Y230708D01*
X671913Y230680D01*
X671875Y230660D01*
X671837Y230603D01*
X671798Y230584D01*
X671750Y230536D01*
X671645Y230450D01*
X671472Y230316D01*
X671415Y230296D01*
X671377Y230258D01*
X671166Y230143D01*
X671128Y230124D01*
X670955Y230047D01*
X670802Y230009D01*
X670697Y229961D01*
X670553Y229932D01*
X670476Y229913D01*
X670371Y229884D01*
X670275Y229865D01*
X670160Y229846D01*
X669786Y229818D01*
X669729Y229798D01*
X667372Y229779D01*
X667353Y229779D01*
X665820D01*
X665791Y229808D01*
X665772Y231705D01*
X665820Y231753D01*
X665926Y231743D01*
X666357Y231753D01*
X666414Y231733D01*
X666558Y231743D01*
X666635Y231762D01*
X666625Y231810D01*
X666452Y231906D01*
X666357Y231963D01*
X666203Y232117D01*
X666117Y232222D01*
X666021Y232356D01*
X665868Y232644D01*
X665830Y232778D01*
X665791Y232873D01*
X665772Y233468D01*
X665791Y233659D01*
X665839Y233822D01*
X665868Y233946D01*
X665964Y234196D01*
X666021Y234291D01*
X666060Y234387D01*
X666117Y234445D01*
X666136Y234483D01*
X666232Y234617D01*
X666251Y234655D01*
X666424Y234828D01*
X666443Y234866D01*
X666491Y234895D01*
X666663Y235029D01*
X666759Y235087D01*
X666836Y235163D01*
X666912Y235182D01*
X666960Y235230D01*
X667142Y235297D01*
X667181Y235336D01*
X667276Y235355D01*
X667449Y235431D01*
X667641Y235451D01*
X667698Y235470D01*
X667928Y235489D01*
X667985Y235508D01*
X668263Y235499D01*
D02*
G37*
G36*
X669767Y227499D02*
X669863Y227461D01*
X669940Y227442D01*
X669997Y227422D01*
X670131Y227346D01*
X670189Y227288D01*
X670256Y227240D01*
X670275Y227202D01*
X670313Y227164D01*
X670390Y227030D01*
X670447Y226934D01*
X670467Y226838D01*
X670486Y226781D01*
X670505Y226608D01*
X670524Y226551D01*
X670505Y226263D01*
X670486Y226206D01*
X670467Y226052D01*
X670352Y225803D01*
X670227Y225679D01*
X670055Y225545D01*
X669930Y225497D01*
X669921Y225487D01*
X669863Y225468D01*
X669767Y225449D01*
X669710Y225430D01*
X669451Y225439D01*
X669355Y225459D01*
X669173Y225526D01*
X669058Y225602D01*
X669020Y225621D01*
X668895Y225746D01*
X668876Y225784D01*
X668838Y225823D01*
X668723Y226014D01*
X668685Y226167D01*
X668646Y226263D01*
X668656Y226694D01*
X668675Y226771D01*
X668704Y226876D01*
X668819Y227125D01*
X668876Y227183D01*
X668895Y227221D01*
X668943Y227269D01*
X668982Y227288D01*
X669001Y227327D01*
X669039Y227346D01*
X669154Y227422D01*
X669193Y227442D01*
X669269Y227461D01*
X669365Y227499D01*
X669576Y227518D01*
X669767Y227499D01*
D02*
G37*
G36*
X670447Y223140D02*
X670467Y221301D01*
X670447Y221224D01*
X670409Y221205D01*
X669269Y221215D01*
X669193Y221195D01*
X669087Y221090D01*
X669068Y221052D01*
X669010Y220994D01*
X668991Y220956D01*
X668915Y220879D01*
X668895Y220841D01*
X668838Y220783D01*
X668781Y220688D01*
X668809Y220659D01*
X668876Y220630D01*
X668953Y220611D01*
X669078Y220563D01*
X669154Y220544D01*
X669288Y220486D01*
X669365Y220467D01*
X669576Y220371D01*
X669652Y220352D01*
X669700Y220304D01*
X669825Y220257D01*
X669863Y220218D01*
X669959Y220161D01*
X670035Y220084D01*
X670074Y220065D01*
X670083Y220036D01*
X670179Y219940D01*
X670198Y219902D01*
X670275Y219825D01*
X670294Y219749D01*
X670342Y219701D01*
X670390Y219576D01*
X670438Y219471D01*
X670476Y219260D01*
X670505Y219097D01*
X670524Y219040D01*
X670543Y218542D01*
X670524Y218235D01*
X670505Y218158D01*
X670457Y218111D01*
X670313Y218082D01*
X669959Y218053D01*
X669882Y218034D01*
X669652Y217996D01*
X669461Y217976D01*
X669039Y217938D01*
X669010Y217967D01*
X669030Y218158D01*
X669049Y218216D01*
X669039Y218436D01*
X669020Y218532D01*
X668991Y218657D01*
X668943Y218743D01*
X668867Y218858D01*
X668828Y218877D01*
X668752Y218954D01*
X668713Y218973D01*
X668570Y219059D01*
X668464Y219088D01*
X668359Y219136D01*
X668158Y219184D01*
X668005Y219222D01*
X667870Y219260D01*
X667794Y219241D01*
X667746Y219193D01*
X667688Y219097D01*
X667660Y219069D01*
X667497Y218829D01*
X667305Y218561D01*
X667248Y218465D01*
X667190Y218407D01*
X667171Y218369D01*
X666979Y218101D01*
X666960Y218063D01*
X666864Y217929D01*
X666845Y217890D01*
X666807Y217852D01*
X666788Y217813D01*
X666740Y217785D01*
X666683Y217804D01*
X666625Y217861D01*
X666587Y217881D01*
X666548Y217919D01*
X666443Y217986D01*
X666203Y218168D01*
X666165Y218187D01*
X666127Y218225D01*
X666088Y218245D01*
X666050Y218283D01*
X665945Y218350D01*
X665839Y218436D01*
X665801Y218455D01*
X665744Y218513D01*
X665705Y218532D01*
X665667Y218570D01*
X665533Y218647D01*
X665475Y218704D01*
X665437Y218724D01*
X665399Y218762D01*
X665360Y218781D01*
X665322Y218839D01*
X665332Y218887D01*
X665408Y218963D01*
X665427Y219002D01*
X665485Y219059D01*
X665504Y219097D01*
X665581Y219174D01*
X665600Y219212D01*
X665657Y219270D01*
X665676Y219308D01*
X665753Y219385D01*
X665772Y219423D01*
X665849Y219500D01*
X665868Y219538D01*
X665945Y219615D01*
X665964Y219653D01*
X666021Y219710D01*
X666041Y219749D01*
X666117Y219825D01*
X666136Y219864D01*
X666165Y219892D01*
X666251Y219998D01*
X666385Y220170D01*
X666433Y220237D01*
X666529Y220352D01*
X666568Y220371D01*
X666596Y220419D01*
X666615Y220458D01*
X666644Y220467D01*
X666692Y220534D01*
X666711Y220573D01*
X666769Y220630D01*
X666788Y220668D01*
X666864Y220745D01*
X666884Y220783D01*
X666960Y220860D01*
X666979Y220898D01*
X667037Y220956D01*
X667056Y220994D01*
X667133Y221071D01*
X667190Y221167D01*
X667161Y221195D01*
X667047Y221215D01*
X666989Y221195D01*
X666979Y221205D01*
X664192Y221195D01*
X664115Y221215D01*
X664086Y221243D01*
X664115Y221444D01*
X664134Y221636D01*
X664153Y221751D01*
X664192Y221943D01*
X664220Y222240D01*
X664240Y222316D01*
X664278Y222546D01*
X664297Y222623D01*
X664316Y222872D01*
X664354Y223102D01*
X664441Y223169D01*
X664546Y223159D01*
X670323Y223169D01*
X670342Y223169D01*
X670399Y223188D01*
X670447Y223140D01*
D02*
G37*
G36*
Y215763D02*
X670467Y213905D01*
X670447Y213847D01*
X667937Y213828D01*
X667842Y213809D01*
X667717Y213761D01*
X667621Y213723D01*
X667458Y213617D01*
X667439Y213579D01*
X667411Y213570D01*
X667382Y213541D01*
X667324Y213445D01*
X667276Y213397D01*
X667228Y213272D01*
X667209Y213196D01*
X667190Y213062D01*
X667209Y212985D01*
X667228Y212928D01*
X667248Y212813D01*
X667305Y212755D01*
X667324Y212717D01*
X667430Y212631D01*
X667468Y212612D01*
X667497Y212583D01*
X667621Y212535D01*
X667717Y212496D01*
X667899Y212468D01*
X670447Y212449D01*
X670467Y210609D01*
X670447Y210533D01*
X667985Y210523D01*
X667832Y210485D01*
X667736Y210446D01*
X667602Y210389D01*
X667506Y210331D01*
X667363Y210188D01*
X667344Y210149D01*
X667305Y210111D01*
X667286Y210073D01*
X667257Y210044D01*
X667238Y209967D01*
X667209Y209843D01*
X667190Y209785D01*
X667200Y209699D01*
X667219Y209622D01*
X667248Y209498D01*
X667305Y209440D01*
X667324Y209402D01*
X667430Y209316D01*
X667468Y209297D01*
X667497Y209268D01*
X667621Y209220D01*
X667717Y209182D01*
X667899Y209153D01*
X670447Y209134D01*
X670467Y207237D01*
X670438Y207208D01*
X668254Y207189D01*
X667947Y207208D01*
X667525Y207227D01*
X667449Y207247D01*
X667344Y207275D01*
X667200Y207304D01*
X667123Y207323D01*
X666989Y207381D01*
X666893Y207400D01*
X666769Y207467D01*
X666644Y207515D01*
X666606Y207553D01*
X666472Y207630D01*
X666376Y207687D01*
X666136Y207927D01*
X666117Y207965D01*
X666088Y207975D01*
X666002Y208118D01*
X665868Y208368D01*
X665830Y208502D01*
X665791Y208597D01*
X665772Y209172D01*
X665791Y209364D01*
X665811Y209440D01*
X665839Y209527D01*
X665868Y209651D01*
X665926Y209785D01*
X665945Y209824D01*
X665983Y209919D01*
X666060Y210054D01*
X666098Y210092D01*
X666155Y210188D01*
X666395Y210427D01*
X666433Y210446D01*
X666491Y210504D01*
X666529Y210523D01*
X666596Y210590D01*
X666692Y210628D01*
X666711Y210705D01*
X666683Y210734D01*
X666587Y210791D01*
X666452Y210887D01*
X666414Y210906D01*
X666357Y210964D01*
X666318Y210983D01*
X666203Y211098D01*
X666117Y211203D01*
X666021Y211337D01*
X665868Y211625D01*
X665849Y211682D01*
Y211701D01*
X665830Y211759D01*
X665791Y211855D01*
X665772Y212430D01*
X665791Y212621D01*
X665811Y212698D01*
X665839Y212784D01*
X665868Y212889D01*
X666002Y213177D01*
X666069Y213282D01*
X666108Y213301D01*
X666136Y213349D01*
X666155Y213388D01*
X666328Y213560D01*
X666433Y213646D01*
X666472Y213665D01*
X666500Y213694D01*
X666606Y213780D01*
X666769Y213867D01*
X666759Y213914D01*
X665974Y213934D01*
X665887Y213962D01*
X665897Y215754D01*
X665935Y215773D01*
X665993Y215792D01*
X670275Y215783D01*
X670419Y215792D01*
X670447Y215763D01*
D02*
G37*
G36*
X668426Y205024D02*
X668618Y205005D01*
X668752Y204986D01*
X668857Y204938D01*
X668982Y204909D01*
X669154Y204832D01*
X669250Y204794D01*
X669422Y204698D01*
X669518Y204641D01*
X669557Y204603D01*
X669652Y204545D01*
X669729Y204468D01*
X669767Y204449D01*
X669911Y204305D01*
X669930Y204267D01*
X669968Y204248D01*
X669988Y204210D01*
X670045Y204152D01*
X670103Y204056D01*
X670141Y204018D01*
X670218Y203884D01*
X670265Y203836D01*
X670294Y203731D01*
X670352Y203673D01*
X670371Y203597D01*
X670447Y203424D01*
X670467Y203290D01*
X670505Y203137D01*
X670524Y203079D01*
X670543Y202715D01*
X670515Y202456D01*
X670467Y202255D01*
X670447Y202179D01*
X670371Y202006D01*
X670352Y201949D01*
X670275Y201815D01*
X670218Y201757D01*
X670198Y201719D01*
X670045Y201566D01*
X669940Y201479D01*
X669806Y201383D01*
X669710Y201326D01*
X669681Y201297D01*
X669700Y201259D01*
X670447Y201240D01*
X670467Y199400D01*
X670438Y199314D01*
X665791Y199324D01*
X665772Y201087D01*
X665753Y201144D01*
X665791Y201240D01*
X666711Y201259D01*
X666730Y201297D01*
X666606Y201364D01*
X666510Y201422D01*
X666376Y201518D01*
X666338Y201537D01*
X666318Y201575D01*
X666280Y201594D01*
X666203Y201671D01*
X666117Y201776D01*
X666021Y201910D01*
X665868Y202198D01*
X665849Y202274D01*
X665811Y202370D01*
X665791Y202428D01*
X665772Y202964D01*
X665791Y203156D01*
X665811Y203232D01*
X665868Y203443D01*
X665887Y203520D01*
X665935Y203606D01*
X665964Y203711D01*
X666041Y203827D01*
X666060Y203903D01*
X666117Y203961D01*
X666136Y203999D01*
X666251Y204171D01*
X666261Y204181D01*
X666366Y204286D01*
X666385Y204325D01*
X666491Y204430D01*
X666529Y204449D01*
X666558Y204478D01*
X666663Y204564D01*
X666797Y204660D01*
X666836Y204679D01*
X666874Y204717D01*
X666912Y204737D01*
X667037Y204804D01*
X667161Y204852D01*
X667200Y204890D01*
X667353Y204928D01*
X667487Y204986D01*
X667660Y205005D01*
X667717Y205024D01*
X668292Y205043D01*
X668426Y205024D01*
D02*
G37*
%LPC*%
G36*
X668120Y319718D02*
X667928Y319699D01*
X667851Y319679D01*
X667641Y319584D01*
X667583Y319526D01*
X667545Y319507D01*
X667439Y319402D01*
X667420Y319363D01*
X667382Y319325D01*
X667267Y319114D01*
Y319095D01*
X667248Y318961D01*
X667228Y318904D01*
X667248Y318597D01*
X667324Y318424D01*
X667344Y318348D01*
X667401Y318290D01*
X667420Y318252D01*
X667621Y318051D01*
X667717Y318013D01*
X667755Y317974D01*
X667822Y317945D01*
X667985Y317917D01*
X668043Y317897D01*
X668244Y317907D01*
X668426Y317936D01*
X668675Y318051D01*
X668713Y318089D01*
X668781Y318137D01*
X668828Y318204D01*
X668867Y318223D01*
X668876Y318252D01*
X668972Y318386D01*
X669010Y318482D01*
X669058Y318606D01*
X669078Y318798D01*
X669068Y318961D01*
X669049Y319038D01*
X669010Y319133D01*
X668953Y319268D01*
X668895Y319363D01*
X668713Y319545D01*
X668464Y319679D01*
X668407Y319699D01*
X668120Y319718D01*
D02*
G37*
G36*
X668139Y311805D02*
X667870Y311766D01*
X667660Y311670D01*
X667621Y311632D01*
X667583Y311613D01*
X667430Y311460D01*
X667420Y311450D01*
Y311431D01*
X667363Y311373D01*
X667344Y311335D01*
X667296Y311230D01*
X667248Y311105D01*
X667228Y310914D01*
X667248Y310665D01*
X667267Y310588D01*
X667324Y310492D01*
X667344Y310415D01*
X667401Y310358D01*
X667420Y310320D01*
X667535Y310205D01*
X667641Y310118D01*
X667679Y310099D01*
X667717Y310061D01*
X667784Y310032D01*
X667861Y310013D01*
X667985Y309965D01*
X668120Y309946D01*
X668311Y309965D01*
X668407Y310004D01*
X668484Y310023D01*
X668579Y310061D01*
X668675Y310118D01*
X668733Y310176D01*
X668800Y310224D01*
X668819Y310262D01*
X668848Y310291D01*
X668934Y310396D01*
X668991Y310492D01*
X669049Y310626D01*
X669068Y311048D01*
X669020Y311172D01*
X668991Y311278D01*
X668915Y311393D01*
X668895Y311431D01*
X668819Y311508D01*
X668800Y311546D01*
X668742Y311584D01*
X668637Y311670D01*
X668598Y311690D01*
X668474Y311757D01*
X668378Y311776D01*
X668139Y311805D01*
D02*
G37*
G36*
X668196Y283294D02*
X667947Y283275D01*
X667794Y283237D01*
X667755Y283198D01*
X667679Y283179D01*
X667621Y283121D01*
X667583Y283102D01*
X667439Y282959D01*
X667420Y282920D01*
X667363Y282863D01*
X667344Y282824D01*
X667296Y282719D01*
X667257Y282623D01*
X667228Y282346D01*
X667267Y282077D01*
X667324Y281982D01*
X667344Y281905D01*
X667401Y281847D01*
X667420Y281809D01*
X667545Y281684D01*
X667679Y281589D01*
X667813Y281512D01*
X668005Y281455D01*
X668139Y281435D01*
X668273Y281455D01*
X668464Y281512D01*
X668675Y281608D01*
X668752Y281684D01*
X668790Y281704D01*
X668838Y281771D01*
X668972Y281943D01*
X669049Y282135D01*
X669068Y282537D01*
X669020Y282662D01*
X668991Y282767D01*
X668915Y282882D01*
X668895Y282920D01*
X668838Y282978D01*
X668819Y283016D01*
X668771Y283064D01*
X668733Y283083D01*
X668656Y283160D01*
X668579Y283179D01*
X668464Y283256D01*
X668330Y283275D01*
X668311D01*
X668196Y283294D01*
D02*
G37*
G36*
Y233592D02*
X668024Y233573D01*
X667889Y233535D01*
X667813Y233515D01*
X667717Y233477D01*
X667621Y233420D01*
X667545Y233343D01*
X667506Y233324D01*
X667478Y233295D01*
X667458Y233257D01*
X667401Y233199D01*
X667324Y233065D01*
X667267Y232969D01*
X667248Y232835D01*
X667228Y232759D01*
X667248Y232452D01*
X667324Y232280D01*
X667344Y232203D01*
X667401Y232146D01*
X667420Y232107D01*
X667564Y231963D01*
X667602Y231944D01*
X667641Y231906D01*
X667889Y231772D01*
X668254Y231753D01*
X668273D01*
X668349Y231772D01*
X668484Y231791D01*
X668522Y231829D01*
X668560Y231849D01*
X668656Y231887D01*
X668713Y231944D01*
X668752Y231963D01*
X668800Y232011D01*
X668819Y232050D01*
X668848Y232059D01*
X668934Y232184D01*
X668991Y232280D01*
X669049Y232414D01*
X669068Y232586D01*
X669087Y232644D01*
X669078Y232653D01*
X669058Y232864D01*
X669010Y232988D01*
X668953Y233123D01*
X668886Y233228D01*
X668848Y233247D01*
X668838Y233276D01*
X668790Y233324D01*
X668752Y233343D01*
X668694Y233400D01*
X668503Y233515D01*
X668426Y233535D01*
X668369Y233554D01*
X668254Y233573D01*
X668196Y233592D01*
D02*
G37*
G36*
X668139Y203108D02*
X667870Y203070D01*
X667660Y202974D01*
X667621Y202936D01*
X667583Y202916D01*
X667439Y202773D01*
X667420Y202734D01*
X667363Y202677D01*
X667344Y202638D01*
X667296Y202533D01*
X667248Y202409D01*
X667228Y202217D01*
X667248Y201968D01*
X667267Y201891D01*
X667324Y201796D01*
X667344Y201719D01*
X667401Y201661D01*
X667420Y201623D01*
X667535Y201508D01*
X667641Y201422D01*
X667679Y201403D01*
X667717Y201364D01*
X667784Y201336D01*
X667861Y201317D01*
X667985Y201269D01*
X668120Y201249D01*
X668311Y201269D01*
X668407Y201307D01*
X668484Y201326D01*
X668579Y201364D01*
X668675Y201422D01*
X668733Y201479D01*
X668800Y201527D01*
X668819Y201566D01*
X668848Y201594D01*
X668934Y201700D01*
X668991Y201796D01*
X669049Y201930D01*
X669068Y202140D01*
Y202351D01*
X669020Y202476D01*
X668991Y202581D01*
X668915Y202696D01*
X668895Y202734D01*
X668838Y202792D01*
X668790Y202859D01*
X668752Y202878D01*
X668694Y202936D01*
X668598Y202993D01*
X668474Y203060D01*
X668378Y203079D01*
X668139Y203108D01*
D02*
G37*
%LPD*%
D14*
X642439Y92190D02*
G03*
X635000Y74229I17960J-17960D01*
G01*
X651910Y101661D02*
G03*
X659350Y119621I-17960J17960D01*
G01*
X617039Y91539D02*
G03*
X609600Y73579I17960J-17960D01*
G01*
X626511Y101011D02*
G03*
X633950Y118971I-17960J17960D01*
G01*
X469064Y278500D02*
G03*
X463727Y276290I0J-7547D01*
G01*
X641629Y5500D02*
G03*
X650750Y9278I0J12899D01*
G01*
X342660Y12939D02*
G03*
X360621Y5500I17960J17960D01*
G01*
X393681Y480079D02*
G03*
X411642Y472640I17960J17960D01*
G01*
X430800Y465200D02*
G03*
X412840Y472640I-17960J-17960D01*
G01*
X405187Y490438D02*
G03*
X423147Y482999I17960J17960D01*
G01*
X443107Y475559D02*
G03*
X425146Y482999I-17960J-17960D01*
G01*
X454619Y486519D02*
G03*
X440469Y492380I-14150J-14150D01*
G01*
X426319Y498241D02*
G03*
X440469Y492380I14150J14150D01*
G01*
X627000Y454679D02*
G03*
X619561Y472640I-25400J0D01*
G01*
X617899Y439321D02*
G03*
X611125Y455675I-23128J0D01*
G01*
X591762Y449638D02*
G03*
X591759Y449641I-8859J-8853D01*
G01*
X595428Y440785D02*
G03*
X591762Y449638I-12524J0D01*
G01*
X570324Y445676D02*
G03*
X570323Y445677I-6357J-6355D01*
G01*
X572956Y439321D02*
G03*
X570324Y445676I-8989J0D01*
G01*
X547291Y443309D02*
G03*
X547289Y443311I-7716J-7711D01*
G01*
X550484Y435597D02*
G03*
X547291Y443309I-10909J0D01*
G01*
X628788Y488812D02*
G03*
X628785Y488815I-16818J-16812D01*
G01*
X635750Y472000D02*
G03*
X628788Y488812I-23780J0D01*
G01*
X641750Y484227D02*
G03*
X638380Y492370I-11523J0D01*
G01*
X638370Y492380D02*
G03*
X638375Y492375I8153J8143D01*
G01*
X635000Y500523D02*
G03*
X638370Y492380I11523J0D01*
G01*
X638380Y492370D02*
G03*
X638375Y492375I-8153J-8143D01*
G01*
X634310Y389513D02*
G03*
X641750Y407473I-17960J17960D01*
G01*
X628311Y391998D02*
G03*
X635750Y409958I-17960J17960D01*
G01*
X619561Y391733D02*
G03*
X627000Y409694I-17960J17960D01*
G01*
X610460Y391118D02*
G03*
X617899Y409078I-17960J17960D01*
G01*
X587988Y377131D02*
G03*
X595428Y395092I-17960J17960D01*
G01*
X461954Y215189D02*
G03*
X479915Y207750I17960J17960D01*
G01*
X493768Y214000D02*
G03*
X512027Y232260I0J18260D01*
G01*
X466755Y220995D02*
G03*
X480178Y214432I16314J16357D01*
G01*
X466712Y221038D02*
G03*
X466755Y220995I16357J16314D01*
G01*
X480179Y214431D02*
G03*
X483729Y214030I4823J26732D01*
G01*
X483730Y214030D02*
G03*
X485001Y214000I1272J27133D01*
G01*
X481086Y220365D02*
G03*
X485001Y220000I3916J20798D01*
G01*
X470990Y225246D02*
G03*
X481085Y220365I12079J12106D01*
G01*
X470963Y225272D02*
G03*
X470990Y225246I12106J12079D01*
G01*
X475222Y229499D02*
G03*
X483069Y226250I7847J7853D01*
G01*
X475219Y229502D02*
G03*
X475222Y229499I7850J7850D01*
G01*
X580902Y286177D02*
G03*
X586157Y273489I17942J0D01*
G01*
X564193Y305340D02*
G03*
X554685Y301402I0J-13446D01*
G01*
X560532Y291569D02*
G03*
X548250Y286482I0J-17369D01*
G01*
X531009Y260755D02*
G03*
X531003Y260750I13077J-13088D01*
G01*
X544086Y266169D02*
G03*
X531009Y260755I0J-18501D01*
G01*
X497747Y252949D02*
G03*
X493768Y243334I9627J-9616D01*
G01*
X497753Y252955D02*
G03*
X497747Y252949I9621J-9621D01*
G01*
X505060Y251777D02*
G03*
X500027Y239627I12150J-12150D01*
G01*
X506362Y240421D02*
G03*
X506027Y238259I6814J-2161D01*
G01*
X511134Y249366D02*
G03*
X506362Y240421I12377J-12349D01*
G01*
X511162Y249394D02*
G03*
X511134Y249366I12349J-12377D01*
G01*
X515386Y245133D02*
G03*
X512027Y237017I8125J-8116D01*
G01*
X515391Y245138D02*
G03*
X515386Y245133I8121J-8121D01*
G01*
X488760Y252448D02*
G03*
X486268Y246426I6027J-6022D01*
G01*
X488763Y252451D02*
G03*
X488760Y252448I6025J-6025D01*
G01*
X491457Y263629D02*
G03*
X491460Y263633I-6957J6964D01*
G01*
X484500Y260750D02*
G03*
X491457Y263629I0J9843D01*
G01*
X494051Y274709D02*
G03*
X494059Y274717I-15605J15620D01*
G01*
X478447Y268250D02*
G03*
X494051Y274709I0J22079D01*
G01*
X496757Y285901D02*
G03*
X496769Y285912I-17883J17906D01*
G01*
X478875Y278500D02*
G03*
X496757Y285901I0J25306D01*
G01*
X359837Y275163D02*
G03*
X367894Y271826I8056J8056D01*
G01*
X369870Y281926D02*
G03*
X379776Y277826I9905J9916D01*
G01*
X369865Y281931D02*
G03*
X369870Y281926I9911J9911D01*
G01*
X378962Y288865D02*
G03*
X391134Y283826I12172J12182D01*
G01*
X378957Y288870D02*
G03*
X378962Y288865I12177J12177D01*
G01*
X427970Y276750D02*
G03*
X427934Y276786I-8470J-8500D01*
G01*
X428000Y276720D02*
G03*
X427970Y276750I-8500J-8470D01*
G01*
X428006Y276714D02*
G03*
X428000Y276720I-8506J-8464D01*
G01*
X427850Y276870D02*
G03*
X426500Y278097I-13770J-13807D01*
G01*
X427887Y276834D02*
G03*
X427850Y276870I-13807J-13770D01*
G01*
X427934Y276786D02*
G03*
X427887Y276834I-13854J-13723D01*
G01*
X426500Y278097D02*
G03*
X410816Y283826I-15684J-18604D01*
G01*
X423616Y272620D02*
G03*
X422656Y273489I-9536J-9556D01*
G01*
X423636Y272599D02*
G03*
X423616Y272620I-9556J-9536D01*
G01*
X423695Y272540D02*
G03*
X423636Y272599I-9615J-9476D01*
G01*
X423735Y272500D02*
G03*
X423705Y272530I-4235J-4250D01*
G01*
X423750Y272485D02*
G03*
X423735Y272500I-4250J-4235D01*
G01*
X422656Y273489D02*
G03*
X410816Y277826I-11840J-13997D01*
G01*
X418814Y268881D02*
G03*
X410816Y271826I-7998J-9388D01*
G01*
X419450Y268299D02*
G03*
X418814Y268881I-5370J-5236D01*
G01*
X187400Y258079D02*
G03*
X179960Y276040I-25400J0D01*
G01*
X151706Y365490D02*
G03*
X169666Y358051I17960J17960D01*
G01*
X162852Y367044D02*
G03*
X170083Y364051I7230J7237D01*
G01*
X162849Y367047D02*
G03*
X162852Y367044I7234J7234D01*
G01*
X580902Y294201D02*
G03*
X569763Y305340I-11139J0D01*
G01*
X494058Y207750D02*
G03*
X518027Y231719I0J23969D01*
G01*
X527077Y240769D02*
G03*
X518027Y231719I0J-9050D01*
G01*
X493768Y220000D02*
G03*
X506027Y232260I0J12260D01*
G01*
X493768Y226250D02*
G03*
X500027Y232510I0J6260D01*
G01*
X489961Y233891D02*
G03*
X493768Y237698I0J3807D01*
G01*
X335000Y273365D02*
G03*
X360400Y247965I25400J0D01*
G01*
X341000Y273861D02*
G03*
X359396Y255465I18396J0D01*
G01*
X347000Y274169D02*
G03*
X358106Y263063I11106J0D01*
G01*
X347000Y320151D02*
G03*
X321600Y345551I-25400J0D01*
G01*
X341000Y319960D02*
G03*
X323960Y337000I-17040J0D01*
G01*
X335000Y317631D02*
G03*
X323783Y328848I-11217J0D01*
G01*
X258500Y335248D02*
G03*
X264900Y328848I6400J0D01*
G01*
X266196Y357355D02*
G03*
X278000Y345551I11804J0D01*
G01*
X242848Y348046D02*
G03*
X232843Y358051I-10005J0D01*
G01*
X233329Y364051D02*
G03*
X242848Y373570I0J9519D01*
G01*
X258500Y423352D02*
G03*
X238760Y443092I-19740J0D01*
G01*
X491460Y263633D02*
X619561Y391733D01*
X642439Y92190D02*
X651910Y101661D01*
X659350Y119621D02*
Y148192D01*
X617039Y91539D02*
X626511Y101011D01*
X633950Y118971D02*
Y148192D01*
X609600Y25400D02*
Y73579D01*
X635000Y25400D02*
Y74229D01*
X469064Y278500D02*
X478875D01*
X459135Y271698D02*
X463727Y276290D01*
X360621Y5500D02*
X641629D01*
X330200Y25400D02*
X342660Y12939D01*
X365760Y508000D02*
X393681Y480079D01*
X411642Y472640D02*
X412840D01*
X391160Y504465D02*
X405187Y490438D01*
X423147Y482999D02*
X425146D01*
X416560Y508000D02*
X426319Y498241D01*
X454619Y486519D02*
X505541Y435597D01*
X443107Y475559D02*
X483069Y435597D01*
X430800Y465200D02*
X460500Y435500D01*
X391160Y504465D02*
Y508000D01*
X627000Y409694D02*
Y454679D01*
X584200Y508000D02*
X619561Y472640D01*
X617899Y435597D02*
Y439321D01*
X558800Y508000D02*
X611125Y455675D01*
X595428Y435597D02*
Y440785D01*
X533400Y508000D02*
X591759Y449641D01*
X572956Y435597D02*
Y439321D01*
X570323Y445677D02*
X570324Y445676D01*
X508000Y508000D02*
X570323Y445677D01*
X547289Y443311D02*
X547291Y443309D01*
X482600Y508000D02*
X547289Y443311D01*
X528013Y435597D02*
Y437188D01*
X457200Y508000D02*
X528013Y437188D01*
X635750Y409958D02*
Y472000D01*
X609600Y508000D02*
X628785Y488815D01*
X635000Y500523D02*
Y508000D01*
X641750Y407473D02*
Y484227D01*
X497753Y252955D02*
X634310Y389513D01*
X488763Y252451D02*
X628311Y391998D01*
X488760Y252448D02*
X488763Y252451D01*
X494059Y274717D02*
X610460Y391118D01*
X617899Y409078D02*
Y435597D01*
X496769Y285912D02*
X587988Y377131D01*
X595428Y395092D02*
Y435597D01*
X479915Y207750D02*
X494058D01*
X429179Y247965D02*
X461954Y215189D01*
X466712Y221038D02*
X466712Y221038D01*
X419500Y268250D02*
X466712Y221038D01*
X483729Y214030D02*
X483730Y214030D01*
X485001Y214000D02*
X493768D01*
X485001Y220000D02*
X493768D01*
X425436Y270799D02*
X470963Y225272D01*
X483069Y226250D02*
X493768D01*
X431800Y272920D02*
X475219Y229502D01*
X586157Y273489D02*
X593478Y266169D01*
X580902Y286177D02*
Y294201D01*
X564193Y305340D02*
X569763D01*
X505060Y251777D02*
X554685Y301402D01*
X560532Y291569D02*
X568078D01*
X511162Y249394D02*
X548250Y286482D01*
X544086Y266169D02*
X568078D01*
X515391Y245137D02*
X531003Y260750D01*
X493768Y237698D02*
Y243334D01*
X500027Y232510D02*
Y239627D01*
X506027Y232260D02*
Y238259D01*
X512027Y232260D02*
Y237017D01*
X486268Y242890D02*
Y246426D01*
X469301Y268250D02*
X478447D01*
X367894Y271826D02*
X410816D01*
X356500Y278500D02*
X359837Y275163D01*
X379776Y277826D02*
X410816D01*
X365760Y286036D02*
X369865Y281931D01*
X391134Y283826D02*
X410816D01*
X373914Y293913D02*
X378957Y288870D01*
X428006Y276714D02*
X428056Y276665D01*
X431800Y272920D01*
X423695Y272540D02*
X423705Y272530D01*
X423750Y272485D02*
X424409Y271826D01*
Y271826D02*
X425436Y270799D01*
X419450Y268299D02*
X419500Y268250D01*
X140500Y315500D02*
X179960Y276040D01*
X187400Y229801D02*
Y258079D01*
X169666Y358051D02*
X232843D01*
X147153Y370044D02*
X151706Y365490D01*
X170083Y364051D02*
X233329D01*
X159853Y370044D02*
X162849Y367047D01*
X527077Y240769D02*
X568078D01*
X486154Y233891D02*
X489961D01*
X360400Y247965D02*
X429179D01*
X335000Y273365D02*
Y317631D01*
X359396Y255465D02*
X421679D01*
X341000Y273861D02*
Y319960D01*
X347000Y274169D02*
Y320151D01*
X358106Y263063D02*
X414080D01*
X278000Y345551D02*
X321600D01*
X266196Y337000D02*
X323960D01*
X264900Y328848D02*
X323783D01*
X258500Y335248D02*
Y423352D01*
X266196Y357355D02*
Y403221D01*
X242848Y328848D02*
Y348046D01*
X242848Y373570D02*
Y411291D01*
X172450Y443092D02*
X238760D01*
X469199Y268148D02*
X469301Y268250D01*
D72*
X75250Y368051D02*
D03*
Y393051D02*
D03*
X95250D02*
D03*
D74*
X21500Y345551D02*
D03*
Y415551D02*
D03*
D77*
X504093Y306224D02*
D03*
X469586Y340731D02*
D03*
D80*
X251500Y421510D02*
G03*
X238760Y434250I-12740J0D01*
G01*
X156295Y438727D02*
G03*
X160772Y434250I4477J0D01*
G01*
X404825Y394077D02*
G03*
X386864Y401516I-17960J-17960D01*
G01*
X312040D02*
G03*
X304040Y393517I0J-8000D01*
G01*
X420527Y367044D02*
G03*
X427053Y373570I0J6526D01*
G01*
X380641Y371202D02*
G03*
X370602Y375360I-10039J-10039D01*
G01*
X380641Y371202D02*
G03*
X390680Y367044I10039J10039D01*
G01*
X304040Y482999D02*
G03*
X296601Y500959I-25400J0D01*
G01*
X251500Y311250D02*
Y421510D01*
X160772Y434250D02*
X238760D01*
X156295Y438727D02*
Y443204D01*
X404825Y394077D02*
X412997Y385905D01*
X312040Y401516D02*
X386864D01*
X304040Y375360D02*
Y393517D01*
X390680Y367044D02*
X408381D01*
X420527D01*
X427053Y373570D02*
Y385716D01*
X329440Y375360D02*
X370602D01*
X289560Y508000D02*
X296601Y500959D01*
X304040Y451561D02*
Y482999D01*
X251483Y311250D02*
X251500D01*
D81*
X184400Y164154D02*
G03*
X159000Y189554I-25400J0D01*
G01*
X184400Y71213D02*
Y138329D01*
Y164154D01*
X121100Y189554D02*
X133175D01*
X159000D01*
X184400Y65265D02*
Y71213D01*
Y59317D02*
Y65265D01*
X115152Y189554D02*
X121100D01*
X109204D02*
X115152D01*
D83*
X355600Y136038D02*
G03*
X330200Y161438I-25400J0D01*
G01*
X29609Y393551D02*
X35526D01*
X248946Y161438D02*
X330200D01*
X242848D02*
X248946D01*
X355600Y25400D02*
Y136038D01*
D84*
X48250Y320351D02*
D03*
Y440751D02*
D03*
D87*
X583150Y148192D02*
D03*
X187960Y508000D02*
D03*
X457200D02*
D03*
X279400Y25400D02*
D03*
X508000D02*
D03*
D88*
X608550Y148192D02*
D03*
X633950D02*
D03*
X659350D02*
D03*
X213360Y508000D02*
D03*
X238760D02*
D03*
X264160D02*
D03*
X289560D02*
D03*
X314960D02*
D03*
X340360D02*
D03*
X365760D02*
D03*
X391160D02*
D03*
X416560D02*
D03*
X482600D02*
D03*
X508000D02*
D03*
X533400D02*
D03*
X558800D02*
D03*
X584200D02*
D03*
X609600D02*
D03*
X635000D02*
D03*
X304800Y25400D02*
D03*
X330200D02*
D03*
X355600D02*
D03*
X381000D02*
D03*
X406400D02*
D03*
X431800D02*
D03*
X457200D02*
D03*
X635000D02*
D03*
X609600D02*
D03*
X584200D02*
D03*
X558800D02*
D03*
X533400D02*
D03*
D89*
X412997Y385905D02*
D03*
D90*
Y435905D02*
D03*
D91*
X593478Y291569D02*
D03*
Y266169D02*
D03*
Y240769D02*
D03*
X568078D02*
D03*
X568078Y266169D02*
D03*
X568078Y291569D02*
D03*
D92*
X48500Y405551D02*
D03*
Y355551D02*
D03*
D93*
X304040Y375360D02*
D03*
X329440D02*
D03*
Y451561D02*
D03*
X304040D02*
D03*
D94*
X85000Y29000D02*
D03*
D95*
X113000Y77000D02*
D03*
X53000Y77000D02*
D03*
D96*
X75980Y45974D02*
D03*
X81980D02*
D03*
X87980D02*
D03*
X93980D02*
D03*
X437642Y508197D02*
D03*
X337820Y391668D02*
D03*
X316484Y391160D02*
D03*
X525961Y226190D02*
D03*
Y220190D02*
D03*
Y214190D02*
D03*
X408438Y68500D02*
D03*
X402437D02*
D03*
X396437D02*
D03*
X390437D02*
D03*
X408550Y62437D02*
D03*
X402550D02*
D03*
X396550D02*
D03*
X390550D02*
D03*
X317500Y317631D02*
D03*
X535250Y184750D02*
D03*
X412840Y335484D02*
D03*
Y341484D02*
D03*
Y347484D02*
D03*
X198653Y491669D02*
D03*
X204653D02*
D03*
X59652Y469580D02*
D03*
X65652D02*
D03*
X71652D02*
D03*
X77652D02*
D03*
X108500Y205000D02*
D03*
X102500D02*
D03*
X96500D02*
D03*
X90500D02*
D03*
X218100Y337000D02*
D03*
X212100D02*
D03*
X206100D02*
D03*
X200100D02*
D03*
X225000Y380551D02*
D03*
X219000D02*
D03*
X213000D02*
D03*
X207000D02*
D03*
X125406Y415750D02*
D03*
Y409750D02*
D03*
Y403750D02*
D03*
Y397750D02*
D03*
X313750Y355250D02*
D03*
X319750D02*
D03*
X317500Y311631D02*
D03*
X323960D02*
D03*
Y317631D02*
D03*
X540512Y341884D02*
D03*
X544755Y346127D02*
D03*
X594022Y333022D02*
D03*
X598265Y337265D02*
D03*
X602507Y341507D02*
D03*
X606750Y345750D02*
D03*
X224983Y62437D02*
D03*
X318250Y41250D02*
D03*
X478447Y21500D02*
D03*
X484447D02*
D03*
X478334Y27563D02*
D03*
X484334D02*
D03*
X418653Y33500D02*
D03*
X418814Y19250D02*
D03*
X345911Y108491D02*
D03*
Y102491D02*
D03*
Y96491D02*
D03*
Y90491D02*
D03*
X246250Y267500D02*
D03*
X240250D02*
D03*
X234250D02*
D03*
X228250D02*
D03*
X271560Y492380D02*
D03*
X277560D02*
D03*
X25750Y87000D02*
D03*
Y81000D02*
D03*
Y75000D02*
D03*
Y69000D02*
D03*
X77652Y516784D02*
D03*
X71652D02*
D03*
X65652D02*
D03*
X59652D02*
D03*
X62500Y354250D02*
D03*
Y360250D02*
D03*
Y366250D02*
D03*
Y372250D02*
D03*
X17596Y367669D02*
D03*
X23596D02*
D03*
X29596D02*
D03*
X35596D02*
D03*
X207000Y324750D02*
D03*
X200100Y324967D02*
D03*
X416069Y292557D02*
D03*
X420311Y296800D02*
D03*
X424554Y301042D02*
D03*
X428797Y305285D02*
D03*
X373956Y211978D02*
D03*
X378199Y207735D02*
D03*
X382442Y203493D02*
D03*
X386684Y199250D02*
D03*
X427053Y227503D02*
D03*
X422150Y232940D02*
D03*
X416560Y238817D02*
D03*
X375697Y239421D02*
D03*
X662000Y384750D02*
D03*
X244634Y300750D02*
D03*
X187400Y286036D02*
D03*
X161500Y7750D02*
D03*
X254250Y39500D02*
D03*
Y33500D02*
D03*
Y27500D02*
D03*
Y21500D02*
D03*
X591566Y162306D02*
D03*
X585566D02*
D03*
X579566D02*
D03*
X573566D02*
D03*
X572250Y220500D02*
D03*
X578250D02*
D03*
X584250D02*
D03*
X590250D02*
D03*
X459597Y348863D02*
D03*
X479465Y309903D02*
D03*
X535835Y337265D02*
D03*
X531592Y341507D02*
D03*
X527349Y345750D02*
D03*
X437642Y401924D02*
D03*
Y407924D02*
D03*
Y413924D02*
D03*
Y419924D02*
D03*
X309750Y415000D02*
D03*
X315750D02*
D03*
X321750D02*
D03*
X327750D02*
D03*
X125406Y364440D02*
D03*
Y358439D02*
D03*
Y352439D02*
D03*
Y346440D02*
D03*
X27500Y241500D02*
D03*
Y235500D02*
D03*
Y229500D02*
D03*
X144000Y247801D02*
D03*
Y241801D02*
D03*
Y235801D02*
D03*
Y229801D02*
D03*
X223353Y226185D02*
D03*
Y220185D02*
D03*
Y214185D02*
D03*
Y208185D02*
D03*
X278634Y123491D02*
D03*
Y117491D02*
D03*
Y111491D02*
D03*
Y105491D02*
D03*
X256500Y123750D02*
D03*
Y117750D02*
D03*
Y111750D02*
D03*
Y105750D02*
D03*
X230500Y123750D02*
D03*
Y117750D02*
D03*
Y111750D02*
D03*
Y105750D02*
D03*
X197953Y123491D02*
D03*
Y117491D02*
D03*
Y111491D02*
D03*
Y105491D02*
D03*
X159853Y123491D02*
D03*
Y117491D02*
D03*
Y111491D02*
D03*
Y105491D02*
D03*
X203500Y162500D02*
D03*
Y156500D02*
D03*
Y150500D02*
D03*
Y144500D02*
D03*
X108250Y153250D02*
D03*
X102250D02*
D03*
X96250D02*
D03*
X90250D02*
D03*
X108250Y133500D02*
D03*
X102250D02*
D03*
X96250D02*
D03*
X90250D02*
D03*
X276781Y388918D02*
D03*
Y403221D02*
D03*
Y426672D02*
D03*
X271565Y456574D02*
D03*
X264938D02*
D03*
X258311D02*
D03*
X251684D02*
D03*
X412997Y420597D02*
D03*
Y411291D02*
D03*
Y401516D02*
D03*
X441811Y275751D02*
D03*
X437922Y280943D02*
D03*
X446710Y280044D02*
D03*
X442748Y284956D02*
D03*
X451730Y283907D02*
D03*
X447986Y289734D02*
D03*
X661766Y44476D02*
D03*
X459135Y271698D02*
D03*
X251483Y311250D02*
D03*
X266196Y337000D02*
D03*
X156295Y443204D02*
D03*
X266196Y403221D02*
D03*
X248946Y161438D02*
D03*
X242848D02*
D03*
X140500Y315500D02*
D03*
X187400Y229801D02*
D03*
X650750Y9278D02*
D03*
X109204Y189554D02*
D03*
X121100D02*
D03*
X115152D02*
D03*
X184400Y65265D02*
D03*
Y59317D02*
D03*
Y71213D02*
D03*
X29609Y393551D02*
D03*
X35526D02*
D03*
X172450Y443092D02*
D03*
X159853Y370044D02*
D03*
X147153D02*
D03*
X365760Y286036D02*
D03*
X617899Y435597D02*
D03*
X595428D02*
D03*
X572956D02*
D03*
X550484D02*
D03*
X528013D02*
D03*
X505541D02*
D03*
X483069D02*
D03*
X460500Y435500D02*
D03*
X242848Y411291D02*
D03*
X242848Y328848D02*
D03*
X429179Y247965D02*
D03*
X421679Y255465D02*
D03*
X414080Y263063D02*
D03*
X469199Y268148D02*
D03*
X373914Y293913D02*
D03*
X356500Y278500D02*
D03*
X486268Y242890D02*
D03*
X486154Y233891D02*
D03*
X484500Y260750D02*
D03*
D97*
X427053Y385716D02*
D03*
D98*
X583190Y47250D02*
G03*
X595884Y59944I0J12694D01*
G01*
X601110Y100111D02*
G03*
X608550Y118071I-17960J17960D01*
G01*
X601103Y100103D02*
G03*
X595884Y87493I12626J-12610D01*
G01*
X601110Y100111D02*
G03*
X601103Y100103I12618J-12618D01*
G01*
X391925Y47250D02*
G03*
X381000Y36325I0J-10925D01*
G01*
X595884Y59944D02*
Y87493D01*
X391925Y47250D02*
X537729D01*
X583190D01*
X608550Y118071D02*
Y148192D01*
X381000Y25400D02*
Y36325D01*
D99*
X87932Y375369D02*
G03*
X75409Y380551I-12523J-12539D01*
G01*
X87941Y375360D02*
G03*
X87932Y375369I-12531J-12531D01*
G01*
X53152Y387051D02*
G03*
X68844Y380551I15692J15692D01*
G01*
X50580Y389623D02*
G03*
X41089Y393551I-9491J-9502D01*
G01*
X50585Y389618D02*
G03*
X50580Y389623I-9496J-9496D01*
G01*
X87941Y375360D02*
X95250Y368051D01*
X68844Y380551D02*
X75409D01*
X50585Y389618D02*
X53152Y387051D01*
X35526Y393551D02*
X41089D01*
D100*
X95250Y368051D02*
D03*
M02*
