G04*
G04 #@! TF.GenerationSoftware,Altium Limited,Altium Designer,23.0.1 (38)*
G04*
G04 Layer_Physical_Order=1*
G04 Layer_Color=13311*
%FSLAX44Y44*%
%MOMM*%
G71*
G04*
G04 #@! TF.SameCoordinates,88FC3FB3-D5F9-4073-A5BC-648FF294B969*
G04*
G04*
G04 #@! TF.FilePolarity,Positive*
G04*
G01*
G75*
%ADD14C,0.3000*%
G04:AMPARAMS|DCode=20|XSize=1.05mm|YSize=0.8mm|CornerRadius=0.08mm|HoleSize=0mm|Usage=FLASHONLY|Rotation=90.000|XOffset=0mm|YOffset=0mm|HoleType=Round|Shape=RoundedRectangle|*
%AMROUNDEDRECTD20*
21,1,1.0500,0.6400,0,0,90.0*
21,1,0.8900,0.8000,0,0,90.0*
1,1,0.1600,0.3200,0.4450*
1,1,0.1600,0.3200,-0.4450*
1,1,0.1600,-0.3200,-0.4450*
1,1,0.1600,-0.3200,0.4450*
%
%ADD20ROUNDEDRECTD20*%
G04:AMPARAMS|DCode=21|XSize=1.5mm|YSize=1.2mm|CornerRadius=0.12mm|HoleSize=0mm|Usage=FLASHONLY|Rotation=90.000|XOffset=0mm|YOffset=0mm|HoleType=Round|Shape=RoundedRectangle|*
%AMROUNDEDRECTD21*
21,1,1.5000,0.9600,0,0,90.0*
21,1,1.2600,1.2000,0,0,90.0*
1,1,0.2400,0.4800,0.6300*
1,1,0.2400,0.4800,-0.6300*
1,1,0.2400,-0.4800,-0.6300*
1,1,0.2400,-0.4800,0.6300*
%
%ADD21ROUNDEDRECTD21*%
G04:AMPARAMS|DCode=22|XSize=2.4mm|YSize=1.5mm|CornerRadius=0.15mm|HoleSize=0mm|Usage=FLASHONLY|Rotation=180.000|XOffset=0mm|YOffset=0mm|HoleType=Round|Shape=RoundedRectangle|*
%AMROUNDEDRECTD22*
21,1,2.4000,1.2000,0,0,180.0*
21,1,2.1000,1.5000,0,0,180.0*
1,1,0.3000,-1.0500,0.6000*
1,1,0.3000,1.0500,0.6000*
1,1,0.3000,1.0500,-0.6000*
1,1,0.3000,-1.0500,-0.6000*
%
%ADD22ROUNDEDRECTD22*%
G04:AMPARAMS|DCode=23|XSize=3mm|YSize=1.5mm|CornerRadius=0.15mm|HoleSize=0mm|Usage=FLASHONLY|Rotation=90.000|XOffset=0mm|YOffset=0mm|HoleType=Round|Shape=RoundedRectangle|*
%AMROUNDEDRECTD23*
21,1,3.0000,1.2000,0,0,90.0*
21,1,2.7000,1.5000,0,0,90.0*
1,1,0.3000,0.6000,1.3500*
1,1,0.3000,0.6000,-1.3500*
1,1,0.3000,-0.6000,-1.3500*
1,1,0.3000,-0.6000,1.3500*
%
%ADD23ROUNDEDRECTD23*%
G04:AMPARAMS|DCode=24|XSize=1.2mm|YSize=1.6mm|CornerRadius=0.12mm|HoleSize=0mm|Usage=FLASHONLY|Rotation=90.000|XOffset=0mm|YOffset=0mm|HoleType=Round|Shape=RoundedRectangle|*
%AMROUNDEDRECTD24*
21,1,1.2000,1.3600,0,0,90.0*
21,1,0.9600,1.6000,0,0,90.0*
1,1,0.2400,0.6800,0.4800*
1,1,0.2400,0.6800,-0.4800*
1,1,0.2400,-0.6800,-0.4800*
1,1,0.2400,-0.6800,0.4800*
%
%ADD24ROUNDEDRECTD24*%
G04:AMPARAMS|DCode=25|XSize=1mm|YSize=1.4mm|CornerRadius=0.125mm|HoleSize=0mm|Usage=FLASHONLY|Rotation=90.000|XOffset=0mm|YOffset=0mm|HoleType=Round|Shape=RoundedRectangle|*
%AMROUNDEDRECTD25*
21,1,1.0000,1.1500,0,0,90.0*
21,1,0.7500,1.4000,0,0,90.0*
1,1,0.2500,0.5750,0.3750*
1,1,0.2500,0.5750,-0.3750*
1,1,0.2500,-0.5750,-0.3750*
1,1,0.2500,-0.5750,0.3750*
%
%ADD25ROUNDEDRECTD25*%
G04:AMPARAMS|DCode=26|XSize=0.9mm|YSize=1mm|CornerRadius=0.09mm|HoleSize=0mm|Usage=FLASHONLY|Rotation=315.000|XOffset=0mm|YOffset=0mm|HoleType=Round|Shape=RoundedRectangle|*
%AMROUNDEDRECTD26*
21,1,0.9000,0.8200,0,0,315.0*
21,1,0.7200,1.0000,0,0,315.0*
1,1,0.1800,-0.0354,-0.5445*
1,1,0.1800,-0.5445,-0.0354*
1,1,0.1800,0.0354,0.5445*
1,1,0.1800,0.5445,0.0354*
%
%ADD26ROUNDEDRECTD26*%
G04:AMPARAMS|DCode=27|XSize=0.94mm|YSize=1.02mm|CornerRadius=0.094mm|HoleSize=0mm|Usage=FLASHONLY|Rotation=135.000|XOffset=0mm|YOffset=0mm|HoleType=Round|Shape=RoundedRectangle|*
%AMROUNDEDRECTD27*
21,1,0.9400,0.8320,0,0,135.0*
21,1,0.7520,1.0200,0,0,135.0*
1,1,0.1880,0.0283,0.5600*
1,1,0.1880,0.5600,0.0283*
1,1,0.1880,-0.0283,-0.5600*
1,1,0.1880,-0.5600,-0.0283*
%
%ADD27ROUNDEDRECTD27*%
G04:AMPARAMS|DCode=28|XSize=0.9mm|YSize=1mm|CornerRadius=0.09mm|HoleSize=0mm|Usage=FLASHONLY|Rotation=0.000|XOffset=0mm|YOffset=0mm|HoleType=Round|Shape=RoundedRectangle|*
%AMROUNDEDRECTD28*
21,1,0.9000,0.8200,0,0,0.0*
21,1,0.7200,1.0000,0,0,0.0*
1,1,0.1800,0.3600,-0.4100*
1,1,0.1800,-0.3600,-0.4100*
1,1,0.1800,-0.3600,0.4100*
1,1,0.1800,0.3600,0.4100*
%
%ADD28ROUNDEDRECTD28*%
G04:AMPARAMS|DCode=29|XSize=0.4mm|YSize=1.35mm|CornerRadius=0.04mm|HoleSize=0mm|Usage=FLASHONLY|Rotation=270.000|XOffset=0mm|YOffset=0mm|HoleType=Round|Shape=RoundedRectangle|*
%AMROUNDEDRECTD29*
21,1,0.4000,1.2700,0,0,270.0*
21,1,0.3200,1.3500,0,0,270.0*
1,1,0.0800,-0.6350,-0.1600*
1,1,0.0800,-0.6350,0.1600*
1,1,0.0800,0.6350,0.1600*
1,1,0.0800,0.6350,-0.1600*
%
%ADD29ROUNDEDRECTD29*%
G04:AMPARAMS|DCode=30|XSize=0.94mm|YSize=1.02mm|CornerRadius=0.094mm|HoleSize=0mm|Usage=FLASHONLY|Rotation=180.000|XOffset=0mm|YOffset=0mm|HoleType=Round|Shape=RoundedRectangle|*
%AMROUNDEDRECTD30*
21,1,0.9400,0.8320,0,0,180.0*
21,1,0.7520,1.0200,0,0,180.0*
1,1,0.1880,-0.3760,0.4160*
1,1,0.1880,0.3760,0.4160*
1,1,0.1880,0.3760,-0.4160*
1,1,0.1880,-0.3760,-0.4160*
%
%ADD30ROUNDEDRECTD30*%
G04:AMPARAMS|DCode=31|XSize=1.97mm|YSize=0.6mm|CornerRadius=0.075mm|HoleSize=0mm|Usage=FLASHONLY|Rotation=90.000|XOffset=0mm|YOffset=0mm|HoleType=Round|Shape=RoundedRectangle|*
%AMROUNDEDRECTD31*
21,1,1.9700,0.4500,0,0,90.0*
21,1,1.8200,0.6000,0,0,90.0*
1,1,0.1500,0.2250,0.9100*
1,1,0.1500,0.2250,-0.9100*
1,1,0.1500,-0.2250,-0.9100*
1,1,0.1500,-0.2250,0.9100*
%
%ADD31ROUNDEDRECTD31*%
G04:AMPARAMS|DCode=32|XSize=0.9mm|YSize=0.95mm|CornerRadius=0.09mm|HoleSize=0mm|Usage=FLASHONLY|Rotation=270.000|XOffset=0mm|YOffset=0mm|HoleType=Round|Shape=RoundedRectangle|*
%AMROUNDEDRECTD32*
21,1,0.9000,0.7700,0,0,270.0*
21,1,0.7200,0.9500,0,0,270.0*
1,1,0.1800,-0.3850,-0.3600*
1,1,0.1800,-0.3850,0.3600*
1,1,0.1800,0.3850,0.3600*
1,1,0.1800,0.3850,-0.3600*
%
%ADD32ROUNDEDRECTD32*%
G04:AMPARAMS|DCode=33|XSize=3.24mm|YSize=2mm|CornerRadius=0.15mm|HoleSize=0mm|Usage=FLASHONLY|Rotation=90.000|XOffset=0mm|YOffset=0mm|HoleType=Round|Shape=RoundedRectangle|*
%AMROUNDEDRECTD33*
21,1,3.2400,1.7000,0,0,90.0*
21,1,2.9400,2.0000,0,0,90.0*
1,1,0.3000,0.8500,1.4700*
1,1,0.3000,0.8500,-1.4700*
1,1,0.3000,-0.8500,-1.4700*
1,1,0.3000,-0.8500,1.4700*
%
%ADD33ROUNDEDRECTD33*%
G04:AMPARAMS|DCode=34|XSize=0.93mm|YSize=2mm|CornerRadius=0.0698mm|HoleSize=0mm|Usage=FLASHONLY|Rotation=90.000|XOffset=0mm|YOffset=0mm|HoleType=Round|Shape=RoundedRectangle|*
%AMROUNDEDRECTD34*
21,1,0.9300,1.8605,0,0,90.0*
21,1,0.7905,2.0000,0,0,90.0*
1,1,0.1395,0.9303,0.3953*
1,1,0.1395,0.9303,-0.3953*
1,1,0.1395,-0.9303,-0.3953*
1,1,0.1395,-0.9303,0.3953*
%
%ADD34ROUNDEDRECTD34*%
G04:AMPARAMS|DCode=35|XSize=0.94mm|YSize=1.02mm|CornerRadius=0.094mm|HoleSize=0mm|Usage=FLASHONLY|Rotation=90.000|XOffset=0mm|YOffset=0mm|HoleType=Round|Shape=RoundedRectangle|*
%AMROUNDEDRECTD35*
21,1,0.9400,0.8320,0,0,90.0*
21,1,0.7520,1.0200,0,0,90.0*
1,1,0.1880,0.4160,0.3760*
1,1,0.1880,0.4160,-0.3760*
1,1,0.1880,-0.4160,-0.3760*
1,1,0.1880,-0.4160,0.3760*
%
%ADD35ROUNDEDRECTD35*%
G04:AMPARAMS|DCode=36|XSize=1mm|YSize=0.55mm|CornerRadius=0.055mm|HoleSize=0mm|Usage=FLASHONLY|Rotation=0.000|XOffset=0mm|YOffset=0mm|HoleType=Round|Shape=RoundedRectangle|*
%AMROUNDEDRECTD36*
21,1,1.0000,0.4400,0,0,0.0*
21,1,0.8900,0.5500,0,0,0.0*
1,1,0.1100,0.4450,-0.2200*
1,1,0.1100,-0.4450,-0.2200*
1,1,0.1100,-0.4450,0.2200*
1,1,0.1100,0.4450,0.2200*
%
%ADD36ROUNDEDRECTD36*%
G04:AMPARAMS|DCode=37|XSize=1.7mm|YSize=2.4mm|CornerRadius=0.17mm|HoleSize=0mm|Usage=FLASHONLY|Rotation=135.000|XOffset=0mm|YOffset=0mm|HoleType=Round|Shape=RoundedRectangle|*
%AMROUNDEDRECTD37*
21,1,1.7000,2.0600,0,0,135.0*
21,1,1.3600,2.4000,0,0,135.0*
1,1,0.3400,0.2475,1.2092*
1,1,0.3400,1.2092,0.2475*
1,1,0.3400,-0.2475,-1.2092*
1,1,0.3400,-1.2092,-0.2475*
%
%ADD37ROUNDEDRECTD37*%
G04:AMPARAMS|DCode=38|XSize=0.55mm|YSize=1.5mm|CornerRadius=0.0825mm|HoleSize=0mm|Usage=FLASHONLY|Rotation=225.000|XOffset=0mm|YOffset=0mm|HoleType=Round|Shape=RoundedRectangle|*
%AMROUNDEDRECTD38*
21,1,0.5500,1.3350,0,0,225.0*
21,1,0.3850,1.5000,0,0,225.0*
1,1,0.1650,-0.6081,0.3359*
1,1,0.1650,-0.3359,0.6081*
1,1,0.1650,0.6081,-0.3359*
1,1,0.1650,0.3359,-0.6081*
%
%ADD38ROUNDEDRECTD38*%
G04:AMPARAMS|DCode=39|XSize=1.5mm|YSize=0.55mm|CornerRadius=0.0825mm|HoleSize=0mm|Usage=FLASHONLY|Rotation=225.000|XOffset=0mm|YOffset=0mm|HoleType=Round|Shape=RoundedRectangle|*
%AMROUNDEDRECTD39*
21,1,1.5000,0.3850,0,0,225.0*
21,1,1.3350,0.5500,0,0,225.0*
1,1,0.1650,-0.6081,-0.3359*
1,1,0.1650,0.3359,0.6081*
1,1,0.1650,0.6081,0.3359*
1,1,0.1650,-0.3359,-0.6081*
%
%ADD39ROUNDEDRECTD39*%
G04:AMPARAMS|DCode=40|XSize=1.05mm|YSize=0.8mm|CornerRadius=0.08mm|HoleSize=0mm|Usage=FLASHONLY|Rotation=180.000|XOffset=0mm|YOffset=0mm|HoleType=Round|Shape=RoundedRectangle|*
%AMROUNDEDRECTD40*
21,1,1.0500,0.6400,0,0,180.0*
21,1,0.8900,0.8000,0,0,180.0*
1,1,0.1600,-0.4450,0.3200*
1,1,0.1600,0.4450,0.3200*
1,1,0.1600,0.4450,-0.3200*
1,1,0.1600,-0.4450,-0.3200*
%
%ADD40ROUNDEDRECTD40*%
G04:AMPARAMS|DCode=41|XSize=0.9mm|YSize=1mm|CornerRadius=0.09mm|HoleSize=0mm|Usage=FLASHONLY|Rotation=90.000|XOffset=0mm|YOffset=0mm|HoleType=Round|Shape=RoundedRectangle|*
%AMROUNDEDRECTD41*
21,1,0.9000,0.8200,0,0,90.0*
21,1,0.7200,1.0000,0,0,90.0*
1,1,0.1800,0.4100,0.3600*
1,1,0.1800,0.4100,-0.3600*
1,1,0.1800,-0.4100,-0.3600*
1,1,0.1800,-0.4100,0.3600*
%
%ADD41ROUNDEDRECTD41*%
G04:AMPARAMS|DCode=42|XSize=1.65mm|YSize=1.45mm|CornerRadius=0.145mm|HoleSize=0mm|Usage=FLASHONLY|Rotation=90.000|XOffset=0mm|YOffset=0mm|HoleType=Round|Shape=RoundedRectangle|*
%AMROUNDEDRECTD42*
21,1,1.6500,1.1600,0,0,90.0*
21,1,1.3600,1.4500,0,0,90.0*
1,1,0.2900,0.5800,0.6800*
1,1,0.2900,0.5800,-0.6800*
1,1,0.2900,-0.5800,-0.6800*
1,1,0.2900,-0.5800,0.6800*
%
%ADD42ROUNDEDRECTD42*%
%ADD74O,1.9000X0.9500*%
G04:AMPARAMS|DCode=77|XSize=0.9mm|YSize=1.6mm|CornerRadius=0.225mm|HoleSize=0mm|Usage=FLASHONLY|Rotation=135.000|XOffset=0mm|YOffset=0mm|HoleType=Round|Shape=RoundedRectangle|*
%AMROUNDEDRECTD77*
21,1,0.9000,1.1500,0,0,135.0*
21,1,0.4500,1.6000,0,0,135.0*
1,1,0.4500,0.2475,0.5657*
1,1,0.4500,0.5657,0.2475*
1,1,0.4500,-0.2475,-0.5657*
1,1,0.4500,-0.5657,-0.2475*
%
%ADD77ROUNDEDRECTD77*%
%ADD80C,0.5000*%
%ADD81C,0.9000*%
%ADD82C,0.2500*%
%ADD83C,0.6000*%
%ADD84C,3.3160*%
%ADD85C,1.2000*%
G04:AMPARAMS|DCode=86|XSize=1.2mm|YSize=1.2mm|CornerRadius=0.12mm|HoleSize=0mm|Usage=FLASHONLY|Rotation=270.000|XOffset=0mm|YOffset=0mm|HoleType=Round|Shape=RoundedRectangle|*
%AMROUNDEDRECTD86*
21,1,1.2000,0.9600,0,0,270.0*
21,1,0.9600,1.2000,0,0,270.0*
1,1,0.2400,-0.4800,-0.4800*
1,1,0.2400,-0.4800,0.4800*
1,1,0.2400,0.4800,0.4800*
1,1,0.2400,0.4800,-0.4800*
%
%ADD86ROUNDEDRECTD86*%
G04:AMPARAMS|DCode=87|XSize=1.8mm|YSize=1.8mm|CornerRadius=0.18mm|HoleSize=0mm|Usage=FLASHONLY|Rotation=0.000|XOffset=0mm|YOffset=0mm|HoleType=Round|Shape=RoundedRectangle|*
%AMROUNDEDRECTD87*
21,1,1.8000,1.4400,0,0,0.0*
21,1,1.4400,1.8000,0,0,0.0*
1,1,0.3600,0.7200,-0.7200*
1,1,0.3600,-0.7200,-0.7200*
1,1,0.3600,-0.7200,0.7200*
1,1,0.3600,0.7200,0.7200*
%
%ADD87ROUNDEDRECTD87*%
%ADD88C,1.8000*%
G04:AMPARAMS|DCode=89|XSize=1.308mm|YSize=1.308mm|CornerRadius=0.1308mm|HoleSize=0mm|Usage=FLASHONLY|Rotation=90.000|XOffset=0mm|YOffset=0mm|HoleType=Round|Shape=RoundedRectangle|*
%AMROUNDEDRECTD89*
21,1,1.3080,1.0464,0,0,90.0*
21,1,1.0464,1.3080,0,0,90.0*
1,1,0.2616,0.5232,0.5232*
1,1,0.2616,0.5232,-0.5232*
1,1,0.2616,-0.5232,-0.5232*
1,1,0.2616,-0.5232,0.5232*
%
%ADD89ROUNDEDRECTD89*%
%ADD90C,1.3080*%
%ADD91C,1.6000*%
%ADD92O,0.9000X1.4000*%
%ADD93O,1.6000X2.4000*%
G04:AMPARAMS|DCode=94|XSize=3.8mm|YSize=1.9mm|CornerRadius=0.475mm|HoleSize=0mm|Usage=FLASHONLY|Rotation=180.000|XOffset=0mm|YOffset=0mm|HoleType=Round|Shape=RoundedRectangle|*
%AMROUNDEDRECTD94*
21,1,3.8000,0.9500,0,0,180.0*
21,1,2.8500,1.9000,0,0,180.0*
1,1,0.9500,-1.4250,0.4750*
1,1,0.9500,1.4250,0.4750*
1,1,0.9500,1.4250,-0.4750*
1,1,0.9500,-1.4250,-0.4750*
%
%ADD94ROUNDEDRECTD94*%
G04:AMPARAMS|DCode=95|XSize=4.4mm|YSize=2.2mm|CornerRadius=0.55mm|HoleSize=0mm|Usage=FLASHONLY|Rotation=90.000|XOffset=0mm|YOffset=0mm|HoleType=Round|Shape=RoundedRectangle|*
%AMROUNDEDRECTD95*
21,1,4.4000,1.1000,0,0,90.0*
21,1,3.3000,2.2000,0,0,90.0*
1,1,1.1000,0.5500,1.6500*
1,1,1.1000,0.5500,-1.6500*
1,1,1.1000,-0.5500,-1.6500*
1,1,1.1000,-0.5500,1.6500*
%
%ADD95ROUNDEDRECTD95*%
%ADD96C,0.6000*%
%ADD97C,0.8000*%
G36*
X445251Y515930D02*
X445106Y515200D01*
Y502815D01*
X444776Y502544D01*
X441167Y500615D01*
X437251Y499428D01*
X433386Y499047D01*
X433179Y499088D01*
X426278D01*
X425792Y500261D01*
X426162Y500632D01*
X427742Y503368D01*
X428560Y506420D01*
Y509580D01*
X427742Y512632D01*
X426162Y515368D01*
X425792Y515738D01*
X426278Y516912D01*
X444445D01*
X445251Y515930D01*
D02*
G37*
G36*
X574968Y515738D02*
X574598Y515368D01*
X573018Y512632D01*
X572200Y509580D01*
Y506420D01*
X573018Y503368D01*
X574598Y500632D01*
X576832Y498398D01*
X579568Y496818D01*
X580700Y496515D01*
X581443Y494721D01*
X583651Y491843D01*
X586529Y489635D01*
X589881Y488247D01*
X593478Y487773D01*
Y487804D01*
X629940D01*
X630010Y487818D01*
X631815Y487580D01*
X633563Y486856D01*
X635063Y485705D01*
X636214Y484205D01*
X636938Y482457D01*
X637176Y480652D01*
X637162Y480582D01*
Y396050D01*
X637203Y395843D01*
X636822Y391978D01*
X635635Y388062D01*
X634558Y386048D01*
X633288Y386366D01*
Y389316D01*
X633024Y390643D01*
X632273Y391767D01*
X631148Y392519D01*
X630722Y392603D01*
Y394628D01*
X631148Y394713D01*
X632273Y395465D01*
X633024Y396589D01*
X633288Y397916D01*
Y405116D01*
X633024Y406443D01*
X632273Y407567D01*
X631329Y408198D01*
Y414263D01*
X631459Y414289D01*
X632550Y415018D01*
X633279Y416110D01*
X633536Y417397D01*
Y423797D01*
X633279Y425085D01*
X632550Y426176D01*
X631459Y426906D01*
X630971Y427003D01*
Y429192D01*
X631459Y429289D01*
X632550Y430018D01*
X633279Y431110D01*
X633536Y432397D01*
Y438797D01*
X633279Y440085D01*
X632550Y441176D01*
X631459Y441906D01*
X630171Y442162D01*
X621271D01*
X619983Y441906D01*
X619697Y441715D01*
X617899D01*
X617308Y441597D01*
X616706D01*
X616149Y441367D01*
X615558Y441249D01*
X615057Y440914D01*
X614501Y440684D01*
X614075Y440258D01*
X613574Y439923D01*
X613239Y439422D01*
X612813Y438996D01*
X611409Y438583D01*
X611064Y438797D01*
X610808Y440085D01*
X610078Y441176D01*
X608987Y441906D01*
X607699Y442162D01*
X598799D01*
X597512Y441906D01*
X597226Y441715D01*
X595428D01*
X594837Y441597D01*
X594234D01*
X593677Y441367D01*
X593087Y441249D01*
X592585Y440914D01*
X592029Y440684D01*
X591603Y440258D01*
X591102Y439923D01*
X590767Y439422D01*
X590341Y438996D01*
X588937Y438583D01*
X588592Y438797D01*
X588336Y440085D01*
X587607Y441176D01*
X586515Y441906D01*
X585228Y442162D01*
X576328D01*
X575040Y441906D01*
X574754Y441715D01*
X572956D01*
X572365Y441597D01*
X571762D01*
X571206Y441367D01*
X570615Y441249D01*
X570114Y440914D01*
X569557Y440684D01*
X569131Y440258D01*
X568630Y439923D01*
X568295Y439422D01*
X567869Y438996D01*
X566465Y438583D01*
X566120Y438797D01*
X565864Y440085D01*
X565135Y441176D01*
X564043Y441906D01*
X562756Y442162D01*
X553856D01*
X552568Y441906D01*
X552282Y441715D01*
X550484D01*
X549893Y441597D01*
X549291D01*
X548734Y441367D01*
X548143Y441249D01*
X547642Y440914D01*
X547085Y440684D01*
X546659Y440258D01*
X546158Y439923D01*
X545824Y439422D01*
X545398Y438996D01*
X543994Y438583D01*
X543649Y438797D01*
X543393Y440085D01*
X542663Y441176D01*
X541572Y441906D01*
X540284Y442162D01*
X531384D01*
X530097Y441906D01*
X529811Y441715D01*
X528013D01*
X527421Y441597D01*
X526819D01*
X526262Y441367D01*
X525671Y441249D01*
X525170Y440914D01*
X524614Y440684D01*
X524188Y440258D01*
X523687Y439923D01*
X523352Y439422D01*
X522926Y438996D01*
X521522Y438583D01*
X521177Y438797D01*
X520921Y440085D01*
X520192Y441176D01*
X519100Y441906D01*
X517812Y442162D01*
X508912D01*
X507625Y441906D01*
X507339Y441715D01*
X505541D01*
X504950Y441597D01*
X504347D01*
X503791Y441367D01*
X503200Y441249D01*
X502699Y440914D01*
X502142Y440684D01*
X501716Y440258D01*
X501215Y439923D01*
X500880Y439422D01*
X500454Y438996D01*
X499050Y438583D01*
X498705Y438797D01*
X498449Y440085D01*
X497720Y441176D01*
X496628Y441906D01*
X495341Y442162D01*
X486441D01*
X485153Y441906D01*
X484867Y441715D01*
X483069D01*
X482478Y441597D01*
X481876D01*
X481319Y441367D01*
X480728Y441249D01*
X480227Y440914D01*
X479670Y440684D01*
X479244Y440258D01*
X478743Y439923D01*
X478409Y439422D01*
X477982Y438996D01*
X476579Y438583D01*
X476234Y438797D01*
X475978Y440085D01*
X475248Y441176D01*
X474157Y441906D01*
X472869Y442162D01*
X463969D01*
X462681Y441906D01*
X462250Y441618D01*
X460500D01*
X459909Y441500D01*
X459307D01*
X458750Y441269D01*
X458159Y441152D01*
X457658Y440817D01*
X457101Y440587D01*
X456675Y440160D01*
X456174Y439826D01*
X455840Y439325D01*
X455414Y438899D01*
X455183Y438342D01*
X454848Y437841D01*
X454731Y437250D01*
X454500Y436693D01*
Y436091D01*
X454383Y435500D01*
X454500Y434909D01*
Y434306D01*
X454731Y433750D01*
X454848Y433159D01*
X455183Y432658D01*
X455414Y432101D01*
X455840Y431675D01*
X456174Y431174D01*
X456675Y430840D01*
X457101Y430413D01*
X457658Y430183D01*
X458159Y429848D01*
X458750Y429731D01*
X459307Y429500D01*
X459909D01*
X460500Y429383D01*
X462541D01*
X462681Y429289D01*
X463169Y429192D01*
Y427003D01*
X462681Y426906D01*
X461590Y426176D01*
X460860Y425085D01*
X460604Y423797D01*
Y417397D01*
X460860Y416110D01*
X461590Y415018D01*
X462681Y414289D01*
X462811Y414263D01*
Y408197D01*
X461868Y407567D01*
X461117Y406443D01*
X460853Y405116D01*
Y397916D01*
X461117Y396589D01*
X461868Y395465D01*
X462993Y394713D01*
X463420Y394628D01*
Y392603D01*
X462993Y392519D01*
X461868Y391767D01*
X461572Y391324D01*
X431340D01*
X429755Y392239D01*
X427975Y392716D01*
X426132D01*
X424351Y392239D01*
X423764Y391900D01*
X422341Y392545D01*
X422287Y392818D01*
X421334Y394243D01*
X419910Y395195D01*
X418229Y395530D01*
X407765D01*
X406969Y395371D01*
X405699Y396349D01*
Y456574D01*
X405658Y456782D01*
X406039Y460646D01*
X407226Y464562D01*
X409155Y468171D01*
X411619Y471173D01*
X411795Y471290D01*
X412321Y471816D01*
X412438Y471992D01*
X415440Y474456D01*
X419049Y476385D01*
X422965Y477573D01*
X426829Y477953D01*
X427037Y477912D01*
X471979D01*
Y477908D01*
X476671Y478277D01*
X481247Y479375D01*
X485595Y481177D01*
X489608Y483636D01*
X493187Y486692D01*
X493184Y486695D01*
X503329Y496840D01*
X503368Y496818D01*
X506420Y496000D01*
X509580D01*
X512632Y496818D01*
X515368Y498398D01*
X517602Y500632D01*
X519182Y503368D01*
X520000Y506420D01*
Y509580D01*
X519182Y512632D01*
X517602Y515368D01*
X517232Y515738D01*
X517718Y516912D01*
X523682D01*
X524168Y515738D01*
X523798Y515368D01*
X522218Y512632D01*
X521400Y509580D01*
Y506420D01*
X522218Y503368D01*
X523798Y500632D01*
X526032Y498398D01*
X528768Y496818D01*
X531820Y496000D01*
X534980D01*
X538032Y496818D01*
X540768Y498398D01*
X543002Y500632D01*
X544582Y503368D01*
X545400Y506420D01*
Y509580D01*
X544582Y512632D01*
X543002Y515368D01*
X542632Y515738D01*
X543118Y516912D01*
X549082D01*
X549568Y515738D01*
X549198Y515368D01*
X547618Y512632D01*
X546800Y509580D01*
Y506420D01*
X547618Y503368D01*
X549198Y500632D01*
X551432Y498398D01*
X554168Y496818D01*
X557220Y496000D01*
X560380D01*
X563432Y496818D01*
X566168Y498398D01*
X568402Y500632D01*
X569982Y503368D01*
X570800Y506420D01*
Y509580D01*
X569982Y512632D01*
X568402Y515368D01*
X568032Y515738D01*
X568518Y516912D01*
X574482D01*
X574968Y515738D01*
D02*
G37*
G36*
X498768D02*
X498398Y515368D01*
X496818Y512632D01*
X496000Y509580D01*
Y506420D01*
X496818Y503368D01*
X496840Y503329D01*
X486695Y493184D01*
X486578Y493008D01*
X483576Y490544D01*
X479967Y488615D01*
X476051Y487428D01*
X472186Y487047D01*
X471979Y487088D01*
X468482D01*
X468124Y488358D01*
X470208Y489636D01*
X473787Y492692D01*
X473784Y492695D01*
X477929Y496840D01*
X477968Y496818D01*
X481020Y496000D01*
X484180D01*
X487232Y496818D01*
X489968Y498398D01*
X492202Y500632D01*
X493782Y503368D01*
X494600Y506420D01*
Y509580D01*
X493782Y512632D01*
X492202Y515368D01*
X491832Y515738D01*
X492318Y516912D01*
X498282D01*
X498768Y515738D01*
D02*
G37*
G36*
X280328D02*
X279958Y515368D01*
X278378Y512632D01*
X277560Y509580D01*
Y506420D01*
X278378Y503368D01*
X279958Y500632D01*
X282192Y498398D01*
X284928Y496818D01*
X287980Y496000D01*
X291140D01*
X294192Y496818D01*
X294231Y496840D01*
X299626Y491445D01*
X299623Y491442D01*
X303202Y488386D01*
X305286Y487108D01*
X304928Y485838D01*
X276031D01*
X275824Y485797D01*
X271959Y486178D01*
X268043Y487365D01*
X264434Y489294D01*
X261432Y491758D01*
X261315Y491934D01*
X249920Y503329D01*
X249942Y503368D01*
X250760Y506420D01*
Y509580D01*
X249942Y512632D01*
X248362Y515368D01*
X247992Y515738D01*
X248478Y516912D01*
X279842D01*
X280328Y515738D01*
D02*
G37*
G36*
X381928D02*
X381558Y515368D01*
X379978Y512632D01*
X379160Y509580D01*
Y506420D01*
X379978Y503368D01*
X381558Y500632D01*
X383792Y498398D01*
X385852Y497209D01*
X385146Y494883D01*
X383349Y491521D01*
X381727Y489545D01*
X380900Y488620D01*
X380899Y488620D01*
X380898Y488618D01*
X380891Y488612D01*
X380891Y488611D01*
X380890Y488611D01*
X380883Y488604D01*
X380882Y488602D01*
X380882Y488602D01*
X380879Y488597D01*
X380095Y487680D01*
X377980Y485203D01*
X376352Y482547D01*
X375082Y482906D01*
Y486778D01*
X375103D01*
X374670Y490062D01*
X373403Y493123D01*
X371386Y495751D01*
X371386Y495751D01*
X371273Y495907D01*
X371655Y497547D01*
X373128Y498398D01*
X375362Y500632D01*
X376942Y503368D01*
X377760Y506420D01*
Y509580D01*
X376942Y512632D01*
X375362Y515368D01*
X374992Y515738D01*
X375478Y516912D01*
X381442D01*
X381928Y515738D01*
D02*
G37*
G36*
X9945Y528922D02*
X147833D01*
X148022Y527652D01*
X146770Y527272D01*
X146566Y527231D01*
X146374Y527152D01*
X144680Y526638D01*
X143119Y525803D01*
X142926Y525724D01*
X142753Y525608D01*
X141192Y524774D01*
X139824Y523651D01*
X139651Y523535D01*
X139503Y523388D01*
X138135Y522265D01*
X137012Y520897D01*
X136865Y520749D01*
X136749Y520576D01*
X135626Y519208D01*
X134792Y517647D01*
X134676Y517473D01*
X134596Y517281D01*
X133762Y515720D01*
X133248Y514026D01*
X133168Y513834D01*
X133128Y513629D01*
X132614Y511936D01*
X132441Y510174D01*
X132400Y509970D01*
Y509761D01*
X132226Y508000D01*
X132400Y506239D01*
Y506030D01*
X132441Y505826D01*
X132614Y504064D01*
X133128Y502371D01*
X133168Y502166D01*
X133248Y501973D01*
X133762Y500280D01*
X134596Y498719D01*
X134676Y498526D01*
X134792Y498353D01*
X135626Y496792D01*
X136749Y495424D01*
X136865Y495251D01*
X137013Y495103D01*
X138135Y493735D01*
X139503Y492612D01*
X139651Y492465D01*
X139824Y492349D01*
X141192Y491226D01*
X142753Y490392D01*
X142926Y490276D01*
X143119Y490196D01*
X144680Y489362D01*
X146374Y488848D01*
X146566Y488769D01*
X146771Y488728D01*
X148464Y488214D01*
X150226Y488041D01*
X150430Y488000D01*
X150639D01*
X152400Y487826D01*
X154161Y488000D01*
X154370D01*
X154574Y488041D01*
X156336Y488214D01*
X158029Y488728D01*
X158234Y488769D01*
X158426Y488848D01*
X160120Y489362D01*
X161681Y490196D01*
X161873Y490276D01*
X162047Y490392D01*
X163608Y491226D01*
X164976Y492349D01*
X165149Y492465D01*
X165297Y492612D01*
X166665Y493735D01*
X167788Y495103D01*
X167935Y495251D01*
X168051Y495424D01*
X169174Y496792D01*
X170008Y498353D01*
X170124Y498526D01*
X170203Y498719D01*
X171038Y500280D01*
X171552Y501974D01*
X171631Y502166D01*
X171672Y502370D01*
X172186Y504064D01*
X172359Y505826D01*
X172400Y506030D01*
Y506239D01*
X172574Y508000D01*
X172400Y509761D01*
Y509970D01*
X172359Y510174D01*
X172186Y511936D01*
X171672Y513629D01*
X171631Y513834D01*
X171552Y514026D01*
X171038Y515720D01*
X170203Y517281D01*
X170124Y517473D01*
X170008Y517647D01*
X169174Y519208D01*
X168051Y520576D01*
X167935Y520749D01*
X167788Y520896D01*
X166665Y522265D01*
X165296Y523388D01*
X165149Y523535D01*
X164976Y523651D01*
X163608Y524774D01*
X162047Y525608D01*
X161873Y525724D01*
X161681Y525803D01*
X160120Y526638D01*
X158426Y527152D01*
X158234Y527231D01*
X158029Y527272D01*
X156778Y527652D01*
X156966Y528922D01*
X201993D01*
X202338Y527699D01*
X200607Y526639D01*
X197204Y523733D01*
X197203Y523732D01*
X193565Y520094D01*
X180760D01*
X178887Y519721D01*
X177299Y518661D01*
X176238Y517073D01*
X175866Y515200D01*
Y500800D01*
X176238Y498927D01*
X177299Y497339D01*
X178887Y496278D01*
X180760Y495906D01*
X195160D01*
X197033Y496278D01*
X198621Y497339D01*
X199681Y498927D01*
X200054Y500800D01*
Y513605D01*
X203692Y517243D01*
X203796Y517399D01*
X204891Y518298D01*
X205745Y517356D01*
X203758Y515368D01*
X202178Y512632D01*
X201360Y509580D01*
Y506420D01*
X202178Y503368D01*
X203758Y500632D01*
X205992Y498398D01*
X208728Y496818D01*
X211780Y496000D01*
X214940D01*
X217992Y496818D01*
X220728Y498398D01*
X222962Y500632D01*
X224542Y503368D01*
X225360Y506420D01*
Y509580D01*
X224542Y512632D01*
X224520Y512671D01*
X225388Y513540D01*
X225392Y513544D01*
X225396Y513548D01*
X225497Y513698D01*
X227743Y515421D01*
X228600Y514402D01*
X227578Y512632D01*
X226760Y509580D01*
Y506420D01*
X227578Y503368D01*
X229158Y500632D01*
X231392Y498398D01*
X234128Y496818D01*
X237180Y496000D01*
X240340D01*
X243392Y496818D01*
X243431Y496840D01*
X254826Y485445D01*
X254823Y485442D01*
X258402Y482386D01*
X262415Y479926D01*
X266763Y478125D01*
X271339Y477027D01*
X276031Y476658D01*
Y476662D01*
X335708D01*
X335895Y476699D01*
X337969Y476287D01*
X339727Y475112D01*
X339833Y474953D01*
X339835Y474952D01*
X339836Y474950D01*
X339994Y474845D01*
X341167Y473089D01*
X341580Y471015D01*
X341542Y470827D01*
Y381440D01*
X340272Y381357D01*
X340157Y382232D01*
X339049Y384908D01*
X337285Y387206D01*
X334987Y388969D01*
X332312Y390077D01*
X329440Y390455D01*
X326568Y390077D01*
X323893Y388969D01*
X321595Y387206D01*
X319832Y384908D01*
X318723Y382232D01*
X318345Y379361D01*
Y371361D01*
X318723Y368489D01*
X319832Y365813D01*
X321595Y363515D01*
X323893Y361752D01*
X326568Y360644D01*
X329440Y360266D01*
X332312Y360644D01*
X334987Y361752D01*
X337285Y363515D01*
X339049Y365813D01*
X340157Y368489D01*
X340272Y369364D01*
X341542Y369281D01*
Y268693D01*
X341538D01*
X341907Y264001D01*
X343006Y259424D01*
X344807Y255076D01*
X347266Y251063D01*
X350322Y247485D01*
X350326Y247488D01*
X369554Y228259D01*
X369036Y227484D01*
X368769Y226142D01*
X369036Y224800D01*
X369796Y223662D01*
X375114Y218345D01*
X376252Y217584D01*
X377594Y217317D01*
X378936Y217584D01*
X379277Y217812D01*
X382120Y214970D01*
X389332Y222182D01*
X388194Y223321D01*
X388352Y224958D01*
X389788Y226137D01*
X389929Y226231D01*
X389931Y226235D01*
X389935Y226237D01*
X393137Y229439D01*
X393965Y229604D01*
X395065Y230339D01*
X404504Y239779D01*
X405239Y240878D01*
X405497Y242176D01*
X405239Y243473D01*
X404504Y244573D01*
X401782Y247295D01*
X400682Y248030D01*
X399765Y248213D01*
X399582Y249130D01*
X398848Y250230D01*
X396125Y252952D01*
X395941Y253075D01*
X395780Y254710D01*
X407680Y266610D01*
X408757Y265890D01*
X408080Y264257D01*
Y261870D01*
X408993Y259665D01*
X410681Y257977D01*
X412887Y257063D01*
X414505D01*
X415378Y256762D01*
X415679Y255890D01*
Y254271D01*
X416592Y252066D01*
X418280Y250378D01*
X420485Y249465D01*
X422005D01*
X422936Y249222D01*
X423179Y248291D01*
Y246771D01*
X424092Y244566D01*
X425780Y242878D01*
X427985Y241965D01*
X430372D01*
X432577Y242878D01*
X433076Y243377D01*
X447986D01*
X448085Y243396D01*
X450156Y243124D01*
X450879Y242824D01*
X450889Y241446D01*
X448359Y238916D01*
X447624Y237816D01*
X447441Y236899D01*
X446524Y236716D01*
X445424Y235982D01*
X442702Y233259D01*
X441967Y232159D01*
X441785Y231242D01*
X440867Y231060D01*
X439767Y230325D01*
X437045Y227602D01*
X436310Y226502D01*
X436128Y225585D01*
X435211Y225403D01*
X434111Y224668D01*
X431388Y221946D01*
X430653Y220846D01*
X430395Y219548D01*
X430653Y218251D01*
X431388Y217151D01*
X438308Y210232D01*
X437657Y209087D01*
X434972Y209352D01*
X434870Y209372D01*
X434805Y209359D01*
X433046Y209590D01*
X431347Y210294D01*
X429939Y211374D01*
X429902Y211429D01*
X425656Y215676D01*
X427132Y217151D01*
X427867Y218251D01*
X428125Y219548D01*
X427867Y220846D01*
X427132Y221946D01*
X424409Y224668D01*
X423310Y225403D01*
X422392Y225585D01*
X422210Y226502D01*
X421475Y227602D01*
X418753Y230325D01*
X417653Y231060D01*
X416735Y231242D01*
X416553Y232159D01*
X415818Y233259D01*
X413096Y235982D01*
X411996Y236716D01*
X410699Y236975D01*
X409401Y236716D01*
X408301Y235982D01*
X398862Y226542D01*
X398127Y225442D01*
X397868Y224144D01*
X398127Y222847D01*
X398862Y221747D01*
X401584Y219025D01*
X402684Y218290D01*
X403184Y216896D01*
X402784Y215930D01*
X402387Y212913D01*
X402390D01*
X402774Y209993D01*
X403901Y207272D01*
X404953Y205901D01*
X404953Y205901D01*
X405466Y205232D01*
X405688Y204943D01*
X405694Y204935D01*
X405700Y204941D01*
X412457Y198184D01*
X412441Y198167D01*
X415946Y195291D01*
X419945Y193153D01*
X424284Y191837D01*
X428797Y191393D01*
Y191393D01*
X430042Y191333D01*
X432423Y191019D01*
X435803Y189620D01*
X438507Y187544D01*
X438646Y187337D01*
X497316Y128667D01*
X497492Y128549D01*
X499956Y125547D01*
X501885Y121938D01*
X503072Y118023D01*
X503453Y114158D01*
X503412Y113951D01*
Y37494D01*
X500800D01*
X498927Y37122D01*
X497339Y36061D01*
X496278Y34473D01*
X495906Y32600D01*
Y18200D01*
X496278Y16327D01*
X497339Y14739D01*
X498927Y13678D01*
X500800Y13306D01*
X515200D01*
X517073Y13678D01*
X518661Y14739D01*
X519721Y16327D01*
X520094Y18200D01*
Y32600D01*
X519721Y34473D01*
X518661Y36061D01*
X517073Y37122D01*
X515200Y37494D01*
X512588D01*
Y113951D01*
X512592D01*
X512223Y118643D01*
X511124Y123219D01*
X509826Y126354D01*
X510903Y127073D01*
X522716Y115260D01*
X522892Y115142D01*
X525356Y112140D01*
X527285Y108531D01*
X528472Y104615D01*
X528853Y100751D01*
X528812Y100543D01*
Y36594D01*
X528768Y36582D01*
X526032Y35002D01*
X523798Y32768D01*
X522218Y30032D01*
X521400Y26980D01*
Y23820D01*
X522218Y20768D01*
X523798Y18032D01*
X526032Y15798D01*
X528768Y14218D01*
X531820Y13400D01*
X534980D01*
X538032Y14218D01*
X540768Y15798D01*
X543002Y18032D01*
X544582Y20768D01*
X545400Y23820D01*
Y26980D01*
X544582Y30032D01*
X543002Y32768D01*
X540768Y35002D01*
X538032Y36582D01*
X537988Y36594D01*
Y100543D01*
X537992D01*
X537623Y105235D01*
X536525Y109811D01*
X535509Y112262D01*
X536586Y112982D01*
X548116Y101451D01*
X548292Y101334D01*
X550756Y98332D01*
X552685Y94723D01*
X553872Y90807D01*
X554253Y86943D01*
X554212Y86735D01*
Y36594D01*
X554168Y36582D01*
X551432Y35002D01*
X549198Y32768D01*
X547618Y30032D01*
X546800Y26980D01*
Y23820D01*
X547618Y20768D01*
X549198Y18032D01*
X551432Y15798D01*
X554168Y14218D01*
X557220Y13400D01*
X560380D01*
X563432Y14218D01*
X566168Y15798D01*
X568402Y18032D01*
X569982Y20768D01*
X570800Y23820D01*
Y26980D01*
X569982Y30032D01*
X568402Y32768D01*
X566168Y35002D01*
X563432Y36582D01*
X563388Y36594D01*
Y86735D01*
X563392D01*
X563023Y91427D01*
X561925Y96003D01*
X561106Y97979D01*
X562183Y98699D01*
X573516Y87365D01*
X573692Y87248D01*
X576156Y84246D01*
X578085Y80637D01*
X579272Y76721D01*
X579653Y72856D01*
X579612Y72649D01*
Y36594D01*
X579568Y36582D01*
X576832Y35002D01*
X574598Y32768D01*
X573018Y30032D01*
X572200Y26980D01*
Y23820D01*
X573018Y20768D01*
X574598Y18032D01*
X576832Y15798D01*
X579568Y14218D01*
X582620Y13400D01*
X585780D01*
X588832Y14218D01*
X591568Y15798D01*
X593802Y18032D01*
X595382Y20768D01*
X596200Y23820D01*
Y26980D01*
X595382Y30032D01*
X593802Y32768D01*
X591568Y35002D01*
X588832Y36582D01*
X588788Y36594D01*
Y72649D01*
X588792D01*
X588423Y77341D01*
X587324Y81917D01*
X586506Y83893D01*
X587583Y84612D01*
X598916Y73279D01*
X599092Y73161D01*
X601556Y70159D01*
X603485Y66551D01*
X604672Y62635D01*
X605053Y58770D01*
X605012Y58563D01*
Y36594D01*
X604968Y36582D01*
X602232Y35002D01*
X599998Y32768D01*
X598418Y30032D01*
X597600Y26980D01*
Y23820D01*
X598418Y20768D01*
X599998Y18032D01*
X602232Y15798D01*
X604968Y14218D01*
X608020Y13400D01*
X611180D01*
X614232Y14218D01*
X616968Y15798D01*
X619202Y18032D01*
X620782Y20768D01*
X621600Y23820D01*
Y26980D01*
X620782Y30032D01*
X619202Y32768D01*
X616968Y35002D01*
X614232Y36582D01*
X614188Y36594D01*
Y58563D01*
X614192D01*
X613823Y63254D01*
X612724Y67831D01*
X611906Y69807D01*
X612983Y70526D01*
X624316Y59193D01*
X624492Y59075D01*
X626956Y56073D01*
X628885Y52464D01*
X630072Y48549D01*
X630453Y44684D01*
X630412Y44476D01*
Y36594D01*
X630368Y36582D01*
X627632Y35002D01*
X625398Y32768D01*
X623818Y30032D01*
X623000Y26980D01*
Y23820D01*
X623818Y20768D01*
X625398Y18032D01*
X627632Y15798D01*
X630368Y14218D01*
X633420Y13400D01*
X636580D01*
X639632Y14218D01*
X642368Y15798D01*
X644602Y18032D01*
X644935Y18608D01*
X646162Y18280D01*
Y13175D01*
X645664Y12677D01*
X644750Y10472D01*
Y8085D01*
X645664Y5879D01*
X646195Y5348D01*
X645668Y4078D01*
X466377D01*
X465851Y5348D01*
X466111Y5609D01*
X466279Y5859D01*
X466492Y6072D01*
X467595Y7724D01*
X467711Y8002D01*
X467878Y8253D01*
X468638Y10088D01*
X468697Y10383D01*
X468812Y10662D01*
X469200Y12610D01*
Y12911D01*
X469259Y13207D01*
X469259Y14199D01*
X469259Y14200D01*
X469259Y26585D01*
X469200Y26880D01*
Y26980D01*
X469174Y27076D01*
X469155Y27376D01*
X468541Y29666D01*
X468408Y29936D01*
X468382Y30032D01*
X468332Y30118D01*
X468236Y30403D01*
X467051Y32455D01*
X466852Y32682D01*
X466802Y32768D01*
X466732Y32838D01*
X466565Y33089D01*
X464889Y34765D01*
X464638Y34932D01*
X464568Y35002D01*
X464482Y35052D01*
X464255Y35251D01*
X462203Y36436D01*
X461918Y36532D01*
X461832Y36582D01*
X461736Y36608D01*
X461465Y36741D01*
X459176Y37355D01*
X458876Y37374D01*
X458780Y37400D01*
X458680D01*
X458385Y37459D01*
X456015Y37459D01*
X455720Y37400D01*
X455620D01*
X455524Y37374D01*
X455223Y37355D01*
X452934Y36741D01*
X452664Y36608D01*
X452568Y36582D01*
X452482Y36532D01*
X452197Y36436D01*
X450145Y35251D01*
X449918Y35052D01*
X449832Y35002D01*
X449762Y34932D01*
X449511Y34765D01*
X447835Y33089D01*
X447668Y32838D01*
X447598Y32768D01*
X447548Y32682D01*
X447349Y32455D01*
X446164Y30403D01*
X446068Y30118D01*
X446018Y30032D01*
X445992Y29936D01*
X445859Y29666D01*
X445245Y27376D01*
X445226Y27076D01*
X445200Y26980D01*
Y26881D01*
X445141Y26585D01*
X445141Y25400D01*
X445141Y18916D01*
X445124Y18558D01*
X444969Y17783D01*
X444696Y17123D01*
X444299Y16529D01*
X443794Y16024D01*
X443200Y15627D01*
X442540Y15354D01*
X441765Y15200D01*
X441407Y15182D01*
X389632D01*
X389106Y16452D01*
X390365Y17711D01*
X390532Y17962D01*
X390602Y18032D01*
X390652Y18118D01*
X390851Y18345D01*
X392036Y20397D01*
X392132Y20682D01*
X392182Y20768D01*
X392208Y20864D01*
X392341Y21134D01*
X392955Y23423D01*
X392974Y23724D01*
X393000Y23820D01*
Y23919D01*
X393059Y24215D01*
X393059Y42000D01*
X393059Y43934D01*
X393000Y44229D01*
Y44531D01*
X392245Y48325D01*
X392130Y48603D01*
X392071Y48898D01*
X390591Y52472D01*
X390424Y52723D01*
X390308Y53001D01*
X388159Y56217D01*
X387946Y56430D01*
X387779Y56681D01*
X385043Y59416D01*
X384793Y59583D01*
X384580Y59796D01*
X381363Y61945D01*
X381085Y62060D01*
X380835Y62228D01*
X377261Y63708D01*
X376965Y63767D01*
X376687Y63882D01*
X372893Y64636D01*
X372592Y64636D01*
X372296Y64695D01*
X370369Y64695D01*
X370363Y64696D01*
X261769D01*
X261132Y64728D01*
X259811Y64990D01*
X258636Y65477D01*
X257579Y66183D01*
X256679Y67082D01*
X255973Y68140D01*
X255486Y69314D01*
X255224Y70636D01*
X255192Y71274D01*
X255192Y75548D01*
X263209Y83565D01*
X263267Y83651D01*
X266360Y87272D01*
X268901Y91419D01*
X270762Y95913D01*
X271898Y100642D01*
X272271Y105389D01*
X272292Y105491D01*
Y223032D01*
X272271Y223133D01*
X271898Y227880D01*
X270762Y232610D01*
X268901Y237103D01*
X266360Y241250D01*
X263201Y244949D01*
X259503Y248108D01*
X255355Y250649D01*
X250862Y252510D01*
X246133Y253646D01*
X241385Y254019D01*
X241284Y254039D01*
X218818D01*
X218154Y255310D01*
X218364Y256362D01*
Y274562D01*
X218111Y275830D01*
X217393Y276905D01*
X217388Y276908D01*
Y279390D01*
X217382Y279419D01*
X217577Y280398D01*
X218148Y281252D01*
X219002Y281823D01*
X219980Y282017D01*
X220010Y282012D01*
X271565D01*
Y281982D01*
X276355Y282453D01*
X280961Y283850D01*
X285206Y286119D01*
X288927Y289173D01*
X291980Y292894D01*
X294249Y297138D01*
X295646Y301744D01*
X296118Y306534D01*
X296088D01*
Y361996D01*
X297358Y362622D01*
X298493Y361752D01*
X301168Y360644D01*
X304040Y360266D01*
X306912Y360644D01*
X309587Y361752D01*
X311885Y363515D01*
X313648Y365813D01*
X314757Y368489D01*
X315135Y371361D01*
Y379361D01*
X314757Y382232D01*
X313648Y384908D01*
X311885Y387206D01*
X309587Y388969D01*
X306912Y390077D01*
X304040Y390455D01*
X301168Y390077D01*
X298493Y388969D01*
X297358Y388098D01*
X296088Y388725D01*
Y432600D01*
X296055Y432766D01*
X296407Y435438D01*
X297197Y437346D01*
X298493Y437952D01*
X301168Y436844D01*
X304040Y436466D01*
X306912Y436844D01*
X309587Y437952D01*
X311885Y439715D01*
X313648Y442013D01*
X314757Y444689D01*
X315135Y447561D01*
Y455560D01*
X314757Y458432D01*
X313648Y461108D01*
X311885Y463406D01*
X309587Y465169D01*
X306912Y466277D01*
X304040Y466655D01*
X301168Y466277D01*
X298493Y465169D01*
X296195Y463406D01*
X294432Y461108D01*
X293323Y458432D01*
X292945Y455560D01*
Y448017D01*
X292790Y446811D01*
X292010Y445860D01*
X290290Y443765D01*
X289139Y441612D01*
X287633Y441488D01*
X286011Y443602D01*
X283106Y445831D01*
X279723Y447233D01*
X276092Y447710D01*
Y447679D01*
X273221D01*
X272992Y448828D01*
X272263Y449920D01*
X271171Y450649D01*
X269884Y450905D01*
X263484D01*
X262196Y450649D01*
X261105Y449920D01*
X260375Y448828D01*
X260278Y448340D01*
X258089D01*
X257992Y448828D01*
X257263Y449920D01*
X256171Y450649D01*
X254884Y450905D01*
X248484D01*
X247196Y450649D01*
X246105Y449920D01*
X245375Y448828D01*
X245119Y447541D01*
Y438641D01*
X245375Y437353D01*
X246076Y436304D01*
Y434095D01*
X245469Y433974D01*
X244345Y433223D01*
X243593Y432098D01*
X243329Y430772D01*
Y422572D01*
X243593Y421245D01*
X244345Y420120D01*
X244984Y419693D01*
X244984Y418269D01*
X244345Y417842D01*
X244055Y417408D01*
X242848D01*
X242257Y417291D01*
X241654D01*
X241098Y417060D01*
X240507Y416942D01*
X240006Y416608D01*
X239449Y416377D01*
X239023Y415951D01*
X238522Y415616D01*
X238187Y415115D01*
X237761Y414689D01*
X237531Y414133D01*
X237196Y413632D01*
X237078Y413041D01*
X236848Y412484D01*
Y411881D01*
X236730Y411291D01*
X236848Y410700D01*
Y410097D01*
X237078Y409540D01*
X237196Y408950D01*
X237531Y408448D01*
X237761Y407892D01*
X238187Y407466D01*
X238522Y406965D01*
X239023Y406630D01*
X239449Y406204D01*
X240006Y405974D01*
X240507Y405639D01*
X241098Y405521D01*
X241654Y405291D01*
X242257D01*
X242848Y405173D01*
X244055D01*
X244345Y404739D01*
X245469Y403988D01*
X246071Y403868D01*
Y402573D01*
X245469Y402454D01*
X244345Y401702D01*
X243593Y400578D01*
X243329Y399251D01*
Y391051D01*
X243593Y389724D01*
X244345Y388600D01*
X245469Y387848D01*
X246076Y387728D01*
Y385337D01*
X245375Y384289D01*
X245119Y383001D01*
Y374101D01*
X245375Y372813D01*
X246105Y371722D01*
X247196Y370993D01*
X248484Y370736D01*
X254884D01*
X256171Y370993D01*
X257263Y371722D01*
X257992Y372813D01*
X258089Y373301D01*
X260278Y373301D01*
X260375Y372813D01*
X261076Y371765D01*
Y368377D01*
X260375Y367328D01*
X260278Y366841D01*
X258089D01*
X257992Y367328D01*
X257263Y368420D01*
X256171Y369149D01*
X254884Y369405D01*
X248484D01*
X247196Y369149D01*
X246105Y368420D01*
X245375Y367328D01*
X245119Y366040D01*
Y357141D01*
X245375Y355853D01*
X246076Y354804D01*
Y352575D01*
X245469Y352455D01*
X244345Y351703D01*
X243593Y350578D01*
X243329Y349252D01*
Y341052D01*
X243593Y339725D01*
X244345Y338601D01*
X245469Y337849D01*
X246484Y337647D01*
Y336352D01*
X245469Y336151D01*
X244345Y335399D01*
X244055Y334965D01*
X242848D01*
X242257Y334848D01*
X241654D01*
X241098Y334617D01*
X240507Y334500D01*
X240006Y334165D01*
X239449Y333934D01*
X239023Y333508D01*
X238522Y333174D01*
X238187Y332673D01*
X237761Y332247D01*
X237531Y331690D01*
X237196Y331189D01*
X237078Y330598D01*
X236848Y330041D01*
Y329439D01*
X236730Y328848D01*
X236848Y328257D01*
Y327654D01*
X237078Y327098D01*
X237196Y326507D01*
X237531Y326006D01*
X237761Y325449D01*
X238187Y325023D01*
X238522Y324522D01*
X239023Y324187D01*
X239449Y323761D01*
X240006Y323531D01*
X240507Y323196D01*
X241098Y323078D01*
X241654Y322848D01*
X242257D01*
X242848Y322730D01*
X244055D01*
X244345Y322297D01*
X245469Y321545D01*
X246796Y321281D01*
X253996D01*
X255323Y321545D01*
X256447Y322297D01*
X257199Y323421D01*
X257284Y323848D01*
X259308D01*
X259393Y323421D01*
X260145Y322297D01*
X261269Y321545D01*
X262596Y321281D01*
X269796D01*
X271123Y321545D01*
X272392Y320866D01*
Y319454D01*
X272408Y319375D01*
X272223Y318449D01*
X271654Y317596D01*
X270802Y317027D01*
X269875Y316842D01*
X269796Y316858D01*
X253624D01*
X252677Y317250D01*
X250290D01*
X249343Y316858D01*
X188263D01*
X188107Y316827D01*
X183745Y316483D01*
X179338Y315425D01*
X175152Y313691D01*
X171287Y311323D01*
X167841Y308380D01*
X164898Y304934D01*
X162530Y301070D01*
X160796Y296883D01*
X159738Y292476D01*
X159395Y288114D01*
X159363Y287958D01*
Y269739D01*
X159374Y269686D01*
X159224Y268933D01*
X158767Y268249D01*
X158083Y267792D01*
X157330Y267642D01*
X157277Y267652D01*
X149582D01*
Y267668D01*
X144597Y267177D01*
X139803Y265723D01*
X135384Y263361D01*
X132465Y260965D01*
X131518Y260188D01*
X130582Y259382D01*
X130581Y259381D01*
X129760Y258751D01*
X127660Y257881D01*
X126648Y257748D01*
X126276Y258305D01*
X126276Y258305D01*
X126276Y258305D01*
X126022Y258558D01*
X126022Y258558D01*
X126022Y258558D01*
X125528Y258888D01*
X125030Y259221D01*
X125030Y259221D01*
X125030Y259221D01*
X124699Y259358D01*
X124699Y259358D01*
X124699Y259358D01*
X124057Y259485D01*
X123944Y259532D01*
X123821Y259532D01*
X123528Y259590D01*
X123528Y259590D01*
X123528Y259590D01*
X123350Y259590D01*
X123350Y259590D01*
X120459Y259590D01*
X119866Y259611D01*
X118638Y259786D01*
X117498Y260116D01*
X116367Y260626D01*
X115854Y260926D01*
X115291Y261282D01*
X115088Y261360D01*
X114911Y261487D01*
X113597Y262079D01*
X113386Y262128D01*
X113193Y262228D01*
X111809Y262629D01*
X111592Y262648D01*
X111387Y262720D01*
X109960Y262922D01*
X109743Y262910D01*
X109530Y262953D01*
X108810Y262953D01*
X108809Y262953D01*
X41452Y262953D01*
X41213Y262953D01*
X41213Y262953D01*
X41212Y262953D01*
X40607Y262833D01*
X40043Y262721D01*
X40042Y262721D01*
X40042Y262721D01*
X39600Y262538D01*
X39600Y262538D01*
X39599Y262538D01*
X39101Y262205D01*
X38608Y261875D01*
X38608Y261875D01*
X38607Y261875D01*
X38269Y261537D01*
X38269Y261537D01*
X38269Y261536D01*
X37932Y261032D01*
X37606Y260544D01*
X37606Y260544D01*
X37606Y260544D01*
X37424Y260103D01*
X37423Y260102D01*
X37423Y260101D01*
X37312Y259543D01*
X37191Y258932D01*
X37191Y258931D01*
X37191Y258931D01*
X37191Y258692D01*
Y249095D01*
X37191Y248856D01*
X37191Y248856D01*
X37191Y248856D01*
X37313Y248242D01*
X37424Y247686D01*
X37424Y247686D01*
X37424Y247685D01*
X37606Y247244D01*
X37606Y247244D01*
X37607Y247244D01*
X37903Y246800D01*
X38269Y246252D01*
X38270Y246252D01*
X38270Y246252D01*
X38607Y245914D01*
X38607Y245914D01*
X38608Y245914D01*
X39132Y245563D01*
X39599Y245251D01*
X39600Y245251D01*
X39600Y245251D01*
X40041Y245068D01*
X40041Y245068D01*
X40042Y245068D01*
X40581Y244961D01*
X41212Y244835D01*
X41212Y244835D01*
X41212Y244835D01*
X41451Y244835D01*
X55289D01*
X56459Y245068D01*
X56900Y245251D01*
X57893Y245914D01*
X58230Y246252D01*
X58561Y246746D01*
X58893Y247244D01*
X58975Y247441D01*
X72397Y247441D01*
X72923Y246171D01*
X72475Y245723D01*
X72308Y245472D01*
X72094Y245259D01*
X71046Y243691D01*
X70931Y243412D01*
X70764Y243162D01*
X70042Y241419D01*
X69983Y241124D01*
X69868Y240845D01*
X69500Y238995D01*
X69500Y238694D01*
X69441Y238398D01*
X69441Y237456D01*
X69441Y237455D01*
X69441Y209612D01*
X69415Y209342D01*
X69155Y208715D01*
X68784Y208345D01*
X68158Y208085D01*
X67888Y208059D01*
X61612D01*
X60933Y209329D01*
X60937Y209334D01*
X61193Y210621D01*
Y219522D01*
X60937Y220809D01*
X60207Y221901D01*
X59216Y222563D01*
Y224508D01*
X60327Y224729D01*
X61451Y225480D01*
X62203Y226605D01*
X62467Y227932D01*
Y236132D01*
X62203Y237458D01*
X61451Y238583D01*
X60327Y239335D01*
X59000Y239598D01*
X51800D01*
X50473Y239335D01*
X49349Y238583D01*
X48597Y237458D01*
X48513Y237032D01*
X44100D01*
Y227032D01*
X48513D01*
X48597Y226605D01*
X49349Y225480D01*
X50040Y225019D01*
Y222563D01*
X49049Y221901D01*
X48320Y220809D01*
X48223Y220322D01*
X46559D01*
X46454Y220851D01*
X46454Y220851D01*
X46454Y220851D01*
X46332Y221145D01*
X46332Y221146D01*
X46332Y221146D01*
X45998Y221645D01*
X45669Y222137D01*
X45668Y222138D01*
X45668Y222138D01*
X45443Y222363D01*
X45443Y222363D01*
X45442Y222364D01*
X44937Y222701D01*
X44450Y223026D01*
X44450Y223026D01*
X44450Y223026D01*
X44156Y223148D01*
X44155Y223148D01*
X44154Y223148D01*
X43596Y223258D01*
X43201Y223337D01*
X43089Y223369D01*
X43056Y223365D01*
X42985Y223379D01*
X42984Y223379D01*
X42984Y223379D01*
X42832Y223379D01*
X42828Y223380D01*
X36432Y223380D01*
X36273Y223380D01*
X36272Y223380D01*
X36271Y223380D01*
X35697Y223267D01*
X35102Y223149D01*
X35101Y223149D01*
X35101Y223148D01*
X34806Y223027D01*
X34806Y223027D01*
X34806Y223027D01*
X34270Y222669D01*
X33814Y222365D01*
X33813Y222364D01*
X33813Y222364D01*
X33588Y222139D01*
X33588Y222139D01*
X33587Y222138D01*
X33264Y221655D01*
X32924Y221147D01*
X32924Y221147D01*
X32924Y221146D01*
X32802Y220852D01*
X32802Y220851D01*
X32802Y220851D01*
X32683Y220252D01*
X32569Y219682D01*
X32569Y219681D01*
X32569Y219680D01*
X32569Y219521D01*
Y208778D01*
X32559Y208672D01*
X32424Y208345D01*
X32283Y208204D01*
X31956Y208069D01*
X31850Y208059D01*
X11987D01*
X11691Y208000D01*
X11390D01*
X9893Y207702D01*
X9614Y207587D01*
X9319Y207528D01*
X7908Y206944D01*
X7658Y206777D01*
X7380Y206661D01*
X6110Y205813D01*
X5897Y205600D01*
X5647Y205433D01*
X5348Y205134D01*
X4078Y205660D01*
Y521618D01*
X4078Y522844D01*
X4070Y522886D01*
X4236Y524084D01*
X4470Y525261D01*
X5780Y527220D01*
X7739Y528530D01*
X9827Y528945D01*
X9945Y528922D01*
D02*
G37*
G36*
X277957Y438186D02*
X279539Y437129D01*
X280596Y435548D01*
X280939Y433820D01*
X280912Y433682D01*
Y365252D01*
X279642Y364626D01*
X278194Y365736D01*
X275590Y366815D01*
X273027Y367152D01*
X272992Y367328D01*
X272292Y368377D01*
Y371765D01*
X272992Y372813D01*
X273248Y374101D01*
Y383001D01*
X272992Y384289D01*
X272263Y385380D01*
X271171Y386110D01*
X269884Y386366D01*
X269796Y387584D01*
X271123Y387848D01*
X272247Y388600D01*
X272999Y389724D01*
X273263Y391051D01*
Y399251D01*
X272999Y400578D01*
X272314Y401603D01*
Y404839D01*
X272999Y405864D01*
X273263Y407191D01*
Y415391D01*
X272999Y416717D01*
X272247Y417842D01*
X271123Y418593D01*
X269796Y418857D01*
X262596D01*
X261269Y418593D01*
X260145Y417842D01*
X259393Y416717D01*
X259308Y416291D01*
X257284D01*
X257199Y416717D01*
X256447Y417842D01*
X255808Y418269D01*
X255808Y419693D01*
X256447Y420120D01*
X257199Y421245D01*
X257283Y421672D01*
X261696Y421672D01*
Y431672D01*
X258190Y431672D01*
X257291Y432570D01*
Y436304D01*
X257992Y437353D01*
X258089Y437840D01*
X260278D01*
X260375Y437353D01*
X261105Y436261D01*
X262196Y435532D01*
X263484Y435276D01*
X269884D01*
X271171Y435532D01*
X272263Y436261D01*
X272992Y437353D01*
X273221Y438502D01*
X276092D01*
X276230Y438530D01*
X277957Y438186D01*
D02*
G37*
G36*
X612813Y432198D02*
X613239Y431772D01*
X613574Y431272D01*
X614075Y430937D01*
X614501Y430511D01*
X615057Y430280D01*
X615558Y429945D01*
X616149Y429828D01*
X616706Y429597D01*
X617308D01*
X617899Y429480D01*
X619697D01*
X619983Y429289D01*
X620471Y429192D01*
Y427003D01*
X619983Y426906D01*
X618892Y426176D01*
X618162Y425085D01*
X617906Y423797D01*
Y417397D01*
X618162Y416110D01*
X618892Y415018D01*
X619983Y414289D01*
X620113Y414263D01*
Y408197D01*
X619170Y407567D01*
X618419Y406443D01*
X618155Y405116D01*
Y397916D01*
X618419Y396589D01*
X619170Y395465D01*
X620295Y394713D01*
X620722Y394628D01*
Y392603D01*
X620295Y392519D01*
X619170Y391767D01*
X618874Y391324D01*
X610097D01*
X609801Y391767D01*
X608676Y392519D01*
X608250Y392603D01*
Y394628D01*
X608676Y394713D01*
X609801Y395465D01*
X610553Y396589D01*
X610816Y397916D01*
Y405116D01*
X610553Y406443D01*
X609801Y407567D01*
X608857Y408198D01*
Y414263D01*
X608987Y414289D01*
X610078Y415018D01*
X610808Y416110D01*
X611064Y417397D01*
Y423797D01*
X610808Y425085D01*
X610078Y426176D01*
X608987Y426906D01*
X608499Y427003D01*
Y429192D01*
X608987Y429289D01*
X610078Y430018D01*
X610808Y431110D01*
X611064Y432397D01*
X611409Y432612D01*
X612813Y432198D01*
D02*
G37*
G36*
X590341D02*
X590767Y431772D01*
X591102Y431272D01*
X591603Y430937D01*
X592029Y430511D01*
X592585Y430280D01*
X593087Y429945D01*
X593677Y429828D01*
X594234Y429597D01*
X594837D01*
X595428Y429480D01*
X597226D01*
X597512Y429289D01*
X597999Y429192D01*
Y427003D01*
X597512Y426906D01*
X596420Y426176D01*
X595691Y425085D01*
X595435Y423797D01*
Y417397D01*
X595691Y416110D01*
X596420Y415018D01*
X597512Y414289D01*
X597641Y414263D01*
Y408197D01*
X596699Y407567D01*
X595947Y406443D01*
X595683Y405116D01*
Y397916D01*
X595947Y396589D01*
X596699Y395465D01*
X597823Y394713D01*
X598250Y394628D01*
Y392603D01*
X597823Y392519D01*
X596699Y391767D01*
X596402Y391324D01*
X587626D01*
X587329Y391767D01*
X586205Y392519D01*
X585778Y392603D01*
Y394628D01*
X586205Y394713D01*
X587329Y395465D01*
X588081Y396589D01*
X588345Y397916D01*
Y405116D01*
X588081Y406443D01*
X587329Y407567D01*
X586385Y408198D01*
Y414263D01*
X586515Y414289D01*
X587607Y415018D01*
X588336Y416110D01*
X588592Y417397D01*
Y423797D01*
X588336Y425085D01*
X587607Y426176D01*
X586515Y426906D01*
X586028Y427003D01*
Y429192D01*
X586515Y429289D01*
X587607Y430018D01*
X588336Y431110D01*
X588592Y432397D01*
X588937Y432612D01*
X590341Y432198D01*
D02*
G37*
G36*
X567869D02*
X568295Y431772D01*
X568630Y431272D01*
X569131Y430937D01*
X569557Y430511D01*
X570114Y430280D01*
X570615Y429945D01*
X571206Y429828D01*
X571762Y429597D01*
X572365D01*
X572956Y429480D01*
X574754D01*
X575040Y429289D01*
X575528Y429192D01*
Y427003D01*
X575040Y426906D01*
X573948Y426176D01*
X573219Y425085D01*
X572963Y423797D01*
Y417397D01*
X573219Y416110D01*
X573948Y415018D01*
X575040Y414289D01*
X575170Y414263D01*
Y408197D01*
X574227Y407567D01*
X573475Y406443D01*
X573212Y405116D01*
Y397916D01*
X573475Y396589D01*
X574227Y395465D01*
X575351Y394713D01*
X575778Y394628D01*
Y392603D01*
X575351Y392519D01*
X574227Y391767D01*
X573931Y391324D01*
X565154D01*
X564858Y391767D01*
X563733Y392519D01*
X563306Y392603D01*
Y394628D01*
X563733Y394713D01*
X564858Y395465D01*
X565609Y396589D01*
X565873Y397916D01*
Y405116D01*
X565609Y406443D01*
X564858Y407567D01*
X563914Y408198D01*
Y414263D01*
X564043Y414289D01*
X565135Y415018D01*
X565864Y416110D01*
X566120Y417397D01*
Y423797D01*
X565864Y425085D01*
X565135Y426176D01*
X564043Y426906D01*
X563556Y427003D01*
Y429192D01*
X564043Y429289D01*
X565135Y430018D01*
X565864Y431110D01*
X566120Y432397D01*
X566465Y432612D01*
X567869Y432198D01*
D02*
G37*
G36*
X545398D02*
X545824Y431772D01*
X546158Y431272D01*
X546659Y430937D01*
X547085Y430511D01*
X547642Y430280D01*
X548143Y429945D01*
X548734Y429828D01*
X549291Y429597D01*
X549893D01*
X550484Y429480D01*
X552282D01*
X552568Y429289D01*
X553056Y429192D01*
Y427003D01*
X552568Y426906D01*
X551477Y426176D01*
X550747Y425085D01*
X550491Y423797D01*
Y417397D01*
X550747Y416110D01*
X551477Y415018D01*
X552568Y414289D01*
X552698Y414263D01*
Y408197D01*
X551755Y407567D01*
X551004Y406443D01*
X550740Y405116D01*
Y397916D01*
X551004Y396589D01*
X551755Y395465D01*
X552880Y394713D01*
X553306Y394628D01*
Y392603D01*
X552880Y392519D01*
X551755Y391767D01*
X551459Y391324D01*
X542682D01*
X542386Y391767D01*
X541261Y392519D01*
X540835Y392603D01*
Y394628D01*
X541261Y394713D01*
X542386Y395465D01*
X543137Y396589D01*
X543401Y397916D01*
Y405116D01*
X543137Y406443D01*
X542386Y407567D01*
X541442Y408198D01*
Y414263D01*
X541572Y414289D01*
X542663Y415018D01*
X543393Y416110D01*
X543649Y417397D01*
Y423797D01*
X543393Y425085D01*
X542663Y426176D01*
X541572Y426906D01*
X541084Y427003D01*
Y429192D01*
X541572Y429289D01*
X542663Y430018D01*
X543393Y431110D01*
X543649Y432397D01*
X543994Y432612D01*
X545398Y432198D01*
D02*
G37*
G36*
X522926D02*
X523352Y431772D01*
X523687Y431272D01*
X524188Y430937D01*
X524614Y430511D01*
X525170Y430280D01*
X525671Y429945D01*
X526262Y429828D01*
X526819Y429597D01*
X527421D01*
X528013Y429480D01*
X529811D01*
X530097Y429289D01*
X530584Y429192D01*
Y427003D01*
X530097Y426906D01*
X529005Y426176D01*
X528276Y425085D01*
X528019Y423797D01*
Y417397D01*
X528276Y416110D01*
X529005Y415018D01*
X530097Y414289D01*
X530226Y414263D01*
Y408197D01*
X529283Y407567D01*
X528532Y406443D01*
X528268Y405116D01*
Y397916D01*
X528532Y396589D01*
X529283Y395465D01*
X530408Y394713D01*
X530835Y394628D01*
Y392603D01*
X530408Y392519D01*
X529283Y391767D01*
X528987Y391324D01*
X520211D01*
X519914Y391767D01*
X518790Y392519D01*
X518363Y392603D01*
Y394628D01*
X518790Y394713D01*
X519914Y395465D01*
X520666Y396589D01*
X520930Y397916D01*
Y405116D01*
X520666Y406443D01*
X519914Y407567D01*
X518970Y408198D01*
Y414263D01*
X519100Y414289D01*
X520192Y415018D01*
X520921Y416110D01*
X521177Y417397D01*
Y423797D01*
X520921Y425085D01*
X520192Y426176D01*
X519100Y426906D01*
X518612Y427003D01*
Y429192D01*
X519100Y429289D01*
X520192Y430018D01*
X520921Y431110D01*
X521177Y432397D01*
X521522Y432612D01*
X522926Y432198D01*
D02*
G37*
G36*
X500454D02*
X500880Y431772D01*
X501215Y431272D01*
X501716Y430937D01*
X502142Y430511D01*
X502699Y430280D01*
X503200Y429945D01*
X503791Y429828D01*
X504347Y429597D01*
X504950D01*
X505541Y429480D01*
X507339D01*
X507625Y429289D01*
X508112Y429192D01*
Y427003D01*
X507625Y426906D01*
X506533Y426176D01*
X505804Y425085D01*
X505548Y423797D01*
Y417397D01*
X505804Y416110D01*
X506533Y415018D01*
X507625Y414289D01*
X507755Y414263D01*
Y408197D01*
X506812Y407567D01*
X506060Y406443D01*
X505796Y405116D01*
Y397916D01*
X506060Y396589D01*
X506812Y395465D01*
X507936Y394713D01*
X508363Y394628D01*
Y392603D01*
X507936Y392519D01*
X506812Y391767D01*
X506515Y391324D01*
X497739D01*
X497443Y391767D01*
X496318Y392519D01*
X495891Y392603D01*
Y394628D01*
X496318Y394713D01*
X497443Y395465D01*
X498194Y396589D01*
X498458Y397916D01*
Y405116D01*
X498194Y406443D01*
X497443Y407567D01*
X496498Y408198D01*
Y414263D01*
X496628Y414289D01*
X497720Y415018D01*
X498449Y416110D01*
X498705Y417397D01*
Y423797D01*
X498449Y425085D01*
X497720Y426176D01*
X496628Y426906D01*
X496141Y427003D01*
Y429192D01*
X496628Y429289D01*
X497720Y430018D01*
X498449Y431110D01*
X498705Y432397D01*
X499050Y432612D01*
X500454Y432198D01*
D02*
G37*
G36*
X477982D02*
X478409Y431772D01*
X478743Y431272D01*
X479244Y430937D01*
X479670Y430511D01*
X480227Y430280D01*
X480728Y429945D01*
X481319Y429828D01*
X481876Y429597D01*
X482478D01*
X483069Y429480D01*
X484867D01*
X485153Y429289D01*
X485641Y429192D01*
Y427003D01*
X485153Y426906D01*
X484062Y426176D01*
X483332Y425085D01*
X483076Y423797D01*
Y417397D01*
X483332Y416110D01*
X484062Y415018D01*
X485153Y414289D01*
X485283Y414263D01*
Y408197D01*
X484340Y407567D01*
X483589Y406443D01*
X483325Y405116D01*
Y397916D01*
X483589Y396589D01*
X484340Y395465D01*
X485465Y394713D01*
X485891Y394628D01*
Y392603D01*
X485465Y392519D01*
X484340Y391767D01*
X484044Y391324D01*
X475267D01*
X474971Y391767D01*
X473846Y392519D01*
X473420Y392603D01*
Y394628D01*
X473846Y394713D01*
X474971Y395465D01*
X475722Y396589D01*
X475986Y397916D01*
Y405116D01*
X475722Y406443D01*
X474971Y407567D01*
X474027Y408198D01*
Y414263D01*
X474157Y414289D01*
X475248Y415018D01*
X475978Y416110D01*
X476234Y417397D01*
Y423797D01*
X475978Y425085D01*
X475248Y426176D01*
X474157Y426906D01*
X473669Y427003D01*
Y429192D01*
X474157Y429289D01*
X475248Y430018D01*
X475978Y431110D01*
X476234Y432397D01*
X476579Y432612D01*
X477982Y432198D01*
D02*
G37*
G36*
X619170Y379665D02*
X620295Y378913D01*
X621622Y378649D01*
X626722D01*
X626809Y378440D01*
X626958Y377231D01*
X623901Y373653D01*
X621442Y369640D01*
X619641Y365292D01*
X618543Y360716D01*
X618173Y356024D01*
X618178D01*
Y354313D01*
X618173D01*
X618543Y349621D01*
X619220Y346799D01*
X619352Y346135D01*
X619395Y346071D01*
X619641Y345044D01*
X621442Y340696D01*
X623901Y336683D01*
X626636Y333482D01*
X628058Y330822D01*
X629067Y327492D01*
X629393Y324187D01*
X629362Y324030D01*
Y313932D01*
X629150D01*
X627706Y313645D01*
X626483Y312827D01*
X625665Y311603D01*
X625378Y310159D01*
Y297559D01*
X625665Y296116D01*
X626483Y294892D01*
X627706Y294074D01*
X629150Y293787D01*
X638750D01*
X639180Y293872D01*
X640162Y293067D01*
Y169513D01*
X640203Y169305D01*
X639822Y165441D01*
X638635Y161525D01*
X637622Y159631D01*
X635530Y160192D01*
X632370D01*
X629318Y159374D01*
X626582Y157794D01*
X624348Y155560D01*
X622768Y152824D01*
X621950Y149772D01*
Y146612D01*
X622768Y143560D01*
X624348Y140824D01*
X626582Y138589D01*
X629318Y137010D01*
X632370Y136192D01*
X635530D01*
X638582Y137010D01*
X641318Y138589D01*
X643552Y140824D01*
X645132Y143560D01*
X645950Y146612D01*
Y149772D01*
X645132Y152824D01*
X644675Y153615D01*
X646074Y155897D01*
X646607Y157185D01*
X647982D01*
X649111Y154458D01*
X648168Y152824D01*
X647350Y149772D01*
Y146612D01*
X648168Y143560D01*
X649748Y140824D01*
X651982Y138589D01*
X654718Y137010D01*
X657770Y136192D01*
X660930D01*
X663982Y137010D01*
X666718Y138589D01*
X668952Y140824D01*
X670532Y143560D01*
X671350Y146612D01*
Y149772D01*
X670532Y152824D01*
X668952Y155560D01*
X666718Y157794D01*
X663982Y159374D01*
X660930Y160192D01*
X657770D01*
X656690Y159902D01*
X655678Y163241D01*
X655297Y167106D01*
X655338Y167313D01*
Y322251D01*
X655342D01*
X654973Y326943D01*
X653875Y331519D01*
X652084Y335842D01*
X652172Y336045D01*
X652332Y336334D01*
X652941Y336883D01*
X654374Y336448D01*
X654566Y336369D01*
X654771Y336328D01*
X656464Y335814D01*
X658226Y335641D01*
X658430Y335600D01*
X658639D01*
X660400Y335426D01*
X662161Y335600D01*
X662370D01*
X662574Y335641D01*
X664336Y335814D01*
X666029Y336328D01*
X666234Y336369D01*
X666426Y336448D01*
X668120Y336962D01*
X669681Y337796D01*
X669874Y337876D01*
X670047Y337992D01*
X671608Y338826D01*
X672976Y339949D01*
X673149Y340065D01*
X673297Y340213D01*
X674665Y341335D01*
X675788Y342703D01*
X675935Y342851D01*
X676051Y343024D01*
X677174Y344392D01*
X678008Y345953D01*
X678124Y346126D01*
X678204Y346319D01*
X679038Y347880D01*
X679552Y349574D01*
X679631Y349766D01*
X679672Y349971D01*
X679998Y351045D01*
X681268Y350856D01*
Y80944D01*
X679998Y80756D01*
X679672Y81830D01*
X679631Y82034D01*
X679552Y82226D01*
X679038Y83920D01*
X678203Y85481D01*
X678124Y85674D01*
X678008Y85847D01*
X677174Y87408D01*
X676051Y88776D01*
X675935Y88949D01*
X675788Y89096D01*
X674665Y90465D01*
X673297Y91588D01*
X673149Y91735D01*
X672976Y91851D01*
X671608Y92974D01*
X670047Y93808D01*
X669874Y93924D01*
X669681Y94003D01*
X668120Y94838D01*
X666426Y95352D01*
X666234Y95431D01*
X666030Y95472D01*
X664336Y95986D01*
X662574Y96159D01*
X662370Y96200D01*
X662161D01*
X660400Y96374D01*
X658639Y96200D01*
X658430D01*
X658226Y96159D01*
X656464Y95986D01*
X654771Y95472D01*
X654566Y95431D01*
X654374Y95352D01*
X652680Y94838D01*
X651119Y94003D01*
X650926Y93924D01*
X650753Y93808D01*
X649192Y92974D01*
X647824Y91851D01*
X647651Y91735D01*
X647503Y91588D01*
X646135Y90465D01*
X645012Y89097D01*
X644865Y88949D01*
X644749Y88776D01*
X643626Y87408D01*
X642792Y85847D01*
X642676Y85674D01*
X642596Y85481D01*
X641762Y83920D01*
X641248Y82226D01*
X641169Y82034D01*
X641128Y81829D01*
X640614Y80136D01*
X640441Y78374D01*
X640400Y78170D01*
Y77961D01*
X640227Y76200D01*
X640400Y74439D01*
Y74230D01*
X640441Y74026D01*
X640614Y72264D01*
X641128Y70571D01*
X641169Y70366D01*
X641248Y70174D01*
X641762Y68480D01*
X642500Y67100D01*
X641532Y66372D01*
X641463Y66337D01*
X516310Y191489D01*
X516936Y192660D01*
X517827Y192482D01*
X519170Y192750D01*
X519510Y192977D01*
X522353Y190135D01*
X529565Y197348D01*
X526723Y200190D01*
X526951Y200531D01*
X527218Y201873D01*
X526951Y203215D01*
X526191Y204353D01*
X520873Y209671D01*
X519735Y210431D01*
X518393Y210698D01*
X517051Y210431D01*
X516541Y210090D01*
X515625Y211006D01*
X515852Y211345D01*
X516116Y212672D01*
X515852Y213998D01*
X515100Y215123D01*
X510009Y220214D01*
X508885Y220966D01*
X507558Y221229D01*
X506231Y220966D01*
X505870Y220724D01*
X504438Y222156D01*
X504680Y222517D01*
X504944Y223844D01*
X504680Y225171D01*
X503928Y226295D01*
X500620Y229603D01*
Y250830D01*
X500601Y250928D01*
X500684Y251345D01*
X502101Y252305D01*
X502276Y252265D01*
Y252265D01*
X512477D01*
Y255606D01*
X517568D01*
X517568Y251115D01*
X531568Y251115D01*
Y255606D01*
X537160D01*
Y253440D01*
X536947Y253397D01*
X535706Y252568D01*
X534877Y251328D01*
X534586Y249865D01*
Y242365D01*
X534877Y240902D01*
X535706Y239661D01*
X536595Y239067D01*
Y227857D01*
X536561D01*
X536956Y222835D01*
X538132Y217936D01*
X540060Y213282D01*
X542692Y208986D01*
X545964Y205156D01*
X549795Y201884D01*
X554090Y199251D01*
X558745Y197324D01*
X563643Y196147D01*
X568665Y195752D01*
Y195786D01*
X587900D01*
X588090Y195812D01*
X591300Y195389D01*
X594468Y194077D01*
X597188Y191989D01*
X599276Y189269D01*
X600588Y186101D01*
X601010Y182892D01*
X600985Y182701D01*
Y157598D01*
X598948Y155560D01*
X597368Y152824D01*
X596550Y149772D01*
Y146612D01*
X597368Y143560D01*
X598948Y140824D01*
X601182Y138589D01*
X603918Y137010D01*
X606970Y136192D01*
X610130D01*
X613182Y137010D01*
X615918Y138589D01*
X618152Y140824D01*
X619732Y143560D01*
X620550Y146612D01*
Y149772D01*
X619732Y152824D01*
X618152Y155560D01*
X616115Y157598D01*
Y182701D01*
X616137D01*
X615789Y187118D01*
X614755Y191427D01*
X613059Y195521D01*
X610744Y199298D01*
X607867Y202668D01*
X604497Y205546D01*
X600719Y207861D01*
X596626Y209556D01*
X592317Y210591D01*
X587900Y210938D01*
Y210916D01*
X568665D01*
X568581Y210905D01*
X565357Y211222D01*
X562175Y212188D01*
X559243Y213755D01*
X556673Y215864D01*
X554563Y218434D01*
X552996Y221366D01*
X552031Y224548D01*
X551713Y227773D01*
X551725Y227857D01*
Y239067D01*
X552613Y239661D01*
X553442Y240902D01*
X553733Y242365D01*
Y249865D01*
X553442Y251328D01*
X552613Y252568D01*
X551373Y253397D01*
X551160Y253440D01*
Y255933D01*
X551574Y256104D01*
X552566Y256767D01*
X553057Y257258D01*
X553720Y258251D01*
X553986Y258892D01*
X553986Y258892D01*
X553986Y258892D01*
X554088Y259408D01*
X554218Y260063D01*
X554218Y260063D01*
X554218Y260063D01*
X554218Y260410D01*
X554219Y268565D01*
X554218Y268565D01*
X554218Y268813D01*
X554129Y269261D01*
X554127Y269307D01*
X554115Y269332D01*
X553986Y269984D01*
X553986Y269984D01*
X553795Y270443D01*
X553795Y270443D01*
X553795Y270443D01*
X553437Y270980D01*
X553132Y271436D01*
X553132Y271436D01*
X553132Y271436D01*
X552781Y271787D01*
X551788Y272450D01*
X551329Y272641D01*
X551329Y272641D01*
X551329Y272641D01*
X550740Y272758D01*
X550158Y272873D01*
X550152Y272892D01*
X549767Y274085D01*
Y298225D01*
X549736Y298384D01*
X550031Y299867D01*
X550961Y301259D01*
X552353Y302189D01*
X553836Y302484D01*
X553995Y302453D01*
X562389D01*
X562729Y301183D01*
X561324Y300371D01*
X559275Y298323D01*
X557827Y295815D01*
X557078Y293017D01*
Y290121D01*
X557827Y287323D01*
X559275Y284815D01*
X561324Y282767D01*
X563832Y281318D01*
X566629Y280569D01*
X569526D01*
X572323Y281318D01*
X574832Y282767D01*
X576880Y284815D01*
X578328Y287323D01*
X579078Y290121D01*
Y293017D01*
X578328Y295815D01*
X576880Y298323D01*
X574832Y300371D01*
X573426Y301183D01*
X573766Y302453D01*
X585232D01*
X585312Y302469D01*
X586254Y302281D01*
X586828Y301898D01*
X586953Y300898D01*
X586847Y300443D01*
X586723Y300371D01*
X584675Y298323D01*
X583227Y295815D01*
X582478Y293017D01*
Y290121D01*
X583227Y287323D01*
X584675Y284815D01*
X586723Y282767D01*
X589232Y281318D01*
X592029Y280569D01*
X594926D01*
X597723Y281318D01*
X600232Y282767D01*
X602280Y284815D01*
X603728Y287323D01*
X604478Y290121D01*
Y293017D01*
X603728Y295815D01*
X602280Y298323D01*
X600232Y300371D01*
X598923Y301126D01*
X598624Y303403D01*
X597239Y306747D01*
X595035Y309618D01*
X592164Y311822D01*
X588820Y313207D01*
X585232Y313679D01*
Y313668D01*
X553995D01*
X553661Y313602D01*
X550989Y313339D01*
X548098Y312462D01*
X545434Y311038D01*
X543099Y309121D01*
X541183Y306786D01*
X539758Y304122D01*
X538882Y301232D01*
X538619Y298560D01*
X538552Y298225D01*
Y272873D01*
X516003Y272873D01*
X514571Y272944D01*
X511688Y273517D01*
X509043Y274613D01*
X506600Y276245D01*
X505538Y277208D01*
X469257Y313489D01*
X469783Y314759D01*
X484812D01*
X484962Y314788D01*
X487486Y314456D01*
X488798Y313913D01*
X489096Y312415D01*
X486216Y309535D01*
X485288Y308146D01*
X484962Y306507D01*
X485288Y304868D01*
X486216Y303479D01*
X495833Y293862D01*
X497222Y292934D01*
X498861Y292608D01*
X500500Y292934D01*
X501889Y293862D01*
X503644Y295618D01*
X503667Y295622D01*
X505403Y296782D01*
X513535Y304914D01*
X514695Y306651D01*
X514700Y306673D01*
X516455Y308429D01*
X517383Y309818D01*
X517710Y311457D01*
X517383Y313095D01*
X516455Y314485D01*
X508681Y322259D01*
Y324748D01*
X508648Y324917D01*
X509035Y326862D01*
X510136Y328510D01*
X510279Y328605D01*
X513787Y332113D01*
X514222Y331822D01*
X515565Y331555D01*
X516907Y331822D01*
X517248Y332050D01*
X520090Y329208D01*
X527303Y336420D01*
X524460Y339263D01*
X524688Y339604D01*
X524955Y340946D01*
X524688Y342288D01*
X523928Y343426D01*
X518610Y348743D01*
X517472Y349504D01*
X516130Y349771D01*
X514788Y349504D01*
X513650Y348743D01*
X507767Y342860D01*
X507007Y341722D01*
X506740Y340380D01*
X507007Y339038D01*
X507298Y338602D01*
X503790Y335094D01*
X503789Y335094D01*
X503763Y335120D01*
X501433Y332083D01*
X499968Y328545D01*
X499468Y324748D01*
X499505D01*
Y322824D01*
X496568Y319887D01*
X495624Y320661D01*
X492260Y322459D01*
X488609Y323567D01*
X484812Y323941D01*
Y323935D01*
X475637D01*
X475151Y325108D01*
X486186Y336143D01*
X488042D01*
X488109Y336156D01*
X491344Y336475D01*
X494518Y337438D01*
X497444Y339002D01*
X499947Y341056D01*
X500009Y341097D01*
X500010Y341100D01*
X500013Y341102D01*
X502439Y343528D01*
X502875Y343237D01*
X504217Y342970D01*
X505560Y343237D01*
X506697Y343997D01*
X512580Y349880D01*
X513341Y351018D01*
X513608Y352360D01*
X513341Y353702D01*
X512580Y354840D01*
X507263Y360158D01*
X506125Y360918D01*
X504783Y361185D01*
X503441Y360918D01*
X503100Y360690D01*
X500257Y363532D01*
X493045Y356320D01*
X495887Y353478D01*
X495659Y353137D01*
X495392Y351794D01*
X495659Y350452D01*
X495951Y350016D01*
X493524Y347590D01*
X493523Y347588D01*
X493520Y347586D01*
X493474Y347517D01*
X491933Y346334D01*
X490056Y345557D01*
X488126Y345303D01*
X488042Y345319D01*
X485621D01*
X477847Y353093D01*
X476457Y354021D01*
X474819Y354347D01*
X473180Y354021D01*
X471791Y353093D01*
X470035Y351338D01*
X470013Y351333D01*
X468276Y350173D01*
X460145Y342041D01*
X458984Y340305D01*
X458980Y340282D01*
X457224Y338527D01*
X456296Y337138D01*
X455970Y335499D01*
X456296Y333860D01*
X457019Y332778D01*
X456672Y331833D01*
X456391Y331508D01*
X455739D01*
X455724Y331505D01*
X452230Y331161D01*
X448856Y330138D01*
X445746Y328475D01*
X443032Y326248D01*
X443019Y326239D01*
X442756Y325977D01*
X441928Y325812D01*
X440828Y325077D01*
X431388Y315637D01*
X430653Y314537D01*
X430395Y313240D01*
X430653Y311943D01*
X431388Y310843D01*
X434111Y308120D01*
X435211Y307386D01*
X436128Y307203D01*
X436310Y306286D01*
X437045Y305186D01*
X439767Y302464D01*
X439951Y302341D01*
X440112Y300706D01*
X438220Y298813D01*
X438219Y298811D01*
X438217Y298810D01*
X438151Y298711D01*
X436361Y297338D01*
X434165Y296428D01*
X431926Y296133D01*
X431807Y296157D01*
X431804Y296156D01*
X428248Y295806D01*
X424825Y294768D01*
X421671Y293082D01*
X418909Y290815D01*
X418906Y290813D01*
X389292Y261199D01*
X387657Y261360D01*
X387534Y261544D01*
X384811Y264266D01*
X383712Y265001D01*
X382414Y265259D01*
X381117Y265001D01*
X380017Y264266D01*
X378541Y262790D01*
X362500Y278832D01*
Y279517D01*
X363016Y280063D01*
X363560Y280453D01*
X364566Y280036D01*
X365271D01*
X368192Y277115D01*
X369681Y276121D01*
X371437Y275771D01*
X372768D01*
X380017Y268522D01*
X381117Y267788D01*
X382414Y267530D01*
X383712Y267788D01*
X384811Y268522D01*
X387534Y271245D01*
X388269Y272345D01*
X388451Y273262D01*
X389368Y273444D01*
X390468Y274179D01*
X393191Y276902D01*
X393926Y278001D01*
X394108Y278919D01*
X395025Y279101D01*
X396125Y279836D01*
X398848Y282558D01*
X399582Y283658D01*
X399765Y284576D01*
X400682Y284758D01*
X401782Y285493D01*
X404504Y288215D01*
X405239Y289315D01*
X405422Y290233D01*
X406339Y290415D01*
X407439Y291150D01*
X410161Y293872D01*
X410896Y294972D01*
X411079Y295889D01*
X411996Y296072D01*
X413096Y296807D01*
X415818Y299529D01*
X416553Y300629D01*
X416735Y301546D01*
X417653Y301729D01*
X418753Y302464D01*
X421475Y305186D01*
X422210Y306286D01*
X422392Y307203D01*
X423310Y307386D01*
X424409Y308120D01*
X427132Y310843D01*
X427867Y311943D01*
X428125Y313240D01*
X427867Y314537D01*
X427132Y315637D01*
X417692Y325077D01*
X416592Y325812D01*
X415764Y325977D01*
X411795Y329946D01*
X411619Y330064D01*
X409155Y333066D01*
X407226Y336674D01*
X406039Y340590D01*
X405658Y344455D01*
X405699Y344662D01*
Y375461D01*
X406969Y376439D01*
X407765Y376281D01*
X418229D01*
X419910Y376615D01*
X421334Y377567D01*
X422287Y378992D01*
X423697Y379571D01*
X424351Y379193D01*
X426132Y378716D01*
X427975D01*
X429755Y379193D01*
X431340Y380108D01*
X461572D01*
X461868Y379665D01*
X462993Y378913D01*
X464320Y378649D01*
X472520D01*
X473846Y378913D01*
X474971Y379665D01*
X475267Y380108D01*
X484044D01*
X484340Y379665D01*
X485465Y378913D01*
X486791Y378649D01*
X494991D01*
X496318Y378913D01*
X497443Y379665D01*
X497739Y380108D01*
X506515D01*
X506812Y379665D01*
X507936Y378913D01*
X509263Y378649D01*
X517463D01*
X518790Y378913D01*
X519914Y379665D01*
X520211Y380108D01*
X528987D01*
X529283Y379665D01*
X530408Y378913D01*
X531735Y378649D01*
X539935D01*
X541261Y378913D01*
X542386Y379665D01*
X542682Y380108D01*
X551459D01*
X551755Y379665D01*
X552880Y378913D01*
X554206Y378649D01*
X562406D01*
X563733Y378913D01*
X564858Y379665D01*
X565154Y380108D01*
X573931D01*
X574227Y379665D01*
X575351Y378913D01*
X576678Y378649D01*
X584878D01*
X586205Y378913D01*
X587329Y379665D01*
X587626Y380108D01*
X596402D01*
X596699Y379665D01*
X597823Y378913D01*
X599150Y378649D01*
X607350D01*
X608676Y378913D01*
X609801Y379665D01*
X610097Y380108D01*
X618874D01*
X619170Y379665D01*
D02*
G37*
G36*
X681268Y376425D02*
Y360344D01*
X679998Y360155D01*
X679672Y361229D01*
X679631Y361434D01*
X679552Y361626D01*
X679038Y363320D01*
X678204Y364881D01*
X678124Y365074D01*
X678008Y365247D01*
X677174Y366808D01*
X676051Y368176D01*
X675935Y368349D01*
X675788Y368497D01*
X674665Y369865D01*
X673297Y370988D01*
X673149Y371135D01*
X672976Y371251D01*
X671608Y372374D01*
X670047Y373208D01*
X669874Y373324D01*
X669681Y373404D01*
X668120Y374238D01*
X666426Y374752D01*
X666234Y374831D01*
X666030Y374872D01*
X664336Y375386D01*
X662574Y375559D01*
X662370Y375600D01*
X662161D01*
X660400Y375774D01*
X658639Y375600D01*
X658430D01*
X658226Y375559D01*
X656464Y375386D01*
X654804Y374882D01*
X654699Y374942D01*
X654307Y375328D01*
X653976Y375962D01*
X654436Y376712D01*
X656599Y381933D01*
X657918Y387427D01*
X658361Y393061D01*
X658338D01*
Y397696D01*
X659511Y398182D01*
X681268Y376425D01*
D02*
G37*
G36*
X280912Y309454D02*
Y306852D01*
X280938Y306718D01*
X280625Y304339D01*
X279655Y301998D01*
X278113Y299987D01*
X276102Y298444D01*
X273760Y297474D01*
X271381Y297161D01*
X271248Y297188D01*
X211050D01*
X210916Y297161D01*
X208021Y296876D01*
X205109Y295993D01*
X202425Y294558D01*
X200072Y292628D01*
X198142Y290275D01*
X196707Y287591D01*
X195824Y284679D01*
X195538Y281784D01*
X195512Y281650D01*
Y276908D01*
X195507Y276905D01*
X194789Y275830D01*
X194536Y274562D01*
Y270050D01*
X192964D01*
Y274562D01*
X192712Y275830D01*
X191993Y276905D01*
X190918Y277623D01*
X189650Y277875D01*
X185150D01*
X183882Y277623D01*
X182807Y276905D01*
X182089Y275830D01*
X181836Y274562D01*
Y256362D01*
X181995Y255564D01*
X181165Y254516D01*
X180308Y254727D01*
Y265462D01*
X180264Y265683D01*
Y274562D01*
X180012Y275830D01*
X179293Y276905D01*
X178218Y277623D01*
X176950Y277875D01*
X172450D01*
X171849Y277756D01*
X170579Y278631D01*
Y287958D01*
X170535Y288181D01*
X170854Y291421D01*
X171864Y294751D01*
X173504Y297820D01*
X175712Y300509D01*
X178402Y302717D01*
X181470Y304357D01*
X184800Y305367D01*
X188041Y305687D01*
X188263Y305642D01*
X249343D01*
X250290Y305250D01*
X252677D01*
X253624Y305642D01*
X269796D01*
Y305632D01*
X273374Y306103D01*
X276707Y307484D01*
X279570Y309680D01*
X279709Y309862D01*
X280912Y309454D01*
D02*
G37*
G36*
X461030Y305995D02*
X461121Y305921D01*
X462816Y304226D01*
X462816Y302508D01*
X453667Y293359D01*
X453667Y293359D01*
X453666Y293359D01*
X453556Y293248D01*
X453554Y293247D01*
X453553Y293246D01*
X453222Y292752D01*
X452890Y292258D01*
X452890Y292256D01*
X452889Y292254D01*
X452762Y291951D01*
X452762Y291949D01*
X452761Y291947D01*
X452644Y291361D01*
X452528Y290781D01*
X452529Y290779D01*
X452528Y290777D01*
X452528Y290448D01*
X452529Y290446D01*
X452528Y290444D01*
X452646Y289854D01*
X452761Y289277D01*
X452762Y289276D01*
X452763Y289274D01*
X452889Y288971D01*
X452890Y288969D01*
X452890Y288967D01*
X453225Y288468D01*
X453553Y287979D01*
X453555Y287978D01*
X453556Y287977D01*
X453672Y287861D01*
X456388Y285145D01*
X456388Y285145D01*
X456504Y285028D01*
X456505Y285028D01*
X456505Y285028D01*
X456805Y284827D01*
X457155Y284594D01*
X457184Y284571D01*
X457192Y284569D01*
X457496Y284365D01*
X457497Y284365D01*
X457497Y284365D01*
X457800Y284239D01*
X457800Y284239D01*
X457801Y284239D01*
X458388Y284122D01*
X458970Y284006D01*
X458971Y284006D01*
X458971Y284006D01*
X459300Y284006D01*
X459300Y284006D01*
X459300D01*
X459783Y284102D01*
X460470Y284239D01*
X460470Y284239D01*
X460470Y284239D01*
X460774Y284365D01*
X460774Y284365D01*
X460774Y284365D01*
X461289Y284709D01*
X461766Y285028D01*
X461766Y285028D01*
X461766Y285028D01*
X461882Y285145D01*
X471694Y294957D01*
X471710Y294970D01*
X471877Y295039D01*
X471902D01*
X472069Y294970D01*
X472085Y294957D01*
X474675Y292367D01*
X474440Y290806D01*
X465330Y281696D01*
X464595Y280596D01*
X464523Y280236D01*
X463085D01*
X461329Y279886D01*
X459841Y278892D01*
X458647Y277698D01*
X457942D01*
X455737Y276784D01*
X454049Y275096D01*
X453135Y272891D01*
Y270504D01*
X453861Y268752D01*
X453155Y267533D01*
X451780Y267642D01*
X451730Y267652D01*
X417977D01*
X417479Y268150D01*
X415274Y269063D01*
X412887D01*
X411253Y268387D01*
X410534Y269463D01*
X425395Y284325D01*
X425462Y284425D01*
X427253Y285800D01*
X429450Y286709D01*
X431689Y287004D01*
X431807Y286981D01*
X431810Y286981D01*
X435367Y287332D01*
X438789Y288370D01*
X441944Y290056D01*
X444700Y292318D01*
X444706Y292322D01*
X444709Y292325D01*
X444709Y292325D01*
X447704Y295320D01*
X447986Y295320D01*
X447986Y295320D01*
X447986D01*
X448469Y295416D01*
X449156Y295553D01*
X449156Y295553D01*
X449157Y295553D01*
X449460Y295679D01*
X449460Y295679D01*
X449460Y295679D01*
X449975Y296023D01*
X450452Y296342D01*
X450452Y296342D01*
X450452Y296342D01*
X450569Y296458D01*
X450569Y296458D01*
X460031Y305921D01*
X460122Y305995D01*
X460467Y306138D01*
X460685D01*
X461030Y305995D01*
D02*
G37*
G36*
X496008Y271034D02*
X496720Y270248D01*
X497933Y268433D01*
X498740Y266486D01*
X499166Y264344D01*
X499181Y264029D01*
X495305Y260152D01*
X495304Y260152D01*
X495287Y260169D01*
X493189Y257435D01*
X491869Y254249D01*
X491419Y250830D01*
X491444D01*
Y247995D01*
X490174Y247469D01*
X489666Y247977D01*
X488265Y248557D01*
X487943Y250032D01*
X488678Y251131D01*
X488936Y252429D01*
X488678Y253726D01*
X488214Y254420D01*
X487899Y255664D01*
X489586Y257351D01*
X490500Y259557D01*
Y261943D01*
X489586Y264149D01*
X487899Y265837D01*
X485694Y266750D01*
X483307D01*
X481101Y265837D01*
X479413Y264149D01*
X478177Y264483D01*
X477403Y265001D01*
X476106Y265259D01*
X475850Y265208D01*
X474937Y266321D01*
X475182Y266913D01*
X475849Y267581D01*
X476106Y267530D01*
X477403Y267788D01*
X478503Y268522D01*
X487943Y277962D01*
X488978Y278064D01*
X496008Y271034D01*
D02*
G37*
G36*
X461085Y314543D02*
X462795Y314203D01*
X464405Y313535D01*
X465854Y312566D01*
X466470Y311949D01*
X466471Y311950D01*
X503428Y274993D01*
X504713Y273827D01*
X507594Y271902D01*
X510796Y270576D01*
X514195Y269900D01*
X515928Y269815D01*
X515928D01*
X549910Y269815D01*
X550158Y269815D01*
X550618Y269624D01*
X550969Y269273D01*
X551160Y268813D01*
X551160Y268565D01*
X551160Y268565D01*
X551160Y260410D01*
X551160Y260063D01*
X550894Y259421D01*
X550403Y258930D01*
X549762Y258665D01*
X549415Y258665D01*
X549415D01*
X502276Y258665D01*
X502276Y263365D01*
X502210Y264720D01*
X501681Y267378D01*
X500644Y269882D01*
X499138Y272135D01*
X498227Y273141D01*
X498227Y273141D01*
X474142Y297226D01*
X473659Y297622D01*
X472511Y298098D01*
X471268D01*
X470120Y297622D01*
X469637Y297226D01*
X469637Y297226D01*
X459719Y287307D01*
X459603Y287191D01*
X459299Y287065D01*
X458971Y287065D01*
X458668Y287191D01*
X458552Y287307D01*
X458552Y287307D01*
X455830Y290029D01*
X455713Y290145D01*
X455587Y290448D01*
X455587Y290777D01*
X455713Y291080D01*
X455830Y291196D01*
X455830Y291196D01*
X465853Y301219D01*
X466231Y301679D01*
X466685Y302774D01*
X466685Y303960D01*
X466231Y305054D01*
X465853Y305515D01*
X465853Y305515D01*
X463178Y308189D01*
X462621Y308647D01*
X461294Y309197D01*
X459858D01*
X458531Y308647D01*
X457974Y308189D01*
X457974Y308190D01*
X448405Y298620D01*
X448289Y298504D01*
X447986Y298379D01*
X447657Y298379D01*
X447354Y298504D01*
X447238Y298620D01*
Y298620D01*
X444516Y301343D01*
X444458Y301401D01*
X444368Y301536D01*
X444306Y301687D01*
X444274Y301847D01*
X444274Y301928D01*
X444274Y302009D01*
X444305Y302168D01*
X444368Y302318D01*
X444458Y302453D01*
X444516Y302509D01*
X444516Y302510D01*
X453956Y311949D01*
X454572Y312566D01*
X456021Y313535D01*
X457632Y314203D01*
X459341Y314543D01*
X461085Y314543D01*
D02*
G37*
G36*
X149582Y256437D02*
X152268D01*
X152653Y255167D01*
X151912Y254672D01*
X151152Y253534D01*
X150885Y252192D01*
Y244672D01*
X151152Y243330D01*
X151912Y242192D01*
X153050Y241431D01*
X153452Y241351D01*
X153452Y237332D01*
X163652D01*
X163652Y241351D01*
X164054Y241431D01*
X165192Y242192D01*
X165615Y242824D01*
X185777D01*
X186208Y241554D01*
X185534Y241036D01*
X184062Y239118D01*
X183136Y236884D01*
X182838Y234618D01*
X182812Y234486D01*
Y233699D01*
X182313Y233200D01*
X181400Y230995D01*
Y228608D01*
X182220Y226627D01*
X182089Y226430D01*
X181836Y225161D01*
Y206961D01*
X182089Y205693D01*
X182807Y204618D01*
X183882Y203900D01*
X185150Y203648D01*
X189650D01*
X190918Y203900D01*
X191993Y204618D01*
X192712Y205693D01*
X192964Y206961D01*
Y225161D01*
X192712Y226430D01*
X192579Y226627D01*
X193400Y228608D01*
Y230995D01*
X192487Y233200D01*
X192374Y233312D01*
X192900Y234582D01*
X223353D01*
X223507Y234613D01*
X225345Y234247D01*
X227035Y233118D01*
X228164Y231429D01*
X228530Y229590D01*
X228499Y229436D01*
Y169197D01*
X212626Y169197D01*
X212626Y169197D01*
X212531Y169197D01*
X212531Y169197D01*
X212530Y169197D01*
X211884Y169068D01*
X211659Y169040D01*
X211615Y169015D01*
X211361Y168964D01*
X211360Y168964D01*
X211360Y168964D01*
X211183Y168891D01*
X210191Y168228D01*
X210055Y168092D01*
X209392Y167100D01*
X209319Y166923D01*
X209086Y165753D01*
X209086Y160862D01*
X209086Y160753D01*
X209086Y160753D01*
X209086Y160752D01*
X209205Y160154D01*
X209319Y159583D01*
X209319Y159582D01*
X209319Y159582D01*
X209403Y159380D01*
X210066Y158387D01*
X210220Y158233D01*
X210221Y158232D01*
X210221Y158232D01*
X210692Y157917D01*
X211213Y157570D01*
X211213Y157570D01*
X211213Y157569D01*
X211416Y157486D01*
X211416Y157486D01*
X211416Y157486D01*
X211831Y157403D01*
X212586Y157253D01*
X212586Y157253D01*
X212587Y157253D01*
X212696Y157253D01*
X224976D01*
X225062Y156820D01*
X225161Y156321D01*
X225161Y156321D01*
X225161Y156321D01*
X225304Y155975D01*
X225967Y154983D01*
X226232Y154718D01*
X227224Y154055D01*
X227570Y153912D01*
X227570Y153912D01*
X227570Y153912D01*
X227987Y153829D01*
Y150338D01*
X238187D01*
Y153829D01*
X238604Y153912D01*
X238604Y153912D01*
X238604Y153912D01*
X238950Y154055D01*
X238950Y154055D01*
X238950Y154055D01*
X239450Y154389D01*
X239942Y154718D01*
X239942Y154718D01*
X239942Y154718D01*
X240207Y154983D01*
X240207Y154983D01*
X240207Y154983D01*
X240433Y155321D01*
X248946D01*
X249537Y155438D01*
X250140D01*
X250696Y155669D01*
X251287Y155786D01*
X251788Y156121D01*
X252345Y156352D01*
X252771Y156778D01*
X253272Y157112D01*
X253606Y157613D01*
X254033Y158040D01*
X254263Y158596D01*
X254598Y159097D01*
X254715Y159688D01*
X254946Y160245D01*
Y160847D01*
X255063Y161438D01*
X254946Y162029D01*
Y162632D01*
X254715Y163188D01*
X254598Y163779D01*
X254263Y164280D01*
X254033Y164837D01*
X253606Y165263D01*
X253272Y165764D01*
X252771Y166099D01*
X252345Y166525D01*
X251788Y166755D01*
X251287Y167090D01*
X250696Y167208D01*
X250140Y167438D01*
X249537D01*
X248946Y167556D01*
X240432D01*
X240207Y167893D01*
X239943Y168158D01*
X239943Y168158D01*
X239942Y168158D01*
X239428Y168502D01*
X238951Y168821D01*
X238950Y168821D01*
X238950Y168821D01*
X238605Y168964D01*
X238604Y168964D01*
X238604Y168964D01*
X238071Y169070D01*
X237675Y169149D01*
Y229436D01*
X237710D01*
X237221Y233152D01*
X235786Y236615D01*
X233505Y239588D01*
X230943Y241554D01*
X231374Y242824D01*
X241284D01*
X241541Y242875D01*
X245160Y242519D01*
X248887Y241388D01*
X252322Y239552D01*
X255333Y237081D01*
X257804Y234070D01*
X259640Y230635D01*
X260771Y226908D01*
X261127Y223289D01*
X261076Y223032D01*
Y105491D01*
X261127Y105234D01*
X260771Y101615D01*
X259640Y97887D01*
X257804Y94452D01*
X255497Y91641D01*
X255279Y91496D01*
X247323Y83539D01*
X245793Y83843D01*
X243669Y84723D01*
X241693Y86043D01*
X240846Y86811D01*
X239849Y87808D01*
X239723Y87892D01*
X239627Y88010D01*
X237344Y89883D01*
X237210Y89955D01*
X237103Y90062D01*
X234648Y91703D01*
X234508Y91761D01*
X234390Y91857D01*
X231786Y93249D01*
X231641Y93293D01*
X231515Y93377D01*
X228787Y94507D01*
X228638Y94537D01*
X228504Y94608D01*
X225678Y95465D01*
X225527Y95480D01*
X225387Y95538D01*
X222491Y96114D01*
X222339Y96114D01*
X222193Y96158D01*
X219255Y96447D01*
X219104Y96432D01*
X218955Y96462D01*
X217485Y96461D01*
X217479Y96463D01*
X161790D01*
X160824Y96510D01*
X158858Y96901D01*
X157076Y97639D01*
X155472Y98711D01*
X154108Y100075D01*
X153036Y101678D01*
X152298Y103460D01*
X151907Y105426D01*
X151860Y106392D01*
X151860Y153959D01*
X151860Y154414D01*
X151844Y154495D01*
X151856Y154576D01*
X151808Y155486D01*
X151788Y155566D01*
X151795Y155647D01*
X151760Y155983D01*
X152625Y157211D01*
X152685Y157253D01*
X174641Y157253D01*
Y144622D01*
X174874Y143452D01*
X175503Y141933D01*
X176166Y140941D01*
X177329Y139778D01*
X178321Y139115D01*
X179840Y138486D01*
X181010Y138253D01*
X181832Y138253D01*
X181832Y138253D01*
X181833Y138253D01*
X194704D01*
X195875Y138486D01*
X196077Y138570D01*
X197069Y139233D01*
X197224Y139388D01*
X197554Y139882D01*
X197887Y140380D01*
X197971Y140582D01*
X197971Y140582D01*
X197971Y140582D01*
X198073Y141097D01*
X198203Y141752D01*
X198203Y141753D01*
X198203Y141753D01*
X198203Y146201D01*
X198203Y146323D01*
X198203Y146324D01*
X198203Y146325D01*
X198088Y146903D01*
X197971Y147493D01*
X197970Y147494D01*
X197970Y147495D01*
X197877Y147719D01*
X197877Y147720D01*
X197877Y147721D01*
X197539Y148225D01*
X197214Y148711D01*
X197213Y148712D01*
X197213Y148712D01*
X197041Y148884D01*
X197040Y148884D01*
X197040Y148885D01*
X196569Y149198D01*
X196048Y149546D01*
X196047Y149546D01*
X196047Y149546D01*
X195822Y149639D01*
X195822Y149639D01*
X195821Y149639D01*
X195228Y149756D01*
X194895Y149822D01*
X194738Y149864D01*
X194704Y149860D01*
X194652Y149870D01*
X194651Y149870D01*
X194650Y149870D01*
X194541Y149870D01*
X194535Y149871D01*
X184094D01*
Y157253D01*
X194534D01*
X194655Y157253D01*
X194656Y157253D01*
X194657Y157253D01*
X195239Y157369D01*
X195826Y157486D01*
X195827Y157486D01*
X195828Y157487D01*
X196052Y157579D01*
X196052Y157580D01*
X196053Y157580D01*
X196533Y157901D01*
X197044Y158243D01*
X197044Y158243D01*
X197045Y158244D01*
X197216Y158415D01*
X197216Y158416D01*
X197217Y158416D01*
X197540Y158901D01*
X197878Y159408D01*
X197878Y159409D01*
X197879Y159410D01*
X197971Y159634D01*
X197971Y159634D01*
X197972Y159635D01*
X198045Y160007D01*
X198089Y160093D01*
X198107Y160320D01*
X198202Y160804D01*
X198202Y160805D01*
X198202Y160806D01*
X198202Y160917D01*
X198203Y160922D01*
Y165371D01*
X198203Y165372D01*
X198203Y165372D01*
X198073Y166027D01*
X197971Y166542D01*
X197971Y166542D01*
X197971Y166542D01*
X197887Y166744D01*
X197595Y167180D01*
X197224Y167736D01*
X197069Y167891D01*
X196575Y168221D01*
X196077Y168554D01*
X195875Y168638D01*
X195875Y168638D01*
X195875Y168638D01*
X195359Y168741D01*
X194704Y168871D01*
X194704Y168871D01*
X194704Y168871D01*
X194595D01*
X194595Y168871D01*
X146771D01*
X146469Y168884D01*
X145809Y168999D01*
X145241Y169204D01*
X144659Y169536D01*
X144421Y169716D01*
X143311Y170636D01*
X143077Y170762D01*
X142876Y170936D01*
X140265Y172427D01*
X140013Y172512D01*
X139785Y172649D01*
X136955Y173668D01*
X136693Y173708D01*
X136445Y173804D01*
X133482Y174321D01*
X133216Y174314D01*
X132956Y174366D01*
X131456Y174366D01*
X131453Y174366D01*
X96008Y174367D01*
X95996Y174367D01*
X95971Y174362D01*
X95947Y174367D01*
X95900Y174366D01*
X95874Y174361D01*
X95848Y174365D01*
X95801Y174364D01*
X95796Y174363D01*
X86150D01*
X85481Y174429D01*
X84117Y174994D01*
X83182Y175928D01*
X82617Y177293D01*
X82551Y177962D01*
Y182841D01*
X82614Y182882D01*
X83821Y183226D01*
X83943Y183044D01*
X84139Y182847D01*
X85132Y182184D01*
X85388Y182078D01*
X86559Y181845D01*
X93646Y181845D01*
X124423D01*
X124650Y181845D01*
X124650Y181845D01*
X124651Y181845D01*
X125231Y181960D01*
X125821Y182077D01*
X125821Y182078D01*
X125821Y182078D01*
X126242Y182252D01*
X126242Y182252D01*
X126243Y182252D01*
X126718Y182570D01*
X127235Y182914D01*
X127235Y182915D01*
X127235Y182915D01*
X127557Y183237D01*
X127557Y183237D01*
X127558Y183237D01*
X127913Y183769D01*
X128220Y184229D01*
X128220Y184230D01*
X128221Y184230D01*
X128395Y184650D01*
X128395Y184651D01*
X128395Y184651D01*
X128457Y184966D01*
X149173D01*
Y184947D01*
X152420Y185374D01*
X155446Y186628D01*
X157074Y187877D01*
X158033Y188613D01*
X158044Y188621D01*
X159021Y189328D01*
X159107Y189385D01*
X160334Y189629D01*
X160399Y189616D01*
X162502D01*
X162669Y188777D01*
X163420Y187653D01*
X164545Y186901D01*
X165871Y186637D01*
X173071D01*
X174398Y186901D01*
X175522Y187653D01*
X176274Y188777D01*
X176359Y189204D01*
X178384D01*
X178469Y188777D01*
X179220Y187653D01*
X180345Y186901D01*
X181671Y186637D01*
X188871D01*
X190198Y186901D01*
X191323Y187653D01*
X192074Y188777D01*
X192241Y189616D01*
X194930D01*
X195097Y188777D01*
X195849Y187653D01*
X196973Y186901D01*
X198300Y186637D01*
X205500D01*
X206827Y186901D01*
X207951Y187653D01*
X208703Y188777D01*
X208788Y189204D01*
X213200Y189204D01*
X213200Y199204D01*
X208788Y199204D01*
X208703Y199631D01*
X207951Y200755D01*
X206827Y201507D01*
X205500Y201771D01*
X204688D01*
Y204615D01*
X204693Y204618D01*
X205411Y205693D01*
X205664Y206961D01*
Y225161D01*
X205411Y226430D01*
X204693Y227505D01*
X203618Y228223D01*
X202350Y228475D01*
X197850D01*
X196582Y228223D01*
X195507Y227505D01*
X194789Y226430D01*
X194536Y225161D01*
Y206961D01*
X194789Y205693D01*
X195507Y204618D01*
X195512Y204615D01*
Y200251D01*
X195097Y199631D01*
X194930Y198792D01*
X192241D01*
X192074Y199631D01*
X191323Y200755D01*
X190198Y201507D01*
X188871Y201771D01*
X181671D01*
X180345Y201507D01*
X179220Y200755D01*
X178469Y199631D01*
X178384Y199204D01*
X176359D01*
X176274Y199631D01*
X175522Y200755D01*
X174398Y201507D01*
X173071Y201771D01*
X165871D01*
X164545Y201507D01*
X163420Y200755D01*
X162669Y199631D01*
X162502Y198792D01*
X160399D01*
Y198811D01*
X157152Y198384D01*
X154126Y197131D01*
X152498Y195881D01*
X151539Y195145D01*
X151528Y195137D01*
X150551Y194431D01*
X150465Y194373D01*
X149238Y194129D01*
X149173Y194142D01*
X128420D01*
X128395Y194268D01*
X128395Y194269D01*
X128395Y194269D01*
X128185Y194776D01*
X128185Y194776D01*
X128185Y194776D01*
X127522Y195769D01*
X127134Y196157D01*
X127134Y196157D01*
X127134Y196157D01*
X126608Y196508D01*
X126141Y196820D01*
X126141Y196820D01*
X126141Y196820D01*
X125634Y197030D01*
X125634Y197030D01*
X125634Y197030D01*
X125154Y197125D01*
X124464Y197263D01*
X124463Y197263D01*
X124463Y197263D01*
X124189Y197263D01*
X86697Y197263D01*
X86697Y197263D01*
X86559Y197263D01*
X86559Y197263D01*
X86559Y197263D01*
X85869Y197126D01*
X85389Y197030D01*
X85389Y197030D01*
X85388Y197030D01*
X85132Y196924D01*
X85132Y196924D01*
X85132D01*
X84140Y196261D01*
X83214Y196382D01*
X82761Y196579D01*
X82559Y196737D01*
Y231207D01*
X82577Y231568D01*
X82732Y232349D01*
X83008Y233015D01*
X83408Y233614D01*
X83918Y234123D01*
X84517Y234524D01*
X85183Y234799D01*
X85964Y234955D01*
X86334Y234973D01*
X98529D01*
X99699Y235206D01*
X100030Y235343D01*
X101023Y236006D01*
X101276Y236259D01*
X101939Y237251D01*
X102076Y237582D01*
X102076Y237582D01*
X102076Y237583D01*
X102197Y238190D01*
X102309Y238753D01*
X102309Y238753D01*
X102309Y238753D01*
X102309Y238931D01*
X102309Y238932D01*
X102309Y246131D01*
X102309Y246310D01*
X102309Y246311D01*
X103243Y247441D01*
X111644D01*
X111698Y247423D01*
X111730Y247375D01*
X111738Y247343D01*
X111753Y247315D01*
X111769Y247270D01*
X111803Y247213D01*
X111877Y247062D01*
X111913Y246932D01*
X111980Y246846D01*
X112150Y246435D01*
X112340Y246151D01*
X112692Y245798D01*
X113021Y245423D01*
X113293Y245215D01*
X113740Y244995D01*
X114171Y244745D01*
X114495Y244635D01*
X114990Y244570D01*
X115479Y244473D01*
X115650Y244473D01*
X123350Y244473D01*
X123529Y244473D01*
X123529Y244473D01*
X123529Y244473D01*
X124092Y244585D01*
X124699Y244706D01*
X124699Y244706D01*
X124699Y244706D01*
X125030Y244843D01*
X126023Y245506D01*
X126276Y245759D01*
X126276Y245759D01*
X126276Y245759D01*
X126529Y246138D01*
X126821Y246576D01*
X129280Y246818D01*
X133005Y247948D01*
X136437Y249782D01*
X138503Y251478D01*
X139451Y252241D01*
X139452Y252242D01*
X139452Y252241D01*
X139453Y252241D01*
X139456Y252245D01*
X140379Y253082D01*
X142368Y254608D01*
X145848Y256050D01*
X149267Y256500D01*
X149582Y256437D01*
D02*
G37*
G36*
X41450Y259894D02*
X108809Y259894D01*
X108809Y259894D01*
X109530Y259894D01*
X110957Y259691D01*
X112341Y259290D01*
X113655Y258698D01*
X114264Y258312D01*
X114963Y257904D01*
X116439Y257239D01*
X117993Y256788D01*
X119596Y256560D01*
X120405Y256532D01*
X123350Y256532D01*
X123350Y256532D01*
X123529Y256532D01*
X123860Y256395D01*
X124113Y256142D01*
X124250Y255811D01*
X124250Y255632D01*
X124250Y248432D01*
X124250Y248432D01*
X124250Y248253D01*
X124113Y247922D01*
X123860Y247669D01*
X123529Y247532D01*
X123350Y247532D01*
X115650Y247532D01*
X115650D01*
X115479Y247532D01*
X115155Y247642D01*
X114883Y247850D01*
X114693Y248135D01*
X114649Y248300D01*
X114649Y248300D01*
X114485Y248757D01*
X113948Y249561D01*
X113181Y250150D01*
X112265Y250460D01*
X111782Y250500D01*
X57656Y250500D01*
X57656Y250500D01*
X57382Y250473D01*
X56875Y250263D01*
X56487Y249875D01*
X56277Y249368D01*
X56250Y249094D01*
Y248855D01*
X56067Y248414D01*
X55730Y248077D01*
X55289Y247894D01*
X41450D01*
X41211Y247894D01*
X40770Y248077D01*
X40433Y248414D01*
X40250Y248855D01*
X40250Y249094D01*
Y258694D01*
X40250Y258933D01*
X40432Y259374D01*
X40770Y259712D01*
X41211Y259894D01*
X41450Y259894D01*
D02*
G37*
G36*
X98350Y247031D02*
X98529Y247031D01*
X98860Y246895D01*
X99113Y246642D01*
X99250Y246311D01*
X99250Y246132D01*
X99250Y238932D01*
X99250Y238932D01*
X99250Y238753D01*
X99113Y238422D01*
X98860Y238169D01*
X98529Y238032D01*
X86250D01*
X86250Y238031D01*
X85588Y237999D01*
X84291Y237741D01*
X83068Y237234D01*
X81968Y236499D01*
X81032Y235564D01*
X80297Y234464D01*
X79791Y233241D01*
X79532Y231943D01*
X79500Y231282D01*
Y196000D01*
X79493Y196008D01*
Y177811D01*
X79493Y177811D01*
X79618Y176542D01*
X80589Y174196D01*
X82384Y172400D01*
X84730Y171429D01*
X86000Y171304D01*
X95812D01*
X95812Y171303D01*
X95836Y171304D01*
X95883Y171306D01*
X95929Y171308D01*
X95976Y171308D01*
X96000Y171308D01*
X131453Y171308D01*
X131453Y171307D01*
X132956Y171307D01*
X135919Y170790D01*
X138748Y169771D01*
X141360Y168280D01*
X142518Y167321D01*
X142518Y167321D01*
X142970Y166978D01*
X143955Y166416D01*
X145022Y166031D01*
X146138Y165837D01*
X146706Y165812D01*
X194595D01*
Y165812D01*
X194704D01*
X194906Y165728D01*
X195061Y165574D01*
X195145Y165371D01*
Y165262D01*
Y160922D01*
X195144Y160922D01*
X195144Y160800D01*
X195051Y160576D01*
X194880Y160405D01*
X194656Y160312D01*
X194535Y160312D01*
X183189D01*
X183189Y160311D01*
X182769Y160270D01*
X181992Y159949D01*
X181398Y159354D01*
X181076Y158578D01*
X181035Y158158D01*
Y148605D01*
X181069Y148256D01*
X181337Y147609D01*
X181832Y147114D01*
X182478Y146847D01*
X182828Y146812D01*
X194535D01*
X194535Y146811D01*
X194656Y146811D01*
X194880Y146719D01*
X195052Y146547D01*
X195145Y146323D01*
X195145Y146202D01*
X195145Y141862D01*
Y141753D01*
X195061Y141550D01*
X194906Y141396D01*
X194704Y141312D01*
X181832D01*
X181832Y141312D01*
X181010Y141312D01*
X179492Y141941D01*
X178329Y143104D01*
X177700Y144622D01*
Y145444D01*
Y158207D01*
X177699Y158207D01*
X177659Y158617D01*
X177345Y159376D01*
X176764Y159957D01*
X176005Y160272D01*
X175595Y160312D01*
X150631Y160312D01*
X150631Y160311D01*
X150132Y160256D01*
X149231Y159826D01*
X148602Y159050D01*
X148370Y158079D01*
X148419Y157579D01*
X148419Y157579D01*
X148514Y157133D01*
X148658Y156232D01*
X148753Y155326D01*
X148801Y154415D01*
X148801Y153959D01*
X148801Y106317D01*
Y106317D01*
X148863Y105051D01*
X149357Y102568D01*
X150326Y100230D01*
X151732Y98125D01*
X153522Y96335D01*
X155627Y94928D01*
X157966Y93960D01*
X160449Y93466D01*
X161714Y93404D01*
X217479D01*
X217479Y93403D01*
X218955Y93403D01*
X221894Y93114D01*
X224790Y92538D01*
X227616Y91681D01*
X230344Y90551D01*
X232948Y89159D01*
X235404Y87519D01*
X237686Y85645D01*
X238730Y84601D01*
X238730Y84601D01*
X239806Y83625D01*
X242220Y82013D01*
X244901Y80902D01*
X247748Y80336D01*
X249199Y80265D01*
X250634D01*
X250634Y80264D01*
X250932Y80264D01*
X251483Y80036D01*
X251905Y79614D01*
X252134Y79063D01*
X252134Y78765D01*
X252134Y71198D01*
X252134Y71198D01*
X252180Y70261D01*
X252545Y68422D01*
X253262Y66691D01*
X254303Y65132D01*
X255629Y63807D01*
X257187Y62766D01*
X258919Y62049D01*
X260757Y61683D01*
X261694Y61638D01*
X370363D01*
X370362Y61636D01*
X372296Y61636D01*
X376090Y60882D01*
X379664Y59402D01*
X382881Y57253D01*
X385616Y54518D01*
X387765Y51301D01*
X389245Y47728D01*
X390000Y43934D01*
X390000Y42000D01*
X390000Y25400D01*
Y24215D01*
X389387Y21926D01*
X388202Y19874D01*
X386526Y18198D01*
X384474Y17013D01*
X382185Y16400D01*
X379815D01*
X377526Y17013D01*
X375474Y18198D01*
X373798Y19874D01*
X372613Y21926D01*
X372000Y24215D01*
Y25400D01*
Y39250D01*
X371999Y39250D01*
X371946Y40329D01*
X371525Y42447D01*
X370699Y44442D01*
X369499Y46238D01*
X367972Y47764D01*
X366177Y48964D01*
X364182Y49790D01*
X362065Y50212D01*
X360985Y50265D01*
X310515Y50265D01*
X310515Y50265D01*
X309888Y50203D01*
X308731Y49724D01*
X307845Y48838D01*
X307365Y47680D01*
X307304Y47054D01*
Y37494D01*
Y37494D01*
X307346Y36817D01*
X307676Y35504D01*
X308316Y34312D01*
X309228Y33312D01*
X309769Y32903D01*
X309769Y32903D01*
X310985Y32098D01*
X312784Y29802D01*
X313766Y27055D01*
X313829Y24139D01*
X312969Y21352D01*
X311273Y18979D01*
X308914Y17263D01*
X306134Y16381D01*
X303218Y16421D01*
X300463Y17380D01*
X298152Y19160D01*
X296522Y21579D01*
X295739Y24388D01*
X295883Y27301D01*
X296940Y30020D01*
X298801Y32266D01*
X300039Y33037D01*
X300532Y33390D01*
X301367Y34268D01*
X301954Y35327D01*
X302258Y36500D01*
X302296Y37105D01*
X302296Y46704D01*
X302296Y46704D01*
X302228Y47398D01*
X301696Y48682D01*
X300714Y49665D01*
X299430Y50196D01*
X298735Y50265D01*
X247212Y50265D01*
X238335D01*
X237784Y50493D01*
X237362Y50915D01*
X237134Y51466D01*
Y51765D01*
Y65985D01*
X237132Y65985D01*
X237051Y67653D01*
X236401Y70926D01*
X235124Y74008D01*
X233270Y76782D01*
X232149Y78020D01*
X232148Y78019D01*
X230639Y79386D01*
X227258Y81646D01*
X223501Y83203D01*
X219512Y83996D01*
X217479Y84096D01*
X161714Y84096D01*
X159526D01*
X155233Y84950D01*
X151189Y86625D01*
X147549Y89057D01*
X144454Y92152D01*
X142023Y95792D01*
X140347Y99836D01*
X139494Y104129D01*
Y106317D01*
Y153959D01*
X139455Y154747D01*
X139147Y156293D01*
X138544Y157750D01*
X137668Y159060D01*
X136554Y160175D01*
X135243Y161051D01*
X133787Y161654D01*
X132241Y161961D01*
X131453Y162000D01*
X128007D01*
X128007Y162000D01*
X127531Y161953D01*
X126652Y161589D01*
X125979Y160916D01*
X125615Y160038D01*
X125569Y159562D01*
Y158794D01*
Y158607D01*
X125426Y158261D01*
X125161Y157997D01*
X124816Y157854D01*
X116308D01*
X116122Y157854D01*
X115776Y157997D01*
X115512Y158261D01*
X115369Y158607D01*
Y158794D01*
Y159562D01*
X115368Y159562D01*
X115321Y160038D01*
X114957Y160917D01*
X114285Y161589D01*
X113406Y161953D01*
X112930Y162000D01*
X96000Y162000D01*
X96000Y162000D01*
X95976D01*
X95929Y162001D01*
X95883Y162002D01*
X95836Y162003D01*
X95812Y162004D01*
X86000Y162004D01*
X86000Y162003D01*
X84730Y161878D01*
X82385Y160907D01*
X80589Y159112D01*
X79618Y156766D01*
X79493Y155497D01*
Y134129D01*
X79492Y134129D01*
X79492Y133453D01*
X79228Y132127D01*
X78711Y130878D01*
X77960Y129753D01*
X77004Y128797D01*
X75880Y128046D01*
X74630Y127528D01*
X73304Y127265D01*
X72628Y127265D01*
X12000D01*
X12000Y127265D01*
X11310Y127265D01*
X9958Y127534D01*
X8684Y128061D01*
X7538Y128827D01*
X6563Y129802D01*
X5797Y130948D01*
X5269Y132222D01*
X5000Y133575D01*
X5000Y134264D01*
Y197250D01*
Y198013D01*
X5298Y199510D01*
X5882Y200921D01*
X6730Y202190D01*
X7810Y203270D01*
X9079Y204118D01*
X10489Y204702D01*
X11987Y205000D01*
X32000D01*
X32708Y205070D01*
X34016Y205611D01*
X35017Y206612D01*
X35558Y207920D01*
X35628Y208628D01*
Y219522D01*
X35628Y219681D01*
X35750Y219975D01*
X35975Y220200D01*
X36269Y220322D01*
X36428Y220321D01*
X42828Y220322D01*
X42828Y220321D01*
X42987Y220321D01*
X43281Y220199D01*
X43506Y219974D01*
X43628Y219680D01*
X43628Y219521D01*
X43628Y208583D01*
X43628Y208583D01*
X43697Y207884D01*
X44232Y206592D01*
X45220Y205604D01*
X46512Y205069D01*
X47211Y205000D01*
X68039D01*
X68038Y205000D01*
X68909Y205086D01*
X70517Y205752D01*
X71748Y206983D01*
X72414Y208591D01*
X72500Y209461D01*
X72500Y237455D01*
X72500Y237455D01*
X72500Y238398D01*
X72868Y240249D01*
X73590Y241992D01*
X74638Y243560D01*
X75972Y244894D01*
X77540Y245942D01*
X79283Y246664D01*
X81133Y247032D01*
X82076Y247032D01*
X98350Y247032D01*
X98350Y247031D01*
D02*
G37*
G36*
X353101Y273413D02*
X355307Y272500D01*
X355854D01*
X372053Y256302D01*
X370577Y254826D01*
X369842Y253726D01*
X369584Y252429D01*
X369842Y251131D01*
X370577Y250032D01*
X373299Y247309D01*
X374399Y246574D01*
X375317Y246392D01*
X375499Y245475D01*
X376234Y244375D01*
X378956Y241653D01*
X380056Y240918D01*
X380974Y240735D01*
X381156Y239818D01*
X381891Y238718D01*
X384613Y235996D01*
X384797Y235873D01*
X384958Y234238D01*
X383446Y232726D01*
X383310Y232742D01*
X382213Y232932D01*
X380640Y234505D01*
X379502Y235266D01*
X378160Y235533D01*
X376818Y235266D01*
X376043Y234748D01*
X356814Y253976D01*
X356638Y254094D01*
X354175Y257096D01*
X352246Y260705D01*
X351058Y264620D01*
X350677Y268485D01*
X350718Y268693D01*
Y274000D01*
X351988Y274526D01*
X353101Y273413D01*
D02*
G37*
G36*
X124189Y194204D02*
X124464Y194204D01*
X124971Y193994D01*
X125358Y193606D01*
X125568Y193099D01*
X125568Y192824D01*
X125569Y192825D01*
X125569Y186048D01*
X125569Y185821D01*
X125394Y185400D01*
X125072Y185078D01*
X124652Y184904D01*
X124424Y184904D01*
X93646D01*
X86698Y184904D01*
X86559D01*
X86302Y185010D01*
X86106Y185206D01*
X86000Y185463D01*
Y185602D01*
X86000D01*
Y193507D01*
Y193645D01*
X86106Y193902D01*
X86302Y194098D01*
X86559Y194204D01*
X86697Y194204D01*
Y194204D01*
X124189Y194204D01*
D02*
G37*
G36*
X237247Y166138D02*
X237434Y166138D01*
X237780Y165995D01*
X238044Y165731D01*
X238187Y165385D01*
X238187Y165198D01*
X238187Y165198D01*
X238187Y157678D01*
X238187Y157491D01*
X238044Y157146D01*
X237780Y156881D01*
X237434Y156738D01*
X237247Y156738D01*
X228927D01*
X228740Y156738D01*
X228395Y156881D01*
X228130Y157146D01*
X227987Y157491D01*
X227987Y157678D01*
X227987Y157678D01*
X227936Y158192D01*
X227543Y159142D01*
X226817Y159868D01*
X225867Y160261D01*
X225353Y160312D01*
X225353Y160312D01*
X212695D01*
X212585Y160312D01*
X212383Y160396D01*
X212228Y160550D01*
X212145Y160752D01*
X212145Y160862D01*
Y160862D01*
X212145Y165657D01*
Y165752D01*
X212218Y165929D01*
X212353Y166065D01*
X212530Y166138D01*
X212626Y166138D01*
X212626Y166138D01*
X237247Y166138D01*
D02*
G37*
G36*
X95821Y158944D02*
X95868Y158943D01*
X95883Y158945D01*
X95898Y158942D01*
X95945Y158942D01*
X95961Y158945D01*
X95976Y158941D01*
X96000D01*
X96000Y158941D01*
X111122Y158941D01*
X112310Y158607D01*
X112543Y157436D01*
X112686Y157091D01*
X113349Y156098D01*
X113613Y155834D01*
X113613Y155834D01*
X113614Y155834D01*
X113992Y155581D01*
X114606Y155171D01*
X114606Y155171D01*
X114606Y155171D01*
X114951Y155028D01*
X115369Y154945D01*
Y151454D01*
X125569D01*
Y154945D01*
X125986Y155028D01*
X126332Y155171D01*
X127324Y155834D01*
X127588Y156099D01*
X127944Y156631D01*
X128251Y157091D01*
X128394Y157436D01*
X128394Y157436D01*
X128394Y157437D01*
X128480Y157866D01*
X128627Y158607D01*
X129815Y158941D01*
X131377D01*
X131865Y158918D01*
X132895Y158713D01*
X133794Y158340D01*
X134604Y157799D01*
X135293Y157111D01*
X135834Y156301D01*
X136206Y155401D01*
X136411Y154372D01*
X136435Y153884D01*
Y106317D01*
Y104129D01*
X136494Y103833D01*
Y103532D01*
X137347Y99239D01*
X137463Y98961D01*
X137522Y98665D01*
X139197Y94621D01*
X139364Y94371D01*
X139479Y94092D01*
X141911Y90453D01*
X142124Y90240D01*
X142291Y89989D01*
X145387Y86894D01*
X145637Y86727D01*
X145850Y86514D01*
X149490Y84082D01*
X149768Y83967D01*
X150018Y83799D01*
X154062Y82124D01*
X154358Y82065D01*
X154636Y81950D01*
X158929Y81096D01*
X159230D01*
X159526Y81037D01*
X161535D01*
X161873Y80776D01*
X162484Y79767D01*
X162461Y79654D01*
X162344Y79062D01*
X162344Y79061D01*
X162344Y79061D01*
X162344Y78762D01*
Y55918D01*
X161794Y55557D01*
X161074Y55404D01*
X161053Y55425D01*
X158398Y57199D01*
X158120Y57314D01*
X157869Y57481D01*
X154920Y58703D01*
X154624Y58762D01*
X154346Y58877D01*
X151214Y59500D01*
X150913D01*
X150618Y59559D01*
X149022Y59559D01*
X149021Y59559D01*
X139825D01*
X138582Y59620D01*
X136070Y60119D01*
X133774Y61070D01*
X131708Y62451D01*
X129951Y64208D01*
X128570Y66274D01*
X127619Y68570D01*
X127120Y71082D01*
X127073Y72028D01*
Y93500D01*
X127059Y93611D01*
X127059Y94594D01*
X126826Y95765D01*
X125989Y97786D01*
X125325Y98779D01*
X124630Y99474D01*
X124562Y99562D01*
X124474Y99630D01*
X123778Y100326D01*
X122786Y100989D01*
X122786Y100989D01*
X122786Y100989D01*
X120764Y101826D01*
X119594Y102059D01*
X118612Y102059D01*
X118500Y102073D01*
X107500D01*
X107389Y102059D01*
X106406D01*
X105235Y101826D01*
X103214Y100989D01*
X102222Y100326D01*
X101526Y99630D01*
X101438Y99562D01*
X101370Y99474D01*
X100674Y98778D01*
X100011Y97786D01*
X99174Y95765D01*
X98941Y94594D01*
Y93611D01*
X98927Y93500D01*
Y60500D01*
X98941Y60389D01*
Y59618D01*
X98941Y58227D01*
X99000Y57932D01*
Y57630D01*
X99543Y54903D01*
X99658Y54624D01*
X99717Y54329D01*
X100781Y51760D01*
X100948Y51509D01*
X101063Y51231D01*
X102609Y48918D01*
X102822Y48706D01*
X102989Y48455D01*
X104956Y46488D01*
X105206Y46321D01*
X105419Y46108D01*
X107732Y44563D01*
X108010Y44448D01*
X108260Y44280D01*
X110830Y43216D01*
X111125Y43158D01*
X111404Y43042D01*
X114131Y42500D01*
X114432Y42500D01*
X114728Y42441D01*
X116119Y42441D01*
X126816Y42441D01*
X127271Y41171D01*
X127124Y41051D01*
X126951Y40935D01*
X126804Y40788D01*
X125435Y39665D01*
X124312Y38296D01*
X124165Y38149D01*
X124049Y37976D01*
X122926Y36608D01*
X122092Y35047D01*
X121976Y34873D01*
X121897Y34681D01*
X121062Y33120D01*
X120548Y31426D01*
X120469Y31234D01*
X120428Y31030D01*
X119914Y29336D01*
X119741Y27574D01*
X119700Y27370D01*
Y27162D01*
X119527Y25400D01*
X119700Y23638D01*
Y23430D01*
X119741Y23226D01*
X119914Y21464D01*
X120428Y19770D01*
X120469Y19566D01*
X120548Y19374D01*
X121062Y17680D01*
X121896Y16119D01*
X121976Y15926D01*
X122092Y15753D01*
X122926Y14192D01*
X124049Y12824D01*
X124165Y12651D01*
X124312Y12503D01*
X125435Y11135D01*
X126803Y10012D01*
X126951Y9865D01*
X127124Y9749D01*
X128492Y8626D01*
X130053Y7792D01*
X130226Y7676D01*
X130419Y7596D01*
X131980Y6762D01*
X133674Y6248D01*
X133866Y6169D01*
X134071Y6128D01*
X135764Y5614D01*
X137526Y5441D01*
X137730Y5400D01*
X137763Y5348D01*
X137065Y4078D01*
X9945D01*
X9781Y4046D01*
X7675Y4465D01*
X5750Y5750D01*
X4465Y7675D01*
X4046Y9781D01*
X4078Y9945D01*
Y126165D01*
X5348Y126691D01*
X5375Y126664D01*
X5625Y126497D01*
X5839Y126284D01*
X6985Y125518D01*
X7263Y125402D01*
X7514Y125235D01*
X8788Y124707D01*
X9083Y124649D01*
X9362Y124534D01*
X10714Y124265D01*
X11015Y124265D01*
X11311Y124206D01*
X12000Y124206D01*
X12000Y124206D01*
X72628D01*
X73304Y124206D01*
X73600Y124265D01*
X73901D01*
X75227Y124529D01*
X75506Y124644D01*
X75801Y124703D01*
X77050Y125220D01*
X77301Y125387D01*
X77579Y125503D01*
X78703Y126254D01*
X78916Y126467D01*
X79167Y126634D01*
X80123Y127591D01*
X80290Y127841D01*
X80503Y128054D01*
X81254Y129178D01*
X81370Y129457D01*
X81537Y129707D01*
X82054Y130956D01*
X82113Y131252D01*
X82228Y131530D01*
X82492Y132857D01*
X82492Y133158D01*
X82551Y133453D01*
X82550Y134124D01*
X82551Y134129D01*
Y155346D01*
X82617Y156015D01*
X83182Y157379D01*
X84117Y158314D01*
X85481Y158879D01*
X86159Y158945D01*
X95758Y158945D01*
X95792Y158944D01*
X95797Y158945D01*
X95812D01*
X95813Y158945D01*
X95821Y158944D01*
D02*
G37*
G36*
X681268Y71456D02*
Y52471D01*
X657071Y28275D01*
X656608Y27582D01*
X655338Y27967D01*
Y40040D01*
X655342D01*
X654973Y44732D01*
X653875Y49308D01*
X652074Y53656D01*
X649614Y57669D01*
X649471Y57838D01*
X650281Y58844D01*
X650753Y58592D01*
X650926Y58476D01*
X651119Y58396D01*
X652680Y57562D01*
X654373Y57048D01*
X654566Y56969D01*
X654771Y56928D01*
X656464Y56414D01*
X658226Y56241D01*
X658430Y56200D01*
X658639D01*
X660400Y56027D01*
X662161Y56200D01*
X662370D01*
X662574Y56241D01*
X664336Y56414D01*
X666029Y56928D01*
X666234Y56969D01*
X666426Y57048D01*
X668120Y57562D01*
X669681Y58397D01*
X669874Y58476D01*
X670047Y58592D01*
X671608Y59426D01*
X672976Y60549D01*
X673149Y60665D01*
X673297Y60812D01*
X674665Y61935D01*
X675788Y63303D01*
X675935Y63451D01*
X676051Y63624D01*
X677174Y64992D01*
X678008Y66553D01*
X678124Y66726D01*
X678203Y66919D01*
X679038Y68480D01*
X679552Y70174D01*
X679631Y70366D01*
X679672Y70571D01*
X679998Y71645D01*
X681268Y71456D01*
D02*
G37*
G36*
X217404Y81037D02*
X219137Y80952D01*
X222609Y80262D01*
X225809Y78936D01*
X228752Y76969D01*
X229992Y75844D01*
X230853Y74895D01*
X232413Y72559D01*
X233459Y70034D01*
X234007Y67278D01*
X234075Y65884D01*
Y51466D01*
X234308Y50296D01*
X234536Y49745D01*
X234498Y49590D01*
X233801Y48559D01*
X233751Y48559D01*
X233750Y48559D01*
X225075D01*
X224474Y48588D01*
X223221Y48837D01*
X222112Y49297D01*
X221113Y49964D01*
X220264Y50813D01*
X219597Y51812D01*
X219137Y52921D01*
X218888Y54173D01*
X218859Y54775D01*
X218859Y66134D01*
X218859Y67526D01*
X218800Y67821D01*
X218800Y68122D01*
X218257Y70852D01*
X218142Y71131D01*
X218083Y71426D01*
X217018Y73998D01*
X216850Y74248D01*
X216735Y74527D01*
X215189Y76841D01*
X214976Y77054D01*
X214808Y77305D01*
X212840Y79273D01*
X212590Y79440D01*
X212377Y79654D01*
X212124Y79822D01*
X212493Y81037D01*
X217404D01*
D02*
G37*
G36*
X298238Y47206D02*
X299237Y46206D01*
X299237Y37202D01*
X299224Y36984D01*
X299091Y36471D01*
X298881Y36093D01*
X298516Y35709D01*
X298338Y35582D01*
X297183Y34862D01*
X296826Y34527D01*
X296446Y34218D01*
X295471Y33042D01*
X295198Y32768D01*
X295090Y32582D01*
X294585Y31972D01*
X294352Y31541D01*
X294089Y31128D01*
X293755Y30268D01*
X293618Y30032D01*
X293519Y29662D01*
X293032Y28410D01*
X292947Y27927D01*
X292828Y27453D01*
X292805Y27000D01*
X292800Y26980D01*
X292764Y26951D01*
X291494Y27556D01*
Y32600D01*
X291121Y34473D01*
X290061Y36061D01*
X288473Y37122D01*
X286600Y37494D01*
X272200D01*
X270327Y37122D01*
X268739Y36061D01*
X267679Y34473D01*
X267306Y32600D01*
Y18200D01*
X267654Y16452D01*
X267591Y16106D01*
X267097Y15182D01*
X249272D01*
X248294Y15230D01*
X246303Y15625D01*
X244496Y16373D01*
X242808Y17499D01*
X242134Y18109D01*
X241547Y18757D01*
X240458Y20386D01*
X239737Y22126D01*
X239355Y24048D01*
X239309Y24991D01*
X239308Y42999D01*
X239309Y43496D01*
X239309Y43496D01*
X239309Y43497D01*
X239182Y44133D01*
X239076Y44667D01*
X239076Y44667D01*
X239076Y44667D01*
X238696Y45586D01*
X238695Y45586D01*
X238695Y45586D01*
X238462Y45936D01*
X238531Y46239D01*
X239141Y47206D01*
X247212D01*
X298238Y47206D01*
D02*
G37*
G36*
X360910Y47206D02*
X361689Y47168D01*
X363290Y46849D01*
X364728Y46253D01*
X366022Y45389D01*
X367123Y44288D01*
X367988Y42993D01*
X368584Y41555D01*
X368902Y39955D01*
X368941Y39150D01*
Y24215D01*
X369000Y23919D01*
Y23820D01*
X369026Y23724D01*
X369045Y23423D01*
X369659Y21135D01*
X369792Y20864D01*
X369818Y20768D01*
X369868Y20682D01*
X369964Y20397D01*
X371149Y18345D01*
X371348Y18118D01*
X371398Y18032D01*
X371468Y17962D01*
X371635Y17711D01*
X372894Y16452D01*
X372368Y15182D01*
X364148D01*
X363622Y16452D01*
X365202Y18032D01*
X366782Y20768D01*
X367600Y23820D01*
Y26980D01*
X366782Y30032D01*
X365202Y32768D01*
X362968Y35002D01*
X360232Y36582D01*
X357180Y37400D01*
X354020D01*
X350968Y36582D01*
X348232Y35002D01*
X345998Y32768D01*
X344418Y30032D01*
X343600Y26980D01*
Y23820D01*
X344418Y20768D01*
X345998Y18032D01*
X347578Y16452D01*
X347052Y15182D01*
X338749D01*
X338222Y16452D01*
X339802Y18032D01*
X341382Y20768D01*
X342200Y23820D01*
Y26980D01*
X341382Y30032D01*
X339802Y32768D01*
X337568Y35002D01*
X334832Y36582D01*
X331780Y37400D01*
X328620D01*
X325568Y36582D01*
X322832Y35002D01*
X320598Y32768D01*
X319018Y30032D01*
X318200Y26980D01*
Y23820D01*
X319018Y20768D01*
X320598Y18032D01*
X322178Y16452D01*
X321651Y15182D01*
X313411D01*
X312998Y16452D01*
X313072Y16505D01*
X313404Y16865D01*
X313761Y17200D01*
X314239Y17868D01*
X314402Y18032D01*
X314598Y18371D01*
X315457Y19573D01*
X315659Y20019D01*
X315892Y20450D01*
X316752Y23237D01*
X316803Y23724D01*
X316887Y24206D01*
X316824Y27122D01*
X316718Y27600D01*
X316646Y28084D01*
X316078Y29672D01*
X315982Y30032D01*
X315898Y30178D01*
X315664Y30831D01*
X315413Y31251D01*
X315192Y31688D01*
X314561Y32494D01*
X314402Y32768D01*
X314142Y33029D01*
X313393Y33984D01*
X313022Y34303D01*
X312674Y34648D01*
X312224Y34946D01*
X312168Y35002D01*
X311945Y35131D01*
X311538Y35401D01*
X311297Y35582D01*
X310832Y36093D01*
X310550Y36618D01*
X310381Y37288D01*
X310363Y37588D01*
Y46062D01*
X311507Y47206D01*
X360910Y47206D01*
D02*
G37*
G36*
X118500Y99000D02*
X118500Y99000D01*
X119594Y99000D01*
X121615Y98163D01*
X123163Y96616D01*
X124000Y94594D01*
X124000Y93500D01*
X124000Y72250D01*
X124076Y70706D01*
X124678Y67678D01*
X125860Y64826D01*
X127575Y62258D01*
X129758Y60075D01*
X132325Y58360D01*
X135178Y57178D01*
X138206Y56576D01*
X139750Y56500D01*
X149021D01*
X149021Y56500D01*
X150618Y56500D01*
X153749Y55877D01*
X156699Y54655D01*
X159353Y52881D01*
X160482Y51753D01*
X164840Y47395D01*
X164840Y47394D01*
X165310Y46968D01*
X166365Y46264D01*
X167536Y45778D01*
X168780Y45531D01*
X169414Y45500D01*
X188750D01*
X188750Y45500D01*
X189744Y45500D01*
X191582Y44739D01*
X192989Y43332D01*
X193750Y41494D01*
X193750Y40500D01*
X193750Y14450D01*
X193750Y14450D01*
X193750Y14161D01*
X193529Y13628D01*
X193121Y13220D01*
X192588Y13000D01*
X192300Y13000D01*
X172802D01*
X171541Y13000D01*
X169068Y13492D01*
X166738Y14457D01*
X164641Y15858D01*
X162858Y17641D01*
X161457Y19738D01*
X160492Y22068D01*
X160000Y24541D01*
X160000Y25802D01*
X160000Y25802D01*
X159905Y27733D01*
X159152Y31520D01*
X157674Y35088D01*
X155529Y38298D01*
X152799Y41029D01*
X149588Y43174D01*
X146020Y44652D01*
X142233Y45405D01*
X140302Y45500D01*
X116118Y45500D01*
X116118D01*
X114728Y45500D01*
X112000Y46042D01*
X109431Y47106D01*
X107118Y48651D01*
X105152Y50618D01*
X103607Y52930D01*
X102542Y55500D01*
X102000Y58227D01*
X102000Y59618D01*
X102000Y93500D01*
Y94594D01*
X102837Y96615D01*
X104384Y98163D01*
X106406Y99000D01*
X107500D01*
X118500Y99000D01*
D02*
G37*
G36*
X195327Y47206D02*
X195708Y47187D01*
X196527Y47024D01*
X197229Y46734D01*
X197860Y46312D01*
X198397Y45775D01*
X198819Y45144D01*
X199110Y44442D01*
X199272Y43623D01*
X199291Y43239D01*
Y14456D01*
X199439Y13712D01*
X199524Y13285D01*
X199801Y12617D01*
X200464Y11625D01*
X200975Y11114D01*
X201967Y10451D01*
X202635Y10174D01*
X203806Y9941D01*
X227668Y9941D01*
X228277Y9911D01*
X229545Y9659D01*
X230669Y9193D01*
X231744Y8475D01*
X232199Y8063D01*
X233611Y6651D01*
X233862Y6484D01*
X234075Y6271D01*
X235538Y5294D01*
X235169Y4078D01*
X142335D01*
X141637Y5348D01*
X141670Y5400D01*
X141874Y5441D01*
X143636Y5614D01*
X145329Y6128D01*
X145534Y6169D01*
X145726Y6248D01*
X147420Y6762D01*
X148981Y7596D01*
X149173Y7676D01*
X149347Y7792D01*
X150908Y8626D01*
X152276Y9749D01*
X152449Y9865D01*
X152597Y10013D01*
X153965Y11135D01*
X155087Y12503D01*
X155235Y12651D01*
X155351Y12824D01*
X156474Y14192D01*
X157308Y15753D01*
X157424Y15926D01*
X157503Y16119D01*
X158021Y17088D01*
X159470Y17206D01*
X160315Y15942D01*
X160528Y15729D01*
X160695Y15478D01*
X162478Y13695D01*
X162729Y13528D01*
X162942Y13315D01*
X165039Y11914D01*
X165317Y11798D01*
X165567Y11631D01*
X167897Y10666D01*
X168193Y10607D01*
X168471Y10492D01*
X170944Y10000D01*
X171246Y10000D01*
X171541Y9941D01*
X172802Y9941D01*
X192297D01*
X192586Y9941D01*
X192586Y9941D01*
X192587Y9941D01*
X193162Y10055D01*
X193756Y10173D01*
X193757Y10173D01*
X193758Y10173D01*
X194291Y10394D01*
X194291Y10394D01*
X194292Y10394D01*
X194799Y10733D01*
X195284Y11057D01*
X195284Y11057D01*
X195284Y11057D01*
X195692Y11465D01*
X195693Y11466D01*
X195693Y11466D01*
X196028Y11967D01*
X196355Y12458D01*
X196355Y12458D01*
X196356Y12459D01*
X196576Y12992D01*
X196576Y12993D01*
X196577Y12993D01*
X196690Y13565D01*
X196809Y14162D01*
X196809Y14163D01*
X196809Y14164D01*
X196808Y14449D01*
X196809Y14450D01*
X196809Y40500D01*
X196809Y41494D01*
X196809Y41494D01*
X196809Y41494D01*
X196716Y41960D01*
X196576Y42665D01*
X196576Y42665D01*
X195815Y44503D01*
X195815Y44503D01*
X195815Y44503D01*
X195512Y44956D01*
X195152Y45495D01*
X195152Y45495D01*
X195152Y45495D01*
X194711Y45936D01*
X195237Y47206D01*
X195327D01*
D02*
G37*
G36*
X166903Y80265D02*
X201669Y80265D01*
X201669Y80265D01*
X203061Y80265D01*
X205791Y79722D01*
X208363Y78657D01*
X210677Y77110D01*
X212645Y75142D01*
X214192Y72828D01*
X215257Y70256D01*
X215800Y67526D01*
X215800Y66134D01*
X215800Y54700D01*
Y54700D01*
X215844Y53798D01*
X216196Y52029D01*
X216886Y50363D01*
X217888Y48863D01*
X219163Y47588D01*
X220663Y46586D01*
X222329Y45896D01*
X224098Y45544D01*
X225000Y45500D01*
X233750D01*
X233750Y45500D01*
X234247Y45500D01*
X235166Y45119D01*
X235869Y44416D01*
X236250Y43497D01*
X236250Y43000D01*
X236250Y24916D01*
Y24916D01*
X236311Y23673D01*
X236796Y21234D01*
X237748Y18937D01*
X239129Y16870D01*
X239965Y15947D01*
X239974Y15939D01*
X239974Y15939D01*
X240923Y15080D01*
X243049Y13661D01*
X245412Y12684D01*
X247919Y12186D01*
X249197Y12123D01*
X441482D01*
X442140Y12155D01*
X443432Y12412D01*
X444649Y12916D01*
X445744Y13648D01*
X446675Y14579D01*
X447407Y15674D01*
X447911Y16891D01*
X448168Y18183D01*
X448200Y18841D01*
X448200Y25400D01*
X448200Y26585D01*
X448813Y28874D01*
X449998Y30926D01*
X451674Y32602D01*
X453726Y33787D01*
X456015Y34400D01*
X458385Y34400D01*
X460674Y33787D01*
X462726Y32602D01*
X464402Y30926D01*
X465587Y28874D01*
X466200Y26585D01*
Y25400D01*
X466200Y14200D01*
X466200Y14200D01*
X466200Y13207D01*
X465812Y11258D01*
X465052Y9423D01*
X463949Y7771D01*
X462544Y6367D01*
X460892Y5263D01*
X459057Y4503D01*
X457109Y4115D01*
X249197D01*
X247123Y4115D01*
X243055Y4924D01*
X239223Y6511D01*
X235773Y8815D01*
X234307Y10281D01*
X234306Y10281D01*
X233631Y10892D01*
X232118Y11904D01*
X230437Y12600D01*
X228652Y12955D01*
X227743Y13000D01*
X204167Y13000D01*
X203806D01*
X203138Y13277D01*
X202627Y13788D01*
X202350Y14456D01*
Y14817D01*
Y43317D01*
X202350Y43317D01*
X202316Y43998D01*
X202051Y45334D01*
X201530Y46592D01*
X200773Y47725D01*
X199810Y48688D01*
X198678Y49444D01*
X197419Y49966D01*
X196083Y50231D01*
X195403Y50265D01*
X175929Y50265D01*
X166903D01*
X166604Y50265D01*
X166053Y50493D01*
X165631Y50915D01*
X165403Y51466D01*
X165403Y51765D01*
Y78765D01*
X165402Y79063D01*
X165631Y79615D01*
X166053Y80037D01*
X166604Y80265D01*
X166903Y80265D01*
D02*
G37*
%LPC*%
G36*
X38096Y481862D02*
X17096D01*
X15535Y481552D01*
X14212Y480668D01*
X13328Y479345D01*
X13018Y477784D01*
Y465784D01*
X13328Y464223D01*
X14212Y462900D01*
X15535Y462016D01*
X17096Y461706D01*
X38096D01*
X39657Y462016D01*
X40980Y462900D01*
X41864Y464223D01*
X42174Y465784D01*
Y477784D01*
X41864Y479345D01*
X40980Y480668D01*
X39657Y481552D01*
X38096Y481862D01*
D02*
G37*
G36*
X156347Y449269D02*
X156020Y449204D01*
X155101D01*
X154252Y448852D01*
X154006Y448803D01*
X153798Y448664D01*
X152896Y448291D01*
X152206Y447600D01*
X152022Y447477D01*
X151898Y447293D01*
X151208Y446603D01*
X150835Y445701D01*
X150695Y445493D01*
X150647Y445247D01*
X150295Y444398D01*
Y443478D01*
X150230Y443152D01*
Y440066D01*
X149545Y439041D01*
X149460Y438614D01*
X147435D01*
X147350Y439041D01*
X146599Y440165D01*
X145474Y440917D01*
X144147Y441181D01*
X136947D01*
X135621Y440917D01*
X134496Y440165D01*
X133745Y439041D01*
X133481Y437714D01*
Y433041D01*
X131545Y430517D01*
X130276Y427456D01*
X129844Y424171D01*
X129865D01*
Y417383D01*
X129860Y417379D01*
X129141Y416305D01*
X128889Y415036D01*
Y396836D01*
X129141Y395568D01*
X129860Y394493D01*
X130935Y393775D01*
X132203Y393523D01*
X136703D01*
X137971Y393775D01*
X139046Y394493D01*
X139764Y395568D01*
X140016Y396836D01*
Y415036D01*
X139764Y416305D01*
X139046Y417379D01*
X139041Y417383D01*
Y424171D01*
X139026Y424244D01*
X139280Y425520D01*
X139633Y426048D01*
X144147D01*
X145474Y426312D01*
X146599Y427063D01*
X147350Y428188D01*
X147435Y428614D01*
X149460D01*
X149545Y428188D01*
X150296Y427063D01*
X151421Y426312D01*
X152747Y426048D01*
X159947D01*
X161274Y426312D01*
X162399Y427063D01*
X163150Y428188D01*
X163414Y429514D01*
Y437714D01*
X163150Y439041D01*
X162465Y440066D01*
Y443152D01*
X162295Y444007D01*
Y444398D01*
X162145Y444759D01*
X161999Y445493D01*
X161583Y446115D01*
X161381Y446603D01*
X161008Y446976D01*
X160673Y447477D01*
X160172Y447812D01*
X159694Y448291D01*
X159068Y448549D01*
X158688Y448803D01*
X158240Y448893D01*
X157488Y449204D01*
X156674D01*
X156347Y449269D01*
D02*
G37*
G36*
X26250Y423368D02*
X16750D01*
X16674Y423358D01*
X16670Y423359D01*
X16421Y423352D01*
X16342Y423334D01*
X16261Y423344D01*
X16013Y423324D01*
X15935Y423302D01*
X15854Y423308D01*
X15608Y423275D01*
X15531Y423249D01*
X15450Y423250D01*
X15205Y423205D01*
X15129Y423175D01*
X15048Y423172D01*
X14806Y423113D01*
X14802Y423111D01*
X14727Y423102D01*
X14656Y423072D01*
X14652Y423072D01*
X14413Y423001D01*
X14342Y422964D01*
X14261Y422952D01*
X14027Y422869D01*
X13957Y422827D01*
X13877Y422811D01*
X13647Y422716D01*
X13580Y422671D01*
X13501Y422651D01*
X13277Y422544D01*
X13211Y422495D01*
X13134Y422471D01*
X12915Y422352D01*
X12912Y422350D01*
X12842Y422321D01*
X12781Y422274D01*
X12777Y422273D01*
X12565Y422143D01*
X12505Y422088D01*
X12430Y422055D01*
X12225Y421914D01*
X12169Y421856D01*
X12096Y421821D01*
X11899Y421669D01*
X11845Y421608D01*
X11774Y421568D01*
X11585Y421407D01*
X11535Y421343D01*
X11466Y421300D01*
X11286Y421129D01*
X11283Y421125D01*
X11223Y421078D01*
X11176Y421018D01*
X11173Y421016D01*
X11001Y420835D01*
X10958Y420766D01*
X10894Y420716D01*
X10733Y420527D01*
X10693Y420456D01*
X10632Y420402D01*
X10480Y420205D01*
X10445Y420132D01*
X10387Y420076D01*
X10246Y419871D01*
X10213Y419796D01*
X10158Y419736D01*
X10028Y419524D01*
X10027Y419520D01*
X9980Y419459D01*
X9951Y419389D01*
X9948Y419386D01*
X9830Y419167D01*
X9805Y419090D01*
X9757Y419024D01*
X9650Y418800D01*
X9630Y418721D01*
X9585Y418654D01*
X9489Y418424D01*
X9474Y418344D01*
X9432Y418274D01*
X9349Y418040D01*
X9337Y417960D01*
X9300Y417888D01*
X9229Y417649D01*
X9229Y417645D01*
X9199Y417574D01*
X9190Y417499D01*
X9187Y417494D01*
X9129Y417253D01*
X9126Y417171D01*
X9096Y417096D01*
X9051Y416851D01*
X9052Y416770D01*
X9026Y416693D01*
X8993Y416447D01*
X8999Y416366D01*
X8977Y416287D01*
X8957Y416040D01*
X8967Y415959D01*
X8949Y415880D01*
X8942Y415631D01*
X8943Y415626D01*
X8933Y415551D01*
X8941Y415490D01*
Y403551D01*
X9174Y402380D01*
X9837Y401388D01*
X10829Y400725D01*
X12000Y400492D01*
X27240D01*
X27365Y399222D01*
X27268Y399203D01*
X26767Y398868D01*
X26210Y398638D01*
X25784Y398212D01*
X25283Y397877D01*
X24948Y397376D01*
X24522Y396950D01*
X24292Y396393D01*
X23957Y395892D01*
X23839Y395301D01*
X23609Y394744D01*
Y394142D01*
X23491Y393551D01*
X23609Y392960D01*
Y392358D01*
X23839Y391801D01*
X23957Y391210D01*
X24292Y390709D01*
X24522Y390152D01*
X24948Y389726D01*
X25283Y389225D01*
X25784Y388891D01*
X26210Y388465D01*
X26767Y388234D01*
X27268Y387899D01*
X27859Y387782D01*
X28415Y387551D01*
X29018D01*
X29609Y387434D01*
X35526D01*
X36117Y387551D01*
X36720D01*
X37276Y387782D01*
X37673Y387861D01*
X38277Y387591D01*
X38943Y387091D01*
Y385451D01*
X39168Y384319D01*
X39515Y383801D01*
X39168Y383283D01*
X38943Y382151D01*
Y378951D01*
X39168Y377820D01*
X39515Y377301D01*
X39168Y376783D01*
X38943Y375651D01*
Y372451D01*
X39168Y371320D01*
X39809Y370360D01*
X40768Y369719D01*
X41900Y369494D01*
X54600D01*
X55732Y369719D01*
X56691Y370360D01*
X57332Y371320D01*
X57557Y372451D01*
Y375651D01*
X58022Y376218D01*
X59652D01*
Y376214D01*
X62281Y376560D01*
X64731Y377575D01*
X66835Y379190D01*
X68450Y381293D01*
X69465Y383744D01*
X69591Y384706D01*
X70730Y385268D01*
X71776Y384664D01*
X74065Y384051D01*
X76435D01*
X77765Y384408D01*
X78953Y383220D01*
X78952Y383219D01*
X79890Y382418D01*
X79891Y382417D01*
X82226Y380423D01*
X85897Y378173D01*
X87521Y377501D01*
X87621Y377304D01*
X87662Y376068D01*
X87607Y376031D01*
X87522Y375946D01*
X87422Y375879D01*
X87355Y375779D01*
X87270Y375694D01*
X86607Y374701D01*
X86560Y374590D01*
X86494Y374490D01*
X86470Y374372D01*
X86424Y374260D01*
X86424Y374260D01*
X86424Y374260D01*
X86313Y373699D01*
X86191Y373090D01*
X86191Y373089D01*
X86191Y373089D01*
X86191Y372969D01*
X86168Y372851D01*
Y363251D01*
X86191Y363133D01*
X86191Y295575D01*
X86155Y294836D01*
X85852Y293314D01*
X85287Y291949D01*
X84467Y290721D01*
X83423Y289678D01*
X82195Y288857D01*
X80831Y288292D01*
X79308Y287989D01*
X78569Y287953D01*
X41451Y287953D01*
X41212Y287953D01*
X41212Y287953D01*
X41211Y287953D01*
X40621Y287836D01*
X40042Y287721D01*
X40041Y287720D01*
X40041Y287720D01*
X39600Y287538D01*
X39599Y287537D01*
X39599Y287537D01*
X39124Y287220D01*
X38607Y286875D01*
X38607Y286874D01*
X38607Y286874D01*
X38269Y286537D01*
X38269Y286536D01*
X38269Y286536D01*
X37940Y286043D01*
X37606Y285544D01*
X37606Y285544D01*
X37606Y285544D01*
X37424Y285103D01*
X37424Y285102D01*
X37423Y285102D01*
X37310Y284529D01*
X37191Y283932D01*
X37191Y283932D01*
X37191Y283932D01*
X37191Y283693D01*
Y274095D01*
X37191Y273856D01*
X37191Y273856D01*
X37191Y273856D01*
X37323Y273191D01*
X37424Y272686D01*
X37424Y272686D01*
X37424Y272685D01*
X37606Y272244D01*
X37607Y272244D01*
Y272244D01*
X37858Y271868D01*
X38269Y271252D01*
X38270Y271252D01*
X38270Y271252D01*
X38607Y270914D01*
X39599Y270251D01*
X40040Y270068D01*
X40041Y270068D01*
X40041Y270068D01*
X40610Y269955D01*
X41038Y269870D01*
X41070Y269859D01*
X41071Y269859D01*
X41087Y269860D01*
X41211Y269835D01*
X41211Y269835D01*
X41211Y269835D01*
X41450Y269835D01*
X41450Y269835D01*
X85097D01*
X85393Y269894D01*
X85694D01*
X89156Y270583D01*
X89434Y270698D01*
X89729Y270757D01*
X92990Y272108D01*
X93241Y272275D01*
X93519Y272390D01*
X96454Y274351D01*
X96667Y274564D01*
X96917Y274731D01*
X99413Y277227D01*
X99580Y277477D01*
X99793Y277691D01*
X101754Y280625D01*
X101869Y280903D01*
X102037Y281154D01*
X103387Y284415D01*
X103446Y284710D01*
X103561Y284989D01*
X104250Y288450D01*
Y288751D01*
X104309Y289047D01*
X104309Y290811D01*
X104309Y290812D01*
X104309Y363133D01*
X104332Y363251D01*
Y372851D01*
X104309Y372969D01*
X104309Y373089D01*
X104309Y373090D01*
X104309Y373090D01*
X104186Y373708D01*
X104145Y373914D01*
X104753Y374980D01*
X105051Y375175D01*
X105068Y375184D01*
X141934D01*
X142523Y373914D01*
X142492Y373868D01*
X142066Y373442D01*
X141835Y372886D01*
X141501Y372385D01*
X141383Y371794D01*
X141153Y371237D01*
Y370635D01*
X141035Y370044D01*
Y356436D01*
X141501Y354095D01*
X141589Y353963D01*
Y347336D01*
X141841Y346068D01*
X142559Y344993D01*
X143635Y344275D01*
X144903Y344023D01*
X149403D01*
X150671Y344275D01*
X151746Y344993D01*
X152464Y346068D01*
X152716Y347336D01*
Y352975D01*
X153986Y353468D01*
X154289Y353138D01*
Y347336D01*
X154541Y346068D01*
X155260Y344993D01*
X156334Y344275D01*
X157603Y344023D01*
X162103D01*
X163371Y344275D01*
X164446Y344993D01*
X165164Y346068D01*
X165416Y347336D01*
Y353963D01*
X165504Y354095D01*
X165719Y355174D01*
X166989Y355048D01*
Y347336D01*
X167241Y346068D01*
X167915Y345061D01*
Y332469D01*
X167400Y332366D01*
X166262Y331606D01*
X165502Y330468D01*
X165320Y329555D01*
X163317D01*
X163150Y330393D01*
X162399Y331518D01*
X161274Y332269D01*
X159947Y332533D01*
X152747D01*
X151421Y332269D01*
X150296Y331518D01*
X149545Y330393D01*
X149460Y329967D01*
X147435D01*
X147350Y330393D01*
X146599Y331518D01*
X145474Y332269D01*
X144147Y332533D01*
X136947D01*
X135621Y332269D01*
X134496Y331518D01*
X133745Y330393D01*
X133481Y329067D01*
Y320867D01*
X133745Y319540D01*
X134496Y318415D01*
X135058Y318040D01*
X134500Y316693D01*
Y314307D01*
X135413Y312101D01*
X137101Y310413D01*
X139306Y309500D01*
X141693D01*
X143899Y310413D01*
X145587Y312101D01*
X146500Y314307D01*
Y316693D01*
X145963Y317990D01*
X146599Y318415D01*
X147350Y319540D01*
X147435Y319967D01*
X149460D01*
X149545Y319540D01*
X150296Y318415D01*
X151421Y317664D01*
X152747Y317400D01*
X159947D01*
X161274Y317664D01*
X162399Y318415D01*
X163150Y319540D01*
X163317Y320378D01*
X165320D01*
X165502Y319464D01*
X166262Y318326D01*
X167400Y317566D01*
X168743Y317299D01*
X176263D01*
X177605Y317566D01*
X178743Y318326D01*
X179503Y319464D01*
X179583Y319866D01*
X183603Y319866D01*
Y330066D01*
X179583Y330066D01*
X179503Y330468D01*
X178743Y331606D01*
X177605Y332366D01*
X177091Y332469D01*
Y344957D01*
X177146Y344993D01*
X177864Y346068D01*
X178116Y347336D01*
Y365536D01*
X177864Y366805D01*
X177146Y367879D01*
X176071Y368598D01*
X174803Y368850D01*
X170303D01*
X169035Y368598D01*
X167959Y367879D01*
X167241Y366805D01*
X167240Y366799D01*
X165970Y366924D01*
Y370044D01*
X165853Y370635D01*
Y371237D01*
X165622Y371794D01*
X165504Y372385D01*
X165170Y372886D01*
X164939Y373442D01*
X164513Y373868D01*
X164483Y373914D01*
X165071Y375184D01*
X182964D01*
X183590Y373914D01*
X182370Y372324D01*
X181281Y369695D01*
X181079Y368160D01*
X180660Y367879D01*
X179941Y366805D01*
X179689Y365536D01*
Y347336D01*
X179941Y346068D01*
X180660Y344993D01*
X181735Y344275D01*
X183003Y344023D01*
X187503D01*
X188771Y344275D01*
X189846Y344993D01*
X190564Y346068D01*
X190816Y347336D01*
Y365536D01*
X190564Y366805D01*
X190295Y367208D01*
X190238Y368446D01*
X191083Y369292D01*
X191086Y369295D01*
X191101Y369316D01*
X192014Y369543D01*
X192527D01*
X192890Y369071D01*
X193173Y368353D01*
X193069Y367444D01*
X192641Y366805D01*
X192389Y365536D01*
Y347336D01*
X192641Y346068D01*
X193360Y344993D01*
X194435Y344275D01*
X195703Y344023D01*
X200203D01*
X201471Y344275D01*
X202546Y344993D01*
X203264Y346068D01*
X203516Y347336D01*
Y365536D01*
X203264Y366805D01*
X202546Y367879D01*
X202234Y368088D01*
X201946Y370275D01*
X200940Y372704D01*
X200080Y373824D01*
X199347Y374780D01*
X199340Y374789D01*
X198928Y375888D01*
Y379210D01*
X198932D01*
X198586Y381835D01*
X197572Y384282D01*
X195960Y386383D01*
X193859Y387995D01*
X191413Y389008D01*
X188787Y389354D01*
Y389351D01*
X108809D01*
X108708Y389330D01*
X106469Y389625D01*
X104289Y390528D01*
X103959Y390781D01*
X104250Y391866D01*
Y394236D01*
X103637Y396525D01*
X102452Y398577D01*
X100776Y400253D01*
X99583Y400942D01*
Y402171D01*
X99617D01*
X99152Y405699D01*
X97790Y408987D01*
X95624Y411810D01*
X92801Y413977D01*
X89513Y415339D01*
X85984Y415803D01*
Y415770D01*
X67752D01*
Y415790D01*
X64612Y415377D01*
X61686Y414165D01*
X59173Y412237D01*
X57245Y409724D01*
X57154Y409504D01*
X55851Y409676D01*
X55807Y410009D01*
X55051Y411833D01*
X53849Y413400D01*
X52282Y414602D01*
X50458Y415358D01*
X48500Y415616D01*
X46542Y415358D01*
X44718Y414602D01*
X43151Y413400D01*
X41949Y411833D01*
X41193Y410009D01*
X40935Y408051D01*
Y403051D01*
X41193Y401093D01*
X41891Y399409D01*
X41502Y398362D01*
X41392Y398139D01*
X39459D01*
X39351Y398212D01*
X38925Y398638D01*
X38368Y398868D01*
X37867Y399203D01*
X37276Y399320D01*
X36720Y399551D01*
X36117D01*
X35526Y399669D01*
X32873D01*
X32490Y400939D01*
X33163Y401388D01*
X33826Y402380D01*
X34059Y403551D01*
Y415490D01*
X34067Y415551D01*
X34057Y415627D01*
X34058Y415631D01*
X34051Y415880D01*
X34033Y415959D01*
X34043Y416040D01*
X34023Y416287D01*
X34001Y416366D01*
X34007Y416447D01*
X33974Y416693D01*
X33948Y416770D01*
X33949Y416851D01*
X33904Y417096D01*
X33874Y417171D01*
X33870Y417253D01*
X33812Y417494D01*
X33810Y417499D01*
X33800Y417574D01*
X33771Y417645D01*
X33771Y417649D01*
X33700Y417888D01*
X33662Y417960D01*
X33651Y418040D01*
X33568Y418274D01*
X33526Y418344D01*
X33510Y418424D01*
X33415Y418654D01*
X33370Y418721D01*
X33350Y418800D01*
X33243Y419024D01*
X33194Y419090D01*
X33170Y419167D01*
X33052Y419386D01*
X33049Y419389D01*
X33019Y419459D01*
X32973Y419520D01*
X32972Y419524D01*
X32842Y419736D01*
X32787Y419796D01*
X32754Y419871D01*
X32613Y420076D01*
X32555Y420132D01*
X32520Y420205D01*
X32368Y420402D01*
X32307Y420456D01*
X32267Y420527D01*
X32106Y420716D01*
X32042Y420766D01*
X31998Y420835D01*
X31827Y421016D01*
X31824Y421018D01*
X31777Y421078D01*
X31717Y421125D01*
X31714Y421129D01*
X31534Y421300D01*
X31465Y421343D01*
X31415Y421407D01*
X31226Y421568D01*
X31155Y421608D01*
X31101Y421669D01*
X30904Y421821D01*
X30831Y421856D01*
X30775Y421914D01*
X30570Y422055D01*
X30495Y422088D01*
X30435Y422143D01*
X30223Y422273D01*
X30219Y422274D01*
X30158Y422321D01*
X30088Y422350D01*
X30085Y422352D01*
X29866Y422471D01*
X29788Y422495D01*
X29723Y422544D01*
X29499Y422651D01*
X29420Y422671D01*
X29353Y422716D01*
X29123Y422811D01*
X29043Y422827D01*
X28973Y422869D01*
X28738Y422952D01*
X28658Y422964D01*
X28587Y423001D01*
X28348Y423072D01*
X28344Y423072D01*
X28273Y423102D01*
X28198Y423111D01*
X28194Y423113D01*
X27952Y423171D01*
X27871Y423175D01*
X27795Y423205D01*
X27550Y423250D01*
X27469Y423249D01*
X27392Y423275D01*
X27146Y423308D01*
X27065Y423302D01*
X26986Y423324D01*
X26739Y423344D01*
X26658Y423334D01*
X26579Y423352D01*
X26330Y423359D01*
X26326Y423358D01*
X26250Y423368D01*
D02*
G37*
G36*
X50178Y460331D02*
X46322D01*
X42539Y459579D01*
X38975Y458103D01*
X35768Y455960D01*
X33041Y453233D01*
X30898Y450026D01*
X29422Y446462D01*
X28670Y442679D01*
Y438823D01*
X29422Y435040D01*
X30898Y431476D01*
X33041Y428270D01*
X35768Y425542D01*
X38975Y423400D01*
X42539Y421923D01*
X46322Y421171D01*
X50178D01*
X53961Y421923D01*
X57525Y423400D01*
X60732Y425542D01*
X63459Y428270D01*
X65602Y431476D01*
X67077Y435040D01*
X67830Y438823D01*
Y442679D01*
X67077Y446462D01*
X65602Y450026D01*
X63459Y453233D01*
X60732Y455960D01*
X57525Y458103D01*
X53961Y459579D01*
X50178Y460331D01*
D02*
G37*
G36*
X225603Y418350D02*
X221103D01*
X219835Y418098D01*
X218759Y417379D01*
X218041Y416305D01*
X217789Y415036D01*
Y396836D01*
X218041Y395568D01*
X218759Y394493D01*
X219835Y393775D01*
X221103Y393523D01*
X225603D01*
X226871Y393775D01*
X227946Y394493D01*
X228664Y395568D01*
X228916Y396836D01*
Y415036D01*
X228664Y416305D01*
X227946Y417379D01*
X226871Y418098D01*
X225603Y418350D01*
D02*
G37*
G36*
X200203D02*
X195703D01*
X194435Y418098D01*
X193360Y417379D01*
X192641Y416305D01*
X192389Y415036D01*
Y396836D01*
X192641Y395568D01*
X193360Y394493D01*
X194435Y393775D01*
X195703Y393523D01*
X200203D01*
X201471Y393775D01*
X202546Y394493D01*
X203264Y395568D01*
X203516Y396836D01*
Y415036D01*
X203264Y416305D01*
X202546Y417379D01*
X201471Y418098D01*
X200203Y418350D01*
D02*
G37*
G36*
X187503D02*
X183003D01*
X181735Y418098D01*
X180660Y417379D01*
X179941Y416305D01*
X179689Y415036D01*
Y396836D01*
X179941Y395568D01*
X180660Y394493D01*
X181735Y393775D01*
X183003Y393523D01*
X187503D01*
X188771Y393775D01*
X189846Y394493D01*
X190564Y395568D01*
X190816Y396836D01*
Y415036D01*
X190564Y416305D01*
X189846Y417379D01*
X188771Y418098D01*
X187503Y418350D01*
D02*
G37*
G36*
X174803D02*
X170303D01*
X169035Y418098D01*
X167959Y417379D01*
X167241Y416305D01*
X166989Y415036D01*
Y396836D01*
X167241Y395568D01*
X167959Y394493D01*
X169035Y393775D01*
X170303Y393523D01*
X174803D01*
X176071Y393775D01*
X177146Y394493D01*
X177864Y395568D01*
X178116Y396836D01*
Y415036D01*
X177864Y416305D01*
X177146Y417379D01*
X176071Y418098D01*
X174803Y418350D01*
D02*
G37*
G36*
X162103D02*
X157603D01*
X156335Y418098D01*
X155260Y417379D01*
X154541Y416305D01*
X154289Y415036D01*
Y396836D01*
X154541Y395568D01*
X155260Y394493D01*
X156335Y393775D01*
X157603Y393523D01*
X162103D01*
X163371Y393775D01*
X164446Y394493D01*
X165164Y395568D01*
X165416Y396836D01*
Y415036D01*
X165164Y416305D01*
X164446Y417379D01*
X163371Y418098D01*
X162103Y418350D01*
D02*
G37*
G36*
X122096Y481862D02*
X101096D01*
X99535Y481552D01*
X98212Y480668D01*
X97328Y479345D01*
X97018Y477784D01*
Y465784D01*
X97328Y464223D01*
X98212Y462900D01*
X99535Y462016D01*
X101096Y461706D01*
X122096D01*
X123657Y462016D01*
X124980Y462900D01*
X125864Y464223D01*
X126174Y465784D01*
Y467196D01*
X160054D01*
X160140Y467213D01*
X162096Y466956D01*
X163998Y466167D01*
X165632Y464914D01*
X166886Y463280D01*
X167674Y461377D01*
X167932Y459422D01*
X167914Y459335D01*
Y447104D01*
X167790Y446917D01*
X167363Y446491D01*
X167133Y445934D01*
X166798Y445433D01*
X166681Y444842D01*
X166450Y444286D01*
Y443683D01*
X166332Y443092D01*
X166385Y442828D01*
Y440224D01*
X166262Y440143D01*
X165502Y439005D01*
X165235Y437662D01*
Y429342D01*
X165502Y428000D01*
X166262Y426862D01*
X167400Y426102D01*
X168743Y425835D01*
X176263D01*
X177605Y426102D01*
X178743Y426862D01*
X179503Y428000D01*
X179583Y428402D01*
X181222D01*
X181302Y428000D01*
X182062Y426862D01*
X183200Y426102D01*
X184543Y425835D01*
X192063D01*
X193405Y426102D01*
X194543Y426862D01*
X195303Y428000D01*
X195485Y428914D01*
X200203D01*
X200392Y428952D01*
X202475Y428537D01*
X204401Y427251D01*
X205688Y425324D01*
X206102Y423242D01*
X206064Y423052D01*
Y417383D01*
X206059Y417379D01*
X205341Y416305D01*
X205089Y415036D01*
Y396836D01*
X205341Y395568D01*
X206059Y394493D01*
X207135Y393775D01*
X208403Y393523D01*
X212903D01*
X214171Y393775D01*
X215246Y394493D01*
X215964Y395568D01*
X216216Y396836D01*
Y415036D01*
X215964Y416305D01*
X215246Y417379D01*
X215241Y417383D01*
Y423052D01*
X215210Y423210D01*
X214936Y425983D01*
X214081Y428801D01*
X212693Y431398D01*
X210825Y433675D01*
X208549Y435543D01*
X205951Y436931D01*
X203133Y437786D01*
X200360Y438059D01*
X200203Y438091D01*
X195485D01*
X195303Y439005D01*
X194543Y440143D01*
X193405Y440903D01*
X192063Y441170D01*
X184543D01*
X183200Y440903D01*
X182062Y440143D01*
X181302Y439005D01*
X181222Y438602D01*
X179583D01*
X179503Y439005D01*
X178743Y440143D01*
X178620Y440224D01*
Y443040D01*
X178450Y443895D01*
Y444286D01*
X178300Y444647D01*
X178155Y445381D01*
X177739Y446003D01*
X177537Y446491D01*
X177163Y446864D01*
X177091Y446973D01*
Y459335D01*
X177079Y459396D01*
X176757Y462658D01*
X175788Y465853D01*
X174214Y468797D01*
X172096Y471378D01*
X169515Y473496D01*
X166571Y475070D01*
X163376Y476039D01*
X160115Y476360D01*
X160054Y476372D01*
X126174D01*
Y477784D01*
X125864Y479345D01*
X124980Y480668D01*
X123657Y481552D01*
X122096Y481862D01*
D02*
G37*
G36*
X149403Y418350D02*
X144903D01*
X143635Y418098D01*
X142559Y417379D01*
X141841Y416305D01*
X141589Y415036D01*
Y396836D01*
X141841Y395568D01*
X142559Y394493D01*
X143635Y393775D01*
X144903Y393523D01*
X149403D01*
X150671Y393775D01*
X151746Y394493D01*
X152464Y395568D01*
X152716Y396836D01*
Y415036D01*
X152464Y416305D01*
X151746Y417379D01*
X150671Y418098D01*
X149403Y418350D01*
D02*
G37*
G36*
X48500Y365616D02*
X46542Y365358D01*
X44718Y364602D01*
X43151Y363400D01*
X41949Y361833D01*
X41193Y360009D01*
X40935Y358051D01*
Y353051D01*
X41193Y351093D01*
X41949Y349269D01*
X43151Y347702D01*
X44718Y346500D01*
X46542Y345744D01*
X48500Y345486D01*
X50458Y345744D01*
X52282Y346500D01*
X53849Y347702D01*
X55051Y349269D01*
X55807Y351093D01*
X56065Y353051D01*
Y358051D01*
X55807Y360009D01*
X55051Y361833D01*
X53849Y363400D01*
X52282Y364602D01*
X50458Y365358D01*
X48500Y365616D01*
D02*
G37*
G36*
X225603Y368850D02*
X221103D01*
X219834Y368598D01*
X218759Y367879D01*
X218041Y366805D01*
X217789Y365536D01*
Y347336D01*
X218041Y346068D01*
X218759Y344993D01*
X219834Y344275D01*
X221103Y344023D01*
X225603D01*
X226871Y344275D01*
X227946Y344993D01*
X228664Y346068D01*
X228916Y347336D01*
Y365536D01*
X228664Y366805D01*
X227946Y367879D01*
X226871Y368598D01*
X225603Y368850D01*
D02*
G37*
G36*
X212903D02*
X208403D01*
X207135Y368598D01*
X206059Y367879D01*
X205341Y366805D01*
X205089Y365536D01*
Y347336D01*
X205341Y346068D01*
X206059Y344993D01*
X207135Y344275D01*
X208403Y344023D01*
X212903D01*
X214171Y344275D01*
X215246Y344993D01*
X215964Y346068D01*
X216216Y347336D01*
Y365536D01*
X215964Y366805D01*
X215246Y367879D01*
X214171Y368598D01*
X212903Y368850D01*
D02*
G37*
G36*
X31000Y360610D02*
X12000D01*
X10829Y360377D01*
X9837Y359714D01*
X9174Y358722D01*
X8941Y357551D01*
Y345612D01*
X8933Y345551D01*
X8943Y345475D01*
X8942Y345471D01*
X8949Y345222D01*
X8967Y345143D01*
X8957Y345062D01*
X8977Y344815D01*
X8999Y344736D01*
X8993Y344655D01*
X9026Y344409D01*
X9052Y344332D01*
X9051Y344251D01*
X9096Y344006D01*
X9126Y343931D01*
X9129Y343850D01*
X9187Y343608D01*
X9190Y343603D01*
X9199Y343528D01*
X9229Y343457D01*
X9229Y343453D01*
X9300Y343214D01*
X9337Y343143D01*
X9349Y343062D01*
X9432Y342828D01*
X9474Y342758D01*
X9489Y342678D01*
X9585Y342449D01*
X9630Y342381D01*
X9650Y342302D01*
X9757Y342078D01*
X9805Y342013D01*
X9830Y341935D01*
X9948Y341716D01*
X9951Y341713D01*
X9980Y341643D01*
X10027Y341582D01*
X10028Y341578D01*
X10158Y341366D01*
X10213Y341306D01*
X10246Y341231D01*
X10387Y341026D01*
X10445Y340970D01*
X10480Y340897D01*
X10632Y340700D01*
X10693Y340646D01*
X10733Y340575D01*
X10894Y340386D01*
X10958Y340336D01*
X11001Y340267D01*
X11173Y340087D01*
X11176Y340084D01*
X11223Y340024D01*
X11283Y339977D01*
X11286Y339974D01*
X11466Y339802D01*
X11535Y339759D01*
X11585Y339695D01*
X11774Y339534D01*
X11845Y339494D01*
X11899Y339433D01*
X12096Y339281D01*
X12169Y339246D01*
X12225Y339188D01*
X12430Y339047D01*
X12505Y339015D01*
X12565Y338959D01*
X12777Y338829D01*
X12781Y338828D01*
X12842Y338781D01*
X12912Y338752D01*
X12915Y338750D01*
X13134Y338631D01*
X13211Y338607D01*
X13277Y338558D01*
X13501Y338451D01*
X13580Y338431D01*
X13647Y338386D01*
X13877Y338291D01*
X13957Y338275D01*
X14027Y338233D01*
X14261Y338150D01*
X14342Y338138D01*
X14413Y338101D01*
X14652Y338030D01*
X14656Y338030D01*
X14727Y338000D01*
X14802Y337991D01*
X14806Y337989D01*
X15048Y337931D01*
X15129Y337927D01*
X15205Y337897D01*
X15450Y337852D01*
X15531Y337853D01*
X15608Y337827D01*
X15854Y337794D01*
X15935Y337800D01*
X16013Y337778D01*
X16261Y337758D01*
X16342Y337768D01*
X16421Y337750D01*
X16670Y337743D01*
X16674Y337744D01*
X16750Y337734D01*
X26250D01*
X26326Y337744D01*
X26330Y337743D01*
X26579Y337750D01*
X26658Y337768D01*
X26739Y337758D01*
X26986Y337778D01*
X27065Y337800D01*
X27146Y337794D01*
X27392Y337827D01*
X27469Y337853D01*
X27550Y337852D01*
X27795Y337897D01*
X27870Y337927D01*
X27952Y337931D01*
X28194Y337989D01*
X28198Y337991D01*
X28273Y338000D01*
X28344Y338030D01*
X28348Y338030D01*
X28587Y338101D01*
X28658Y338139D01*
X28738Y338150D01*
X28973Y338233D01*
X29043Y338275D01*
X29123Y338291D01*
X29353Y338386D01*
X29420Y338431D01*
X29499Y338451D01*
X29723Y338558D01*
X29788Y338607D01*
X29866Y338631D01*
X30085Y338750D01*
X30088Y338752D01*
X30158Y338781D01*
X30219Y338828D01*
X30223Y338829D01*
X30435Y338959D01*
X30495Y339015D01*
X30570Y339047D01*
X30775Y339188D01*
X30831Y339246D01*
X30904Y339281D01*
X31101Y339433D01*
X31155Y339494D01*
X31226Y339534D01*
X31415Y339695D01*
X31465Y339759D01*
X31534Y339802D01*
X31714Y339974D01*
X31717Y339977D01*
X31777Y340024D01*
X31824Y340084D01*
X31827Y340087D01*
X31998Y340267D01*
X32042Y340336D01*
X32106Y340386D01*
X32267Y340575D01*
X32307Y340646D01*
X32368Y340700D01*
X32520Y340897D01*
X32555Y340970D01*
X32613Y341026D01*
X32754Y341231D01*
X32787Y341306D01*
X32842Y341366D01*
X32972Y341578D01*
X32973Y341582D01*
X33019Y341643D01*
X33049Y341713D01*
X33052Y341716D01*
X33170Y341935D01*
X33194Y342013D01*
X33243Y342078D01*
X33350Y342302D01*
X33370Y342381D01*
X33415Y342449D01*
X33510Y342678D01*
X33526Y342758D01*
X33568Y342828D01*
X33651Y343062D01*
X33662Y343143D01*
X33700Y343214D01*
X33771Y343453D01*
X33771Y343457D01*
X33800Y343528D01*
X33810Y343603D01*
X33812Y343608D01*
X33870Y343850D01*
X33874Y343931D01*
X33904Y344006D01*
X33949Y344251D01*
X33948Y344332D01*
X33974Y344409D01*
X34007Y344655D01*
X34001Y344736D01*
X34023Y344815D01*
X34043Y345062D01*
X34033Y345143D01*
X34051Y345222D01*
X34058Y345471D01*
X34057Y345476D01*
X34067Y345551D01*
X34059Y345612D01*
Y357551D01*
X33826Y358722D01*
X33163Y359714D01*
X32171Y360377D01*
X31000Y360610D01*
D02*
G37*
G36*
X50178Y339931D02*
X46322D01*
X42539Y339179D01*
X38975Y337703D01*
X35768Y335560D01*
X33041Y332833D01*
X30898Y329626D01*
X29422Y326062D01*
X28670Y322280D01*
Y318423D01*
X29422Y314640D01*
X30898Y311076D01*
X33041Y307869D01*
X35768Y305142D01*
X38975Y302999D01*
X42539Y301523D01*
X46322Y300771D01*
X50178D01*
X53961Y301523D01*
X57525Y302999D01*
X60732Y305142D01*
X63459Y307869D01*
X65602Y311076D01*
X67077Y314640D01*
X67830Y318423D01*
Y322280D01*
X67077Y326062D01*
X65602Y329626D01*
X63459Y332833D01*
X60732Y335560D01*
X57525Y337703D01*
X53961Y339179D01*
X50178Y339931D01*
D02*
G37*
%LPD*%
G36*
X26499Y420294D02*
X26746Y420275D01*
X26993Y420243D01*
X27238Y420197D01*
X27479Y420139D01*
X27718Y420069D01*
X27952Y419986D01*
X28182Y419890D01*
X28406Y419783D01*
X28625Y419665D01*
X28837Y419535D01*
X29042Y419394D01*
X29239Y419243D01*
X29428Y419081D01*
X29609Y418910D01*
X29780Y418729D01*
X29941Y418540D01*
X30093Y418343D01*
X30234Y418138D01*
X30364Y417926D01*
X30482Y417707D01*
X30589Y417483D01*
X30684Y417253D01*
X30768Y417019D01*
X30838Y416780D01*
X30896Y416539D01*
X30942Y416294D01*
X30974Y416048D01*
X30993Y415800D01*
X31000Y415551D01*
Y403551D01*
X12000D01*
Y415551D01*
X12006Y415800D01*
X12026Y416048D01*
X12058Y416294D01*
X12104Y416539D01*
X12162Y416780D01*
X12232Y417019D01*
X12315Y417253D01*
X12411Y417483D01*
X12518Y417707D01*
X12636Y417926D01*
X12766Y418138D01*
X12907Y418343D01*
X13059Y418540D01*
X13220Y418729D01*
X13391Y418910D01*
X13572Y419081D01*
X13761Y419243D01*
X13958Y419394D01*
X14163Y419535D01*
X14375Y419665D01*
X14593Y419783D01*
X14818Y419890D01*
X15048Y419986D01*
X15282Y420069D01*
X15521Y420139D01*
X15762Y420197D01*
X16007Y420243D01*
X16253Y420275D01*
X16501Y420294D01*
X16750Y420301D01*
X26250D01*
X26499Y420294D01*
D02*
G37*
G36*
X100050Y374051D02*
X100289Y374051D01*
X100730Y373868D01*
X101067Y373531D01*
X101250Y373090D01*
X101250Y372851D01*
X101250Y290812D01*
X101250D01*
X101250Y289047D01*
X100561Y285585D01*
X99211Y282325D01*
X97250Y279390D01*
X94754Y276894D01*
X91820Y274933D01*
X88559Y273583D01*
X85097Y272894D01*
X41450D01*
X41450Y272894D01*
X41211Y272894D01*
X40770Y273077D01*
X40433Y273414D01*
X40250Y273855D01*
X40250Y274094D01*
Y283694D01*
X40250Y283933D01*
X40433Y284374D01*
X40770Y284712D01*
X41211Y284894D01*
X41450Y284894D01*
X78644Y284894D01*
X78644Y284894D01*
X79684Y284945D01*
X81723Y285351D01*
X83644Y286146D01*
X85372Y287302D01*
X86843Y288772D01*
X87998Y290500D01*
X88793Y292421D01*
X89199Y294460D01*
X89250Y295500D01*
X89250Y372851D01*
X89250Y373090D01*
X89433Y373531D01*
X89770Y373868D01*
X90211Y374051D01*
X90450Y374051D01*
X100050Y374051D01*
X100050Y374051D01*
D02*
G37*
%LPC*%
G36*
X89250Y372851D02*
Y372851D01*
D01*
Y372851D01*
D02*
G37*
%LPD*%
G36*
X31000Y345551D02*
X30993Y345302D01*
X30974Y345055D01*
X30942Y344808D01*
X30896Y344563D01*
X30838Y344322D01*
X30768Y344083D01*
X30684Y343849D01*
X30589Y343619D01*
X30482Y343395D01*
X30364Y343176D01*
X30234Y342964D01*
X30093Y342759D01*
X29941Y342562D01*
X29780Y342373D01*
X29609Y342192D01*
X29428Y342021D01*
X29239Y341860D01*
X29042Y341708D01*
X28837Y341567D01*
X28625Y341437D01*
X28406Y341319D01*
X28182Y341212D01*
X27952Y341116D01*
X27718Y341034D01*
X27479Y340963D01*
X27238Y340905D01*
X26993Y340859D01*
X26746Y340827D01*
X26499Y340807D01*
X26250Y340801D01*
X16750D01*
X16501Y340807D01*
X16253Y340827D01*
X16007Y340859D01*
X15762Y340905D01*
X15521Y340963D01*
X15282Y341034D01*
X15048Y341116D01*
X14818Y341212D01*
X14593Y341319D01*
X14375Y341437D01*
X14163Y341567D01*
X13958Y341708D01*
X13761Y341860D01*
X13572Y342021D01*
X13391Y342192D01*
X13220Y342373D01*
X13059Y342562D01*
X12907Y342759D01*
X12766Y342964D01*
X12636Y343176D01*
X12518Y343395D01*
X12411Y343619D01*
X12315Y343849D01*
X12232Y344083D01*
X12162Y344322D01*
X12104Y344563D01*
X12058Y344808D01*
X12026Y345055D01*
X12006Y345302D01*
X12000Y345551D01*
Y357551D01*
X31000D01*
Y345551D01*
D02*
G37*
%LPC*%
G36*
X594926Y277169D02*
X592029D01*
X589232Y276419D01*
X586723Y274971D01*
X584675Y272923D01*
X583227Y270415D01*
X582478Y267617D01*
Y264721D01*
X583227Y261923D01*
X584675Y259415D01*
X586723Y257367D01*
X589232Y255919D01*
X592029Y255169D01*
X594926D01*
X597723Y255919D01*
X600232Y257367D01*
X602280Y259415D01*
X603728Y261923D01*
X604478Y264721D01*
Y267617D01*
X603728Y270415D01*
X602280Y272923D01*
X600232Y274971D01*
X597723Y276419D01*
X594926Y277169D01*
D02*
G37*
G36*
X569526D02*
X566629D01*
X563832Y276419D01*
X561323Y274971D01*
X559275Y272923D01*
X557827Y270415D01*
X557078Y267617D01*
Y264721D01*
X557827Y261923D01*
X559275Y259415D01*
X561323Y257367D01*
X563832Y255919D01*
X566629Y255169D01*
X569526D01*
X572323Y255919D01*
X574832Y257367D01*
X576880Y259415D01*
X578328Y261923D01*
X579078Y264721D01*
Y267617D01*
X578328Y270415D01*
X576880Y272923D01*
X574832Y274971D01*
X572323Y276419D01*
X569526Y277169D01*
D02*
G37*
G36*
X569526Y251769D02*
X566629D01*
X563832Y251019D01*
X561324Y249571D01*
X559275Y247523D01*
X557827Y245015D01*
X557078Y242217D01*
Y239321D01*
X557827Y236523D01*
X559275Y234015D01*
X561324Y231967D01*
X563832Y230518D01*
X566629Y229769D01*
X569526D01*
X572323Y230518D01*
X574832Y231967D01*
X576880Y234015D01*
X578328Y236523D01*
X579078Y239321D01*
Y242217D01*
X578328Y245015D01*
X576880Y247523D01*
X574832Y249571D01*
X572323Y251019D01*
X569526Y251769D01*
D02*
G37*
G36*
X123350Y240098D02*
X115650D01*
X114323Y239834D01*
X113199Y239083D01*
X112447Y237958D01*
X112183Y236632D01*
Y229432D01*
X112447Y228105D01*
X113199Y226980D01*
X114323Y226229D01*
X115650Y225965D01*
X120078D01*
X125786Y220257D01*
X125783Y220254D01*
X129362Y217197D01*
X133375Y214738D01*
X137723Y212937D01*
X142299Y211838D01*
X146991Y211469D01*
Y211473D01*
X169136D01*
Y206961D01*
X169389Y205693D01*
X170107Y204618D01*
X171182Y203900D01*
X172450Y203648D01*
X176950D01*
X178218Y203900D01*
X179293Y204618D01*
X180012Y205693D01*
X180264Y206961D01*
Y225161D01*
X180012Y226430D01*
X179293Y227505D01*
X178218Y228223D01*
X176950Y228475D01*
X172450D01*
X171182Y228223D01*
X170107Y227505D01*
X169389Y226430D01*
X169136Y225161D01*
Y220650D01*
X146991D01*
X146784Y220608D01*
X142919Y220989D01*
X139003Y222177D01*
X135395Y224106D01*
X132393Y226569D01*
X132275Y226745D01*
X126817Y232204D01*
Y236632D01*
X126553Y237958D01*
X125801Y239083D01*
X124677Y239834D01*
X123350Y240098D01*
D02*
G37*
G36*
X221595Y149372D02*
X212695D01*
X211505Y149135D01*
X210496Y148461D01*
X209822Y147452D01*
X209585Y146262D01*
Y141862D01*
X209822Y140672D01*
X210496Y139663D01*
X211505Y138989D01*
X212695Y138752D01*
X221595D01*
X222785Y138989D01*
X223794Y139663D01*
X224468Y140672D01*
X224704Y141862D01*
Y146262D01*
X224468Y147452D01*
X223794Y148461D01*
X222785Y149135D01*
X221595Y149372D01*
D02*
G37*
G36*
X448200Y25400D02*
Y25400D01*
Y25400D01*
Y25400D01*
D02*
G37*
%LPD*%
D14*
X633950Y324030D02*
G03*
X630291Y336266I-22288J0D01*
G01*
X623591Y347891D02*
G03*
X630205Y336352I24575J6422D01*
G01*
X622766Y354313D02*
G03*
X623591Y347891I25400J0D01*
G01*
X630205Y373984D02*
G03*
X622766Y356024I17960J-17960D01*
G01*
X650750Y167313D02*
G03*
X658189Y149352I25400J0D01*
G01*
X637310Y151552D02*
G03*
X644750Y169513I-17960J17960D01*
G01*
X650750Y322251D02*
G03*
X643310Y340211I-25400J0D01*
G01*
X634766Y354886D02*
G03*
X639076Y344446I14798J0D01*
G01*
D02*
G03*
X639100Y344422I10488J10440D01*
G01*
X644750Y319766D02*
G03*
X637310Y337726I-25400J0D01*
G01*
X634832Y340205D02*
G03*
X634874Y340163I14732J14681D01*
G01*
X628766Y354886D02*
G03*
X634832Y340205I20798J0D01*
G01*
X647750Y508197D02*
G03*
X643854Y517603I-13303J0D01*
G01*
D02*
G03*
X634447Y521500I-9407J-9407D01*
G01*
X640311Y375100D02*
G03*
X647750Y393061I-17960J17960D01*
G01*
X628766Y354900D02*
G03*
X628766Y354886I20798J-14D01*
G01*
X233529Y521500D02*
G03*
X222152Y516792I0J-16101D01*
G01*
X609600Y58563D02*
G03*
X602160Y76523I-25400J0D01*
G01*
X653750Y508197D02*
G03*
X648108Y521834I-19303J0D01*
G01*
X644561Y370865D02*
G03*
X653750Y393061I-22211J22195D01*
G01*
X644546Y370851D02*
G03*
X644560Y370865I-22196J22210D01*
G01*
X643265Y369569D02*
G03*
X643264Y369515I5108J-55D01*
G01*
X648084Y521858D02*
G03*
X634447Y527500I-13638J-13661D01*
G01*
X639094Y365344D02*
G03*
X634766Y354886I10470J-10458D01*
G01*
X217377Y527500D02*
G03*
X200447Y520487I0J-23942D01*
G01*
X635000Y44476D02*
G03*
X627561Y62437I-25400J0D01*
G01*
X639100Y365350D02*
G03*
X639094Y365344I10464J-10464D01*
G01*
X368123Y492497D02*
G03*
X368127Y492492I5719J5710D01*
G01*
X365760Y498207D02*
G03*
X368123Y492497I8082J0D01*
G01*
X370494Y486778D02*
G03*
X368127Y492492I-8082J0D01*
G01*
X641750Y480582D02*
G03*
X629940Y492392I-11810J0D01*
G01*
X584200Y501670D02*
G03*
X593478Y492392I9278J0D01*
G01*
X479111Y244827D02*
G03*
X483788Y242890I4677J4677D01*
G01*
X149173Y189554D02*
G03*
X154780Y191873I0J7938D01*
G01*
X160399Y194204D02*
G03*
X154792Y191885I0J-7938D01*
G01*
X386684Y229475D02*
G03*
X386690Y229481I-7373J7385D01*
G01*
X379312Y226425D02*
G03*
X386684Y229475I0J10435D01*
G01*
X406986Y212913D02*
G03*
X408940Y208190I6686J0D01*
G01*
X409053Y217903D02*
G03*
X406986Y212913I4990J-4990D01*
G01*
X408940Y208190D02*
G03*
X408945Y208185I4732J4724D01*
G01*
X258071Y488689D02*
G03*
X276031Y481250I17960J17960D01*
G01*
X302871Y494689D02*
G03*
X320831Y487250I17960J17960D01*
G01*
X352368Y487506D02*
G03*
X338489Y493250I-13879J-13898D01*
G01*
X323507Y499453D02*
G03*
X338489Y493250I14982J14991D01*
G01*
X323502Y499458D02*
G03*
X323507Y499453I14987J14987D01*
G01*
X364130Y473709D02*
G03*
X356691Y491669I-25400J0D01*
G01*
X352387Y487488D02*
G03*
X352378Y487497I-13898J-13879D01*
G01*
X358130Y473609D02*
G03*
X352387Y487488I-19641J0D01*
G01*
X352378Y487497D02*
G03*
X352368Y487506I-13888J-13888D01*
G01*
X348129Y483260D02*
G03*
X338489Y487250I-9640J-9651D01*
G01*
X352130Y473609D02*
G03*
X348135Y483255I-13641J0D01*
G01*
D02*
G03*
X348129Y483260I-9646J-9646D01*
G01*
X346130Y470827D02*
G03*
X343081Y478194I-10423J0D01*
G01*
X343078Y478197D02*
G03*
X335708Y481250I-7370J-7370D01*
G01*
X343081Y478194D02*
G03*
X343078Y478197I-7373J-7367D01*
G01*
X471979Y482500D02*
G03*
X489939Y489939I0J25400D01*
G01*
X452579Y488500D02*
G03*
X470540Y495939I0J25400D01*
G01*
X433179Y494500D02*
G03*
X451139Y501940I0J25400D01*
G01*
X422066Y494500D02*
G03*
X404106Y487061I0J-25400D01*
G01*
X396550Y479505D02*
G03*
X389111Y461545I17960J-17960D01*
G01*
X424552Y488500D02*
G03*
X406591Y481060I0J-25400D01*
G01*
X402550Y477020D02*
G03*
X395111Y459059I17960J-17960D01*
G01*
X427037Y482500D02*
G03*
X409076Y475061I0J-25400D01*
G01*
X408550Y474535D02*
G03*
X401111Y456574I17960J-17960D01*
G01*
X384128Y485360D02*
G03*
X377111Y468409I16967J-16951D01*
G01*
X384143Y485375D02*
G03*
X391160Y502326I-16967J16951D01*
G01*
X384136Y485368D02*
G03*
X384143Y485375I-16959J16959D01*
G01*
X384136Y485368D02*
G03*
X384128Y485360I16959J-16959D01*
G01*
X390550Y481990D02*
G03*
X383111Y464030I17960J-17960D01*
G01*
X431807Y291569D02*
G03*
X422150Y287569I0J-13657D01*
G01*
X441461Y295566D02*
G03*
X441464Y295569I-9654J9660D01*
G01*
X431807Y291569D02*
G03*
X441461Y295566I0J13657D01*
G01*
X346130Y268693D02*
G03*
X353570Y250732I25400J0D01*
G01*
X352130Y285692D02*
G03*
X354237Y280606I7192J0D01*
G01*
X358130Y298661D02*
G03*
X361828Y289734I12625J0D01*
G01*
X364130Y312422D02*
G03*
X370623Y296747I22168J0D01*
G01*
X370494Y318710D02*
G03*
X377934Y300750I25400J0D01*
G01*
X377111Y323408D02*
G03*
X384550Y305447I25400J0D01*
G01*
X383111Y328721D02*
G03*
X390550Y310761I25400J0D01*
G01*
X389111Y334035D02*
G03*
X396550Y316074I25400J0D01*
G01*
X395111Y339349D02*
G03*
X402550Y321388I25400J0D01*
G01*
X401111Y344662D02*
G03*
X408550Y326702I25400J0D01*
G01*
X648096Y521846D02*
G03*
X648084Y521858I-13649J-13649D01*
G01*
X648108Y521834D02*
G03*
X648096Y521846I-13661J-13638D01*
G01*
X634310Y378089D02*
G03*
X641750Y396050I-17960J17960D01*
G01*
X628766Y354913D02*
G03*
X628766Y354900I20864J0D01*
G01*
X634870Y369659D02*
G03*
X628766Y354913I14760J-14746D01*
G01*
X634877Y369666D02*
G03*
X634870Y369659I14753J-14753D01*
G01*
X498549Y256908D02*
G03*
X496032Y250830I6080J-6078D01*
G01*
X476608Y236017D02*
G03*
X481741Y233891I5133J5133D01*
G01*
X467337Y256601D02*
G03*
X451730Y263063I-15607J-15615D01*
G01*
X467341Y256597D02*
G03*
X467337Y256601I-15611J-15611D01*
G01*
X462650Y249975D02*
G03*
X449388Y255465I-13261J-13273D01*
G01*
X462655Y249969D02*
G03*
X462650Y249975I-13267J-13267D01*
G01*
X457137Y244174D02*
G03*
X447986Y247965I-9151J-9151D01*
G01*
X441890Y190581D02*
G03*
X428797Y196004I-13094J-13097D01*
G01*
X415701Y201428D02*
G03*
X428797Y196004I13095J13095D01*
G01*
X443081Y201383D02*
G03*
X434870Y204783I-8211J-8214D01*
G01*
X426658Y208185D02*
G03*
X434870Y204783I8212J8212D01*
G01*
X650750Y40040D02*
G03*
X643310Y58000I-25400J0D01*
G01*
X584200Y72649D02*
G03*
X576760Y90609I-25400J0D01*
G01*
X558800Y86735D02*
G03*
X551361Y104696I-25400J0D01*
G01*
X533400Y100543D02*
G03*
X525961Y118504I-25400J0D01*
G01*
X508000Y113951D02*
G03*
X500560Y131911I-25400J0D01*
G01*
X296035Y443555D02*
G03*
X291500Y432600I10966J-10955D01*
G01*
X296040Y443560D02*
G03*
X296035Y443555I10961J-10961D01*
G01*
X154792Y191885D02*
G03*
X154786Y191879I5607J-5619D01*
G01*
X154780Y191873D02*
G03*
X154786Y191879I-5607J5619D01*
G01*
X129031Y223501D02*
G03*
X146991Y216061I17960J17960D01*
G01*
X135492Y256211D02*
G03*
X135488Y256207I14090J-14099D01*
G01*
X222152Y516792D02*
G03*
X222144Y516784I11377J-11393D01*
G01*
X136820Y429887D02*
G03*
X134453Y424171I5716J-5716D01*
G01*
X271565Y286600D02*
G03*
X291500Y306534I0J19935D01*
G01*
X271248Y292600D02*
G03*
X285500Y306852I0J14252D01*
G01*
X211050Y292600D02*
G03*
X200100Y281650I0J-10950D01*
G01*
X220010Y286600D02*
G03*
X212800Y279390I0J-7210D01*
G01*
X285500Y433682D02*
G03*
X276092Y443091I-9408J0D01*
G01*
X210653Y423052D02*
G03*
X200203Y433502I-10450J0D01*
G01*
X172503Y459335D02*
G03*
X160054Y471784I-12449J0D01*
G01*
X192085Y239171D02*
G03*
X187400Y234486I0J-4685D01*
G01*
X233087Y229436D02*
G03*
X223353Y239171I-9735J0D01*
G01*
X496764Y344342D02*
G03*
X496769Y344346I-8722J8731D01*
G01*
X488042Y340731D02*
G03*
X496764Y344342I0J12341D01*
G01*
X507034Y331850D02*
G03*
X504093Y324748I7104J-7102D01*
G01*
X495325Y314992D02*
G03*
X484812Y319347I-10513J-10513D01*
G01*
X458087D02*
G03*
X450988Y316407I0J-10038D01*
G01*
X455739Y326920D02*
G03*
X446263Y322995I0J-13401D01*
G01*
X463853Y329483D02*
G03*
X463859Y329488I-6194J6206D01*
G01*
X457658Y326920D02*
G03*
X463853Y329483I0J8769D01*
G01*
X468419Y401516D02*
X468420Y401516D01*
X630205Y336352D02*
X630291Y336266D01*
X622766Y354313D02*
Y356024D01*
X633950Y303859D02*
Y324030D01*
X658189Y149352D02*
X659350Y148192D01*
X633950D02*
X637310Y151552D01*
X650750Y167313D02*
Y322251D01*
X639100Y344422D02*
X643310Y340211D01*
X644750Y169513D02*
Y319766D01*
X634874Y340163D02*
X637310Y337726D01*
X647750Y393061D02*
Y508197D01*
X634877Y369666D02*
X640311Y375100D01*
X233529Y521500D02*
X634447D01*
X451180Y227503D02*
X602160Y76523D01*
X609600Y25400D02*
Y58563D01*
X653750Y393061D02*
Y508197D01*
X644560Y370865D02*
X644561Y370865D01*
X644546Y370851D02*
X644546Y370851D01*
X643265Y369569D02*
X644546Y370851D01*
X643265Y369569D02*
X643265Y369569D01*
X639100Y365350D02*
X643264Y369515D01*
X630171Y527500D02*
X634447D01*
X217377D02*
X628766D01*
X187960Y508000D02*
X200447Y520487D01*
X635000Y25400D02*
Y44476D01*
X456837Y233160D02*
X627561Y62437D01*
X459135Y271698D02*
X463085Y275648D01*
X466798D01*
X473808Y282658D01*
X650750Y9278D02*
Y40040D01*
X370494Y318710D02*
Y486778D01*
X365760Y498207D02*
Y508000D01*
X390550Y481990D02*
X416560Y508000D01*
X470540Y495939D02*
X482600Y508000D01*
X451139Y501940D02*
X457200Y508000D01*
X489939Y489939D02*
X508000Y508000D01*
X584200Y501670D02*
Y508000D01*
X593478Y492392D02*
X629940D01*
X469214Y268132D02*
X469912D01*
X462494Y238817D02*
X643310Y58000D01*
X483788Y242890D02*
X486268D01*
X354237Y280606D02*
X356343Y278500D01*
X373664Y293706D02*
X384712Y282658D01*
X29609Y393551D02*
X29609Y393551D01*
X121100Y189554D02*
X149173D01*
X386690Y229481D02*
X396026Y238817D01*
X353570Y250732D02*
X377877Y226425D01*
X379312D01*
X409053Y217903D02*
X412997Y221846D01*
X408945Y208185D02*
X415701Y201428D01*
X276031Y481250D02*
X335708D01*
X238760Y508000D02*
X258071Y488689D01*
X320831Y487250D02*
X338489D01*
X289560Y508000D02*
X302871Y494689D01*
X314960Y508000D02*
X323502Y499458D01*
X364130Y312422D02*
Y473709D01*
X340360Y508000D02*
X356691Y491669D01*
X358130Y298661D02*
Y473609D01*
X352130Y285692D02*
Y473609D01*
X346130Y268693D02*
Y470827D01*
X427037Y482500D02*
X471979D01*
X424552Y488500D02*
X452579D01*
X422066Y494500D02*
X433179D01*
X396550Y479505D02*
X404106Y487061D01*
X402550Y477020D02*
X406591Y481060D01*
X408550Y474535D02*
X409076Y475061D01*
X391160Y502326D02*
Y508000D01*
X377111Y323408D02*
Y468409D01*
X383111Y328721D02*
Y464030D01*
X389111Y334035D02*
Y461545D01*
X395111Y339349D02*
Y459059D01*
X401111Y344662D02*
Y456574D01*
X441464Y295569D02*
X451180Y305285D01*
X384712Y250131D02*
X422150Y287569D01*
X361828Y289734D02*
X365526Y286036D01*
X373664Y293706D02*
Y294500D01*
X370623Y296747D02*
X372870Y294500D01*
X373664D02*
X373750D01*
X377934Y300750D02*
X390369Y288314D01*
X384550Y305447D02*
X396026Y293971D01*
X390550Y310761D02*
X401683Y299628D01*
X396550Y316074D02*
X407340Y305285D01*
X402550Y321388D02*
X412997Y310942D01*
X408550Y326702D02*
X418653Y316599D01*
X628766Y527500D02*
X630171Y527500D01*
X630205Y373984D02*
X634310Y378089D01*
X641750Y396050D02*
Y480582D01*
X496032Y223491D02*
Y250830D01*
X498549Y256908D02*
X505006Y263365D01*
X473808Y250131D02*
X479111Y244827D01*
X484748Y233891D02*
X485803Y234947D01*
X468151Y244474D02*
X476608Y236017D01*
X481741Y233891D02*
X484748D01*
X414080Y263063D02*
X451730D01*
X467341Y256597D02*
X473808Y250131D01*
X421679Y255465D02*
X449388D01*
X462655Y249969D02*
X468151Y244474D01*
X429179Y247965D02*
X447986D01*
X457137Y244174D02*
X462494Y238817D01*
X441890Y190581D02*
X500560Y131911D01*
X418653Y216190D02*
X426658Y208185D01*
X443081Y201383D02*
X525961Y118504D01*
X445523Y221846D02*
X576760Y90609D01*
X584200Y25400D02*
Y72649D01*
X439867Y216190D02*
X551361Y104696D01*
X558800Y25400D02*
Y86735D01*
X533400Y25400D02*
Y100543D01*
X508000Y25400D02*
Y113951D01*
X296040Y443560D02*
X304040Y451561D01*
X291500Y306534D02*
Y432600D01*
X160399Y194204D02*
X169471D01*
X146991Y216061D02*
X174700D01*
X119500Y233032D02*
X129031Y223501D01*
X213360Y508000D02*
X222144Y516784D01*
X134453Y405936D02*
Y424171D01*
X136820Y429887D02*
X140547Y433614D01*
X220010Y286600D02*
X271565D01*
X285500Y306852D02*
Y433682D01*
X211050Y292600D02*
X271248D01*
X200100Y265462D02*
Y281650D01*
X212800Y265462D02*
Y279390D01*
X266684Y443091D02*
X276092D01*
X210653Y405936D02*
Y423052D01*
X188303Y433502D02*
X200203D01*
X172503Y443145D02*
Y459335D01*
X111596Y471784D02*
X160054D01*
X505006Y263365D02*
X508627D01*
X498238Y203351D02*
X507205Y212318D01*
X507382D02*
X518110Y201590D01*
X507205Y212318D02*
X507382D01*
X187400Y229801D02*
Y234486D01*
X192085Y239171D02*
X223353D01*
X187400Y216061D02*
Y229801D01*
X233087Y161438D02*
Y229436D01*
X140500Y315500D02*
X140547Y315547D01*
Y324967D01*
X35526Y393551D02*
X48250D01*
X54628Y215072D02*
Y232032D01*
X187400Y265462D02*
X200100D01*
X469586Y340731D02*
X488042D01*
X496769Y344346D02*
X504500Y352077D01*
X504093Y306224D02*
Y324748D01*
X507034Y331850D02*
X515847Y340663D01*
X495325Y314992D02*
X501336Y308982D01*
X458087Y319347D02*
X484812D01*
X445523Y310942D02*
X450988Y316407D01*
X463859Y329488D02*
X472344Y337974D01*
X455739Y326920D02*
X457658D01*
X439867Y316599D02*
X446263Y322995D01*
X172450Y443092D02*
X172503Y443145D01*
X375697Y280359D02*
X379055Y277001D01*
X365760Y286036D02*
X371437Y280359D01*
X375697D01*
X365526Y286036D02*
X365760D01*
X185271Y194204D02*
X185271Y194204D01*
X201900D01*
X200100Y196004D02*
X201900Y194204D01*
X200100Y196004D02*
Y216061D01*
X468322Y435500D02*
X468419Y435597D01*
X459500Y435500D02*
X459597Y435597D01*
X172503Y356386D02*
X172553Y356436D01*
X172503Y324966D02*
Y356386D01*
X172502Y324967D02*
X172503Y324966D01*
X156347Y324967D02*
X172502D01*
X469199Y268148D02*
X469214Y268132D01*
X469912Y268132D02*
X478781Y277001D01*
X479465D01*
X372870Y294500D02*
X373664D01*
X356343Y278500D02*
X356500D01*
Y278343D02*
Y278500D01*
Y278343D02*
X379055Y255788D01*
X384712Y282658D02*
Y282658D01*
X485803Y234947D02*
X486154Y234596D01*
Y233891D02*
Y234596D01*
X479465Y255788D02*
X484427Y260750D01*
X484500D01*
X501336Y308982D02*
X504093Y306224D01*
D20*
X251684Y361590D02*
D03*
X266684D02*
D03*
X251684Y443091D02*
D03*
X266684D02*
D03*
X39628Y215072D02*
D03*
X54628D02*
D03*
X266684Y378551D02*
D03*
X251684D02*
D03*
D21*
X633950Y303859D02*
D03*
Y228929D02*
D03*
D22*
X111596Y471784D02*
D03*
Y516784D02*
D03*
X27596D02*
D03*
Y471784D02*
D03*
D23*
X244634Y65265D02*
D03*
Y112265D02*
D03*
X172903D02*
D03*
Y65265D02*
D03*
D24*
X48250Y253894D02*
D03*
Y278894D02*
D03*
D25*
X524568Y264815D02*
D03*
Y246115D02*
D03*
X544160D02*
D03*
Y264815D02*
D03*
D26*
X507205Y212318D02*
D03*
X496032Y223491D02*
D03*
D27*
X529282Y190418D02*
D03*
X518110Y201590D02*
D03*
X493328Y363250D02*
D03*
X504500Y352077D02*
D03*
X527020Y329491D02*
D03*
X515847Y340663D02*
D03*
X377877Y226425D02*
D03*
X389049Y215253D02*
D03*
D28*
X266196Y328848D02*
D03*
X250396Y328848D02*
D03*
X266196Y411291D02*
D03*
X250396Y411291D02*
D03*
X156347Y433614D02*
D03*
X140547D02*
D03*
X140547Y324967D02*
D03*
X156347Y324967D02*
D03*
X39600Y232032D02*
D03*
X55400D02*
D03*
X217700Y194204D02*
D03*
X201900Y194204D02*
D03*
X185271Y194204D02*
D03*
X169471Y194204D02*
D03*
X266196Y345152D02*
D03*
X250396Y345152D02*
D03*
X266196Y395151D02*
D03*
X250396D02*
D03*
X266196Y426672D02*
D03*
X250396Y426672D02*
D03*
D29*
X48250Y393551D02*
D03*
Y387051D02*
D03*
X48250Y380551D02*
D03*
X48250Y374051D02*
D03*
Y367551D02*
D03*
D30*
X172503Y433502D02*
D03*
X188303D02*
D03*
X172503Y324966D02*
D03*
X188303D02*
D03*
D31*
X134453Y405936D02*
D03*
X147153Y405936D02*
D03*
X159853Y405936D02*
D03*
X172553D02*
D03*
X185253D02*
D03*
X197953D02*
D03*
X210653Y405936D02*
D03*
X223353Y405936D02*
D03*
X223353Y356436D02*
D03*
X210653D02*
D03*
X197953D02*
D03*
X185253D02*
D03*
X172553D02*
D03*
X159853D02*
D03*
X147153D02*
D03*
X134453D02*
D03*
X174700Y265462D02*
D03*
X187400Y265462D02*
D03*
X200100D02*
D03*
X212800Y265462D02*
D03*
X212800Y216061D02*
D03*
X200100D02*
D03*
X187400D02*
D03*
X174700Y216061D02*
D03*
D32*
X119500Y233032D02*
D03*
X94500Y242532D02*
D03*
X119500Y252032D02*
D03*
D33*
X36000Y166654D02*
D03*
D34*
X96000Y189554D02*
D03*
Y166654D02*
D03*
Y143754D02*
D03*
D35*
X120469Y162554D02*
D03*
Y146754D02*
D03*
X233087Y161438D02*
D03*
Y145638D02*
D03*
X507377Y263365D02*
D03*
X507377Y247565D02*
D03*
X158552Y232632D02*
D03*
Y248432D02*
D03*
D36*
X217145Y163062D02*
D03*
Y144062D02*
D03*
X190145D02*
D03*
Y153562D02*
D03*
X190145Y163062D02*
D03*
D37*
X472344Y337974D02*
D03*
X501336Y308982D02*
D03*
D38*
X479465Y255788D02*
D03*
X473808Y250131D02*
D03*
X468151Y244474D02*
D03*
X462494Y238817D02*
D03*
X456837Y233160D02*
D03*
X451180Y227503D02*
D03*
X445523Y221846D02*
D03*
X439867Y216190D02*
D03*
X379055Y277001D02*
D03*
X384712Y282658D02*
D03*
X390369Y288314D02*
D03*
X396026Y293971D02*
D03*
X401683Y299628D02*
D03*
X407340Y305285D02*
D03*
X412997Y310942D02*
D03*
X418653Y316599D02*
D03*
D39*
Y216190D02*
D03*
X412997Y221846D02*
D03*
X407340Y227503D02*
D03*
X401683Y233160D02*
D03*
X396026Y238817D02*
D03*
X390369Y244474D02*
D03*
X384712Y250131D02*
D03*
X379055Y255788D02*
D03*
X439867Y316599D02*
D03*
X445523Y310942D02*
D03*
X451180Y305285D02*
D03*
X456837Y299628D02*
D03*
X462494Y293971D02*
D03*
X468151Y288314D02*
D03*
X473808Y282658D02*
D03*
X479465Y277001D02*
D03*
D40*
X468419Y435597D02*
D03*
Y420597D02*
D03*
X603249Y435597D02*
D03*
Y420597D02*
D03*
X513362Y435597D02*
D03*
Y420597D02*
D03*
X535834Y435597D02*
D03*
Y420597D02*
D03*
X558306Y435597D02*
D03*
Y420597D02*
D03*
X580778Y435597D02*
D03*
Y420597D02*
D03*
X490891Y435597D02*
D03*
Y420597D02*
D03*
X625721Y435597D02*
D03*
Y420597D02*
D03*
D41*
X468420Y401516D02*
D03*
Y385716D02*
D03*
X625722Y401516D02*
D03*
Y385716D02*
D03*
X490891Y401516D02*
D03*
Y385716D02*
D03*
X513363Y401516D02*
D03*
Y385716D02*
D03*
X580778Y401516D02*
D03*
Y385716D02*
D03*
X603250Y401516D02*
D03*
Y385716D02*
D03*
X558306Y401516D02*
D03*
Y385716D02*
D03*
X535835Y401516D02*
D03*
Y385716D02*
D03*
D42*
X229000Y21250D02*
D03*
X186500D02*
D03*
D74*
X21500Y345551D02*
D03*
Y415551D02*
D03*
D77*
X504093Y306224D02*
D03*
X469586Y340731D02*
D03*
D80*
X278000Y356386D02*
G03*
X272796Y361590I-5204J0D01*
G01*
X269796Y311250D02*
G03*
X278000Y319454I0J8204D01*
G01*
X188263Y311250D02*
G03*
X164971Y287958I0J-23292D01*
G01*
X157277Y262045D02*
G03*
X164971Y269739I0J7695D01*
G01*
X149582Y262045D02*
G03*
X135492Y256211I0J-19932D01*
G01*
X125406Y252032D02*
G03*
X135488Y256207I0J14259D01*
G01*
X259244Y87530D02*
G03*
X266684Y105491I-17960J17960D01*
G01*
Y223032D02*
G03*
X241284Y248432I-25400J0D01*
G01*
X593478Y299815D02*
G03*
X585232Y308060I-8246J0D01*
G01*
X553995D02*
G03*
X544160Y298225I0J-9835D01*
G01*
X250396Y395151D02*
X251684Y393863D01*
Y378551D02*
Y393863D01*
X251684Y427959D02*
Y443091D01*
X250396Y426672D02*
X251684Y427959D01*
X278000Y319454D02*
Y356386D01*
X266684Y361590D02*
X272796D01*
X625721Y401516D02*
Y420597D01*
X603249Y401516D02*
Y420597D01*
X580778Y401516D02*
Y420597D01*
X558306Y401516D02*
Y420597D01*
X535834Y401516D02*
Y420597D01*
X513362Y401516D02*
Y420597D01*
X490891Y401516D02*
Y420597D01*
X468419Y401516D02*
Y420597D01*
X251483Y311250D02*
X269796D01*
X188263D02*
X251483D01*
X149582Y262045D02*
X157277D01*
X119500Y252032D02*
X125406D01*
X427053Y385716D02*
X468420D01*
X164971Y269739D02*
Y287958D01*
X266684Y105491D02*
Y223032D01*
X244634Y72920D02*
X259244Y87530D01*
X174700Y248432D02*
X241284D01*
X593478Y291569D02*
Y299815D01*
X553995Y308060D02*
X585232D01*
X544160Y264815D02*
Y298225D01*
X174700Y248432D02*
Y265462D01*
X158552Y248432D02*
X174700D01*
X266684Y361590D02*
Y378551D01*
X250396Y345152D02*
X251684Y346440D01*
Y361590D01*
X603250Y385716D02*
X625722D01*
X580778D02*
X603250D01*
X558306D02*
X580778D01*
X535835D02*
X558306D01*
X513363D02*
X535835D01*
X490891D02*
X513363D01*
X468420D02*
X490891D01*
D81*
X608550Y182701D02*
G03*
X587900Y203351I-20650J0D01*
G01*
X544160Y227857D02*
G03*
X568665Y203351I24506J0D01*
G01*
X608550Y148192D02*
Y182701D01*
X568665Y203351D02*
X587900D01*
X544160Y227857D02*
Y246115D01*
D82*
X194595Y379210D02*
G03*
X188787Y385017I-5808J0D01*
G01*
X197953Y367669D02*
G03*
X196278Y371718I-5732J0D01*
G01*
X196269Y371727D02*
G03*
X196274Y371723I4058J4049D01*
G01*
X194595Y375776D02*
G03*
X196269Y371727I5732J0D01*
G01*
X189095Y376475D02*
G03*
X186052Y379517I-3043J0D01*
G01*
X188022Y372359D02*
G03*
X189095Y374953I-2601J2594D01*
G01*
X188019Y372356D02*
G03*
X188022Y372359I-2597J2597D01*
G01*
X187169Y371506D02*
G03*
X185253Y366873I4643J-4633D01*
G01*
X187174Y371511D02*
G03*
X187169Y371506I4638J-4638D01*
G01*
X196278Y371718D02*
G03*
X196274Y371723I-4058J-4049D01*
G01*
X99383Y388918D02*
G03*
X108809Y385017I9426J9439D01*
G01*
X99377Y388924D02*
G03*
X99383Y388918I9433J9433D01*
G01*
X82020Y386281D02*
G03*
X98353Y379517I16333J16340D01*
G01*
X82017Y386284D02*
G03*
X82020Y386281I16337J16337D01*
G01*
X55974Y387051D02*
G03*
X59974Y391051I0J4000D01*
G01*
X59652Y380551D02*
G03*
X65474Y386373I0J5822D01*
G01*
X95250Y402171D02*
G03*
X85984Y411436I-9266J0D01*
G01*
X67752D02*
G03*
X59974Y403658I0J-7778D01*
G01*
X75250D02*
G03*
X72972Y405936I-2278J0D01*
G01*
X65474Y403669D02*
G03*
X65474Y403658I2278J-11D01*
G01*
X67752Y405936D02*
G03*
X65474Y403669I0J-2278D01*
G01*
X108809Y385017D02*
X158869D01*
X188787D01*
X194595Y375776D02*
Y379210D01*
X189095Y374953D02*
Y376475D01*
X187174Y371511D02*
X188019Y372356D01*
X98353Y379517D02*
X186052D01*
X185253Y356436D02*
Y366873D01*
X197953Y356436D02*
Y367669D01*
X95250Y393051D02*
Y402171D01*
Y393051D02*
X99377Y388924D01*
X75250Y393051D02*
X82017Y386284D01*
X59974Y391051D02*
Y403658D01*
X48250Y387051D02*
X55974D01*
X48250Y380551D02*
X59652D01*
X65474Y386373D02*
Y403658D01*
X67752Y411436D02*
X85984D01*
X75250Y393051D02*
Y403658D01*
X67752Y405936D02*
X72972D01*
D83*
X29609Y393551D02*
X35526D01*
X266196Y337000D02*
Y345152D01*
X266196Y403221D02*
Y411291D01*
Y395151D02*
Y403221D01*
X242848Y161438D02*
X248946D01*
X233087D02*
X242848D01*
X156347Y433614D02*
Y443152D01*
X172503Y433502D02*
Y443040D01*
X172450Y443092D02*
X172503Y443040D01*
X159853Y356436D02*
Y370044D01*
X147153Y356436D02*
Y370044D01*
X617899Y435597D02*
X625721D01*
X595428D02*
X603249D01*
X572956D02*
X580778D01*
X550484D02*
X558306D01*
X528013D02*
X535834D01*
X505541D02*
X513362D01*
X483069D02*
X490891D01*
X460500Y435500D02*
X468322D01*
X242848Y411291D02*
X250396D01*
X266196Y328848D02*
Y345152D01*
X242848Y328848D02*
X250396D01*
D84*
X48250Y320351D02*
D03*
Y440751D02*
D03*
D85*
X75250Y368051D02*
D03*
Y393051D02*
D03*
X95250D02*
D03*
D86*
Y368051D02*
D03*
D87*
X583150Y148192D02*
D03*
X187960Y508000D02*
D03*
X457200D02*
D03*
X279400Y25400D02*
D03*
X508000D02*
D03*
D88*
X608550Y148192D02*
D03*
X633950D02*
D03*
X659350D02*
D03*
X213360Y508000D02*
D03*
X238760D02*
D03*
X264160D02*
D03*
X289560D02*
D03*
X314960D02*
D03*
X340360D02*
D03*
X365760D02*
D03*
X391160D02*
D03*
X416560D02*
D03*
X482600D02*
D03*
X508000D02*
D03*
X533400D02*
D03*
X558800D02*
D03*
X584200D02*
D03*
X609600D02*
D03*
X304800Y25400D02*
D03*
X330200D02*
D03*
X355600D02*
D03*
X381000D02*
D03*
X406400D02*
D03*
X431800D02*
D03*
X457200D02*
D03*
X635000D02*
D03*
X609600D02*
D03*
X584200D02*
D03*
X558800D02*
D03*
X533400D02*
D03*
D89*
X412997Y385905D02*
D03*
D90*
Y435905D02*
D03*
D91*
X593478Y291569D02*
D03*
Y266169D02*
D03*
Y240769D02*
D03*
X568078D02*
D03*
X568078Y266169D02*
D03*
X568078Y291569D02*
D03*
X635000Y508000D02*
D03*
D92*
X48500Y405551D02*
D03*
Y355551D02*
D03*
D93*
X304040Y375360D02*
D03*
X329440D02*
D03*
Y451561D02*
D03*
X304040D02*
D03*
D94*
X85000Y29000D02*
D03*
D95*
X113000Y77000D02*
D03*
X53000Y77000D02*
D03*
D96*
X75980Y45974D02*
D03*
X81980D02*
D03*
X87980D02*
D03*
X93980D02*
D03*
X437642Y508197D02*
D03*
X337820Y391668D02*
D03*
X316484Y391160D02*
D03*
X525961Y226190D02*
D03*
Y220190D02*
D03*
Y214190D02*
D03*
X408438Y68500D02*
D03*
X402437D02*
D03*
X396437D02*
D03*
X390437D02*
D03*
X408550Y62437D02*
D03*
X402550D02*
D03*
X396550D02*
D03*
X390550D02*
D03*
X317500Y317631D02*
D03*
X535250Y184750D02*
D03*
X412840Y335484D02*
D03*
Y341484D02*
D03*
Y347484D02*
D03*
X198653Y491669D02*
D03*
X204653D02*
D03*
X59652Y469580D02*
D03*
X65652D02*
D03*
X71652D02*
D03*
X77652D02*
D03*
X108500Y205000D02*
D03*
X102500D02*
D03*
X96500D02*
D03*
X90500D02*
D03*
X218100Y337000D02*
D03*
X212100D02*
D03*
X206100D02*
D03*
X200100D02*
D03*
X225000Y380551D02*
D03*
X219000D02*
D03*
X213000D02*
D03*
X207000D02*
D03*
X125406Y415750D02*
D03*
Y409750D02*
D03*
Y403750D02*
D03*
Y397750D02*
D03*
X313750Y355250D02*
D03*
X319750D02*
D03*
X317500Y311631D02*
D03*
X323960D02*
D03*
Y317631D02*
D03*
X540512Y341884D02*
D03*
X544755Y346127D02*
D03*
X594022Y333022D02*
D03*
X598265Y337265D02*
D03*
X602507Y341507D02*
D03*
X606750Y345750D02*
D03*
X224983Y62437D02*
D03*
X318250Y41250D02*
D03*
X478447Y21500D02*
D03*
X484447D02*
D03*
X478334Y27563D02*
D03*
X484334D02*
D03*
X418653Y33500D02*
D03*
X418814Y19250D02*
D03*
X345911Y108491D02*
D03*
Y102491D02*
D03*
Y96491D02*
D03*
Y90491D02*
D03*
X246250Y267500D02*
D03*
X240250D02*
D03*
X234250D02*
D03*
X228250D02*
D03*
X271560Y492380D02*
D03*
X277560D02*
D03*
X25750Y87000D02*
D03*
Y81000D02*
D03*
Y75000D02*
D03*
Y69000D02*
D03*
X77652Y516784D02*
D03*
X71652D02*
D03*
X65652D02*
D03*
X59652D02*
D03*
X62500Y354250D02*
D03*
Y360250D02*
D03*
Y366250D02*
D03*
Y372250D02*
D03*
X17596Y367669D02*
D03*
X23596D02*
D03*
X29596D02*
D03*
X35596D02*
D03*
X207000Y324750D02*
D03*
X200100Y324967D02*
D03*
X416069Y292557D02*
D03*
X420311Y296800D02*
D03*
X424554Y301042D02*
D03*
X428797Y305285D02*
D03*
X373956Y211978D02*
D03*
X378199Y207735D02*
D03*
X382442Y203493D02*
D03*
X386684Y199250D02*
D03*
X427053Y227503D02*
D03*
X422150Y232940D02*
D03*
X416560Y238817D02*
D03*
X375697Y239421D02*
D03*
X662000Y384750D02*
D03*
X244634Y300750D02*
D03*
X187400Y286036D02*
D03*
X161500Y7750D02*
D03*
X254250Y39500D02*
D03*
Y33500D02*
D03*
Y27500D02*
D03*
Y21500D02*
D03*
X591566Y162306D02*
D03*
X585566D02*
D03*
X579566D02*
D03*
X573566D02*
D03*
X572250Y220500D02*
D03*
X578250D02*
D03*
X584250D02*
D03*
X590250D02*
D03*
X459597Y348863D02*
D03*
X479465Y309903D02*
D03*
X535835Y337265D02*
D03*
X531592Y341507D02*
D03*
X527349Y345750D02*
D03*
X437642Y401924D02*
D03*
Y407924D02*
D03*
Y413924D02*
D03*
Y419924D02*
D03*
X309750Y415000D02*
D03*
X315750D02*
D03*
X321750D02*
D03*
X327750D02*
D03*
X125406Y364440D02*
D03*
Y358439D02*
D03*
Y352439D02*
D03*
Y346440D02*
D03*
X27500Y241500D02*
D03*
Y235500D02*
D03*
Y229500D02*
D03*
X144000Y247801D02*
D03*
Y241801D02*
D03*
Y235801D02*
D03*
Y229801D02*
D03*
X223353Y226185D02*
D03*
Y220185D02*
D03*
Y214185D02*
D03*
Y208185D02*
D03*
X278634Y123491D02*
D03*
Y117491D02*
D03*
Y111491D02*
D03*
Y105491D02*
D03*
X256500Y123750D02*
D03*
Y117750D02*
D03*
Y111750D02*
D03*
Y105750D02*
D03*
X230500Y123750D02*
D03*
Y117750D02*
D03*
Y111750D02*
D03*
Y105750D02*
D03*
X197953Y123491D02*
D03*
Y117491D02*
D03*
Y111491D02*
D03*
Y105491D02*
D03*
X159853Y123491D02*
D03*
Y117491D02*
D03*
Y111491D02*
D03*
Y105491D02*
D03*
X203500Y162500D02*
D03*
Y156500D02*
D03*
Y150500D02*
D03*
Y144500D02*
D03*
X108250Y153250D02*
D03*
X102250D02*
D03*
X96250D02*
D03*
X90250D02*
D03*
X108250Y133500D02*
D03*
X102250D02*
D03*
X96250D02*
D03*
X90250D02*
D03*
X276781Y388918D02*
D03*
Y403221D02*
D03*
Y426672D02*
D03*
X271565Y456574D02*
D03*
X264938D02*
D03*
X258311D02*
D03*
X251684D02*
D03*
X412997Y420597D02*
D03*
Y411291D02*
D03*
Y401516D02*
D03*
X441811Y275751D02*
D03*
X437922Y280943D02*
D03*
X446710Y280044D02*
D03*
X442748Y284956D02*
D03*
X451730Y283907D02*
D03*
X447986Y289734D02*
D03*
X661766Y44476D02*
D03*
X459135Y271698D02*
D03*
X251483Y311250D02*
D03*
X266196Y337000D02*
D03*
X156295Y443204D02*
D03*
X266196Y403221D02*
D03*
X248946Y161438D02*
D03*
X242848D02*
D03*
X140500Y315500D02*
D03*
X187400Y229801D02*
D03*
X650750Y9278D02*
D03*
X109204Y189554D02*
D03*
X121100D02*
D03*
X115152D02*
D03*
X184400Y65265D02*
D03*
Y59317D02*
D03*
Y71213D02*
D03*
X29609Y393551D02*
D03*
X35526D02*
D03*
X172450Y443092D02*
D03*
X159853Y370044D02*
D03*
X147153D02*
D03*
X365760Y286036D02*
D03*
X617899Y435597D02*
D03*
X595428D02*
D03*
X572956D02*
D03*
X550484D02*
D03*
X528013D02*
D03*
X505541D02*
D03*
X483069D02*
D03*
X460500Y435500D02*
D03*
X242848Y411291D02*
D03*
X242848Y328848D02*
D03*
X429179Y247965D02*
D03*
X421679Y255465D02*
D03*
X414080Y263063D02*
D03*
X469199Y268148D02*
D03*
X373914Y293913D02*
D03*
X356500Y278500D02*
D03*
X486268Y242890D02*
D03*
X486154Y233891D02*
D03*
X484500Y260750D02*
D03*
D97*
X427053Y385716D02*
D03*
M02*
